<?xml version="1.0" encoding="us-ascii" standalone="no"?><svg xmlns="http://www.w3.org/2000/svg" xmlns:xlink="http://www.w3.org/1999/xlink" contentStyleType="text/css" height="1256px" preserveAspectRatio="none" style="width:926px;height:1256px;background:#FFFFFF;" version="1.1" viewBox="0 0 926 1256" width="926px" zoomAndPan="magnify"><defs/><g><text fill="#000000" font-family="sans-serif" font-size="14" font-weight="bold" lengthAdjust="spacing" textLength="292" x="309" y="24.5332">Vue de D&#233;veloppement - Magasin Central</text><!--cluster WebMVC--><g id="cluster_WebMVC"><path d="M16.5,419.6094 L188.5,419.6094 A3.75,3.75 0 0 1 191,422.1094 L198,443.2188 L558.5,443.2188 A2.5,2.5 0 0 1 561,445.7188 L561,745.1094 A2.5,2.5 0 0 1 558.5,747.6094 L16.5,747.6094 A2.5,2.5 0 0 1 14,745.1094 L14,422.1094 A2.5,2.5 0 0 1 16.5,419.6094 " fill="none" style="stroke:#000000;stroke-width:1.5;"/><line style="stroke:#000000;stroke-width:1.5;" x1="14" x2="198" y1="443.2188" y2="443.2188"/><text fill="#000000" font-family="sans-serif" font-size="14" font-weight="bold" lengthAdjust="spacing" textLength="171" x="18" y="436.1426">Web MVC (Pr&#233;sentation)</text><text fill="#000000" font-family="sans-serif" font-size="14" font-style="italic" lengthAdjust="spacing" textLength="52" x="265.5" y="459.752">&#171;Layer&#187;</text></g><!--cluster Services--><g id="cluster_Services"><path d="M315,755.6094 L552,755.6094 A3.75,3.75 0 0 1 554.5,758.1094 L561.5,779.2188 L806,779.2188 A2.5,2.5 0 0 1 808.5,781.7188 L808.5,1247.1094 A2.5,2.5 0 0 1 806,1249.6094 L315,1249.6094 A2.5,2.5 0 0 1 312.5,1247.1094 L312.5,758.1094 A2.5,2.5 0 0 1 315,755.6094 " fill="none" style="stroke:#000000;stroke-width:1.5;"/><line style="stroke:#000000;stroke-width:1.5;" x1="312.5" x2="561.5" y1="779.2188" y2="779.2188"/><text fill="#000000" font-family="sans-serif" font-size="14" font-weight="bold" lengthAdjust="spacing" textLength="236" x="316.5" y="772.1426">MagasinCentral.Services (M&#233;tier)</text><text fill="#000000" font-family="sans-serif" font-size="14" font-style="italic" lengthAdjust="spacing" textLength="52" x="538.5" y="795.752">&#171;Layer&#187;</text></g><!--cluster Contexte--><g id="cluster_Contexte"><path d="M47,291.6094 L291,291.6094 A3.75,3.75 0 0 1 293.5,294.1094 L300.5,315.2188 L518,315.2188 A2.5,2.5 0 0 1 520.5,317.7188 L520.5,409.1094 A2.5,2.5 0 0 1 518,411.6094 L47,411.6094 A2.5,2.5 0 0 1 44.5,409.1094 L44.5,294.1094 A2.5,2.5 0 0 1 47,291.6094 " fill="none" style="stroke:#000000;stroke-width:1.5;"/><line style="stroke:#000000;stroke-width:1.5;" x1="44.5" x2="300.5" y1="315.2188" y2="315.2188"/><text fill="#000000" font-family="sans-serif" font-size="14" font-weight="bold" lengthAdjust="spacing" textLength="243" x="48.5" y="308.1426">MagasinCentral.Data (Persistence)</text><text fill="#000000" font-family="sans-serif" font-size="14" font-style="italic" lengthAdjust="spacing" textLength="52" x="260.5" y="331.752">&#171;Layer&#187;</text></g><!--cluster Models--><g id="cluster_Models"><path d="M666.5,42.6094 L899.5,42.6094 A3.75,3.75 0 0 1 902,45.1094 L909,66.2188 L916.5,66.2188 A2.5,2.5 0 0 1 919,68.7188 L919,741.1094 A2.5,2.5 0 0 1 916.5,743.6094 L666.5,743.6094 A2.5,2.5 0 0 1 664,741.1094 L664,45.1094 A2.5,2.5 0 0 1 666.5,42.6094 " fill="none" style="stroke:#000000;stroke-width:1.5;"/><line style="stroke:#000000;stroke-width:1.5;" x1="664" x2="909" y1="66.2188" y2="66.2188"/><text fill="#000000" font-family="sans-serif" font-size="14" font-weight="bold" lengthAdjust="spacing" textLength="232" x="668" y="59.1426">MagasinCentral.Models (Domain)</text><text fill="#000000" font-family="sans-serif" font-size="14" font-style="italic" lengthAdjust="spacing" textLength="52" x="769.5" y="82.752">&#171;Layer&#187;</text></g><!--entity ProduitController--><g id="elem_ProduitController"><rect fill="#F1F1F1" height="65.2188" rx="2.5" ry="2.5" style="stroke:#181818;stroke-width:0.5;" width="147" x="43.5" y="632.1094"/><rect fill="#F1F1F1" height="10" style="stroke:#181818;stroke-width:0.5;" width="15" x="170.5" y="637.1094"/><rect fill="#F1F1F1" height="2" style="stroke:#181818;stroke-width:0.5;" width="4" x="168.5" y="639.1094"/><rect fill="#F1F1F1" height="2" style="stroke:#181818;stroke-width:0.5;" width="4" x="168.5" y="643.1094"/><text fill="#000000" font-family="sans-serif" font-size="14" font-style="italic" lengthAdjust="spacing" textLength="89" x="67.5" y="666.6426">&#171;Component&#187;</text><text fill="#000000" font-family="sans-serif" font-size="14" lengthAdjust="spacing" textLength="107" x="58.5" y="684.252">ProduitController</text></g><!--entity RapportController--><g id="elem_RapportController"><rect fill="#F1F1F1" height="65.2188" rx="2.5" ry="2.5" style="stroke:#181818;stroke-width:0.5;" width="153" x="40.5" y="549.1094"/><rect fill="#F1F1F1" height="10" style="stroke:#181818;stroke-width:0.5;" width="15" x="173.5" y="554.1094"/><rect fill="#F1F1F1" height="2" style="stroke:#181818;stroke-width:0.5;" width="4" x="171.5" y="556.1094"/><rect fill="#F1F1F1" height="2" style="stroke:#181818;stroke-width:0.5;" width="4" x="171.5" y="560.1094"/><text fill="#000000" font-family="sans-serif" font-size="14" font-style="italic" lengthAdjust="spacing" textLength="89" x="67.5" y="583.6426">&#171;Component&#187;</text><text fill="#000000" font-family="sans-serif" font-size="14" lengthAdjust="spacing" textLength="113" x="55.5" y="601.252">RapportController</text></g><!--entity PerformancesController--><g id="elem_PerformancesController"><rect fill="#F1F1F1" height="65.2188" rx="2.5" ry="2.5" style="stroke:#181818;stroke-width:0.5;" width="190" x="22" y="466.1094"/><rect fill="#F1F1F1" height="10" style="stroke:#181818;stroke-width:0.5;" width="15" x="192" y="471.1094"/><rect fill="#F1F1F1" height="2" style="stroke:#181818;stroke-width:0.5;" width="4" x="190" y="473.1094"/><rect fill="#F1F1F1" height="2" style="stroke:#181818;stroke-width:0.5;" width="4" x="190" y="477.1094"/><text fill="#000000" font-family="sans-serif" font-size="14" font-style="italic" lengthAdjust="spacing" textLength="89" x="67.5" y="500.6426">&#171;Component&#187;</text><text fill="#000000" font-family="sans-serif" font-size="14" lengthAdjust="spacing" textLength="150" x="37" y="518.252">PerformancesController</text></g><!--entity ReapprovisionnementController--><g id="elem_ReapprovisionnementController"><rect fill="#F1F1F1" height="65.2188" rx="2.5" ry="2.5" style="stroke:#181818;stroke-width:0.5;" width="240" x="313" y="632.1094"/><rect fill="#F1F1F1" height="10" style="stroke:#181818;stroke-width:0.5;" width="15" x="533" y="637.1094"/><rect fill="#F1F1F1" height="2" style="stroke:#181818;stroke-width:0.5;" width="4" x="531" y="639.1094"/><rect fill="#F1F1F1" height="2" style="stroke:#181818;stroke-width:0.5;" width="4" x="531" y="643.1094"/><text fill="#000000" font-family="sans-serif" font-size="14" font-style="italic" lengthAdjust="spacing" textLength="89" x="383.5" y="666.6426">&#171;Component&#187;</text><text fill="#000000" font-family="sans-serif" font-size="14" lengthAdjust="spacing" textLength="200" x="328" y="684.252">ReapprovisionnementController</text></g><!--entity TraiterDemandesController--><g id="elem_TraiterDemandesController"><rect fill="#F1F1F1" height="65.2188" rx="2.5" ry="2.5" style="stroke:#181818;stroke-width:0.5;" width="212" x="327" y="549.1094"/><rect fill="#F1F1F1" height="10" style="stroke:#181818;stroke-width:0.5;" width="15" x="519" y="554.1094"/><rect fill="#F1F1F1" height="2" style="stroke:#181818;stroke-width:0.5;" width="4" x="517" y="556.1094"/><rect fill="#F1F1F1" height="2" style="stroke:#181818;stroke-width:0.5;" width="4" x="517" y="560.1094"/><text fill="#000000" font-family="sans-serif" font-size="14" font-style="italic" lengthAdjust="spacing" textLength="89" x="383.5" y="583.6426">&#171;Component&#187;</text><text fill="#000000" font-family="sans-serif" font-size="14" lengthAdjust="spacing" textLength="172" x="342" y="601.252">TraiterDemandesController</text></g><!--entity VenteController--><g id="elem_VenteController"><rect fill="#F1F1F1" height="65.2188" rx="2.5" ry="2.5" style="stroke:#181818;stroke-width:0.5;" width="139" x="363.5" y="466.1094"/><rect fill="#F1F1F1" height="10" style="stroke:#181818;stroke-width:0.5;" width="15" x="482.5" y="471.1094"/><rect fill="#F1F1F1" height="2" style="stroke:#181818;stroke-width:0.5;" width="4" x="480.5" y="473.1094"/><rect fill="#F1F1F1" height="2" style="stroke:#181818;stroke-width:0.5;" width="4" x="480.5" y="477.1094"/><text fill="#000000" font-family="sans-serif" font-size="14" font-style="italic" lengthAdjust="spacing" textLength="89" x="383.5" y="500.6426">&#171;Component&#187;</text><text fill="#000000" font-family="sans-serif" font-size="14" lengthAdjust="spacing" textLength="99" x="378.5" y="518.252">VenteController</text></g><!--entity IProduitService--><g id="elem_IProduitService"><ellipse cx="791.5" cy="831.6094" fill="#F1F1F1" rx="8" ry="8" style="stroke:#181818;stroke-width:0.5;"/><text fill="#000000" font-family="sans-serif" font-size="14" lengthAdjust="spacing" textLength="95" x="744" y="863.1426">IProduitService</text></g><!--entity IRapportService--><g id="elem_IRapportService"><ellipse cx="791.5" cy="914.6094" fill="#F1F1F1" rx="8" ry="8" style="stroke:#181818;stroke-width:0.5;"/><text fill="#000000" font-family="sans-serif" font-size="14" lengthAdjust="spacing" textLength="101" x="741" y="946.1426">IRapportService</text></g><!--entity IPerformancesService--><g id="elem_IPerformancesService"><ellipse cx="791.5" cy="997.6094" fill="#F1F1F1" rx="8" ry="8" style="stroke:#181818;stroke-width:0.5;"/><text fill="#000000" font-family="sans-serif" font-size="14" lengthAdjust="spacing" textLength="138" x="722.5" y="1029.1426">IPerformancesService</text></g><!--entity IReapprovisionnementService--><g id="elem_IReapprovisionnementService"><ellipse cx="791.5" cy="1080.6094" fill="#F1F1F1" rx="8" ry="8" style="stroke:#181818;stroke-width:0.5;"/><text fill="#000000" font-family="sans-serif" font-size="14" lengthAdjust="spacing" textLength="188" x="697.5" y="1112.1426">IReapprovisionnementService</text></g><!--entity IVenteService--><g id="elem_IVenteService"><ellipse cx="791.5" cy="1163.6094" fill="#F1F1F1" rx="8" ry="8" style="stroke:#181818;stroke-width:0.5;"/><text fill="#000000" font-family="sans-serif" font-size="14" lengthAdjust="spacing" textLength="87" x="748" y="1195.1426">IVenteService</text></g><!--entity ProduitService--><g id="elem_ProduitService"><rect fill="#F1F1F1" height="65.2188" rx="2.5" ry="2.5" style="stroke:#181818;stroke-width:0.5;" width="132" x="367" y="802.1094"/><rect fill="#F1F1F1" height="10" style="stroke:#181818;stroke-width:0.5;" width="15" x="479" y="807.1094"/><rect fill="#F1F1F1" height="2" style="stroke:#181818;stroke-width:0.5;" width="4" x="477" y="809.1094"/><rect fill="#F1F1F1" height="2" style="stroke:#181818;stroke-width:0.5;" width="4" x="477" y="813.1094"/><text fill="#000000" font-family="sans-serif" font-size="14" font-style="italic" lengthAdjust="spacing" textLength="89" x="383.5" y="836.6426">&#171;Component&#187;</text><text fill="#000000" font-family="sans-serif" font-size="14" lengthAdjust="spacing" textLength="92" x="382" y="854.252">ProduitService</text></g><!--entity RapportService--><g id="elem_RapportService"><rect fill="#F1F1F1" height="65.2188" rx="2.5" ry="2.5" style="stroke:#181818;stroke-width:0.5;" width="138" x="364" y="885.1094"/><rect fill="#F1F1F1" height="10" style="stroke:#181818;stroke-width:0.5;" width="15" x="482" y="890.1094"/><rect fill="#F1F1F1" height="2" style="stroke:#181818;stroke-width:0.5;" width="4" x="480" y="892.1094"/><rect fill="#F1F1F1" height="2" style="stroke:#181818;stroke-width:0.5;" width="4" x="480" y="896.1094"/><text fill="#000000" font-family="sans-serif" font-size="14" font-style="italic" lengthAdjust="spacing" textLength="89" x="383.5" y="919.6426">&#171;Component&#187;</text><text fill="#000000" font-family="sans-serif" font-size="14" lengthAdjust="spacing" textLength="98" x="379" y="937.252">RapportService</text></g><!--entity PerformancesService--><g id="elem_PerformancesService"><rect fill="#F1F1F1" height="65.2188" rx="2.5" ry="2.5" style="stroke:#181818;stroke-width:0.5;" width="175" x="345.5" y="968.1094"/><rect fill="#F1F1F1" height="10" style="stroke:#181818;stroke-width:0.5;" width="15" x="500.5" y="973.1094"/><rect fill="#F1F1F1" height="2" style="stroke:#181818;stroke-width:0.5;" width="4" x="498.5" y="975.1094"/><rect fill="#F1F1F1" height="2" style="stroke:#181818;stroke-width:0.5;" width="4" x="498.5" y="979.1094"/><text fill="#000000" font-family="sans-serif" font-size="14" font-style="italic" lengthAdjust="spacing" textLength="89" x="383.5" y="1002.6426">&#171;Component&#187;</text><text fill="#000000" font-family="sans-serif" font-size="14" lengthAdjust="spacing" textLength="135" x="360.5" y="1020.252">PerformancesService</text></g><!--entity ReapprovisionnementService--><g id="elem_ReapprovisionnementService"><rect fill="#F1F1F1" height="65.2188" rx="2.5" ry="2.5" style="stroke:#181818;stroke-width:0.5;" width="225" x="320.5" y="1051.1094"/><rect fill="#F1F1F1" height="10" style="stroke:#181818;stroke-width:0.5;" width="15" x="525.5" y="1056.1094"/><rect fill="#F1F1F1" height="2" style="stroke:#181818;stroke-width:0.5;" width="4" x="523.5" y="1058.1094"/><rect fill="#F1F1F1" height="2" style="stroke:#181818;stroke-width:0.5;" width="4" x="523.5" y="1062.1094"/><text fill="#000000" font-family="sans-serif" font-size="14" font-style="italic" lengthAdjust="spacing" textLength="89" x="383.5" y="1085.6426">&#171;Component&#187;</text><text fill="#000000" font-family="sans-serif" font-size="14" lengthAdjust="spacing" textLength="185" x="335.5" y="1103.252">ReapprovisionnementService</text></g><!--entity VenteService--><g id="elem_VenteService"><rect fill="#F1F1F1" height="65.2188" rx="2.5" ry="2.5" style="stroke:#181818;stroke-width:0.5;" width="129" x="368.5" y="1134.1094"/><rect fill="#F1F1F1" height="10" style="stroke:#181818;stroke-width:0.5;" width="15" x="477.5" y="1139.1094"/><rect fill="#F1F1F1" height="2" style="stroke:#181818;stroke-width:0.5;" width="4" x="475.5" y="1141.1094"/><rect fill="#F1F1F1" height="2" style="stroke:#181818;stroke-width:0.5;" width="4" x="475.5" y="1145.1094"/><text fill="#000000" font-family="sans-serif" font-size="14" font-style="italic" lengthAdjust="spacing" textLength="89" x="383.5" y="1168.6426">&#171;Component&#187;</text><text fill="#000000" font-family="sans-serif" font-size="14" lengthAdjust="spacing" textLength="84" x="386" y="1186.252">VenteService</text></g><!--entity MagasinDbContext--><g id="elem_MagasinDbContext"><rect fill="#F1F1F1" height="65.2188" rx="2.5" ry="2.5" style="stroke:#181818;stroke-width:0.5;" width="159" x="353.5" y="338.1094"/><rect fill="#F1F1F1" height="10" style="stroke:#181818;stroke-width:0.5;" width="15" x="492.5" y="343.1094"/><rect fill="#F1F1F1" height="2" style="stroke:#181818;stroke-width:0.5;" width="4" x="490.5" y="345.1094"/><rect fill="#F1F1F1" height="2" style="stroke:#181818;stroke-width:0.5;" width="4" x="490.5" y="349.1094"/><text fill="#000000" font-family="sans-serif" font-size="14" font-style="italic" lengthAdjust="spacing" textLength="89" x="383.5" y="372.6426">&#171;Component&#187;</text><text fill="#000000" font-family="sans-serif" font-size="14" lengthAdjust="spacing" textLength="119" x="368.5" y="390.252">MagasinDbContext</text></g><!--entity DataSeeder--><g id="elem_DataSeeder"><rect fill="#F1F1F1" height="65.2188" rx="2.5" ry="2.5" style="stroke:#181818;stroke-width:0.5;" width="129" x="52.5" y="338.1094"/><rect fill="#F1F1F1" height="10" style="stroke:#181818;stroke-width:0.5;" width="15" x="161.5" y="343.1094"/><rect fill="#F1F1F1" height="2" style="stroke:#181818;stroke-width:0.5;" width="4" x="159.5" y="345.1094"/><rect fill="#F1F1F1" height="2" style="stroke:#181818;stroke-width:0.5;" width="4" x="159.5" y="349.1094"/><text fill="#000000" font-family="sans-serif" font-size="14" font-style="italic" lengthAdjust="spacing" textLength="89" x="67.5" y="372.6426">&#171;Component&#187;</text><text fill="#000000" font-family="sans-serif" font-size="14" lengthAdjust="spacing" textLength="76" x="74" y="390.252">DataSeeder</text></g><!--entity DemandeReapprovisionnement--><g id="elem_DemandeReapprovisionnement"><rect fill="#F1F1F1" height="65.2188" rx="2.5" ry="2.5" style="stroke:#181818;stroke-width:0.5;" width="239" x="672" y="89.1094"/><rect fill="#F1F1F1" height="10" style="stroke:#181818;stroke-width:0.5;" width="15" x="891" y="94.1094"/><rect fill="#F1F1F1" height="2" style="stroke:#181818;stroke-width:0.5;" width="4" x="889" y="96.1094"/><rect fill="#F1F1F1" height="2" style="stroke:#181818;stroke-width:0.5;" width="4" x="889" y="100.1094"/><text fill="#000000" font-family="sans-serif" font-size="14" font-style="italic" lengthAdjust="spacing" textLength="51" x="761" y="123.6426">&#171;Entity&#187;</text><text fill="#000000" font-family="sans-serif" font-size="14" lengthAdjust="spacing" textLength="199" x="687" y="141.252">DemandeReapprovisionnement</text></g><!--entity Produit--><g id="elem_Produit"><rect fill="#F1F1F1" height="65.2188" rx="2.5" ry="2.5" style="stroke:#181818;stroke-width:0.5;" width="91" x="746" y="172.1094"/><rect fill="#F1F1F1" height="10" style="stroke:#181818;stroke-width:0.5;" width="15" x="817" y="177.1094"/><rect fill="#F1F1F1" height="2" style="stroke:#181818;stroke-width:0.5;" width="4" x="815" y="179.1094"/><rect fill="#F1F1F1" height="2" style="stroke:#181818;stroke-width:0.5;" width="4" x="815" y="183.1094"/><text fill="#000000" font-family="sans-serif" font-size="14" font-style="italic" lengthAdjust="spacing" textLength="51" x="761" y="206.6426">&#171;Entity&#187;</text><text fill="#000000" font-family="sans-serif" font-size="14" lengthAdjust="spacing" textLength="45" x="764" y="224.252">Produit</text></g><!--entity LigneVente--><g id="elem_LigneVente"><rect fill="#F1F1F1" height="65.2188" rx="2.5" ry="2.5" style="stroke:#181818;stroke-width:0.5;" width="112" x="735.5" y="255.1094"/><rect fill="#F1F1F1" height="10" style="stroke:#181818;stroke-width:0.5;" width="15" x="827.5" y="260.1094"/><rect fill="#F1F1F1" height="2" style="stroke:#181818;stroke-width:0.5;" width="4" x="825.5" y="262.1094"/><rect fill="#F1F1F1" height="2" style="stroke:#181818;stroke-width:0.5;" width="4" x="825.5" y="266.1094"/><text fill="#000000" font-family="sans-serif" font-size="14" font-style="italic" lengthAdjust="spacing" textLength="51" x="761" y="289.6426">&#171;Entity&#187;</text><text fill="#000000" font-family="sans-serif" font-size="14" lengthAdjust="spacing" textLength="72" x="750.5" y="307.252">LigneVente</text></g><!--entity Magasin--><g id="elem_Magasin"><rect fill="#F1F1F1" height="65.2188" rx="2.5" ry="2.5" style="stroke:#181818;stroke-width:0.5;" width="93" x="745" y="338.1094"/><rect fill="#F1F1F1" height="10" style="stroke:#181818;stroke-width:0.5;" width="15" x="818" y="343.1094"/><rect fill="#F1F1F1" height="2" style="stroke:#181818;stroke-width:0.5;" width="4" x="816" y="345.1094"/><rect fill="#F1F1F1" height="2" style="stroke:#181818;stroke-width:0.5;" width="4" x="816" y="349.1094"/><text fill="#000000" font-family="sans-serif" font-size="14" font-style="italic" lengthAdjust="spacing" textLength="51" x="761" y="372.6426">&#171;Entity&#187;</text><text fill="#000000" font-family="sans-serif" font-size="14" lengthAdjust="spacing" textLength="53" x="760" y="390.252">Magasin</text></g><!--entity MagasinStockProduit--><g id="elem_MagasinStockProduit"><rect fill="#F1F1F1" height="65.2188" rx="2.5" ry="2.5" style="stroke:#181818;stroke-width:0.5;" width="173" x="705" y="421.1094"/><rect fill="#F1F1F1" height="10" style="stroke:#181818;stroke-width:0.5;" width="15" x="858" y="426.1094"/><rect fill="#F1F1F1" height="2" style="stroke:#181818;stroke-width:0.5;" width="4" x="856" y="428.1094"/><rect fill="#F1F1F1" height="2" style="stroke:#181818;stroke-width:0.5;" width="4" x="856" y="432.1094"/><text fill="#000000" font-family="sans-serif" font-size="14" font-style="italic" lengthAdjust="spacing" textLength="51" x="761" y="455.6426">&#171;Entity&#187;</text><text fill="#000000" font-family="sans-serif" font-size="14" lengthAdjust="spacing" textLength="133" x="720" y="473.252">MagasinStockProduit</text></g><!--entity RapportDto--><g id="elem_RapportDto"><rect fill="#F1F1F1" height="65.2188" rx="2.5" ry="2.5" style="stroke:#181818;stroke-width:0.5;" width="113" x="735" y="504.1094"/><rect fill="#F1F1F1" height="10" style="stroke:#181818;stroke-width:0.5;" width="15" x="828" y="509.1094"/><rect fill="#F1F1F1" height="2" style="stroke:#181818;stroke-width:0.5;" width="4" x="826" y="511.1094"/><rect fill="#F1F1F1" height="2" style="stroke:#181818;stroke-width:0.5;" width="4" x="826" y="515.1094"/><text fill="#000000" font-family="sans-serif" font-size="14" font-style="italic" lengthAdjust="spacing" textLength="46" x="763.5" y="538.6426">&#171;DTO&#187;</text><text fill="#000000" font-family="sans-serif" font-size="14" lengthAdjust="spacing" textLength="73" x="750" y="556.252">RapportDto</text></g><!--entity StockCentral--><g id="elem_StockCentral"><rect fill="#F1F1F1" height="65.2188" rx="2.5" ry="2.5" style="stroke:#181818;stroke-width:0.5;" width="121" x="731" y="587.1094"/><rect fill="#F1F1F1" height="10" style="stroke:#181818;stroke-width:0.5;" width="15" x="832" y="592.1094"/><rect fill="#F1F1F1" height="2" style="stroke:#181818;stroke-width:0.5;" width="4" x="830" y="594.1094"/><rect fill="#F1F1F1" height="2" style="stroke:#181818;stroke-width:0.5;" width="4" x="830" y="598.1094"/><text fill="#000000" font-family="sans-serif" font-size="14" font-style="italic" lengthAdjust="spacing" textLength="51" x="761" y="621.6426">&#171;Entity&#187;</text><text fill="#000000" font-family="sans-serif" font-size="14" lengthAdjust="spacing" textLength="81" x="746" y="639.252">StockCentral</text></g><!--entity Vente--><g id="elem_Vente"><rect fill="#F1F1F1" height="65.2188" rx="2.5" ry="2.5" style="stroke:#181818;stroke-width:0.5;" width="91" x="746" y="670.1094"/><rect fill="#F1F1F1" height="10" style="stroke:#181818;stroke-width:0.5;" width="15" x="817" y="675.1094"/><rect fill="#F1F1F1" height="2" style="stroke:#181818;stroke-width:0.5;" width="4" x="815" y="677.1094"/><rect fill="#F1F1F1" height="2" style="stroke:#181818;stroke-width:0.5;" width="4" x="815" y="681.1094"/><text fill="#000000" font-family="sans-serif" font-size="14" font-style="italic" lengthAdjust="spacing" textLength="51" x="761" y="704.6426">&#171;Entity&#187;</text><text fill="#000000" font-family="sans-serif" font-size="14" lengthAdjust="spacing" textLength="37" x="768" y="722.252">Vente</text></g><polygon fill="#181818" points="311.5701,1207.8541,307.1223,1199.0667,307.6949,1204.6945,302.0671,1205.267,311.5701,1207.8541" style="stroke:#181818;stroke-width:1.0;"/><path d="M119.4814,747.9565 C119.5352,748.5652 119.5907,749.1862 119.6481,749.8195 C119.7629,751.086 119.8851,752.4013 120.0149,753.7641 C120.5345,759.2151 121.1779,765.425 121.9705,772.3041 C123.5557,786.0622 125.7378,802.497 128.7194,820.8911 C134.6825,857.6792 143.8436,902.3043 157.8237,949.0266 C171.8037,995.7489 190.6027,1044.5684 215.8418,1089.7455 C228.4613,1112.334 242.6908,1134.0119 258.733,1154.0617 C266.7541,1164.0866 275.2283,1173.7045 284.181,1182.8256 C288.6574,1187.3862 293.2534,1191.8226 297.9722,1196.1237 C300.3315,1198.2742 302.7216,1200.3908 305.1428,1202.4723 C306.3534,1203.513 307.5717,1204.5449 308.7979,1205.5678 C309.411,1206.0792 310.0261,1206.5884 310.6431,1207.0954 C310.9516,1207.3489 306.6103,1203.8103 306.9198,1204.0626 " fill="none" style="stroke:#181818;stroke-width:1.0;"/><text fill="#000000" font-family="sans-serif" font-size="13" lengthAdjust="spacing" textLength="35" x="245" y="1111.1045">&#171;use&#187;</text><polygon fill="none" points="782.2125,834.6094,764.2125,828.6094,764.2125,840.6094,782.2125,834.6094" style="stroke:#181818;stroke-width:1.0;"/><path d="M499.3876,834.6094 C589.4413,834.6094 726.784,834.6094 764.2125,834.6094 " fill="none" style="stroke:#181818;stroke-width:1.0;stroke-dasharray:7.0,7.0;"/><text fill="#000000" font-family="sans-serif" font-size="13" lengthAdjust="spacing" textLength="81" x="572" y="831.1045">&#171;impl&#233;mente&#187;</text><polygon fill="none" points="782.3628,917.6094,764.3628,911.6094,764.3628,923.6094,782.3628,917.6094" style="stroke:#181818;stroke-width:1.0;"/><path d="M502.315,917.6094 C592.8913,917.6094 727.6007,917.6094 764.3628,917.6094 " fill="none" style="stroke:#181818;stroke-width:1.0;stroke-dasharray:7.0,7.0;"/><text fill="#000000" font-family="sans-serif" font-size="13" lengthAdjust="spacing" textLength="81" x="572" y="914.1045">&#171;impl&#233;mente&#187;</text><polygon fill="none" points="782.3321,1000.6094,764.3321,994.6094,764.3321,1006.6094,782.3321,1000.6094" style="stroke:#181818;stroke-width:1.0;"/><path d="M520.7538,1000.6094 C612.2638,1000.6094 729.9141,1000.6094 764.3321,1000.6094 " fill="none" style="stroke:#181818;stroke-width:1.0;stroke-dasharray:7.0,7.0;"/><text fill="#000000" font-family="sans-serif" font-size="13" lengthAdjust="spacing" textLength="81" x="572" y="997.1045">&#171;impl&#233;mente&#187;</text><polygon fill="none" points="782.2489,1083.6094,764.2489,1077.6094,764.2489,1089.6094,782.2489,1083.6094" style="stroke:#181818;stroke-width:1.0;"/><path d="M545.8207,1083.6094 C635.2598,1083.6094 732.737,1083.6094 764.2489,1083.6094 " fill="none" style="stroke:#181818;stroke-width:1.0;stroke-dasharray:7.0,7.0;"/><text fill="#000000" font-family="sans-serif" font-size="13" lengthAdjust="spacing" textLength="81" x="572" y="1080.1045">&#171;impl&#233;mente&#187;</text><polygon fill="none" points="782.1261,1166.6094,764.1261,1160.6094,764.1261,1172.6094,782.1261,1166.6094" style="stroke:#181818;stroke-width:1.0;"/><path d="M497.7351,1166.6094 C587.4593,1166.6094 726.3143,1166.6094 764.1261,1166.6094 " fill="none" style="stroke:#181818;stroke-width:1.0;stroke-dasharray:7.0,7.0;"/><text fill="#000000" font-family="sans-serif" font-size="13" lengthAdjust="spacing" textLength="81" x="572" y="1163.1045">&#171;impl&#233;mente&#187;</text><polygon fill="#181818" points="353.2857,386.3955,343.4385,386.211,348.6794,388.3403,346.5501,393.5811,353.2857,386.3955" style="stroke:#181818;stroke-width:1.0;"/><path d="M311.2981,1207.3874 C310.9,1206.9806 310.5044,1206.5741 310.1113,1206.1681 C309.325,1205.3561 308.5488,1204.5458 307.7824,1203.7372 C306.2496,1202.12 304.7562,1200.5095 303.3013,1198.9054 C300.3915,1195.6971 297.6359,1192.5141 295.0269,1189.3535 C289.8091,1183.0322 285.1783,1176.8 281.0762,1170.6326 C272.8719,1158.2979 266.7824,1146.2221 262.3408,1134.2097 C253.4574,1110.185 251.1653,1086.414 251.7291,1061.3328 C252.8568,1011.1704 265.4081,955.7668 259.5,882.6094 C251.0927,778.5043 248.0155,497.7695 312.5,415.6094 C322.9096,402.3465 332.1325,395.3262 347.7581,388.7292 " fill="none" style="stroke:#181818;stroke-width:1.0;"/><text fill="#000000" font-family="sans-serif" font-size="13" lengthAdjust="spacing" textLength="58" x="233.5" y="879.1045">&#171;Acc&#232;de&#187;</text><polygon fill="#181818" points="682.2607,154.1539,672.4131,153.9957,677.6596,156.111,675.5444,161.3575,682.2607,154.1539" style="stroke:#181818;stroke-width:1.0;"/><path d="M459.9196,338.0762 C498.9623,291.4417 577.5509,206.3994 664,162.6094 C669.8696,159.6362 670.4788,159.1653 676.7394,156.5024 " fill="none" style="stroke:#181818;stroke-width:1.0;"/><text fill="#000000" font-family="sans-serif" font-size="13" lengthAdjust="spacing" textLength="53" x="586" y="167.1045">&#171;mappe&#187;</text><polygon fill="#181818" points="745.8573,216.8845,736.0909,215.613,741.0643,218.3083,738.3689,223.2817,745.8573,216.8845" style="stroke:#181818;stroke-width:1.0;"/><path d="M487.4259,337.8995 C533.1633,310.8008 601.3616,272.5088 664,245.6094 C690.5165,234.2221 715.5463,225.8887 740.1057,218.5931 " fill="none" style="stroke:#181818;stroke-width:1.0;"/><text fill="#000000" font-family="sans-serif" font-size="13" lengthAdjust="spacing" textLength="53" x="586" y="248.1045">&#171;mappe&#187;</text><polygon fill="#181818" points="735.2498,300.4727,725.5772,298.6177,730.3801,301.6064,727.3913,306.4093,735.2498,300.4727" style="stroke:#181818;stroke-width:1.0;"/><path d="M512.6768,352.2919 C580.1381,336.5856 669.7724,315.7171 729.4061,301.8332 " fill="none" style="stroke:#181818;stroke-width:1.0;"/><text fill="#000000" font-family="sans-serif" font-size="13" lengthAdjust="spacing" textLength="53" x="586" y="319.1045">&#171;mappe&#187;</text><polygon fill="#181818" points="744.9582,370.6094,735.9582,366.6094,739.9582,370.6094,735.9582,374.6094,744.9582,370.6094" style="stroke:#181818;stroke-width:1.0;"/><path d="M512.6768,370.6094 C583.9315,370.6094 680.4424,370.6094 738.9582,370.6094 " fill="none" style="stroke:#181818;stroke-width:1.0;"/><text fill="#000000" font-family="sans-serif" font-size="13" lengthAdjust="spacing" textLength="53" x="586" y="367.1045">&#171;mappe&#187;</text><polygon fill="#181818" points="704.8556,433.6697,696.9971,427.7331,699.9858,432.536,695.183,435.5247,704.8556,433.6697" style="stroke:#181818;stroke-width:1.0;"/><path d="M512.6768,388.9268 C569.5781,402.1745 640.5676,418.7023 699.0119,432.3092 " fill="none" style="stroke:#181818;stroke-width:1.0;"/><text fill="#000000" font-family="sans-serif" font-size="13" lengthAdjust="spacing" textLength="53" x="586" y="401.1045">&#171;mappe&#187;</text><polygon fill="#181818" points="730.9155,608.9546,723.2848,602.7278,726.0916,607.6392,721.1802,610.446,730.9155,608.9546" style="stroke:#181818;stroke-width:1.0;"/><path d="M512.7406,386.9121 C530.2612,393.5035 547.5901,402.7251 561,415.6094 C569.6294,423.9005 565.4023,430.0322 571,440.6094 C605.596,505.9802 604.925,534.1081 664,578.6094 C683.4542,593.2642 702.5692,601.225 725.1268,607.3761 " fill="none" style="stroke:#181818;stroke-width:1.0;"/><text fill="#000000" font-family="sans-serif" font-size="13" lengthAdjust="spacing" textLength="53" x="586" y="437.1045">&#171;mappe&#187;</text><polygon fill="#181818" points="745.8818,695.599,737.8872,689.8469,740.987,694.5789,736.255,697.6787,745.8818,695.599" style="stroke:#181818;stroke-width:1.0;"/><path d="M512.6594,382.845 C531.2762,389.5174 549.1427,399.7948 561,415.6094 C584.633,447.1297 552.3045,557.9319 571,592.6094 C605.6908,656.9557 686.5381,683.2313 740.008,694.3749 " fill="none" style="stroke:#181818;stroke-width:1.0;"/><text fill="#000000" font-family="sans-serif" font-size="13" lengthAdjust="spacing" textLength="53" x="586" y="589.1045">&#171;mappe&#187;</text><polygon fill="#181818" points="353.23,370.6094,344.23,366.6094,348.23,370.6094,344.23,374.6094,353.23,370.6094" style="stroke:#181818;stroke-width:1.0;"/><path d="M181.5426,370.6094 C231.0921,370.6094 294.1682,370.6094 347.23,370.6094 " fill="none" style="stroke:#181818;stroke-width:1.0;"/><text fill="#000000" font-family="sans-serif" font-size="13" lengthAdjust="spacing" textLength="63" x="231" y="367.1045">&#171;alimente&#187;</text><!--SRC=[bLNBRjim4BphAzYSqeEDeEsf20G4LWy5OjIe0_TGzB2HrWfXYXHMQwFkut_gx_2FbPJeM9OeExdPkxFBqSnGOiaAnMAD8aEHx7SRLAOiiK3DOYIca4CbjPZOlmGgUbCIv0K81LkpPb4LoA0XKhXamKQGp9zOP98mPMbq55KhgKiWA4HgYj9ej_Lt9CIJ8VdBQ0OrBo6LEXSVRcnvWyGoFHRVtqH_MpjiTGKvrXjAo387UUSWqQ5pzGqVnNGn4TSpskygUnmu8c-l15J2zbphzlOUjaXnNE_vFYEJhILFB1ioIY7zi8Z9WMqSEynNA4j3vp4pfAMX0dIArVbbQBUHsSZACjErqcVn3mIIaHAqkxCBknVs5muZsafvQxspupdIHbhgudgwtx54QZHxBf-g9kqnj8GKnMUldmUUzhnkmLvRh_1mNwSWhdxcGwVbg2yDspaC271xcP73u3RBLzYI08CDCr8bAqRBfx75MOm_6RjXzjF9emS4YBYDSyJiLUcOcWoLpKPY2f3-ElbQXu6FQK0RTzmdpPAtNkJ6fcxvNkOQQxMw7Szfe3ndawu6Tdh34pQkapnyQShrY7_4xaYVWPN7lq56e_XuCJvQpBf22uXwoHkF_yJT6r8FoA9K-vrJnGts0jdCdLP3Sy6S-aFxhU39PpBiMGmYGljEOzviQDS2Cz6pb5RMRe1h_5sQxlzbDRRNTruCPwuUBspP3GTdlJcNWSTSNiOUFfil1RQpUtce7TlBw3xbwFWAQ9CurHoKF1Zq7m00]--></g></svg>