<?xml version="1.0" encoding="us-ascii" standalone="no"?><svg xmlns="http://www.w3.org/2000/svg" xmlns:xlink="http://www.w3.org/1999/xlink" contentStyleType="text/css" height="637px" preserveAspectRatio="none" style="width:836px;height:637px;background:#FFFFFF;" version="1.1" viewBox="0 0 836 637" width="836px" zoomAndPan="magnify"><defs/><g><text fill="#000000" font-family="sans-serif" font-size="14" font-weight="bold" lengthAdjust="spacing" textLength="394" x="222" y="29.5332">Vue de Processus - Validation d&#8217;une commande en ligne</text><rect fill="none" height="79.0547" style="stroke:#000000;stroke-width:1.5;" width="335.5" x="343" y="289.9766"/><rect fill="none" height="155.5938" style="stroke:#000000;stroke-width:1.5;" width="819" x="10" y="383.0313"/><line style="stroke:#181818;stroke-width:0.5;stroke-dasharray:5.0,5.0;" x1="54" x2="54" y1="121.2188" y2="555.625"/><line style="stroke:#181818;stroke-width:0.5;stroke-dasharray:5.0,5.0;" x1="155" x2="155" y1="121.2188" y2="555.625"/><line style="stroke:#181818;stroke-width:0.5;stroke-dasharray:5.0,5.0;" x1="283" x2="283" y1="121.2188" y2="555.625"/><line style="stroke:#181818;stroke-width:0.5;stroke-dasharray:5.0,5.0;" x1="415" x2="415" y1="121.2188" y2="555.625"/><line style="stroke:#181818;stroke-width:0.5;stroke-dasharray:5.0,5.0;" x1="592.5" x2="592.5" y1="121.2188" y2="555.625"/><line style="stroke:#181818;stroke-width:0.5;stroke-dasharray:5.0,5.0;" x1="761" x2="761" y1="121.2188" y2="555.625"/><text fill="#000000" font-family="sans-serif" font-size="14" lengthAdjust="spacing" textLength="62" x="20" y="118.1426">Utilisateur</text><ellipse cx="54" cy="52.1094" fill="#E2E2F0" rx="8" ry="8" style="stroke:#181818;stroke-width:0.5;"/><path d="M54,60.1094 L54,87.1094 M41,68.1094 L67,68.1094 M54,87.1094 L41,102.1094 M54,87.1094 L67,102.1094 " fill="none" style="stroke:#181818;stroke-width:0.5;"/><text fill="#000000" font-family="sans-serif" font-size="14" lengthAdjust="spacing" textLength="62" x="20" y="569.1582">Utilisateur</text><ellipse cx="54" cy="580.7344" fill="#E2E2F0" rx="8" ry="8" style="stroke:#181818;stroke-width:0.5;"/><path d="M54,588.7344 L54,615.7344 M41,596.7344 L67,596.7344 M54,615.7344 L41,630.7344 M54,615.7344 L67,630.7344 " fill="none" style="stroke:#181818;stroke-width:0.5;"/><rect fill="#E2E2F0" height="49.2188" rx="2.5" ry="2.5" style="stroke:#181818;stroke-width:0.5;" width="115" x="98" y="71"/><text fill="#000000" font-family="sans-serif" font-size="14" lengthAdjust="spacing" textLength="101" x="105" y="92.5332">ClientMcService</text><text fill="#000000" font-family="sans-serif" font-size="14" lengthAdjust="spacing" textLength="98" x="106.5" y="110.1426">ClientController</text><rect fill="#E2E2F0" height="49.2188" rx="2.5" ry="2.5" style="stroke:#181818;stroke-width:0.5;" width="115" x="98" y="554.625"/><text fill="#000000" font-family="sans-serif" font-size="14" lengthAdjust="spacing" textLength="101" x="105" y="576.1582">ClientMcService</text><text fill="#000000" font-family="sans-serif" font-size="14" lengthAdjust="spacing" textLength="98" x="106.5" y="593.7676">ClientController</text><rect fill="#E2E2F0" height="49.2188" rx="2.5" ry="2.5" style="stroke:#181818;stroke-width:0.5;" width="120" x="223" y="71"/><text fill="#000000" font-family="sans-serif" font-size="14" lengthAdjust="spacing" textLength="106" x="230" y="92.5332">PanierMcService</text><text fill="#000000" font-family="sans-serif" font-size="14" lengthAdjust="spacing" textLength="103" x="231.5" y="110.1426">PanierController</text><rect fill="#E2E2F0" height="49.2188" rx="2.5" ry="2.5" style="stroke:#181818;stroke-width:0.5;" width="120" x="223" y="554.625"/><text fill="#000000" font-family="sans-serif" font-size="14" lengthAdjust="spacing" textLength="106" x="230" y="576.1582">PanierMcService</text><text fill="#000000" font-family="sans-serif" font-size="14" lengthAdjust="spacing" textLength="103" x="231.5" y="593.7676">PanierController</text><rect fill="#E2E2F0" height="49.2188" rx="2.5" ry="2.5" style="stroke:#181818;stroke-width:0.5;" width="124" x="353" y="71"/><text fill="#000000" font-family="sans-serif" font-size="14" lengthAdjust="spacing" textLength="110" x="360" y="92.5332">ProduitMcService</text><text fill="#000000" font-family="sans-serif" font-size="14" lengthAdjust="spacing" textLength="107" x="361.5" y="110.1426">ProduitController</text><rect fill="#E2E2F0" height="49.2188" rx="2.5" ry="2.5" style="stroke:#181818;stroke-width:0.5;" width="124" x="353" y="554.625"/><text fill="#000000" font-family="sans-serif" font-size="14" lengthAdjust="spacing" textLength="110" x="360" y="576.1582">ProduitMcService</text><text fill="#000000" font-family="sans-serif" font-size="14" lengthAdjust="spacing" textLength="107" x="361.5" y="593.7676">ProduitController</text><rect fill="#E2E2F0" height="49.2188" rx="2.5" ry="2.5" style="stroke:#181818;stroke-width:0.5;" width="151" x="517.5" y="71"/><text fill="#000000" font-family="sans-serif" font-size="14" lengthAdjust="spacing" textLength="137" x="524.5" y="92.5332">CommandeMcService</text><text fill="#000000" font-family="sans-serif" font-size="14" lengthAdjust="spacing" textLength="134" x="526" y="110.1426">CommandeController</text><rect fill="#E2E2F0" height="49.2188" rx="2.5" ry="2.5" style="stroke:#181818;stroke-width:0.5;" width="151" x="517.5" y="554.625"/><text fill="#000000" font-family="sans-serif" font-size="14" lengthAdjust="spacing" textLength="137" x="524.5" y="576.1582">CommandeMcService</text><text fill="#000000" font-family="sans-serif" font-size="14" lengthAdjust="spacing" textLength="134" x="526" y="593.7676">CommandeController</text><rect fill="#E2E2F0" height="49.2188" rx="2.5" ry="2.5" style="stroke:#181818;stroke-width:0.5;" width="116" x="703" y="71"/><text fill="#000000" font-family="sans-serif" font-size="14" lengthAdjust="spacing" textLength="102" x="710" y="92.5332">VenteMcService</text><text fill="#000000" font-family="sans-serif" font-size="14" lengthAdjust="spacing" textLength="99" x="711.5" y="110.1426">VenteController</text><rect fill="#E2E2F0" height="49.2188" rx="2.5" ry="2.5" style="stroke:#181818;stroke-width:0.5;" width="116" x="703" y="554.625"/><text fill="#000000" font-family="sans-serif" font-size="14" lengthAdjust="spacing" textLength="102" x="710" y="576.1582">VenteMcService</text><text fill="#000000" font-family="sans-serif" font-size="14" lengthAdjust="spacing" textLength="99" x="711.5" y="593.7676">VenteController</text><polygon fill="#181818" points="581,149.5703,591,153.5703,581,157.5703,585,153.5703" style="stroke:#181818;stroke-width:1.0;"/><line style="stroke:#181818;stroke-width:1.0;" x1="54" x2="587" y1="153.5703" y2="153.5703"/><text fill="#000000" font-family="sans-serif" font-size="13" lengthAdjust="spacing" textLength="147" x="61" y="148.7139">POST /commande/valider</text><polygon fill="#181818" points="166.5,179.9219,156.5,183.9219,166.5,187.9219,162.5,183.9219" style="stroke:#181818;stroke-width:1.0;"/><line style="stroke:#181818;stroke-width:1.0;" x1="160.5" x2="592" y1="183.9219" y2="183.9219"/><text fill="#000000" font-family="sans-serif" font-size="13" lengthAdjust="spacing" textLength="94" x="172.5" y="179.0654">GET /clients/{id}</text><polygon fill="#181818" points="581,210.2734,591,214.2734,581,218.2734,585,214.2734" style="stroke:#181818;stroke-width:1.0;"/><line style="stroke:#181818;stroke-width:1.0;stroke-dasharray:2.0,2.0;" x1="155.5" x2="587" y1="214.2734" y2="214.2734"/><text fill="#000000" font-family="sans-serif" font-size="13" lengthAdjust="spacing" textLength="118" x="162.5" y="209.417">200 OK (infos client)</text><polygon fill="#181818" points="294,240.625,284,244.625,294,248.625,290,244.625" style="stroke:#181818;stroke-width:1.0;"/><line style="stroke:#181818;stroke-width:1.0;" x1="288" x2="592" y1="244.625" y2="244.625"/><text fill="#000000" font-family="sans-serif" font-size="13" lengthAdjust="spacing" textLength="129" x="300" y="239.7686">GET /paniers/{clientId}</text><polygon fill="#181818" points="581,270.9766,591,274.9766,581,278.9766,585,274.9766" style="stroke:#181818;stroke-width:1.0;"/><line style="stroke:#181818;stroke-width:1.0;stroke-dasharray:2.0,2.0;" x1="283" x2="587" y1="274.9766" y2="274.9766"/><text fill="#000000" font-family="sans-serif" font-size="13" lengthAdjust="spacing" textLength="159" x="290" y="270.1201">200 OK (contenu du panier)</text><path d="M343,289.9766 L416,289.9766 L416,298.3281 L406,308.3281 L343,308.3281 L343,289.9766 " fill="#EEEEEE" style="stroke:#000000;stroke-width:1.5;"/><rect fill="none" height="79.0547" style="stroke:#000000;stroke-width:1.5;" width="335.5" x="343" y="289.9766"/><text fill="#000000" font-family="sans-serif" font-size="13" font-weight="bold" lengthAdjust="spacing" textLength="28" x="358" y="304.4717">loop</text><text fill="#000000" font-family="sans-serif" font-size="11" font-weight="bold" lengthAdjust="spacing" textLength="120" x="431" y="303.3955">[Pour chaque produit]</text><polygon fill="#181818" points="426,326.6797,416,330.6797,426,334.6797,422,330.6797" style="stroke:#181818;stroke-width:1.0;"/><line style="stroke:#181818;stroke-width:1.0;" x1="420" x2="592" y1="330.6797" y2="330.6797"/><text fill="#000000" font-family="sans-serif" font-size="13" lengthAdjust="spacing" textLength="102" x="432" y="325.8232">GET /produits/{id}</text><polygon fill="#181818" points="581,357.0313,591,361.0313,581,365.0313,585,361.0313" style="stroke:#181818;stroke-width:1.0;"/><line style="stroke:#181818;stroke-width:1.0;stroke-dasharray:2.0,2.0;" x1="415" x2="587" y1="361.0313" y2="361.0313"/><text fill="#000000" font-family="sans-serif" font-size="13" lengthAdjust="spacing" textLength="154" x="422" y="356.1748">200 OK (v&#233;rif. disponibilit&#233;)</text><path d="M10,383.0313 L71,383.0313 L71,391.3828 L61,401.3828 L10,401.3828 L10,383.0313 " fill="#EEEEEE" style="stroke:#000000;stroke-width:1.5;"/><rect fill="none" height="155.5938" style="stroke:#000000;stroke-width:1.5;" width="819" x="10" y="383.0313"/><text fill="#000000" font-family="sans-serif" font-size="13" font-weight="bold" lengthAdjust="spacing" textLength="16" x="25" y="397.5264">alt</text><text fill="#000000" font-family="sans-serif" font-size="11" font-weight="bold" lengthAdjust="spacing" textLength="202" x="86" y="396.4502">[Tous les produits sont disponibles]</text><polygon fill="#181818" points="749,419.7344,759,423.7344,749,427.7344,753,423.7344" style="stroke:#181818;stroke-width:1.0;"/><line style="stroke:#181818;stroke-width:1.0;" x1="593" x2="755" y1="423.7344" y2="423.7344"/><text fill="#000000" font-family="sans-serif" font-size="13" lengthAdjust="spacing" textLength="80" x="600" y="418.8779">POST /ventes</text><polygon fill="#181818" points="604,450.0859,594,454.0859,604,458.0859,600,454.0859" style="stroke:#181818;stroke-width:1.0;"/><line style="stroke:#181818;stroke-width:1.0;stroke-dasharray:2.0,2.0;" x1="598" x2="760" y1="454.0859" y2="454.0859"/><text fill="#000000" font-family="sans-serif" font-size="13" lengthAdjust="spacing" textLength="144" x="610" y="449.2295">201 Created (id de vente)</text><polygon fill="#181818" points="65,480.4375,55,484.4375,65,488.4375,61,484.4375" style="stroke:#181818;stroke-width:1.0;"/><line style="stroke:#181818;stroke-width:1.0;stroke-dasharray:2.0,2.0;" x1="59" x2="592" y1="484.4375" y2="484.4375"/><text fill="#000000" font-family="sans-serif" font-size="13" lengthAdjust="spacing" textLength="180" x="71" y="479.5811">200 OK (commande confirm&#233;e)</text><line style="stroke:#000000;stroke-width:1.0;stroke-dasharray:2.0,2.0;" x1="10" x2="829" y1="493.4375" y2="493.4375"/><text fill="#000000" font-family="sans-serif" font-size="11" font-weight="bold" lengthAdjust="spacing" textLength="157" x="15" y="504.8564">[Un produit est indisponible]</text><polygon fill="#181818" points="65,526.625,55,530.625,65,534.625,61,530.625" style="stroke:#181818;stroke-width:1.0;"/><line style="stroke:#181818;stroke-width:1.0;stroke-dasharray:2.0,2.0;" x1="59" x2="592" y1="530.625" y2="530.625"/><text fill="#000000" font-family="sans-serif" font-size="13" lengthAdjust="spacing" textLength="206" x="71" y="525.7686">400 Bad Request (stock insuffisant)</text><!--SRC=[VLD1Rjim4Bph5OESueFZjEWfXnvY54LH536QnATU67BLBagJAadvKWJ8D_84lyC_wKkw4cbLKf4STpGpkpjB9KwMi6q9Xh09NbECRSGIMsNPgCJUmVnvUcuTGVlTJZdXaOFbxuwgIkda0-uJMuugKHkgHeN4cXlb4ixMbicbB_gMmfurVNCPM7kNWhUMmXbKH0QdoeroJ66apC1CcS6PCdZJyhXfGURQZCu6BYkEHoxGVEW2J_LRMMGixkkPiiUgQXGQbky7FrnXStDxXzKfxTM-kuHiEJ0wTX-PS3z-wAXz5LU_sJnMvTDowldsyX8tdt7EhlOHMR2e9fuvp9DdqrVYcRcVnBaGNd3MiYMv5gP5regzzRx1nik6-eVw9O-iAQ43ayuP7Lhdiko3uVCBZVV7G-3w0ePZunq_IApfU5XKv8myK9jmv-L5MugdxX5HPXtuycKsJt-XuH3xhkee6VvlYZTO1v8x6adNTBzHBrXCF4KpllSujKAH-6eEk-D1b6GZuTwTvWN517R_vdtT-frONok3hoI9Y_8y9gz_Ya5iwrfetU6xRFu2]--></g></svg>