<?xml version="1.0" encoding="us-ascii" standalone="no"?><svg xmlns="http://www.w3.org/2000/svg" xmlns:xlink="http://www.w3.org/1999/xlink" contentStyleType="text/css" height="658px" preserveAspectRatio="none" style="width:813px;height:658px;background:#FFFFFF;" version="1.1" viewBox="0 0 813 658" width="813px" zoomAndPan="magnify"><defs/><g><!--cluster Host--><g id="cluster_Host"><polygon fill="none" points="16,16,16.0495,16.0495,17.9023,13.9023,20.0456,12.0456,22.0942,10.0942,23.8319,7.8319,26,6,26,5.9223,36,5.5735,46,5.6165,56,5.9318,66,5.3086,76,6.5536,86,5.3697,96,5.8022,106,6.4319,116,5.9142,126,6.0682,136,5.9681,146,6.1785,156,6.2391,166,6.5857,176,6.6711,186,6.6793,196,6.2546,206,6.4636,216,6.7022,226,5.2788,236,6.6785,246,5.7035,256,6.5338,266,5.505,276,5.9315,286,6.7416,296,5.9513,306,6.1053,316,6.3386,326,6.4162,336,5.9961,346,6.2872,356,5.4276,366,6.2844,376,6.5482,386,6.4445,396,6.613,406,5.5169,416,5.3478,426,5.3786,436,5.9411,446,5.8035,456,6.6814,466,5.8253,476,5.6569,486,6.2283,496,5.3332,506,5.4809,516,6.649,526,6.4357,536,6.7345,546,5.6782,556,6.3192,566,6.5904,576,5.5276,586,5.9041,596,6.126,606,6.6518,616,5.9958,626,6.4626,636,5.4462,646,5.3227,656,6.5036,666,5.2831,676,6.509,686,6.2066,696,5.7321,706,5.6462,716,6.4588,726,5.7007,736,6.5919,746,5.4473,756,6.6174,766,6.4843,776,6.245,786,6.0472,796,6,796.7266,6,796.6136,15.9206,796.1693,25.8413,796.2682,35.7619,795.8697,45.6825,796.7165,55.6032,796.1549,65.5238,796.1726,75.4444,795.3916,85.3651,795.5948,95.2857,796.5307,105.2063,796.4298,115.127,795.9571,125.0476,795.6778,134.9683,795.7811,144.8889,795.3138,154.8095,796.4147,164.7302,796.7396,174.6508,796.5264,184.5714,796.6949,194.4921,795.8633,204.4127,796.0872,214.3333,795.6124,224.254,796.284,234.1746,796.2468,244.0952,796.5524,254.0159,795.7703,263.9365,795.8656,273.8571,796.4435,283.7778,796.5673,293.6984,795.4875,303.619,795.8061,313.5397,796.1493,323.4603,795.3892,333.381,796.3534,343.3016,796.258,353.2222,795.8992,363.1429,796.1422,373.0635,796.7287,382.9841,795.6871,392.9048,796.315,402.8254,796.2856,412.746,796.1158,422.6667,796.1409,432.5873,796.1135,442.5079,795.3758,452.4286,795.5992,462.3492,795.5385,472.2698,796.0638,482.1905,796.0881,492.1111,796.1617,502.0317,795.709,511.9524,795.9325,521.873,795.8798,531.7937,796.5769,541.7143,796.4266,551.6349,795.5145,561.5556,795.9271,571.4762,795.4228,581.3968,796.2884,591.3175,796.6085,601.2381,796.5446,611.1587,795.5644,621.0794,796,631,796.1094,631.1094,793.8249,632.8249,792.0472,635.0472,789.9295,636.9295,788.0228,639.0228,786,641,786,641.2403,776,641.4721,766,640.2801,756,641.4755,746,641.1782,736,641.3553,726,641.7478,716,641.0055,706,641.1753,696,641.2134,686,641.1972,676,640.9992,666,641.7107,656,640.3903,646,641.5653,636,640.376,626,640.4597,616,641.04,606,641.0283,596,640.5072,586,641.4137,576,641.1089,566,641.7267,556,641.6671,546,640.5517,536,640.6021,526,640.8708,516,641.3555,506,641.403,496,641.3012,486,640.658,476,641.6364,466,641.6338,456,640.9527,446,640.7609,436,640.5986,426,640.7854,416,641.1374,406,640.9316,396,640.5822,386,641.4874,376,640.5411,366,641.5024,356,641.4272,346,641.3719,336,641.6925,326,640.7541,316,640.6994,306,641.5189,296,640.4031,286,640.766,276,641.1155,266,641.0687,256,640.6415,246,640.957,236,641.7446,226,641.6485,216,640.4037,206,641.0785,196,640.4861,186,640.9737,176,641.293,166,641.4199,156,640.3353,146,641.4005,136,641.0084,126,640.4447,116,640.5289,106,641.3266,96,641.2499,86,640.9836,76,640.3279,66,641.6581,56,640.6882,46,640.4719,36,640.9327,26,641.5897,16,641,16.6154,641,16.0351,631.0794,15.8488,621.1587,16.1698,611.2381,16.1862,601.3175,15.4922,591.3968,16.414,581.4762,16.5588,571.5556,15.7842,561.6349,15.5708,551.7143,16.6746,541.7937,16.021,531.873,15.9998,521.9524,16.299,512.0317,15.3543,502.1111,16.53,492.1905,15.9846,482.2698,16.6688,472.3492,15.7841,462.4286,16.409,452.5079,15.556,442.5873,16.245,432.6667,16.3793,422.746,15.6727,412.8254,16.363,402.9048,15.4286,392.9841,15.5295,383.0635,16.6828,373.1429,16.6844,363.2222,16.5685,353.3016,15.6396,343.381,16.3842,333.4603,15.5279,323.5397,16.0582,313.619,15.9987,303.6984,15.7376,293.7778,16.6159,283.8571,16.4433,273.9365,15.6792,264.0159,16.5266,254.0952,16.0919,244.1746,15.4164,234.254,15.7667,224.3333,15.4747,214.4127,15.8609,204.4921,15.371,194.5714,15.3998,184.6508,16.0703,174.7302,15.8796,164.8095,15.9414,154.8889,15.8568,144.9683,16.1673,135.0476,15.4449,125.127,16.1601,115.2063,15.2569,105.2857,16.296,95.3651,16.5928,85.4444,16.5221,75.5238,16.3613,65.6032,16.1922,55.6825,16.1057,45.7619,15.36,35.8413,16.4465,25.9206,16,16" style="stroke:#181818;stroke-width:1.0;"/><path d="M786,16 L786.0661,16.0661 L787.8698,13.8698 L790.0607,12.0607 L792.1256,10.1256 L793.7758,7.7758 L796,6 " fill="none" style="stroke:#181818;stroke-width:1.0;"/><path d="M16,16 L16,16.2802 L26,15.4476 L36,16.2577 L46,16.5329 L56,15.0488 L66,15.8964 L76,15.4313 L86,15.4887 L96,15.9091 L106,15.0782 L116,16.7382 L126,15.1596 L136,15.7363 L146,16.5759 L156,15.8856 L166,16.091 L176,15.9574 L186,16.238 L196,16.3188 L206,16.7809 L216,16.8947 L226,16.9057 L236,16.3395 L246,16.6181 L256,16.9363 L266,15.0384 L276,16.9047 L286,15.6047 L296,16.7117 L306,15.34 L316,15.9087 L326,16.9888 L336,15.935 L346,16.1404 L356,16.4515 L366,16.555 L376,15.9948 L386,16.383 L396,15.2368 L406,16.3792 L416,16.7309 L426,16.5927 L436,16.8174 L446,15.3559 L456,15.1304 L466,15.1715 L476,15.9215 L486,15.738 L496,16.9085 L506,15.7671 L516,15.5426 L526,16.3044 L536,15.1109 L546,15.3078 L556,16.8653 L566,16.5809 L576,16.9793 L586,15.5709 L596,16.4256 L606,16.7872 L616,15.3701 L626,15.8722 L636,16.168 L646,16.869 L656,15.9944 L666,16.6168 L676,15.2616 L686,15.097 L696,16.6715 L706,15.0441 L716,16.6786 L726,16.2755 L736,15.6428 L746,15.5283 L756,16.6117 L766,15.6009 L776,16.7891 L786,16 " fill="none" style="stroke:#181818;stroke-width:1.0;"/><path d="M786,16 L786.2802,16 L785.4476,25.9206 L786.2577,35.8413 L786.5329,45.7619 L785.0488,55.6825 L785.8964,65.6032 L785.4313,75.5238 L785.4887,85.4444 L785.9091,95.3651 L785.0782,105.2857 L786.7382,115.2063 L785.1596,125.127 L785.7363,135.0476 L786.5759,144.9683 L785.8856,154.8889 L786.091,164.8095 L785.9574,174.7302 L786.238,184.6508 L786.3188,194.5714 L786.7809,204.4921 L786.8947,214.4127 L786.9057,224.3333 L786.3395,234.254 L786.6181,244.1746 L786.9363,254.0952 L785.0384,264.0159 L786.9047,273.9365 L785.6047,283.8571 L786.7117,293.7778 L785.34,303.6984 L785.9087,313.619 L786.9888,323.5397 L785.935,333.4603 L786.1404,343.381 L786.4515,353.3016 L786.555,363.2222 L785.9948,373.1429 L786.383,383.0635 L785.2368,392.9841 L786.3792,402.9048 L786.7309,412.8254 L786.5927,422.746 L786.8174,432.6667 L785.3559,442.5873 L785.1304,452.5079 L785.1715,462.4286 L785.9215,472.3492 L785.738,482.2698 L786.9085,492.1905 L785.7671,502.1111 L785.5426,512.0317 L786.3044,521.9524 L785.1109,531.873 L785.3078,541.7937 L786.8653,551.7143 L786.5809,561.6349 L786.9793,571.5556 L785.5709,581.4762 L786.4256,591.3968 L786.7872,601.3175 L785.3701,611.2381 L785.8722,621.1587 L786.168,631.0794 L786,641 " fill="none" style="stroke:#181818;stroke-width:1.0;"/><text fill="#000000" font-family="sans-serif" font-size="14" font-weight="bold" lengthAdjust="spacing" textLength="33" x="385.5" y="33.5332">H&#244;te</text><text fill="#000000" font-family="sans-serif" font-size="14" font-weight="bold" lengthAdjust="spacing" textLength="167" x="318.5" y="51.1426">(Windows/macOS/Linux)</text></g><!--cluster Browser--><g id="cluster_Browser"><polygon fill="none" points="59,91,59.0495,91.0495,60.9023,88.9023,63.0456,87.0456,65.0942,85.0942,66.8319,82.8319,69,81,69,80.9223,78.75,80.5735,88.5,80.6165,98.25,80.9318,108,80.3086,117.75,81.5536,127.5,80.3697,137.25,80.8022,147,81.4319,156.75,80.9142,166.5,81.0682,176.25,80.9681,186,81.1785,195.75,81.2391,205.5,81.5857,215.25,81.6711,225,81.6793,234.75,81.2546,244.5,81.4636,254.25,81.7022,264,81,263.2788,81,264.6785,90.8462,263.7035,100.6923,264.5338,110.5385,263.505,120.3846,263.9315,130.2308,264.7416,140.0769,263.9513,149.9231,264.1053,159.7692,264.3386,169.6154,264.4162,179.4615,263.9961,189.3077,264.2872,199.1538,264,209,263.8651,208.8651,262.067,211.067,260.1292,213.1292,258.1048,215.1048,256.1445,217.1445,254,219,254,218.5169,244.25,218.3478,234.5,218.3786,224.75,218.9411,215,218.8035,205.25,219.6814,195.5,218.8253,185.75,218.6569,176,219.2283,166.25,218.3332,156.5,218.4809,146.75,219.649,137,219.4357,127.25,219.7345,117.5,218.6782,107.75,219.3192,98,219.5904,88.25,218.5276,78.5,218.9041,68.75,219.126,59,219,59.6518,219,58.9958,209.1538,59.4626,199.3077,58.4462,189.4615,58.3227,179.6154,59.5036,169.7692,58.2831,159.9231,59.509,150.0769,59.2066,140.2308,58.7321,130.3846,58.6462,120.5385,59.4588,110.6923,58.7007,100.8462,59,91" style="stroke:#181818;stroke-width:1.0;"/><path d="M254,91 L254.0661,91.0661 L255.8698,88.8698 L258.0607,87.0607 L260.1256,85.1256 L261.7758,82.7758 L264,81 " fill="none" style="stroke:#181818;stroke-width:1.0;"/><path d="M59,91 L59,91.2802 L68.75,90.4476 L78.5,91.2577 L88.25,91.5329 L98,90.0488 L107.75,90.8964 L117.5,90.4313 L127.25,90.4887 L137,90.9091 L146.75,90.0782 L156.5,91.7382 L166.25,90.1596 L176,90.7363 L185.75,91.5759 L195.5,90.8856 L205.25,91.091 L215,90.9574 L224.75,91.238 L234.5,91.3188 L244.25,91.7809 L254,91 " fill="none" style="stroke:#181818;stroke-width:1.0;"/><path d="M254,91 L254.2802,91 L253.4476,100.8462 L254.2577,110.6923 L254.5329,120.5385 L253.0488,130.3846 L253.8964,140.2308 L253.4313,150.0769 L253.4887,159.9231 L253.9091,169.7692 L253.0782,179.6154 L254.7382,189.4615 L253.1596,199.3077 L253.7363,209.1538 L254,219 " fill="none" style="stroke:#181818;stroke-width:1.0;"/><text fill="#000000" font-family="sans-serif" font-size="14" font-weight="bold" lengthAdjust="spacing" textLength="104" x="105.5" y="108.5332">Client Browser</text></g><!--cluster WebServer--><g id="cluster_WebServer"><polygon fill="none" points="48,295,48.0495,295.0495,49.9023,292.9023,52.0456,291.0456,54.0942,289.0942,55.8319,286.8319,58,285,58,284.9223,67.9437,284.5735,77.8873,284.6165,87.831,284.9318,97.7746,284.3086,107.7183,285.5536,117.662,284.3697,127.6056,284.8022,137.5493,285.4319,147.493,284.9142,157.4366,285.0682,167.3803,284.9681,177.3239,285.1785,187.2676,285.2391,197.2113,285.5857,207.1549,285.6711,217.0986,285.6793,227.0423,285.2546,236.9859,285.4636,246.9296,285.7022,256.8732,284.2788,266.8169,285.6785,276.7606,284.7035,286.7042,285.5338,296.6479,284.505,306.5915,284.9315,316.5352,285.7416,326.4789,284.9513,336.4225,285.1053,346.3662,285.3386,356.3099,285.4162,366.2535,284.9961,376.1972,285.2872,386.1408,284.4276,396.0845,285.2844,406.0282,285.5482,415.9718,285.4445,425.9155,285.613,435.8592,284.5169,445.8028,284.3478,455.7465,284.3786,465.6901,284.9411,475.6338,284.8035,485.5775,285.6814,495.5211,284.8253,505.4648,284.6569,515.4085,285.2283,525.3521,284.3332,535.2958,284.4809,545.2394,285.649,555.1831,285.4357,565.1268,285.7345,575.0704,284.6782,585.0141,285.3192,594.9577,285.5904,604.9014,284.5276,614.8451,284.9041,624.7887,285.126,634.7324,285.6518,644.6761,284.9958,654.6197,285.4626,664.5634,284.4462,674.507,284.3227,684.4507,285.5036,694.3944,284.2831,704.338,285.509,714.2817,285.2066,724.2254,284.7321,734.169,284.6462,744.1127,285.4588,754.0563,284.7007,764,285,764.5919,285,763.4473,294.8462,764.6174,304.6923,764.4843,314.5385,764.245,324.3846,764.0472,334.2308,764.7266,344.0769,764.6136,353.9231,764.1693,363.7692,764.2682,373.6154,763.8697,383.4615,764.7165,393.3077,764.1549,403.1538,764,413,764.0407,413.0407,761.8566,414.8566,759.9045,416.9045,758.1251,419.1251,756.1013,421.1013,754,423,754,422.9571,744.0563,422.6778,734.1127,422.7811,724.169,422.3138,714.2254,423.4147,704.2817,423.7396,694.338,423.5264,684.3944,423.6949,674.4507,422.8633,664.507,423.0872,654.5634,422.6124,644.6197,423.284,634.6761,423.2468,624.7324,423.5524,614.7887,422.7703,604.8451,422.8656,594.9014,423.4435,584.9577,423.5673,575.0141,422.4875,565.0704,422.8061,555.1268,423.1493,545.1831,422.3892,535.2394,423.3534,525.2958,423.258,515.3521,422.8992,505.4085,423.1422,495.4648,423.7287,485.5211,422.6871,475.5775,423.315,465.6338,423.2856,455.6901,423.1158,445.7465,423.1409,435.8028,423.1135,425.8592,422.3758,415.9155,422.5992,405.9718,422.5385,396.0282,423.0638,386.0845,423.0881,376.1408,423.1617,366.1972,422.709,356.2535,422.9325,346.3099,422.8798,336.3662,423.5769,326.4225,423.4266,316.4789,422.5145,306.5352,422.9271,296.5915,422.4228,286.6479,423.2884,276.7042,423.6085,266.7606,423.5446,256.8169,422.5644,246.8732,423.464,236.9296,422.2572,226.9859,423.2002,217.0423,422.7007,207.0986,423.0967,197.1549,423.2403,187.2113,423.4721,177.2676,422.2801,167.3239,423.4755,157.3803,423.1782,147.4366,423.3553,137.493,423.7478,127.5493,423.0055,117.6056,423.1753,107.662,423.2134,97.7183,423.1972,87.7746,422.9992,77.831,423.7107,67.8873,422.3903,57.9437,423.5653,48,423,47.376,423,47.4597,413.1538,48.04,403.3077,48.0283,393.4615,47.5072,383.6154,48.4137,373.7692,48.1089,363.9231,48.7267,354.0769,48.6671,344.2308,47.5517,334.3846,47.6021,324.5385,47.8708,314.6923,48.3555,304.8462,48,295" style="stroke:#181818;stroke-width:1.0;"/><path d="M754,295 L754.0661,295.0661 L755.8698,292.8698 L758.0607,291.0607 L760.1256,289.1256 L761.7758,286.7758 L764,285 " fill="none" style="stroke:#181818;stroke-width:1.0;"/><path d="M48,295 L48,295.2802 L57.9437,294.4476 L67.8873,295.2577 L77.831,295.5329 L87.7746,294.0488 L97.7183,294.8964 L107.662,294.4313 L117.6056,294.4887 L127.5493,294.9091 L137.493,294.0782 L147.4366,295.7382 L157.3803,294.1596 L167.3239,294.7363 L177.2676,295.5759 L187.2113,294.8856 L197.1549,295.091 L207.0986,294.9574 L217.0423,295.238 L226.9859,295.3188 L236.9296,295.7809 L246.8732,295.8947 L256.8169,295.9057 L266.7606,295.3395 L276.7042,295.6181 L286.6479,295.9363 L296.5915,294.0384 L306.5352,295.9047 L316.4789,294.6047 L326.4225,295.7117 L336.3662,294.34 L346.3099,294.9087 L356.2535,295.9888 L366.1972,294.935 L376.1408,295.1404 L386.0845,295.4515 L396.0282,295.555 L405.9718,294.9948 L415.9155,295.383 L425.8592,294.2368 L435.8028,295.3792 L445.7465,295.7309 L455.6901,295.5927 L465.6338,295.8174 L475.5775,294.3559 L485.5211,294.1304 L495.4648,294.1715 L505.4085,294.9215 L515.3521,294.738 L525.2958,295.9085 L535.2394,294.7671 L545.1831,294.5426 L555.1268,295.3044 L565.0704,294.1109 L575.0141,294.3078 L584.9577,295.8653 L594.9014,295.5809 L604.8451,295.9793 L614.7887,294.5709 L624.7324,295.4256 L634.6761,295.7872 L644.6197,294.3701 L654.5634,294.8722 L664.507,295.168 L674.4507,295.869 L684.3944,294.9944 L694.338,295.6168 L704.2817,294.2616 L714.2254,294.097 L724.169,295.6715 L734.1127,294.0441 L744.0563,295.6786 L754,295 " fill="none" style="stroke:#181818;stroke-width:1.0;"/><path d="M754,295 L754.2802,295 L753.4476,304.8462 L754.2577,314.6923 L754.5329,324.5385 L753.0488,334.3846 L753.8964,344.2308 L753.4313,354.0769 L753.4887,363.9231 L753.9091,373.7692 L753.0782,383.6154 L754.7382,393.4615 L753.1596,403.3077 L753.7363,413.1538 L754,423 " fill="none" style="stroke:#181818;stroke-width:1.0;"/><text fill="#000000" font-family="sans-serif" font-size="14" font-weight="bold" lengthAdjust="spacing" textLength="276" x="264" y="312.5332">Docker Container : MagasinCentral App</text></g><!--cluster database--><g id="cluster_database"><polygon fill="none" points="135,499,135.0495,499.0495,136.9023,496.9023,139.0456,495.0456,141.0942,493.0942,142.8319,490.8319,145,489,145,488.9223,154.8929,488.5735,164.7857,488.6165,174.6786,488.9318,184.5714,488.3086,194.4643,489.5536,204.3571,488.3697,214.25,488.8022,224.1429,489.4319,234.0357,488.9142,243.9286,489.0682,253.8214,488.9681,263.7143,489.1785,273.6071,489.2391,283.5,489.5857,293.3929,489.6711,303.2857,489.6793,313.1786,489.2546,323.0714,489.4636,332.9643,489.7022,342.8571,488.2788,352.75,489.6785,362.6429,488.7035,372.5357,489.5338,382.4286,488.505,392.3214,488.9315,402.2143,489.7416,412.1071,488.9513,422,489,422.1053,489,422.3386,499,422.4162,509,421.9961,519,422.2872,529,421.4276,539,422.2844,549,422.5482,559,422.4445,569,422.613,579,421.5169,589,422,599,421.8463,598.8463,419.8535,600.8535,417.9861,602.9861,415.9537,604.9537,414.1606,607.1606,412,609,412,608.8253,402.1071,608.6569,392.2143,609.2283,382.3214,608.3332,372.4286,608.4809,362.5357,609.649,352.6429,609.4357,342.75,609.7345,332.8571,608.6782,322.9643,609.3192,313.0714,609.5904,303.1786,608.5276,293.2857,608.9041,283.3929,609.126,273.5,609.6518,263.6071,608.9958,253.7143,609.4626,243.8214,608.4462,233.9286,608.3227,224.0357,609.5036,214.1429,608.2831,204.25,609.509,194.3571,609.2066,184.4643,608.7321,174.5714,608.6462,164.6786,609.4588,154.7857,608.7007,144.8929,609.5919,135,609,134.4473,609,135.6174,599,135.4843,589,135.245,579,135.0472,569,135.7266,559,135.6136,549,135.1693,539,135.2682,529,134.8697,519,135.7165,509,135,499" style="stroke:#181818;stroke-width:1.0;"/><path d="M412,499 L412.0661,499.0661 L413.8698,496.8698 L416.0607,495.0607 L418.1256,493.1256 L419.7758,490.7758 L422,489 " fill="none" style="stroke:#181818;stroke-width:1.0;"/><path d="M135,499 L135,499.2802 L144.8929,498.4476 L154.7857,499.2577 L164.6786,499.5329 L174.5714,498.0488 L184.4643,498.8964 L194.3571,498.4313 L204.25,498.4887 L214.1429,498.9091 L224.0357,498.0782 L233.9286,499.7382 L243.8214,498.1596 L253.7143,498.7363 L263.6071,499.5759 L273.5,498.8856 L283.3929,499.091 L293.2857,498.9574 L303.1786,499.238 L313.0714,499.3188 L322.9643,499.7809 L332.8571,499.8947 L342.75,499.9057 L352.6429,499.3395 L362.5357,499.6181 L372.4286,499.9363 L382.3214,498.0384 L392.2143,499.9047 L402.1071,498.6047 L412,499 " fill="none" style="stroke:#181818;stroke-width:1.0;"/><path d="M412,499 L412.2802,499 L411.4476,509 L412.2577,519 L412.5329,529 L411.0488,539 L411.8964,549 L411.4313,559 L411.4887,569 L411.9091,579 L411.0782,589 L412.7382,599 L412,609 " fill="none" style="stroke:#181818;stroke-width:1.0;"/><text fill="#000000" font-family="sans-serif" font-size="14" font-weight="bold" lengthAdjust="spacing" textLength="211" x="169" y="516.5332">Docker Container : postgresql</text></g><!--entity RazorPages--><g id="elem_RazorPages"><polygon fill="#F1F1F1" points="104.5,130,104.5,130.2102,114.7308,129.5857,124.9615,130.1933,135.1923,130.3997,145.4231,129.2866,155.6538,129.9223,165.8846,129.5735,176.1154,129.6165,186.3462,129.9318,196.5769,129.3086,206.8077,130.5536,217.0385,129.3697,227.2692,129.8022,237.5,130,237.5551,130.133,237.8426,130.12,238.2158,130.3139,238.5566,130.4295,238.937,130.6408,239.2678,130.7322,239.3414,130.7627,239.5946,131.1605,239.7673,131.5249,239.9163,131.8795,239.932,132.1789,240,132.5,240.4636,132.5,240.7022,142.5365,239.2788,152.5729,240.6785,162.6094,239.7035,172.6458,240.5338,182.6823,240,192.7188,239.8476,192.6556,239.8325,193.0636,239.9355,193.5205,239.5457,193.7732,239.4466,194.1464,239.2678,194.4865,239.311,194.5908,238.9673,194.7611,238.5602,194.7782,238.2437,195.0143,237.7805,194.896,237.5,195.2188,237.5,195.5031,227.2692,195.7669,217.0385,195.6633,206.8077,195.8318,196.5769,194.7357,186.3462,194.5666,176.1154,194.5973,165.8846,195.1599,155.6538,195.0222,145.4231,195.9002,135.1923,195.0441,124.9615,194.8757,114.7308,195.447,104.5,195.2188,104.4149,195.0134,104.0802,194.9124,103.8757,195.1257,103.4949,194.9136,103.1795,194.8592,102.7322,194.4865,102.6331,194.4455,102.6841,194.1737,102.6212,193.8547,102.1474,193.3656,102.1169,193.0601,102,192.7188,102.126,192.7188,102.6518,182.6823,101.9958,172.6458,102.4626,162.6094,101.4462,152.5729,101.3227,142.5365,102,132.5,102.1551,132.5642,101.9257,132.055,102.4496,131.8578,102.503,131.4657,102.5033,131.0516,102.7322,130.7322,102.6871,130.6233,103.1443,130.7271,103.4012,130.3472,103.8684,130.4752,104.0759,129.9762,104.5,130" style="stroke:#181818;stroke-width:0.5;"/><polygon fill="#F1F1F1" points="220,135,220,135.0701,223,134.8619,226,135.0644,229,135.1332,232,134.7622,235,135,234.9741,135,234.8578,137,234.8722,139,234.9773,141,234.7695,143,235,145,235,145.1845,232,144.7899,229,144.9341,226,145.144,223,144.9714,220,145,220.0227,145,219.9894,143,220.0595,141,220.0797,139,220.1952,137,220,135" style="stroke:#181818;stroke-width:0.5;"/><polygon fill="#F1F1F1" points="218,137,218,137.0701,218.8,136.8619,219.6,137.0644,220.4,137.1332,221.2,136.7622,222,137,221.9741,137,221.8578,137.4,221.8722,137.8,221.9773,138.2,221.7695,138.6,222,139,222,139.1845,221.2,138.7899,220.4,138.9341,219.6,139.144,218.8,138.9714,218,139,218.0227,139,217.9894,138.6,218.0595,138.2,218.0797,137.8,218.1952,137.4,218,137" style="stroke:#181818;stroke-width:0.5;"/><polygon fill="#F1F1F1" points="218,141,218,141.0701,218.8,140.8619,219.6,141.0644,220.4,141.1332,221.2,140.7622,222,141,221.9741,141,221.8578,141.4,221.8722,141.8,221.9773,142.2,221.7695,142.6,222,143,222,143.1845,221.2,142.7899,220.4,142.9341,219.6,143.144,218.8,142.9714,218,143,218.0227,143,217.9894,142.6,218.0595,142.2,218.0797,141.8,218.1952,141.4,218,141" style="stroke:#181818;stroke-width:0.5;"/><text fill="#000000" font-family="sans-serif" font-size="14" lengthAdjust="spacing" textLength="81" x="117" y="164.5332">Razor Pages</text><text fill="#000000" font-family="sans-serif" font-size="14" lengthAdjust="spacing" textLength="98" x="117" y="182.1426">(HTML/CSS/JS)</text></g><!--entity Client--><g id="elem_Client"><polygon fill="#F1F1F1" points="570.5,334,570.5,334.2102,580.3235,333.5857,590.1471,334.1933,599.9706,334.3997,609.7941,333.2866,619.6176,333.9223,629.4412,333.5735,639.2647,333.6165,649.0882,333.9318,658.9118,333.3086,668.7353,334.5536,678.5588,333.3697,688.3824,333.8022,698.2059,334.4319,708.0294,333.9142,717.8529,334.0682,727.6765,333.9681,737.5,334,737.5228,334.055,737.8841,334.2201,738.2818,334.4733,738.6463,334.646,739.0009,334.795,739.2678,334.7322,739.3462,334.7647,739.557,335.1449,739.7769,335.5289,739.485,335.7009,740.0625,336.233,740,336.5,739.7035,336.5,740.5338,346.5365,739.505,356.5729,739.9315,366.6094,740.7416,376.6458,739.9513,386.6823,740,396.7188,740.0324,396.7322,739.9578,397.1155,739.8353,397.479,739.5595,397.7789,739.5027,398.1696,739.2678,398.4865,739.1947,398.3102,738.9505,398.7205,738.6306,398.9482,738.2638,399.0628,737.9318,399.2611,737.5,399.2188,737.5,398.7357,727.6765,398.5666,717.8529,398.5973,708.0294,399.1599,698.2059,399.0222,688.3824,399.9002,678.5588,399.0441,668.7353,398.8757,658.9118,399.447,649.0882,398.5519,639.2647,398.6996,629.4412,399.8677,619.6176,399.6544,609.7941,399.9532,599.9706,398.897,590.1471,399.5379,580.3235,399.8092,570.5,399.2188,570.4397,399.0733,570.1342,399.0428,569.809,398.9647,569.5225,398.9801,569.0853,398.6317,568.7322,398.4865,568.8747,398.5455,568.4152,398.0623,568.2308,397.693,568.448,397.4901,567.9257,396.9808,568,396.7188,568.509,396.7188,568.2066,386.6823,567.7321,376.6458,567.6462,366.6094,568.4588,356.5729,567.7007,346.5365,568,336.5,568.1823,336.5755,567.9762,336.0759,568.483,335.8717,568.5885,335.5011,568.6612,335.117,568.7322,334.7322,568.7383,334.7468,569.1785,334.8096,569.5176,334.6283,569.8145,334.345,570.1807,334.229,570.5,334" style="stroke:#181818;stroke-width:0.5;"/><polygon fill="#F1F1F1" points="720,339,720,339.0701,723,338.8619,726,339.0644,729,339.1332,732,338.7622,735,339,734.9741,339,734.8578,341,734.8722,343,734.9773,345,734.7695,347,735,349,735,349.1845,732,348.7899,729,348.9341,726,349.144,723,348.9714,720,349,720.0227,349,719.9894,347,720.0595,345,720.0797,343,720.1952,341,720,339" style="stroke:#181818;stroke-width:0.5;"/><polygon fill="#F1F1F1" points="718,341,718,341.0701,718.8,340.8619,719.6,341.0644,720.4,341.1332,721.2,340.7622,722,341,721.9741,341,721.8578,341.4,721.8722,341.8,721.9773,342.2,721.7695,342.6,722,343,722,343.1845,721.2,342.7899,720.4,342.9341,719.6,343.144,718.8,342.9714,718,343,718.0227,343,717.9894,342.6,718.0595,342.2,718.0797,341.8,718.1952,341.4,718,341" style="stroke:#181818;stroke-width:0.5;"/><polygon fill="#F1F1F1" points="718,345,718,345.0701,718.8,344.8619,719.6,345.0644,720.4,345.1332,721.2,344.7622,722,345,721.9741,345,721.8578,345.4,721.8722,345.8,721.9773,346.2,721.7695,346.6,722,347,722,347.1845,721.2,346.7899,720.4,346.9341,719.6,347.144,718.8,346.9714,718,347,718.0227,347,717.9894,346.6,718.0595,346.2,718.0797,345.8,718.1952,345.4,718,345" style="stroke:#181818;stroke-width:0.5;"/><text fill="#000000" font-family="sans-serif" font-size="14" lengthAdjust="spacing" textLength="117" x="583" y="368.5332">MagasinCentral.dll</text><text fill="#000000" font-family="sans-serif" font-size="14" lengthAdjust="spacing" textLength="132" x="583" y="386.1426">(Controllers &amp; Views)</text></g><!--entity Services--><g id="elem_Services"><polygon fill="#F1F1F1" points="320,334,320,334.2102,330,333.5857,340,334.1933,350,334.3997,360,333.2866,370,333.9223,380,333.5735,390,333.6165,400,333.9318,410,333.3086,420,334.5536,430,333.3697,440,333.8022,450,334.4319,460,333.9142,470,334.0682,480,333.9681,490,334.1785,500,334.2391,510,334.5857,520,334.6711,530,334,530.0866,334.2092,530.386,334.2249,530.7662,334.4357,531.1502,334.6556,531.3222,334.3637,531.7678,334.7322,531.9767,334.8188,531.8229,335.048,532.2251,335.5074,532.0547,335.7297,532.3325,336.1377,532.5,336.5,533.2416,336.5,532.4513,346.5365,532.6053,356.5729,532.8386,366.6094,532.9162,376.6458,532.4961,386.6823,532.5,396.7188,532.5885,396.7554,532.1773,396.9993,532.2947,397.4621,532.2295,397.8493,532.0511,398.1897,531.7678,398.4865,531.846,398.6753,531.3526,398.4842,530.9775,398.5786,530.6278,398.7345,530.346,399.0542,530,399.2188,530,399.0222,520,399.9002,510,399.0441,500,398.8757,490,399.447,480,398.5519,470,398.6996,460,399.8677,450,399.6544,440,399.9532,430,398.897,420,399.5379,410,399.8092,400,398.7463,390,399.1229,380,399.3447,370,399.8705,360,399.2146,350,399.6813,340,398.665,330,398.5415,320,399.2188,320.0642,399.3738,319.555,398.8515,319.3578,399.0826,318.9657,398.843,318.5516,398.5505,318.2322,398.4865,318.1233,398.4414,318.2271,398.1915,317.8472,397.7412,317.9752,397.5014,317.4762,397.0018,317.5,396.7188,318.1174,396.7188,317.9843,386.6823,317.745,376.6458,317.5472,366.6094,318.2266,356.5729,318.1136,346.5365,317.5,336.5,317.5521,336.5216,317.729,336.1807,317.7528,335.7763,318.16,335.5307,318.1335,335.1055,318.2322,334.7322,318.2542,334.7854,318.5082,334.3984,318.8876,334.3145,319.3606,334.4563,319.7013,334.2788,320,334" style="stroke:#181818;stroke-width:0.5;"/><polygon fill="#F1F1F1" points="512.5,339,512.5,339.0701,515.5,338.8619,518.5,339.0644,521.5,339.1332,524.5,338.7622,527.5,339,527.4741,339,527.3578,341,527.3722,343,527.4773,345,527.2695,347,527.5,349,527.5,349.1845,524.5,348.7899,521.5,348.9341,518.5,349.144,515.5,348.9714,512.5,349,512.5227,349,512.4894,347,512.5595,345,512.5797,343,512.6952,341,512.5,339" style="stroke:#181818;stroke-width:0.5;"/><polygon fill="#F1F1F1" points="510.5,341,510.5,341.0701,511.3,340.8619,512.1,341.0644,512.9,341.1332,513.7,340.7622,514.5,341,514.4741,341,514.3578,341.4,514.3722,341.8,514.4773,342.2,514.2695,342.6,514.5,343,514.5,343.1845,513.7,342.7899,512.9,342.9341,512.1,343.144,511.3,342.9714,510.5,343,510.5227,343,510.4894,342.6,510.5595,342.2,510.5797,341.8,510.6952,341.4,510.5,341" style="stroke:#181818;stroke-width:0.5;"/><polygon fill="#F1F1F1" points="510.5,345,510.5,345.0701,511.3,344.8619,512.1,345.0644,512.9,345.1332,513.7,344.7622,514.5,345,514.4741,345,514.3578,345.4,514.3722,345.8,514.4773,346.2,514.2695,346.6,514.5,347,514.5,347.1845,513.7,346.7899,512.9,346.9341,512.1,347.144,511.3,346.9714,510.5,347,510.5227,347,510.4894,346.6,510.5595,346.2,510.5797,345.8,510.6952,345.4,510.5,345" style="stroke:#181818;stroke-width:0.5;"/><text fill="#000000" font-family="sans-serif" font-size="14" lengthAdjust="spacing" textLength="175" x="332.5" y="368.5332">MagasinCentral.Services.dll</text><text fill="#000000" font-family="sans-serif" font-size="14" lengthAdjust="spacing" textLength="104" x="332.5" y="386.1426">(Logique m&#233;tier)</text></g><!--entity DataLayer--><g id="elem_DataLayer"><polygon fill="#F1F1F1" points="94,334,94,334.2102,103.7895,333.5857,113.5789,334.1933,123.3684,334.3997,133.1579,333.2866,142.9474,333.9223,152.7368,333.5735,162.5263,333.6165,172.3158,333.9318,182.1053,333.3086,191.8947,334.5536,201.6842,333.3697,211.4737,333.8022,221.2632,334.4319,231.0526,333.9142,240.8421,334.0682,250.6316,333.9681,260.4211,334.1785,270.2105,334.2391,280,334,280.0747,334.1804,280.4392,334.3531,280.7938,334.5021,281.0931,334.5178,281.4733,334.7286,281.7678,334.7322,281.984,334.8218,281.6921,334.9938,282.2696,335.5259,282.1158,335.7551,282.5179,336.2145,282.5,336.5,282.005,336.5,282.4315,346.5365,283.2416,356.5729,282.4513,366.6094,282.6053,376.6458,282.8386,386.6823,282.5,396.7188,282.6282,396.7718,282.3524,397.0718,282.2956,397.4625,281.8844,397.7064,282.0018,398.1692,281.7678,398.4865,281.8377,398.6553,281.4709,398.7699,281.1389,398.9682,280.6455,398.7771,280.2704,398.8715,280,399.2188,280,398.5973,270.2105,399.1599,260.4211,399.0222,250.6316,399.9002,240.8421,399.0441,231.0526,398.8757,221.2632,399.447,211.4737,398.5519,201.6842,398.6996,191.8947,399.8677,182.1053,399.6544,172.3158,399.9532,162.5263,398.897,152.7368,399.5379,142.9474,399.8092,133.1579,398.7463,123.3684,399.1229,113.5789,399.3447,103.7895,399.8705,94,399.2188,93.9995,399.2175,93.7055,399.2148,93.2223,398.7553,92.8529,398.5708,92.65,398.7881,92.2322,398.4865,92.0114,398.3951,92.2425,398.1979,92.003,397.8058,91.7104,397.3917,91.5375,397.0272,91.5,396.7188,91.9588,396.7188,91.2007,386.6823,92.0919,376.6458,90.9473,366.6094,92.1174,356.5729,91.9843,346.5365,91.5,336.5,91.5754,336.5312,91.661,336.1525,92.0167,335.8856,92.1283,335.5176,92.1379,335.1074,92.2322,334.7322,92.2664,334.8148,92.5692,334.5457,93.0307,334.66,93.3126,334.3406,93.6685,334.1996,94,334" style="stroke:#181818;stroke-width:0.5;"/><polygon fill="#F1F1F1" points="262.5,339,262.5,339.0701,265.5,338.8619,268.5,339.0644,271.5,339.1332,274.5,338.7622,277.5,339,277.4741,339,277.3578,341,277.3722,343,277.4773,345,277.2695,347,277.5,349,277.5,349.1845,274.5,348.7899,271.5,348.9341,268.5,349.144,265.5,348.9714,262.5,349,262.5227,349,262.4894,347,262.5595,345,262.5797,343,262.6952,341,262.5,339" style="stroke:#181818;stroke-width:0.5;"/><polygon fill="#F1F1F1" points="260.5,341,260.5,341.0701,261.3,340.8619,262.1,341.0644,262.9,341.1332,263.7,340.7622,264.5,341,264.4741,341,264.3578,341.4,264.3722,341.8,264.4773,342.2,264.2695,342.6,264.5,343,264.5,343.1845,263.7,342.7899,262.9,342.9341,262.1,343.144,261.3,342.9714,260.5,343,260.5227,343,260.4894,342.6,260.5595,342.2,260.5797,341.8,260.6952,341.4,260.5,341" style="stroke:#181818;stroke-width:0.5;"/><polygon fill="#F1F1F1" points="260.5,345,260.5,345.0701,261.3,344.8619,262.1,345.0644,262.9,345.1332,263.7,344.7622,264.5,345,264.4741,345,264.3578,345.4,264.3722,345.8,264.4773,346.2,264.2695,346.6,264.5,347,264.5,347.1845,263.7,346.7899,262.9,346.9341,262.1,347.144,261.3,346.9714,260.5,347,260.5227,347,260.4894,346.6,260.5595,346.2,260.5797,345.8,260.6952,345.4,260.5,345" style="stroke:#181818;stroke-width:0.5;"/><text fill="#000000" font-family="sans-serif" font-size="14" lengthAdjust="spacing" textLength="151" x="106.5" y="368.5332">MagasinCentral.Data.dll</text><text fill="#000000" font-family="sans-serif" font-size="14" lengthAdjust="spacing" textLength="125" x="106.5" y="386.1426">(EF Core &amp; Models)</text></g><!--entity DB--><g id="elem_DB"><path d="M244.5,548 L244.5,548 L244.5459,548.0813 L246.4563,546.6834 L248.636,545.7623 L250.728,544.6859 L252.5316,543.0989 L254.7344,542.2188 L254.7286,542.1847 L256.8008,541.6764 L258.902,541.3398 L261.0235,541.1225 L263.0752,540.4939 L265.2246,540.4414 L265.2489,540.6863 L267.6021,539.9244 L270.0261,539.8774 L272.4588,539.9176 L274.8412,539.4503 L277.25,539.25 L277.2518,539.2803 L279.6542,539.0913 L282.0649,539.0401 L284.4716,538.9225 L286.8859,538.9317 L289.2754,538.5273 L289.2859,538.8254 L291.3841,538.7548 L293.4755,538.492 L295.5768,538.5106 L297.6786,538.5424 L299.7656,538.1563 L299.7607,537.8358 L301.8171,538.4265 L303.8574,537.962 L305.9099,538.2997 L307.9498,537.8113 L310,538 L310,538 L309.9995,537.9696 L312.0519,538.3608 L314.0934,538.0408 L316.1413,538.1405 L318.1898,538.2755 L320.2344,538.1563 L320.2409,538.3411 L322.3324,538.2287 L324.435,538.4323 L326.5195,538.1247 L328.631,538.5794 L330.7246,538.5273 L330.7392,538.7705 L333.1415,538.8691 L335.5511,539.0884 L337.927,538.7466 L340.3275,538.8161 L342.75,539.25 L342.7228,538.9752 L345.1525,539.4622 L347.5515,539.6396 L349.9951,540.2662 L352.3627,540.1259 L354.7754,540.4414 L354.7499,540.2911 L356.8904,540.8969 L358.922,540.8601 L361.031,541.2803 L363.2158,542.1477 L365.2656,542.2188 L365.3609,542.3873 L367.4731,543.6592 L369.289,544.4067 L371.476,545.811 L373.5822,547.0722 L375.5,548 L375.0801,548 L375.4148,553.3219 L375.612,558.6438 L376.0793,563.9656 L375.4963,569.2875 L375.5,574.6094 L375.5,574.6094 L375.6011,574.7884 L373.3321,575.5513 L371.2582,576.6598 L369.4695,578.273 L367.1558,578.9569 L365.2656,580.3906 L365.3034,580.6137 L363.1829,580.8366 L361.0496,580.9842 L358.9452,581.302 L356.9075,582.0135 L354.7754,582.168 L354.7623,582.0356 L352.3962,582.668 L349.941,582.4001 L347.5872,583.1559 L345.1763,583.3353 L342.75,583.3594 L342.7565,583.4681 L340.3462,583.5249 L337.9592,583.9708 L335.5511,584.0652 L333.1342,584.0126 L330.7246,584.082 L330.7288,584.2012 L328.6245,584.0984 L326.5398,584.5487 L324.4329,584.3735 L322.3351,584.4556 L320.2344,584.4531 L320.2302,584.1828 L318.1848,584.3043 L316.1442,584.7515 L314.0967,584.7379 L312.0466,584.559 L310,584.6094 L310,584.6094 L309.9978,584.4662 L307.9516,584.4808 L305.9016,584.2419 L303.8622,584.6999 L301.8175,584.813 L299.7656,584.4531 L299.7739,584.6869 L297.6785,584.6876 L295.5674,584.244 L293.4729,584.2692 L291.3673,583.9841 L289.2754,584.082 L289.283,584.208 L286.8769,584.047 L284.48,584.038 L282.054,583.5466 L279.6515,583.4443 L277.25,583.3594 L277.2694,583.5555 L274.8698,583.372 L272.4174,582.6561 L270.0263,582.5588 L267.6362,582.4723 L265.2246,582.168 L265.1793,581.9003 L263.1528,581.9674 L261.0477,581.5701 L258.923,581.0574 L256.843,580.8084 L254.7344,580.3906 L254.8937,580.6726 L252.6191,579.1133 L250.7095,578.2 L248.6562,577.0324 L246.5722,575.8104 L244.5,574.6094 L244.6253,574.6094 L244.6009,569.2875 L243.9452,563.9656 L244.1437,558.6438 L244.0897,553.3219 L244.5,548 " fill="#F1F1F1" style="stroke:#181818;stroke-width:0.5;"/><path d="M244.5,548 L244.5,548 L244.5459,548.0813 L246.4563,548.9959 L248.636,550.3873 L250.728,551.6234 L252.5316,552.3489 L254.7344,553.7813 L254.7286,553.7472 L256.8008,553.9498 L258.902,554.3241 L261.0235,554.8178 L263.0752,554.9002 L265.2246,555.5586 L265.2489,555.8035 L267.6021,555.5181 L270.0261,555.9477 L272.4588,556.4645 L274.8412,556.4738 L277.25,556.75 L277.2518,556.7803 L279.6542,556.8804 L282.0649,557.1183 L284.4716,557.2897 L286.8859,557.588 L289.2754,557.4727 L289.2859,557.7707 L291.3841,557.8486 L293.4755,557.7342 L295.5768,557.9012 L297.6786,558.0814 L299.7656,557.8438 L299.7607,557.5233 L301.8171,558.1765 L303.8574,557.7745 L305.9099,558.1747 L307.9498,557.7488 L310,558 L310,558 L309.9995,557.9696 L312.0519,558.2983 L314.0934,557.9158 L316.1413,557.953 L318.1898,558.0255 L320.2344,557.8438 L320.2409,558.0286 L322.3324,557.7678 L324.435,557.8229 L326.5195,557.3668 L328.631,557.6732 L330.7246,557.4727 L330.7392,557.7159 L333.1415,557.5253 L335.5511,557.4556 L337.927,556.8247 L340.3275,556.6052 L342.75,556.75 L342.7228,556.4752 L345.1525,556.4857 L347.5515,556.1865 L349.9951,556.3365 L352.3627,555.7196 L354.7754,555.5586 L354.7499,555.4083 L356.8904,555.3032 L358.922,554.5554 L361.031,554.2647 L363.2158,554.4211 L365.2656,553.7813 L365.3609,553.9498 L367.4731,552.9092 L369.289,551.3442 L371.476,550.436 L373.5822,549.3847 L375.5,548 " fill="none" style="stroke:#181818;stroke-width:0.5;"/><text fill="#000000" font-family="sans-serif" font-size="14" lengthAdjust="spacing" textLength="111" x="254.5" y="576.5332">Base de donn&#233;es</text></g><!--link Browser to WebServer--><g id="link_Browser_WebServer"><path d="M63.9741,219.023 L64.0674,219.0281 L63.7789,219.2208 L64.0373,219.4434 L64.1176,219.6562 L63.6123,219.8371 L63.9175,220.0622 L63.8831,220.0604 L63.6358,221.7503 L63.5624,223.4498 L63.6099,225.1558 L63.2409,226.8391 L63.4552,228.5542 L63.7009,228.5676 L62.7837,235.7359 L62.5839,242.9433 L62.4715,250.1554 L61.85,257.3398 L61.4962,264.5388 L61.5265,264.5404 L61.2833,268.19 L61.1779,271.847 L61.006,275.5005 L60.961,279.1608 L60.5023,282.7986 L60.8001,282.8149 L60.7914,283.0408 L60.5907,283.2564 L60.6712,283.4872 L60.7648,283.7187 L60.4408,283.9276 L60.1208,283.9101 L60.801,282.8584 L60.4274,281.7494 L60.855,280.6839 L60.4575,279.5736 L60.7363,278.5001 " fill="none" style="stroke:#181818;stroke-width:1.0;"/><polygon fill="#181818" points="60.4102,284.4912,60.4725,284.5231,61.1838,282.6745,62.2608,281.0128,63.2187,279.2903,63.785,277.3675,64.8934,275.7219,64.8761,275.7026,63.9562,276.3714,63.1235,277.1374,62.3513,277.971,61.3704,278.5717,60.6819,279.4986,60.8193,279.6218,59.7702,278.516,59.1222,277.77,58.5231,277.0678,57.6393,276.1103,56.9052,275.2871,56.9265,275.2952,57.5963,277.1241,58.3628,278.9899,59.0827,280.8379,59.8916,282.7198,60.4102,284.4912" style="stroke:#181818;stroke-width:1.0;"/><text fill="#000000" font-family="sans-serif" font-size="13" lengthAdjust="spacing" textLength="77" x="63" y="257.4951">HTTP/HTTPS</text></g><!--link DataLayer to database--><g id="link_DataLayer_database"><path d="M187,399.37 L187.2802,399.37 L186.4476,408.8648 L187.2577,418.3597 L187.5329,427.8545 L186.0488,437.3494 L187,446.8442 L186.9655,446.8442 L186.8104,452.1131 L186.8296,457.3819 L186.9697,462.6508 L186.6927,467.9196 L187,473.1885 L187.2461,473.1885 L186.7199,475.7989 L186.9121,478.4093 L187.192,481.0197 L186.9619,483.6302 L187,486.2406 L187.0303,486.2406 L186.9858,486.5625 L187.0793,486.8845 L187.1063,487.2064 L187.2603,487.5284 L187,487.8503 L187.2982,487.8503 L187.3019,486.8109 L187.1132,485.7714 L187.206,484.7319 L187.3121,483.6924 L187,482.6529 " fill="none" style="stroke:#181818;stroke-width:1.0;"/><polygon fill="#181818" points="187,488.6529,187.064,488.6813,187.6738,486.7968,188.6589,485.0791,189.5217,483.307,189.9827,481.3563,191,479.6529,190.9817,479.6346,190.0995,480.3524,189.3096,481.1625,188.5839,482.0368,187.637,482.6899,187,483.6529,187.1305,483.7834,186.0514,482.7043,185.3534,482.0063,184.7018,481.3547,183.7798,480.4327,183,479.6529,183.0208,479.6621,183.7903,481.4486,184.6544,483.2771,185.4728,485.0853,186.3784,486.9322,187,488.6529" style="stroke:#181818;stroke-width:1.0;"/><text fill="#000000" font-family="sans-serif" font-size="13" lengthAdjust="spacing" textLength="25" x="188" y="461.4951">TCP</text></g><!--SRC=[XP6_JiCm4CRtFCKf0w93oTu1YQQW2AMY8X4TWC5DJi6gSvVQBkMF-a3TUOE-67QIHZ1riMpTTx_lkxDPIsg45ZMy2IftMbgB15PlCR3SW6LOiRLSGoar5bOo1G5nYH0cnn-BBtIvb5JopaIrA1woA9Mq_HY580maR2ny1m2TFbOIoS9KEp7gLj7VMz7pe_XY3GjHeN7K99-dKPnbqNqsUlNQjjnMdNWV3DWP5sk7Y9ciaEHk4vYBIXX9iRFJGi5DqxHkIrnbgDzxFu22wuR9Pmh_TroLIha87gbPATG6Bk19uivqWtMJd65uArcWwM4fLtApHQYF1ojHTw2JvWng9gpeCRTtRbADBi_SJQ_wG5wGYa_KPrVJk3-fD9gDQXjBrxWI1lkD3Czmwa_7A9deU43JsKnF_DF7ZSVNVzOwWIJF5v4_CYSQKhMoWJs1F5u4- -0N]--></g></svg>