<?xml version="1.0" encoding="us-ascii" standalone="no"?><svg xmlns="http://www.w3.org/2000/svg" xmlns:xlink="http://www.w3.org/1999/xlink" contentStyleType="text/css" height="448px" preserveAspectRatio="none" style="width:634px;height:448px;background:#FFFFFF;" version="1.1" viewBox="0 0 634 448" width="634px" zoomAndPan="magnify"><defs/><g><text fill="#000000" font-family="sans-serif" font-size="14" font-weight="bold" lengthAdjust="spacing" textLength="450" x="91" y="29.5332">Vue de Processus - Consultation des performances par magasin</text><line style="stroke:#181818;stroke-width:0.5;stroke-dasharray:5.0,5.0;" x1="48" x2="48" y1="121.2188" y2="366.6797"/><line style="stroke:#181818;stroke-width:0.5;stroke-dasharray:5.0,5.0;" x1="232.5" x2="232.5" y1="121.2188" y2="366.6797"/><line style="stroke:#181818;stroke-width:0.5;stroke-dasharray:5.0,5.0;" x1="418" x2="418" y1="121.2188" y2="366.6797"/><line style="stroke:#181818;stroke-width:0.5;stroke-dasharray:5.0,5.0;" x1="570" x2="570" y1="121.2188" y2="366.6797"/><text fill="#000000" font-family="sans-serif" font-size="14" lengthAdjust="spacing" textLength="81" x="5" y="118.1426">Gestionnaire</text><ellipse cx="48.5" cy="52.1094" fill="#E2E2F0" rx="8" ry="8" style="stroke:#181818;stroke-width:0.5;"/><path d="M48.5,60.1094 L48.5,87.1094 M35.5,68.1094 L61.5,68.1094 M48.5,87.1094 L35.5,102.1094 M48.5,87.1094 L61.5,102.1094 " fill="none" style="stroke:#181818;stroke-width:0.5;"/><text fill="#000000" font-family="sans-serif" font-size="14" lengthAdjust="spacing" textLength="81" x="5" y="380.2129">Gestionnaire</text><ellipse cx="48.5" cy="391.7891" fill="#E2E2F0" rx="8" ry="8" style="stroke:#181818;stroke-width:0.5;"/><path d="M48.5,399.7891 L48.5,426.7891 M35.5,407.7891 L61.5,407.7891 M48.5,426.7891 L35.5,441.7891 M48.5,426.7891 L61.5,441.7891 " fill="none" style="stroke:#181818;stroke-width:0.5;"/><rect fill="#E2E2F0" height="49.2188" rx="2.5" ry="2.5" style="stroke:#181818;stroke-width:0.5;" width="174" x="145.5" y="71"/><text fill="#000000" font-family="sans-serif" font-size="14" lengthAdjust="spacing" textLength="103" x="181" y="92.5332">Application MVC</text><text fill="#000000" font-family="sans-serif" font-size="14" lengthAdjust="spacing" textLength="160" x="152.5" y="110.1426">(PerformancesController)</text><rect fill="#E2E2F0" height="49.2188" rx="2.5" ry="2.5" style="stroke:#181818;stroke-width:0.5;" width="174" x="145.5" y="365.6797"/><text fill="#000000" font-family="sans-serif" font-size="14" lengthAdjust="spacing" textLength="103" x="181" y="387.2129">Application MVC</text><text fill="#000000" font-family="sans-serif" font-size="14" lengthAdjust="spacing" textLength="160" x="152.5" y="404.8223">(PerformancesController)</text><rect fill="#E2E2F0" height="49.2188" rx="2.5" ry="2.5" style="stroke:#181818;stroke-width:0.5;" width="167" x="335" y="71"/><text fill="#000000" font-family="sans-serif" font-size="14" lengthAdjust="spacing" textLength="153" x="342" y="92.5332">PerformancesMcService</text><text fill="#000000" font-family="sans-serif" font-size="14" lengthAdjust="spacing" textLength="143" x="347" y="110.1426">PerformanceController</text><rect fill="#E2E2F0" height="49.2188" rx="2.5" ry="2.5" style="stroke:#181818;stroke-width:0.5;" width="167" x="335" y="365.6797"/><text fill="#000000" font-family="sans-serif" font-size="14" lengthAdjust="spacing" textLength="153" x="342" y="387.2129">PerformancesMcService</text><text fill="#000000" font-family="sans-serif" font-size="14" lengthAdjust="spacing" textLength="143" x="347" y="404.8223">PerformanceController</text><rect fill="#E2E2F0" height="49.2188" rx="2.5" ry="2.5" style="stroke:#181818;stroke-width:0.5;" width="116" x="512" y="71"/><text fill="#000000" font-family="sans-serif" font-size="14" lengthAdjust="spacing" textLength="102" x="519" y="92.5332">VenteMcService</text><text fill="#000000" font-family="sans-serif" font-size="14" lengthAdjust="spacing" textLength="99" x="520.5" y="110.1426">VenteController</text><rect fill="#E2E2F0" height="49.2188" rx="2.5" ry="2.5" style="stroke:#181818;stroke-width:0.5;" width="116" x="512" y="365.6797"/><text fill="#000000" font-family="sans-serif" font-size="14" lengthAdjust="spacing" textLength="102" x="519" y="387.2129">VenteMcService</text><text fill="#000000" font-family="sans-serif" font-size="14" lengthAdjust="spacing" textLength="99" x="520.5" y="404.8223">VenteController</text><polygon fill="#181818" points="220.5,149.5703,230.5,153.5703,220.5,157.5703,224.5,153.5703" style="stroke:#181818;stroke-width:1.0;"/><line style="stroke:#181818;stroke-width:1.0;" x1="48.5" x2="226.5" y1="153.5703" y2="153.5703"/><text fill="#000000" font-family="sans-serif" font-size="13" lengthAdjust="spacing" textLength="112" x="55.5" y="148.7139">GET /performances</text><polygon fill="#181818" points="406.5,179.9219,416.5,183.9219,406.5,187.9219,410.5,183.9219" style="stroke:#181818;stroke-width:1.0;"/><line style="stroke:#181818;stroke-width:1.0;" x1="232.5" x2="412.5" y1="183.9219" y2="183.9219"/><text fill="#000000" font-family="sans-serif" font-size="13" lengthAdjust="spacing" textLength="112" x="239.5" y="179.0654">GET /performances</text><polygon fill="#181818" points="558,210.2734,568,214.2734,558,218.2734,562,214.2734" style="stroke:#181818;stroke-width:1.0;"/><line style="stroke:#181818;stroke-width:1.0;" x1="418.5" x2="564" y1="214.2734" y2="214.2734"/><text fill="#000000" font-family="sans-serif" font-size="13" lengthAdjust="spacing" textLength="71" x="425.5" y="209.417">GET /ventes</text><polygon fill="#181818" points="429.5,240.625,419.5,244.625,429.5,248.625,425.5,244.625" style="stroke:#181818;stroke-width:1.0;"/><line style="stroke:#181818;stroke-width:1.0;stroke-dasharray:2.0,2.0;" x1="423.5" x2="569" y1="244.625" y2="244.625"/><text fill="#000000" font-family="sans-serif" font-size="13" lengthAdjust="spacing" textLength="94" x="435.5" y="239.7686">Liste des ventes</text><line style="stroke:#181818;stroke-width:1.0;" x1="418.5" x2="460.5" y1="274.9766" y2="274.9766"/><line style="stroke:#181818;stroke-width:1.0;" x1="460.5" x2="460.5" y1="274.9766" y2="287.9766"/><line style="stroke:#181818;stroke-width:1.0;" x1="419.5" x2="460.5" y1="287.9766" y2="287.9766"/><polygon fill="#181818" points="429.5,283.9766,419.5,287.9766,429.5,291.9766,425.5,287.9766" style="stroke:#181818;stroke-width:1.0;"/><text fill="#000000" font-family="sans-serif" font-size="13" lengthAdjust="spacing" textLength="128" x="425.5" y="270.1201">Calcul des indicateurs</text><polygon fill="#181818" points="243.5,314.3281,233.5,318.3281,243.5,322.3281,239.5,318.3281" style="stroke:#181818;stroke-width:1.0;"/><line style="stroke:#181818;stroke-width:1.0;stroke-dasharray:2.0,2.0;" x1="237.5" x2="417.5" y1="318.3281" y2="318.3281"/><text fill="#000000" font-family="sans-serif" font-size="13" lengthAdjust="spacing" textLength="162" x="249.5" y="313.4717">R&#233;sultats des performances</text><polygon fill="#181818" points="59.5,344.6797,49.5,348.6797,59.5,352.6797,55.5,348.6797" style="stroke:#181818;stroke-width:1.0;"/><line style="stroke:#181818;stroke-width:1.0;stroke-dasharray:2.0,2.0;" x1="53.5" x2="231.5" y1="348.6797" y2="348.6797"/><text fill="#000000" font-family="sans-serif" font-size="13" lengthAdjust="spacing" textLength="160" x="65.5" y="343.8232">Affichage des performances</text><!--SRC=[RP5DQWCn38NtFeN8gbqCtMTH24C9XGP2VsQLZN0qgS2n1qlEdNgENgmUJqCzcIxrtgSdIrPMHz0bWYF1FWPB8acWWJPuIKvHEVZi2GmK-n3FwErOO8Gpdb3O6uDMGuGjoSXwv4Wc-ygM1_GAgyqmEBPJqgvh3_vkNsNbGHg3SnJlLu027y_pxfhTsJUA5xPqy9Nybr02AcUUr95NgY9AVTDSD6FgPQ1vp8-2DMoVtk6XFeF9SZQhWVzIfWOoNsPSoSjOY9cqPf7smg9KxlyBteRDyHQTJQxmx8_ZqIb5cVTSrtdz_ff-M1R_MnRBtEmCQzZqFTjFFD6ouGS0]--></g></svg>