<?xml version="1.0" encoding="us-ascii" standalone="no"?><svg xmlns="http://www.w3.org/2000/svg" xmlns:xlink="http://www.w3.org/1999/xlink" contentStyleType="text/css" height="527px" preserveAspectRatio="none" style="width:938px;height:527px;background:#FFFFFF;" version="1.1" viewBox="0 0 938 527" width="938px" zoomAndPan="magnify"><defs/><g><text fill="#000000" font-family="sans-serif" font-size="14" font-weight="bold" lengthAdjust="spacing" textLength="480" x="230" y="29.5332">Vue de Processus - Demande de R&#233;approvisionnement Automatique</text><rect fill="none" height="198.9453" style="stroke:#000000;stroke-width:1.5;" width="921" x="10" y="229.2734"/><line style="stroke:#181818;stroke-width:0.5;stroke-dasharray:5.0,5.0;" x1="91" x2="91" y1="121.2188" y2="445.2188"/><line style="stroke:#181818;stroke-width:0.5;stroke-dasharray:5.0,5.0;" x1="348" x2="348" y1="121.2188" y2="445.2188"/><line style="stroke:#181818;stroke-width:0.5;stroke-dasharray:5.0,5.0;" x1="527" x2="527" y1="121.2188" y2="445.2188"/><line style="stroke:#181818;stroke-width:0.5;stroke-dasharray:5.0,5.0;" x1="701" x2="701" y1="121.2188" y2="445.2188"/><text fill="#000000" font-family="sans-serif" font-size="14" lengthAdjust="spacing" textLength="136" x="20" y="118.1426">ResponsableMagasin</text><ellipse cx="91" cy="52.1094" fill="#E2E2F0" rx="8" ry="8" style="stroke:#181818;stroke-width:0.5;"/><path d="M91,60.1094 L91,87.1094 M78,68.1094 L104,68.1094 M91,87.1094 L78,102.1094 M91,87.1094 L104,102.1094 " fill="none" style="stroke:#181818;stroke-width:0.5;"/><text fill="#000000" font-family="sans-serif" font-size="14" lengthAdjust="spacing" textLength="136" x="20" y="458.752">ResponsableMagasin</text><ellipse cx="91" cy="470.3281" fill="#E2E2F0" rx="8" ry="8" style="stroke:#181818;stroke-width:0.5;"/><path d="M91,478.3281 L91,505.3281 M78,486.3281 L104,486.3281 M91,505.3281 L78,520.3281 M91,505.3281 L104,520.3281 " fill="none" style="stroke:#181818;stroke-width:0.5;"/><rect fill="#E2E2F0" height="49.2188" rx="2.5" ry="2.5" style="stroke:#181818;stroke-width:0.5;" width="224" x="236" y="71"/><text fill="#000000" font-family="sans-serif" font-size="14" lengthAdjust="spacing" textLength="103" x="296.5" y="92.5332">Application MVC</text><text fill="#000000" font-family="sans-serif" font-size="14" lengthAdjust="spacing" textLength="210" x="243" y="110.1426">(ReapprovisionnementController)</text><rect fill="#E2E2F0" height="49.2188" rx="2.5" ry="2.5" style="stroke:#181818;stroke-width:0.5;" width="224" x="236" y="444.2188"/><text fill="#000000" font-family="sans-serif" font-size="14" lengthAdjust="spacing" textLength="103" x="296.5" y="465.752">Application MVC</text><text fill="#000000" font-family="sans-serif" font-size="14" lengthAdjust="spacing" textLength="210" x="243" y="483.3613">(ReapprovisionnementController)</text><rect fill="#E2E2F0" height="49.2188" rx="2.5" ry="2.5" style="stroke:#181818;stroke-width:0.5;" width="114" x="470" y="71"/><text fill="#000000" font-family="sans-serif" font-size="14" lengthAdjust="spacing" textLength="100" x="477" y="92.5332">StockMcService</text><text fill="#000000" font-family="sans-serif" font-size="14" lengthAdjust="spacing" textLength="97" x="478.5" y="110.1426">StockController</text><rect fill="#E2E2F0" height="49.2188" rx="2.5" ry="2.5" style="stroke:#181818;stroke-width:0.5;" width="114" x="470" y="444.2188"/><text fill="#000000" font-family="sans-serif" font-size="14" lengthAdjust="spacing" textLength="100" x="477" y="465.752">StockMcService</text><text fill="#000000" font-family="sans-serif" font-size="14" lengthAdjust="spacing" textLength="97" x="478.5" y="483.3613">StockController</text><rect fill="#E2E2F0" height="49.2188" rx="2.5" ry="2.5" style="stroke:#181818;stroke-width:0.5;" width="214" x="594" y="71"/><text fill="#000000" font-family="sans-serif" font-size="14" lengthAdjust="spacing" textLength="100" x="651" y="92.5332">StockMcService</text><text fill="#000000" font-family="sans-serif" font-size="14" lengthAdjust="spacing" textLength="200" x="601" y="110.1426">ReapprovisionnementController</text><rect fill="#E2E2F0" height="49.2188" rx="2.5" ry="2.5" style="stroke:#181818;stroke-width:0.5;" width="214" x="594" y="444.2188"/><text fill="#000000" font-family="sans-serif" font-size="14" lengthAdjust="spacing" textLength="100" x="651" y="465.752">StockMcService</text><text fill="#000000" font-family="sans-serif" font-size="14" lengthAdjust="spacing" textLength="200" x="601" y="483.3613">ReapprovisionnementController</text><polygon fill="#181818" points="336,149.5703,346,153.5703,336,157.5703,340,153.5703" style="stroke:#181818;stroke-width:1.0;"/><line style="stroke:#181818;stroke-width:1.0;" x1="91" x2="342" y1="153.5703" y2="153.5703"/><text fill="#000000" font-family="sans-serif" font-size="13" lengthAdjust="spacing" textLength="233" x="98" y="148.7139">GET /reapprovisionnement?magasinId=X</text><polygon fill="#181818" points="515,179.9219,525,183.9219,515,187.9219,519,183.9219" style="stroke:#181818;stroke-width:1.0;"/><line style="stroke:#181818;stroke-width:1.0;" x1="348" x2="521" y1="183.9219" y2="183.9219"/><text fill="#000000" font-family="sans-serif" font-size="13" lengthAdjust="spacing" textLength="130" x="355" y="179.0654">GET /stock/magasin/X</text><polygon fill="#181818" points="359,210.2734,349,214.2734,359,218.2734,355,214.2734" style="stroke:#181818;stroke-width:1.0;"/><line style="stroke:#181818;stroke-width:1.0;stroke-dasharray:2.0,2.0;" x1="353" x2="526" y1="214.2734" y2="214.2734"/><text fill="#000000" font-family="sans-serif" font-size="13" lengthAdjust="spacing" textLength="148" x="365" y="209.417">Stock actuel des produits</text><path d="M10,229.2734 L71,229.2734 L71,237.625 L61,247.625 L10,247.625 L10,229.2734 " fill="#EEEEEE" style="stroke:#000000;stroke-width:1.5;"/><rect fill="none" height="198.9453" style="stroke:#000000;stroke-width:1.5;" width="921" x="10" y="229.2734"/><text fill="#000000" font-family="sans-serif" font-size="13" font-weight="bold" lengthAdjust="spacing" textLength="16" x="25" y="243.7686">alt</text><text fill="#000000" font-family="sans-serif" font-size="11" font-weight="bold" lengthAdjust="spacing" textLength="160" x="86" y="242.6924">[Un produit est sous le seuil]</text><polygon fill="#181818" points="689,265.9766,699,269.9766,689,273.9766,693,269.9766" style="stroke:#181818;stroke-width:1.0;"/><line style="stroke:#181818;stroke-width:1.0;" x1="348" x2="695" y1="269.9766" y2="269.9766"/><text fill="#000000" font-family="sans-serif" font-size="13" lengthAdjust="spacing" textLength="161" x="355" y="265.1201">POST /reapprovisionnement</text><line style="stroke:#181818;stroke-width:1.0;" x1="701" x2="743" y1="300.3281" y2="300.3281"/><line style="stroke:#181818;stroke-width:1.0;" x1="743" x2="743" y1="300.3281" y2="313.3281"/><line style="stroke:#181818;stroke-width:1.0;" x1="702" x2="743" y1="313.3281" y2="313.3281"/><polygon fill="#181818" points="712,309.3281,702,313.3281,712,317.3281,708,313.3281" style="stroke:#181818;stroke-width:1.0;"/><text fill="#000000" font-family="sans-serif" font-size="13" lengthAdjust="spacing" textLength="211" x="708" y="295.4717">cr&#233;er DemandeReapprovisionnement</text><polygon fill="#181818" points="359,339.6797,349,343.6797,359,347.6797,355,343.6797" style="stroke:#181818;stroke-width:1.0;"/><line style="stroke:#181818;stroke-width:1.0;stroke-dasharray:2.0,2.0;" x1="353" x2="700" y1="343.6797" y2="343.6797"/><text fill="#000000" font-family="sans-serif" font-size="13" lengthAdjust="spacing" textLength="70" x="365" y="338.8232">201 Created</text><polygon fill="#181818" points="102,370.0313,92,374.0313,102,378.0313,98,374.0313" style="stroke:#181818;stroke-width:1.0;"/><line style="stroke:#181818;stroke-width:1.0;stroke-dasharray:2.0,2.0;" x1="96" x2="347" y1="374.0313" y2="374.0313"/><text fill="#000000" font-family="sans-serif" font-size="13" lengthAdjust="spacing" textLength="120" x="108" y="369.1748">Confirmation affich&#233;e</text><line style="stroke:#000000;stroke-width:1.0;stroke-dasharray:2.0,2.0;" x1="10" x2="931" y1="383.0313" y2="383.0313"/><text fill="#000000" font-family="sans-serif" font-size="11" font-weight="bold" lengthAdjust="spacing" textLength="224" x="15" y="394.4502">[Aucun besoin de r&#233;approvisionnement]</text><polygon fill="#181818" points="102,416.2188,92,420.2188,102,424.2188,98,420.2188" style="stroke:#181818;stroke-width:1.0;"/><line style="stroke:#181818;stroke-width:1.0;stroke-dasharray:2.0,2.0;" x1="96" x2="347" y1="420.2188" y2="420.2188"/><text fill="#000000" font-family="sans-serif" font-size="13" lengthAdjust="spacing" textLength="96" x="108" y="415.3623">"Stock suffisant"</text><!--SRC=[XLB1JW8n4BttAoQSz41GZoHgo6eC1o9PX73WKhg3DdRRscdv9xw37tFixiQG9N2SwNjlNcTUrD4Wh192XJ0FJY5H8XZ22zRILhbT7W_I- -3schIp5ckq4IOfkbf6_PDG2AcY2r0YUMT9RWtEvASaROMN8MgblMJ6OEAzqOevpi9iLMpiJOazuSBP69mn66u780cMqrEHHNJgUwOM6FPQuSRc-f-KERbtcNPnSXPf4KBqlmN39_O5OtXx_O1Hw4izrmrmMZsk1ICPdmrq5FehHYrej1RDux2JRKfUQaB31o1W-IhfIBnf4s5fkmOWHI371-CZ4YPj140phxNFQlFtnNcNZErG9mGLZWSCNGBAoyJEyyFTFHGy96BLUiYQlTMDWVUyqw5kSY1tEws-U9v0GyYfKid25ianbACNpaJlYdnpQg34oiIt7mYqbVW5]--></g></svg>