<?xml version="1.0" encoding="us-ascii" standalone="no"?><svg xmlns="http://www.w3.org/2000/svg" xmlns:xlink="http://www.w3.org/1999/xlink" contentStyleType="text/css" height="1073px" preserveAspectRatio="none" style="width:2150px;height:1073px;background:#FFFFFF;" version="1.1" viewBox="0 0 2150 1073" width="2150px" zoomAndPan="magnify"><defs/><g><text fill="#000000" font-family="sans-serif" font-size="14" font-weight="bold" lengthAdjust="spacing" textLength="370" x="883" y="24.5332">Vue de D&#233;veloppement - Architecture Microservices</text><!--cluster ProduitMcService--><g id="cluster_ProduitMcService"><path d="M1186,47.6094 L1313,47.6094 A3.75,3.75 0 0 1 1315.5,50.1094 L1322.5,71.2188 L2066.5,71.2188 A2.5,2.5 0 0 1 2069,73.7188 L2069,188.1094 A2.5,2.5 0 0 1 2066.5,190.6094 L1186,190.6094 A2.5,2.5 0 0 1 1183.5,188.1094 L1183.5,50.1094 A2.5,2.5 0 0 1 1186,47.6094 " fill="none" style="stroke:#000000;stroke-width:1.5;"/><line style="stroke:#000000;stroke-width:1.5;" x1="1183.5" x2="1322.5" y1="71.2188" y2="71.2188"/><text fill="#000000" font-family="sans-serif" font-size="14" font-weight="bold" lengthAdjust="spacing" textLength="126" x="1187.5" y="64.1426">ProduitMcService</text></g><!--cluster VenteMcService--><g id="cluster_VenteMcService"><path d="M565,582.6094 L682,582.6094 A3.75,3.75 0 0 1 684.5,585.1094 L691.5,606.2188 L1612,606.2188 A2.5,2.5 0 0 1 1614.5,608.7188 L1614.5,802.1094 A2.5,2.5 0 0 1 1612,804.6094 L565,804.6094 A2.5,2.5 0 0 1 562.5,802.1094 L562.5,585.1094 A2.5,2.5 0 0 1 565,582.6094 " fill="none" style="stroke:#000000;stroke-width:1.5;"/><line style="stroke:#000000;stroke-width:1.5;" x1="562.5" x2="691.5" y1="606.2188" y2="606.2188"/><text fill="#000000" font-family="sans-serif" font-size="14" font-weight="bold" lengthAdjust="spacing" textLength="116" x="566.5" y="599.1426">VenteMcService</text></g><!--cluster StockMcService--><g id="cluster_StockMcService"><path d="M1139.5,230.6094 L1254.5,230.6094 A3.75,3.75 0 0 1 1257,233.1094 L1264,254.2188 L2140.5,254.2188 A2.5,2.5 0 0 1 2143,256.7188 L2143,540.1094 A2.5,2.5 0 0 1 2140.5,542.6094 L1139.5,542.6094 A2.5,2.5 0 0 1 1137,540.1094 L1137,233.1094 A2.5,2.5 0 0 1 1139.5,230.6094 " fill="none" style="stroke:#000000;stroke-width:1.5;"/><line style="stroke:#000000;stroke-width:1.5;" x1="1137" x2="1264" y1="254.2188" y2="254.2188"/><text fill="#000000" font-family="sans-serif" font-size="14" font-weight="bold" lengthAdjust="spacing" textLength="114" x="1141" y="247.1426">StockMcService</text></g><!--cluster ClientMcService--><g id="cluster_ClientMcService"><path d="M34.5,184.6094 L151.5,184.6094 A3.75,3.75 0 0 1 154,187.1094 L161,208.2188 L987,208.2188 A2.5,2.5 0 0 1 989.5,210.7188 L989.5,290.1094 A2.5,2.5 0 0 1 987,292.6094 L34.5,292.6094 A2.5,2.5 0 0 1 32,290.1094 L32,187.1094 A2.5,2.5 0 0 1 34.5,184.6094 " fill="none" style="stroke:#000000;stroke-width:1.5;"/><line style="stroke:#000000;stroke-width:1.5;" x1="32" x2="161" y1="208.2188" y2="208.2188"/><text fill="#000000" font-family="sans-serif" font-size="14" font-weight="bold" lengthAdjust="spacing" textLength="116" x="36" y="201.1426">ClientMcService</text></g><!--cluster PanierMcService--><g id="cluster_PanierMcService"><path d="M563,844.6094 L684,844.6094 A3.75,3.75 0 0 1 686.5,847.1094 L693.5,868.2188 L1614,868.2188 A2.5,2.5 0 0 1 1616.5,870.7188 L1616.5,1064.1094 A2.5,2.5 0 0 1 1614,1066.6094 L563,1066.6094 A2.5,2.5 0 0 1 560.5,1064.1094 L560.5,847.1094 A2.5,2.5 0 0 1 563,844.6094 " fill="none" style="stroke:#000000;stroke-width:1.5;"/><line style="stroke:#000000;stroke-width:1.5;" x1="560.5" x2="693.5" y1="868.2188" y2="868.2188"/><text fill="#000000" font-family="sans-serif" font-size="14" font-weight="bold" lengthAdjust="spacing" textLength="120" x="564.5" y="861.1426">PanierMcService</text></g><!--cluster CommandeMcService--><g id="cluster_CommandeMcService"><path d="M16.5,732.6094 L170.5,732.6094 A3.75,3.75 0 0 1 173,735.1094 L180,756.2188 L413.5,756.2188 A2.5,2.5 0 0 1 416,758.7188 L416,838.1094 A2.5,2.5 0 0 1 413.5,840.6094 L16.5,840.6094 A2.5,2.5 0 0 1 14,838.1094 L14,735.1094 A2.5,2.5 0 0 1 16.5,732.6094 " fill="none" style="stroke:#000000;stroke-width:1.5;"/><line style="stroke:#000000;stroke-width:1.5;" x1="14" x2="180" y1="756.2188" y2="756.2188"/><text fill="#000000" font-family="sans-serif" font-size="14" font-weight="bold" lengthAdjust="spacing" textLength="153" x="18" y="749.1426">CommandeMcService</text></g><!--cluster RapportMcService--><g id="cluster_RapportMcService"><path d="M27,384.6094 L159,384.6094 A3.75,3.75 0 0 1 161.5,387.1094 L168.5,408.2188 L403,408.2188 A2.5,2.5 0 0 1 405.5,410.7188 L405.5,580.1094 A2.5,2.5 0 0 1 403,582.6094 L27,582.6094 A2.5,2.5 0 0 1 24.5,580.1094 L24.5,387.1094 A2.5,2.5 0 0 1 27,384.6094 " fill="none" style="stroke:#000000;stroke-width:1.5;"/><line style="stroke:#000000;stroke-width:1.5;" x1="24.5" x2="168.5" y1="408.2188" y2="408.2188"/><text fill="#000000" font-family="sans-serif" font-size="14" font-weight="bold" lengthAdjust="spacing" textLength="131" x="28.5" y="401.1426">RapportMcService</text></g><!--cluster PerformancesMcService--><g id="cluster_PerformancesMcService"><path d="M8.5,44.6094 L182.5,44.6094 A3.75,3.75 0 0 1 185,47.1094 L192,68.2188 L1002,68.2188 A2.5,2.5 0 0 1 1004.5,70.7188 L1004.5,150.1094 A2.5,2.5 0 0 1 1002,152.6094 L8.5,152.6094 A2.5,2.5 0 0 1 6,150.1094 L6,47.1094 A2.5,2.5 0 0 1 8.5,44.6094 " fill="none" style="stroke:#000000;stroke-width:1.5;"/><line style="stroke:#000000;stroke-width:1.5;" x1="6" x2="192" y1="68.2188" y2="68.2188"/><text fill="#000000" font-family="sans-serif" font-size="14" font-weight="bold" lengthAdjust="spacing" textLength="173" x="10" y="61.1426">PerformancesMcService</text></g><!--entity ProduitController--><g id="elem_ProduitController"><rect fill="#F1F1F1" height="55.2188" rx="2.5" ry="2.5" style="stroke:#181818;stroke-width:0.5;" width="127" x="1207.5" y="92.1094"/><text fill="#000000" font-family="sans-serif" font-size="14" font-style="italic" lengthAdjust="spacing" textLength="38" x="1252" y="116.6426">&#171;API&#187;</text><text fill="#000000" font-family="sans-serif" font-size="14" lengthAdjust="spacing" textLength="107" x="1217.5" y="134.252">ProduitController</text></g><!--entity ProduitService--><g id="elem_ProduitService"><rect fill="#F1F1F1" height="55.2188" rx="2.5" ry="2.5" style="stroke:#181818;stroke-width:0.5;" width="112" x="1488.5" y="92.1094"/><text fill="#000000" font-family="sans-serif" font-size="14" font-style="italic" lengthAdjust="spacing" textLength="56" x="1516.5" y="116.6426">&#171;M&#233;tier&#187;</text><text fill="#000000" font-family="sans-serif" font-size="14" lengthAdjust="spacing" textLength="92" x="1498.5" y="134.252">ProduitService</text></g><!--entity ProduitDbContext--><g id="elem_ProduitDbContext"><rect fill="#F1F1F1" height="55.2188" rx="2.5" ry="2.5" style="stroke:#181818;stroke-width:0.5;" width="131" x="1708" y="92.1094"/><text fill="#000000" font-family="sans-serif" font-size="14" font-style="italic" lengthAdjust="spacing" textLength="90" x="1728.5" y="116.6426">&#171;Persistence&#187;</text><text fill="#000000" font-family="sans-serif" font-size="14" lengthAdjust="spacing" textLength="111" x="1718" y="134.252">ProduitDbContext</text></g><!--entity Produit--><g id="elem_Produit"><rect fill="#F1F1F1" height="55.2188" rx="2.5" ry="2.5" style="stroke:#181818;stroke-width:0.5;" width="71" x="1974" y="92.1094"/><text fill="#000000" font-family="sans-serif" font-size="14" font-style="italic" lengthAdjust="spacing" textLength="51" x="1984" y="116.6426">&#171;Entity&#187;</text><text fill="#000000" font-family="sans-serif" font-size="14" lengthAdjust="spacing" textLength="45" x="1987" y="134.252">Produit</text></g><!--entity VenteController--><g id="elem_VenteController"><rect fill="#F1F1F1" height="55.2188" rx="2.5" ry="2.5" style="stroke:#181818;stroke-width:0.5;" width="119" x="586.5" y="627.1094"/><text fill="#000000" font-family="sans-serif" font-size="14" font-style="italic" lengthAdjust="spacing" textLength="38" x="627" y="651.6426">&#171;API&#187;</text><text fill="#000000" font-family="sans-serif" font-size="14" lengthAdjust="spacing" textLength="99" x="596.5" y="669.252">VenteController</text></g><!--entity VenteService--><g id="elem_VenteService"><rect fill="#F1F1F1" height="55.2188" rx="2.5" ry="2.5" style="stroke:#181818;stroke-width:0.5;" width="104" x="886" y="627.1094"/><text fill="#000000" font-family="sans-serif" font-size="14" font-style="italic" lengthAdjust="spacing" textLength="56" x="910" y="651.6426">&#171;M&#233;tier&#187;</text><text fill="#000000" font-family="sans-serif" font-size="14" lengthAdjust="spacing" textLength="84" x="896" y="669.252">VenteService</text></g><!--entity VenteDbContext--><g id="elem_VenteDbContext"><rect fill="#F1F1F1" height="55.2188" rx="2.5" ry="2.5" style="stroke:#181818;stroke-width:0.5;" width="123" x="1209.5" y="632.1094"/><text fill="#000000" font-family="sans-serif" font-size="14" font-style="italic" lengthAdjust="spacing" textLength="90" x="1226" y="656.6426">&#171;Persistence&#187;</text><text fill="#000000" font-family="sans-serif" font-size="14" lengthAdjust="spacing" textLength="103" x="1219.5" y="674.252">VenteDbContext</text></g><!--entity Vente--><g id="elem_Vente"><rect fill="#F1F1F1" height="55.2188" rx="2.5" ry="2.5" style="stroke:#181818;stroke-width:0.5;" width="71" x="1509" y="717.1094"/><text fill="#000000" font-family="sans-serif" font-size="14" font-style="italic" lengthAdjust="spacing" textLength="51" x="1519" y="741.6426">&#171;Entity&#187;</text><text fill="#000000" font-family="sans-serif" font-size="14" lengthAdjust="spacing" textLength="37" x="1526" y="759.252">Vente</text></g><!--entity LigneVente--><g id="elem_LigneVente"><rect fill="#F1F1F1" height="55.2188" rx="2.5" ry="2.5" style="stroke:#181818;stroke-width:0.5;" width="92" x="1498.5" y="627.1094"/><text fill="#000000" font-family="sans-serif" font-size="14" font-style="italic" lengthAdjust="spacing" textLength="51" x="1519" y="651.6426">&#171;Entity&#187;</text><text fill="#000000" font-family="sans-serif" font-size="14" lengthAdjust="spacing" textLength="72" x="1508.5" y="669.252">LigneVente</text></g><!--entity StockController--><g id="elem_StockController"><rect fill="#F1F1F1" height="55.2188" rx="2.5" ry="2.5" style="stroke:#181818;stroke-width:0.5;" width="117" x="1212.5" y="320.1094"/><text fill="#000000" font-family="sans-serif" font-size="14" font-style="italic" lengthAdjust="spacing" textLength="38" x="1252" y="344.6426">&#171;API&#187;</text><text fill="#000000" font-family="sans-serif" font-size="14" lengthAdjust="spacing" textLength="97" x="1222.5" y="362.252">StockController</text></g><!--entity ReapprovisionnementController--><g id="elem_ReapprovisionnementController"><rect fill="#F1F1F1" height="55.2188" rx="2.5" ry="2.5" style="stroke:#181818;stroke-width:0.5;" width="220" x="1161" y="410.1094"/><text fill="#000000" font-family="sans-serif" font-size="14" font-style="italic" lengthAdjust="spacing" textLength="38" x="1252" y="434.6426">&#171;API&#187;</text><text fill="#000000" font-family="sans-serif" font-size="14" lengthAdjust="spacing" textLength="200" x="1171" y="452.252">ReapprovisionnementController</text></g><!--entity StockService--><g id="elem_StockService"><rect fill="#F1F1F1" height="55.2188" rx="2.5" ry="2.5" style="stroke:#181818;stroke-width:0.5;" width="102" x="1493.5" y="320.1094"/><text fill="#000000" font-family="sans-serif" font-size="14" font-style="italic" lengthAdjust="spacing" textLength="56" x="1516.5" y="344.6426">&#171;M&#233;tier&#187;</text><text fill="#000000" font-family="sans-serif" font-size="14" lengthAdjust="spacing" textLength="82" x="1503.5" y="362.252">StockService</text></g><!--entity ReapprovisionnementService--><g id="elem_ReapprovisionnementService"><rect fill="#F1F1F1" height="55.2188" rx="2.5" ry="2.5" style="stroke:#181818;stroke-width:0.5;" width="205" x="1442" y="410.1094"/><text fill="#000000" font-family="sans-serif" font-size="14" font-style="italic" lengthAdjust="spacing" textLength="56" x="1516.5" y="434.6426">&#171;M&#233;tier&#187;</text><text fill="#000000" font-family="sans-serif" font-size="14" lengthAdjust="spacing" textLength="185" x="1452" y="452.252">ReapprovisionnementService</text></g><!--entity StockDbContext--><g id="elem_StockDbContext"><rect fill="#F1F1F1" height="55.2188" rx="2.5" ry="2.5" style="stroke:#181818;stroke-width:0.5;" width="121" x="1713" y="365.1094"/><text fill="#000000" font-family="sans-serif" font-size="14" font-style="italic" lengthAdjust="spacing" textLength="90" x="1728.5" y="389.6426">&#171;Persistence&#187;</text><text fill="#000000" font-family="sans-serif" font-size="14" lengthAdjust="spacing" textLength="101" x="1723" y="407.252">StockDbContext</text></g><!--entity StockCentral--><g id="elem_StockCentral"><rect fill="#F1F1F1" height="55.2188" rx="2.5" ry="2.5" style="stroke:#181818;stroke-width:0.5;" width="101" x="1959" y="365.1094"/><text fill="#000000" font-family="sans-serif" font-size="14" font-style="italic" lengthAdjust="spacing" textLength="51" x="1984" y="389.6426">&#171;Entity&#187;</text><text fill="#000000" font-family="sans-serif" font-size="14" lengthAdjust="spacing" textLength="81" x="1969" y="407.252">StockCentral</text></g><!--entity MagasinStockProduit--><g id="elem_MagasinStockProduit"><rect fill="#F1F1F1" height="55.2188" rx="2.5" ry="2.5" style="stroke:#181818;stroke-width:0.5;" width="153" x="1933" y="275.1094"/><text fill="#000000" font-family="sans-serif" font-size="14" font-style="italic" lengthAdjust="spacing" textLength="51" x="1984" y="299.6426">&#171;Entity&#187;</text><text fill="#000000" font-family="sans-serif" font-size="14" lengthAdjust="spacing" textLength="133" x="1943" y="317.252">MagasinStockProduit</text></g><!--entity DemandeReapprovisionnement--><g id="elem_DemandeReapprovisionnement"><rect fill="#F1F1F1" height="55.2188" rx="2.5" ry="2.5" style="stroke:#181818;stroke-width:0.5;" width="219" x="1900" y="455.1094"/><text fill="#000000" font-family="sans-serif" font-size="14" font-style="italic" lengthAdjust="spacing" textLength="51" x="1984" y="479.6426">&#171;Entity&#187;</text><text fill="#000000" font-family="sans-serif" font-size="14" lengthAdjust="spacing" textLength="199" x="1910" y="497.252">DemandeReapprovisionnement</text></g><!--entity ClientController--><g id="elem_ClientController"><rect fill="#F1F1F1" height="55.2188" rx="2.5" ry="2.5" style="stroke:#181818;stroke-width:0.5;" width="118" x="48" y="221.1094"/><text fill="#000000" font-family="sans-serif" font-size="14" font-style="italic" lengthAdjust="spacing" textLength="38" x="88" y="245.6426">&#171;API&#187;</text><text fill="#000000" font-family="sans-serif" font-size="14" lengthAdjust="spacing" textLength="98" x="58" y="263.252">ClientController</text></g><!--entity ClientService--><g id="elem_ClientService"><rect fill="#F1F1F1" height="55.2188" rx="2.5" ry="2.5" style="stroke:#181818;stroke-width:0.5;" width="103" x="279" y="221.1094"/><text fill="#000000" font-family="sans-serif" font-size="14" font-style="italic" lengthAdjust="spacing" textLength="56" x="302.5" y="245.6426">&#171;M&#233;tier&#187;</text><text fill="#000000" font-family="sans-serif" font-size="14" lengthAdjust="spacing" textLength="83" x="289" y="263.252">ClientService</text></g><!--entity ClientDbContext--><g id="elem_ClientDbContext"><rect fill="#F1F1F1" height="55.2188" rx="2.5" ry="2.5" style="stroke:#181818;stroke-width:0.5;" width="122" x="585" y="221.1094"/><text fill="#000000" font-family="sans-serif" font-size="14" font-style="italic" lengthAdjust="spacing" textLength="90" x="601" y="245.6426">&#171;Persistence&#187;</text><text fill="#000000" font-family="sans-serif" font-size="14" lengthAdjust="spacing" textLength="102" x="595" y="263.252">ClientDbContext</text></g><!--entity Client--><g id="elem_Client"><rect fill="#F1F1F1" height="55.2188" rx="2.5" ry="2.5" style="stroke:#181818;stroke-width:0.5;" width="71" x="902.5" y="221.1094"/><text fill="#000000" font-family="sans-serif" font-size="14" font-style="italic" lengthAdjust="spacing" textLength="51" x="912.5" y="245.6426">&#171;Entity&#187;</text><text fill="#000000" font-family="sans-serif" font-size="14" lengthAdjust="spacing" textLength="36" x="920" y="263.252">Client</text></g><!--entity PanierController--><g id="elem_PanierController"><rect fill="#F1F1F1" height="55.2188" rx="2.5" ry="2.5" style="stroke:#181818;stroke-width:0.5;" width="123" x="584.5" y="929.1094"/><text fill="#000000" font-family="sans-serif" font-size="14" font-style="italic" lengthAdjust="spacing" textLength="38" x="627" y="953.6426">&#171;API&#187;</text><text fill="#000000" font-family="sans-serif" font-size="14" lengthAdjust="spacing" textLength="103" x="594.5" y="971.252">PanierController</text></g><!--entity PanierService--><g id="elem_PanierService"><rect fill="#F1F1F1" height="55.2188" rx="2.5" ry="2.5" style="stroke:#181818;stroke-width:0.5;" width="108" x="884" y="929.1094"/><text fill="#000000" font-family="sans-serif" font-size="14" font-style="italic" lengthAdjust="spacing" textLength="56" x="910" y="953.6426">&#171;M&#233;tier&#187;</text><text fill="#000000" font-family="sans-serif" font-size="14" lengthAdjust="spacing" textLength="88" x="894" y="971.252">PanierService</text></g><!--entity PanierDbContext--><g id="elem_PanierDbContext"><rect fill="#F1F1F1" height="55.2188" rx="2.5" ry="2.5" style="stroke:#181818;stroke-width:0.5;" width="127" x="1207.5" y="929.1094"/><text fill="#000000" font-family="sans-serif" font-size="14" font-style="italic" lengthAdjust="spacing" textLength="90" x="1226" y="953.6426">&#171;Persistence&#187;</text><text fill="#000000" font-family="sans-serif" font-size="14" lengthAdjust="spacing" textLength="107" x="1217.5" y="971.252">PanierDbContext</text></g><!--entity Panier--><g id="elem_Panier"><rect fill="#F1F1F1" height="55.2188" rx="2.5" ry="2.5" style="stroke:#181818;stroke-width:0.5;" width="71" x="1509" y="979.1094"/><text fill="#000000" font-family="sans-serif" font-size="14" font-style="italic" lengthAdjust="spacing" textLength="51" x="1519" y="1003.6426">&#171;Entity&#187;</text><text fill="#000000" font-family="sans-serif" font-size="14" lengthAdjust="spacing" textLength="41" x="1524" y="1021.252">Panier</text></g><!--entity LignePanier--><g id="elem_LignePanier"><rect fill="#F1F1F1" height="55.2188" rx="2.5" ry="2.5" style="stroke:#181818;stroke-width:0.5;" width="96" x="1496.5" y="889.1094"/><text fill="#000000" font-family="sans-serif" font-size="14" font-style="italic" lengthAdjust="spacing" textLength="51" x="1519" y="913.6426">&#171;Entity&#187;</text><text fill="#000000" font-family="sans-serif" font-size="14" lengthAdjust="spacing" textLength="76" x="1506.5" y="931.252">LignePanier</text></g><!--entity CommandeController--><g id="elem_CommandeController"><rect fill="#F1F1F1" height="55.2188" rx="2.5" ry="2.5" style="stroke:#181818;stroke-width:0.5;" width="154" x="30" y="769.1094"/><text fill="#000000" font-family="sans-serif" font-size="14" font-style="italic" lengthAdjust="spacing" textLength="38" x="88" y="793.6426">&#171;API&#187;</text><text fill="#000000" font-family="sans-serif" font-size="14" lengthAdjust="spacing" textLength="134" x="40" y="811.252">CommandeController</text></g><!--entity CommandeService--><g id="elem_CommandeService"><rect fill="#F1F1F1" height="55.2188" rx="2.5" ry="2.5" style="stroke:#181818;stroke-width:0.5;" width="139" x="261" y="769.1094"/><text fill="#000000" font-family="sans-serif" font-size="14" font-style="italic" lengthAdjust="spacing" textLength="56" x="302.5" y="793.6426">&#171;M&#233;tier&#187;</text><text fill="#000000" font-family="sans-serif" font-size="14" lengthAdjust="spacing" textLength="119" x="271" y="811.252">CommandeService</text></g><!--entity RapportController--><g id="elem_RapportController"><rect fill="#F1F1F1" height="55.2188" rx="2.5" ry="2.5" style="stroke:#181818;stroke-width:0.5;" width="133" x="40.5" y="421.1094"/><text fill="#000000" font-family="sans-serif" font-size="14" font-style="italic" lengthAdjust="spacing" textLength="38" x="88" y="445.6426">&#171;API&#187;</text><text fill="#000000" font-family="sans-serif" font-size="14" lengthAdjust="spacing" textLength="113" x="50.5" y="463.252">RapportController</text></g><!--entity RapportService--><g id="elem_RapportService"><rect fill="#F1F1F1" height="55.2188" rx="2.5" ry="2.5" style="stroke:#181818;stroke-width:0.5;" width="118" x="271.5" y="421.1094"/><text fill="#000000" font-family="sans-serif" font-size="14" font-style="italic" lengthAdjust="spacing" textLength="56" x="302.5" y="445.6426">&#171;M&#233;tier&#187;</text><text fill="#000000" font-family="sans-serif" font-size="14" lengthAdjust="spacing" textLength="98" x="281.5" y="463.252">RapportService</text></g><!--entity RapportDto--><g id="elem_RapportDto"><rect fill="#F1F1F1" height="55.2188" rx="2.5" ry="2.5" style="stroke:#181818;stroke-width:0.5;" width="93" x="60.5" y="511.1094"/><text fill="#000000" font-family="sans-serif" font-size="14" font-style="italic" lengthAdjust="spacing" textLength="46" x="84" y="535.6426">&#171;DTO&#187;</text><text fill="#000000" font-family="sans-serif" font-size="14" lengthAdjust="spacing" textLength="73" x="70.5" y="553.252">RapportDto</text></g><!--entity PerformancesController--><g id="elem_PerformancesController"><rect fill="#F1F1F1" height="55.2188" rx="2.5" ry="2.5" style="stroke:#181818;stroke-width:0.5;" width="170" x="22" y="81.1094"/><text fill="#000000" font-family="sans-serif" font-size="14" font-style="italic" lengthAdjust="spacing" textLength="38" x="88" y="105.6426">&#171;API&#187;</text><text fill="#000000" font-family="sans-serif" font-size="14" lengthAdjust="spacing" textLength="150" x="32" y="123.252">PerformancesController</text></g><!--entity PerformancesService--><g id="elem_PerformancesService"><rect fill="#F1F1F1" height="55.2188" rx="2.5" ry="2.5" style="stroke:#181818;stroke-width:0.5;" width="155" x="253" y="81.1094"/><text fill="#000000" font-family="sans-serif" font-size="14" font-style="italic" lengthAdjust="spacing" textLength="56" x="302.5" y="105.6426">&#171;M&#233;tier&#187;</text><text fill="#000000" font-family="sans-serif" font-size="14" lengthAdjust="spacing" textLength="135" x="263" y="123.252">PerformancesService</text></g><!--entity PerformancesDbContext--><g id="elem_PerformancesDbContext"><rect fill="#F1F1F1" height="55.2188" rx="2.5" ry="2.5" style="stroke:#181818;stroke-width:0.5;" width="174" x="559" y="81.1094"/><text fill="#000000" font-family="sans-serif" font-size="14" font-style="italic" lengthAdjust="spacing" textLength="90" x="601" y="105.6426">&#171;Persistence&#187;</text><text fill="#000000" font-family="sans-serif" font-size="14" lengthAdjust="spacing" textLength="154" x="569" y="123.252">PerformancesDbContext</text></g><!--entity Performance--><g id="elem_Performance"><rect fill="#F1F1F1" height="55.2188" rx="2.5" ry="2.5" style="stroke:#181818;stroke-width:0.5;" width="101" x="887.5" y="81.1094"/><text fill="#000000" font-family="sans-serif" font-size="14" font-style="italic" lengthAdjust="spacing" textLength="51" x="912.5" y="105.6426">&#171;Entity&#187;</text><text fill="#000000" font-family="sans-serif" font-size="14" lengthAdjust="spacing" textLength="81" x="897.5" y="123.252">Performance</text></g><!--link ProduitController to ProduitService--><g id="link_ProduitController_ProduitService"><path d="M1334.63,119.6094 C1380.98,119.6094 1437.55,119.6094 1482.09,119.6094 " fill="none" id="ProduitController-to-ProduitService" style="stroke:#181818;stroke-width:1.0;"/><polygon fill="#181818" points="1488.09,119.6094,1479.09,115.6094,1483.09,119.6094,1479.09,123.6094,1488.09,119.6094" style="stroke:#181818;stroke-width:1.0;"/></g><!--link ProduitService to ProduitDbContext--><g id="link_ProduitService_ProduitDbContext"><path d="M1600.74,119.6094 C1633.02,119.6094 1667.94,119.6094 1701.73,119.6094 " fill="none" id="ProduitService-to-ProduitDbContext" style="stroke:#181818;stroke-width:1.0;"/><polygon fill="#181818" points="1707.73,119.6094,1698.73,115.6094,1702.73,119.6094,1698.73,123.6094,1707.73,119.6094" style="stroke:#181818;stroke-width:1.0;"/></g><!--link ProduitDbContext to Produit--><g id="link_ProduitDbContext_Produit"><path d="M1839.06,119.6094 C1882.62,119.6094 1932.41,119.6094 1967.81,119.6094 " fill="none" id="ProduitDbContext-to-Produit" style="stroke:#181818;stroke-width:1.0;"/><polygon fill="#181818" points="1973.81,119.6094,1964.81,115.6094,1968.81,119.6094,1964.81,123.6094,1973.81,119.6094" style="stroke:#181818;stroke-width:1.0;"/></g><!--link VenteController to VenteService--><g id="link_VenteController_VenteService"><path d="M705.69,654.6094 C758.48,654.6094 829.28,654.6094 879.68,654.6094 " fill="none" id="VenteController-to-VenteService" style="stroke:#181818;stroke-width:1.0;"/><polygon fill="#181818" points="885.68,654.6094,876.68,650.6094,880.68,654.6094,876.68,658.6094,885.68,654.6094" style="stroke:#181818;stroke-width:1.0;"/></g><!--link VenteService to VenteDbContext--><g id="link_VenteService_VenteDbContext"><path d="M990.36,655.3894 C1049.46,656.2794 1140.4407,657.6486 1203.2507,658.5986 " fill="none" id="VenteService-to-VenteDbContext" style="stroke:#181818;stroke-width:1.0;"/><polygon fill="#181818" points="1209.25,658.6894,1200.3115,654.5537,1204.2506,658.6138,1200.1905,662.5528,1209.25,658.6894" style="stroke:#181818;stroke-width:1.0;"/></g><!--link VenteDbContext to Vente--><g id="link_VenteDbContext_Vente"><path d="M1332.59,678.5794 C1386.82,695.5594 1458.6943,718.0561 1503.0743,731.9561 " fill="none" id="VenteDbContext-to-Vente" style="stroke:#181818;stroke-width:1.0;"/><polygon fill="#181818" points="1508.8,733.7494,1501.407,727.2422,1504.0286,732.2549,1499.0159,734.8765,1508.8,733.7494" style="stroke:#181818;stroke-width:1.0;"/></g><!--link VenteDbContext to LigneVente--><g id="link_VenteDbContext_LigneVente"><path d="M1332.59,658.4894 C1382.76,657.5694 1446.921,656.3904 1492.291,655.5504 " fill="none" id="VenteDbContext-to-LigneVente" style="stroke:#181818;stroke-width:1.0;"/><polygon fill="#181818" points="1498.29,655.4394,1489.2175,651.6067,1493.2909,655.5319,1489.3656,659.6053,1498.29,655.4394" style="stroke:#181818;stroke-width:1.0;"/></g><!--link StockController to StockService--><g id="link_StockController_StockService"><path d="M1329.58,347.6094 C1378.14,347.6094 1440.96,347.6094 1487.31,347.6094 " fill="none" id="StockController-to-StockService" style="stroke:#181818;stroke-width:1.0;"/><polygon fill="#181818" points="1493.31,347.6094,1484.31,343.6094,1488.31,347.6094,1484.31,351.6094,1493.31,347.6094" style="stroke:#181818;stroke-width:1.0;"/></g><!--link ReapprovisionnementController to ReapprovisionnementService--><g id="link_ReapprovisionnementController_ReapprovisionnementService"><path d="M1381.26,437.6094 C1401.3,437.6094 1416.14,437.6094 1435.94,437.6094 " fill="none" id="ReapprovisionnementController-to-ReapprovisionnementService" style="stroke:#181818;stroke-width:1.0;"/><polygon fill="#181818" points="1441.94,437.6094,1432.94,433.6094,1436.94,437.6094,1432.94,441.6094,1441.94,437.6094" style="stroke:#181818;stroke-width:1.0;"/></g><!--link StockService to StockDbContext--><g id="link_StockService_StockDbContext"><path d="M1595.6,357.5394 C1630.2,364.3994 1670.4847,372.382 1706.9847,379.622 " fill="none" id="StockService-to-StockDbContext" style="stroke:#181818;stroke-width:1.0;"/><polygon fill="#181818" points="1712.87,380.7894,1704.8203,375.1147,1707.9656,379.8165,1703.2637,382.9618,1712.87,380.7894" style="stroke:#181818;stroke-width:1.0;"/></g><!--link ReapprovisionnementService to StockDbContext--><g id="link_ReapprovisionnementService_StockDbContext"><path d="M1647.05,417.4794 C1669.6,413.0094 1686.8942,409.5743 1707.1042,405.5743 " fill="none" id="ReapprovisionnementService-to-StockDbContext" style="stroke:#181818;stroke-width:1.0;"/><polygon fill="#181818" points="1712.99,404.4094,1703.3846,402.2329,1708.0851,405.3802,1704.9379,410.0807,1712.99,404.4094" style="stroke:#181818;stroke-width:1.0;"/></g><!--link StockDbContext to StockCentral--><g id="link_StockDbContext_StockCentral"><path d="M1834.15,392.6094 C1872.74,392.6094 1916.39,392.6094 1952.83,392.6094 " fill="none" id="StockDbContext-to-StockCentral" style="stroke:#181818;stroke-width:1.0;"/><polygon fill="#181818" points="1958.83,392.6094,1949.83,388.6094,1953.83,392.6094,1949.83,396.6094,1958.83,392.6094" style="stroke:#181818;stroke-width:1.0;"/></g><!--link StockDbContext to MagasinStockProduit--><g id="link_StockDbContext_MagasinStockProduit"><path d="M1834.15,369.6694 C1865.43,357.6394 1898.3801,344.9638 1931.2601,332.3138 " fill="none" id="StockDbContext-to-MagasinStockProduit" style="stroke:#181818;stroke-width:1.0;"/><polygon fill="#181818" points="1936.86,330.1594,1927.0239,329.6578,1932.1935,331.9547,1929.8965,337.1243,1936.86,330.1594" style="stroke:#181818;stroke-width:1.0;"/></g><!--link StockDbContext to DemandeReapprovisionnement--><g id="link_StockDbContext_DemandeReapprovisionnement"><path d="M1834.15,415.5494 C1865.43,427.5794 1898.3801,440.2549 1931.2601,452.9049 " fill="none" id="StockDbContext-to-DemandeReapprovisionnement" style="stroke:#181818;stroke-width:1.0;"/><polygon fill="#181818" points="1936.86,455.0594,1929.8965,448.0945,1932.1935,453.264,1927.0239,455.5609,1936.86,455.0594" style="stroke:#181818;stroke-width:1.0;"/></g><!--link ClientController to ClientService--><g id="link_ClientController_ClientService"><path d="M166.2,248.6094 C201.19,248.6094 239.29,248.6094 272.84,248.6094 " fill="none" id="ClientController-to-ClientService" style="stroke:#181818;stroke-width:1.0;"/><polygon fill="#181818" points="278.84,248.6094,269.84,244.6094,273.84,248.6094,269.84,252.6094,278.84,248.6094" style="stroke:#181818;stroke-width:1.0;"/></g><!--link ClientService to ClientDbContext--><g id="link_ClientService_ClientDbContext"><path d="M382.22,248.6094 C437.59,248.6094 520.18,248.6094 578.97,248.6094 " fill="none" id="ClientService-to-ClientDbContext" style="stroke:#181818;stroke-width:1.0;"/><polygon fill="#181818" points="584.97,248.6094,575.97,244.6094,579.97,248.6094,575.97,252.6094,584.97,248.6094" style="stroke:#181818;stroke-width:1.0;"/></g><!--link ClientDbContext to Client--><g id="link_ClientDbContext_Client"><path d="M707.09,248.6094 C766.15,248.6094 848.23,248.6094 896.42,248.6094 " fill="none" id="ClientDbContext-to-Client" style="stroke:#181818;stroke-width:1.0;"/><polygon fill="#181818" points="902.42,248.6094,893.42,244.6094,897.42,248.6094,893.42,252.6094,902.42,248.6094" style="stroke:#181818;stroke-width:1.0;"/></g><!--link PanierController to PanierService--><g id="link_PanierController_PanierService"><path d="M707.79,956.6094 C759.78,956.6094 827.86,956.6094 877.6,956.6094 " fill="none" id="PanierController-to-PanierService" style="stroke:#181818;stroke-width:1.0;"/><polygon fill="#181818" points="883.6,956.6094,874.6,952.6094,878.6,956.6094,874.6,960.6094,883.6,956.6094" style="stroke:#181818;stroke-width:1.0;"/></g><!--link PanierService to PanierDbContext--><g id="link_PanierService_PanierDbContext"><path d="M992.18,956.6094 C1050.84,956.6094 1139.15,956.6094 1201.35,956.6094 " fill="none" id="PanierService-to-PanierDbContext" style="stroke:#181818;stroke-width:1.0;"/><polygon fill="#181818" points="1207.35,956.6094,1198.35,952.6094,1202.35,956.6094,1198.35,960.6094,1207.35,956.6094" style="stroke:#181818;stroke-width:1.0;"/></g><!--link PanierDbContext to Panier--><g id="link_PanierDbContext_Panier"><path d="M1334.63,968.1394 C1388.81,978.1194 1459.2493,991.0924 1503.0593,999.1624 " fill="none" id="PanierDbContext-to-Panier" style="stroke:#181818;stroke-width:1.0;"/><polygon fill="#181818" points="1508.96,1000.2494,1500.8335,994.6851,1504.0427,999.3436,1499.3843,1002.5528,1508.96,1000.2494" style="stroke:#181818;stroke-width:1.0;"/></g><!--link PanierDbContext to LignePanier--><g id="link_PanierDbContext_LignePanier"><path d="M1334.63,947.3794 C1383.96,940.1194 1445.7141,931.0141 1490.5041,924.4141 " fill="none" id="PanierDbContext-to-LignePanier" style="stroke:#181818;stroke-width:1.0;"/><polygon fill="#181818" points="1496.44,923.5394,1486.953,920.8941,1491.4934,924.2683,1488.1193,928.8087,1496.44,923.5394" style="stroke:#181818;stroke-width:1.0;"/></g><!--link CommandeController to CommandeService--><g id="link_CommandeController_CommandeService"><path d="M184.23,796.6094 C209.13,796.6094 230.62,796.6094 254.93,796.6094 " fill="none" id="CommandeController-to-CommandeService" style="stroke:#181818;stroke-width:1.0;"/><polygon fill="#181818" points="260.93,796.6094,251.93,792.6094,255.93,796.6094,251.93,800.6094,260.93,796.6094" style="stroke:#181818;stroke-width:1.0;"/></g><!--link CommandeService to ProduitMcService--><g id="link_CommandeService_ProduitMcService"><path d="M339.15,769.0294 C352.18,727.4094 382.81,649.1094 438,608.6094 C590.43,496.7494 684.56,603.4994 854,519.6094 C989.87,452.3394 1036.06,428.2494 1113,297.6094 C1121.98,282.3594 1110.28,272.6894 1121,258.6094 C1143.165,229.4994 1179.6075,210.6344 1210.9025,198.9806 C1218.7263,196.0672 1226.2283,193.6045 1233.1051,191.545 C1233.9647,191.2876 1229.0546,192.7169 1229.8941,192.472 " fill="none" id="CommandeService-to-ProduitMcService" style="stroke:#181818;stroke-width:1.0;stroke-dasharray:7.0,7.0;"/><polygon fill="#181818" points="1235.654,190.7915,1225.8939,189.4723,1230.8541,192.1919,1228.1345,197.1522,1235.654,190.7915" style="stroke:#181818;stroke-width:1.0;"/><text fill="#000000" font-family="sans-serif" font-size="13" lengthAdjust="spacing" textLength="89" x="764" y="516.1045">utilise via HTTP</text></g><!--link CommandeService to PanierMcService--><g id="link_CommandeService_PanierMcService"><path d="M345.03,824.2394 C373.38,878.7194 444.76,999.1694 544.5,1050.6094 C549.4,1053.1369 548.8679,1053.4425 554.2475,1055.0532 " fill="none" id="CommandeService-to-PanierMcService" style="stroke:#181818;stroke-width:1.0;stroke-dasharray:7.0,7.0;"/><polygon fill="#181818" points="559.9954,1056.7741,552.5208,1050.3608,555.2055,1055.34,550.2263,1058.0247,559.9954,1056.7741" style="stroke:#181818;stroke-width:1.0;"/><text fill="#000000" font-family="sans-serif" font-size="13" lengthAdjust="spacing" textLength="89" x="439" y="963.1045">utilise via HTTP</text></g><!--link CommandeService to VenteMcService--><g id="link_CommandeService_VenteMcService"><path d="M400.3,796.6094 C445.72,796.6094 505.7075,796.6094 554.92,796.6094 C556.4579,796.6094 557.9853,796.6094 559.5013,796.6094 C560.2594,796.6094 555.0146,796.6094 555.7669,796.6094 " fill="none" id="CommandeService-to-VenteMcService" style="stroke:#181818;stroke-width:1.0;stroke-dasharray:7.0,7.0;"/><polygon fill="#181818" points="561.7669,796.6094,552.7669,792.6094,556.7669,796.6094,552.7669,800.6094,561.7669,796.6094" style="stroke:#181818;stroke-width:1.0;"/><text fill="#000000" font-family="sans-serif" font-size="13" lengthAdjust="spacing" textLength="89" x="439" y="793.1045">utilise via HTTP</text></g><!--link RapportController to RapportService--><g id="link_RapportController_RapportService"><path d="M173.56,448.6094 C204.56,448.6094 235.26,448.6094 265.27,448.6094 " fill="none" id="RapportController-to-RapportService" style="stroke:#181818;stroke-width:1.0;"/><polygon fill="#181818" points="271.27,448.6094,262.27,444.6094,266.27,448.6094,262.27,452.6094,271.27,448.6094" style="stroke:#181818;stroke-width:1.0;"/></g><!--link RapportService to ProduitMcService--><g id="link_RapportService_ProduitMcService"><path d="M389.84,438.8794 C508.76,418.2494 787,365.9494 1012.5,292.6094 C1070.75,273.6644 1134.04,246.7219 1183.2975,224.2431 C1207.9263,213.0038 1229.0469,202.8803 1244.2753,195.4305 C1246.1789,194.4992 1247.9904,193.6098 1249.7051,192.7651 C1250.5625,192.3428 1251.3957,191.9317 1252.2042,191.5322 C1252.6084,191.3324 1253.0064,191.1355 1253.3982,190.9416 C1253.5941,190.8447 1248.412,193.4119 1248.6047,193.3164 " fill="none" id="RapportService-to-ProduitMcService" style="stroke:#181818;stroke-width:1.0;stroke-dasharray:7.0,7.0;"/><polygon fill="#181818" points="1253.9811,190.6529,1244.1408,191.0639,1249.5008,192.8725,1247.6921,198.2325,1253.9811,190.6529" style="stroke:#181818;stroke-width:1.0;"/><text fill="#000000" font-family="sans-serif" font-size="13" lengthAdjust="spacing" textLength="89" x="764" y="337.1045">utilise via HTTP</text></g><!--link RapportService to VenteMcService--><g id="link_RapportService_VenteMcService"><path d="M347.81,476.1094 C394.92,555.3494 528.83,779.0994 544.5,788.6094 C549.2138,791.4694 554.2891,793.7467 559.5656,795.5415 C560.2252,795.7658 560.8879,795.9826 561.5534,796.1921 C561.7198,796.2445 556.1531,794.5272 556.3198,794.5787 " fill="none" id="RapportService-to-VenteMcService" style="stroke:#181818;stroke-width:1.0;stroke-dasharray:7.0,7.0;"/><polygon fill="#181818" points="562.0531,796.3478,554.6326,789.8719,557.2754,794.8735,552.2738,797.5163,562.0531,796.3478" style="stroke:#181818;stroke-width:1.0;"/><text fill="#000000" font-family="sans-serif" font-size="13" lengthAdjust="spacing" textLength="89" x="439" y="631.1045">utilise via HTTP</text></g><!--link RapportService to StockMcService--><g id="link_RapportService_StockMcService"><path d="M389.56,452.8994 C486.07,460.1994 685.57,475.9594 854,493.6094 C972.92,506.0794 1001.9,516.0694 1121,526.6094 C1125.0644,526.9694 1129.1926,527.3154 1133.3615,527.6477 C1134.4037,527.7307 1129.4665,527.348 1130.5134,527.4294 " fill="none" id="RapportService-to-StockMcService" style="stroke:#181818;stroke-width:1.0;stroke-dasharray:7.0,7.0;"/><polygon fill="#181818" points="1136.4954,527.8944,1127.8324,523.2089,1131.5104,527.5069,1127.2125,531.1849,1136.4954,527.8944" style="stroke:#181818;stroke-width:1.0;"/><text fill="#000000" font-family="sans-serif" font-size="13" lengthAdjust="spacing" textLength="89" x="764" y="482.1045">utilise via HTTP</text></g><!--link PerformancesController to PerformancesService--><g id="link_PerformancesController_PerformancesService"><path d="M192.06,108.6094 C212,108.6094 227.18,108.6094 246.78,108.6094 " fill="none" id="PerformancesController-to-PerformancesService" style="stroke:#181818;stroke-width:1.0;"/><polygon fill="#181818" points="252.78,108.6094,243.78,104.6094,247.78,108.6094,243.78,112.6094,252.78,108.6094" style="stroke:#181818;stroke-width:1.0;"/></g><!--link PerformancesService to PerformancesDbContext--><g id="link_PerformancesService_PerformancesDbContext"><path d="M408.19,108.6094 C453.78,108.6094 505.72,108.6094 552.88,108.6094 " fill="none" id="PerformancesService-to-PerformancesDbContext" style="stroke:#181818;stroke-width:1.0;"/><polygon fill="#181818" points="558.88,108.6094,549.88,104.6094,553.88,108.6094,549.88,112.6094,558.88,108.6094" style="stroke:#181818;stroke-width:1.0;"/></g><!--link PerformancesDbContext to Performance--><g id="link_PerformancesDbContext_Performance"><path d="M733.22,108.6094 C783.48,108.6094 839.07,108.6094 881.31,108.6094 " fill="none" id="PerformancesDbContext-to-Performance" style="stroke:#181818;stroke-width:1.0;"/><polygon fill="#181818" points="887.31,108.6094,878.31,104.6094,882.31,108.6094,878.31,112.6094,887.31,108.6094" style="stroke:#181818;stroke-width:1.0;"/></g><!--link VenteService to StockMcService--><g id="link_VenteService_StockMcService"><path d="M990.23,654.6794 C1026.96,652.5194 1076.25,644.8894 1113,621.6094 C1118.11,618.3694 1116.4,614.5394 1121,610.6094 C1148.825,586.8494 1185.355,568.0669 1215.28,555.1181 C1222.7613,551.8809 1229.8297,549.0084 1236.2461,546.5138 C1239.4543,545.2665 1242.4995,544.1137 1245.3518,543.057 C1245.7083,542.925 1240.4316,544.868 1240.782,544.739 " fill="none" id="VenteService-to-StockMcService" style="stroke:#181818;stroke-width:1.0;stroke-dasharray:7.0,7.0;"/><polygon fill="#181818" points="1246.4123,542.6653,1236.5844,542.0222,1241.7204,544.3933,1239.3493,549.5293,1246.4123,542.6653" style="stroke:#181818;stroke-width:1.0;"/><text fill="#000000" font-family="sans-serif" font-size="13" lengthAdjust="spacing" textLength="89" x="1023" y="618.1045">utilise via HTTP</text></g><!--link VenteService to ProduitMcService--><g id="link_VenteService_ProduitMcService"><path d="M977.24,626.8594 C990.98,617.5494 1006.83,607.5294 1022,599.6094 C1060.56,579.4894 1088.08,599.2594 1113,563.6094 C1132.42,535.8294 1102.92,287.2794 1121,258.6094 C1140.52,227.6594 1176.92,208.7644 1208.855,197.5556 C1212.8469,196.1545 1216.769,194.8735 1220.5796,193.7041 C1222.485,193.1194 1224.3624,192.5626 1226.2068,192.0326 C1227.129,191.7676 1228.0429,191.5093 1228.9479,191.2576 C1229.4004,191.1317 1229.8507,191.0075 1230.2987,190.8849 C1230.5227,190.8236 1224.9556,192.3345 1225.1784,192.2741 " fill="none" id="VenteService-to-ProduitMcService" style="stroke:#181818;stroke-width:1.0;stroke-dasharray:7.0,7.0;"/><polygon fill="#181818" points="1230.9689,190.7022,1221.2353,189.1997,1226.1435,192.0121,1223.3311,196.9203,1230.9689,190.7022" style="stroke:#181818;stroke-width:1.0;"/><text fill="#000000" font-family="sans-serif" font-size="13" lengthAdjust="spacing" textLength="89" x="1023" y="560.1045">utilise via HTTP</text></g><!--SRC=[bLPDYzim4BtxLuYzPw67NieIM3Q55XeQDc4lfGVLdlMAs9AHbT2bz0VjxzW_Lddas1fz9EajlFT6CtgQ6SS8qm1xEW2hWAtUtuxGgAw35gHX2tQlonTXe3G73MmjIgrwq4THGbyK3JmRPXJJedunh1BQoeIIHRyNikEQjwnKRQUaFMbhNcsIGS1btO0dwNYvvpMmFmMplwjAo9fz-5ZyBOeJSxFHgZe8iowtBlKDYd-Cy8EIHgkc0VsJtTtTRxukbnuxXWpK-ltD2D24NlqQmk6t6GGRqBte3SWIY6ZWFaiZpAk5BHubPel5aj64ism4VCsKTLPDaAyZBZnP6o7q0C6C0yZbxe_a-TkZXDpTWjz4BI5cB1MKWlVmIpX9V3ze5IS5zGAXD3KNGvpQ6bNkGwSGp3Zr2Bphj3gAthQlnDRFAF6KdAU9Ot9IFEUy_QvWUuRcJVWAQrxpNaYKf9hKIbRGSbb1egRmuG9dq5d_dbPorY0CoD_zbC5_TthzT8ApUWhCcj6lj2BXMbgOzuxqsKCZB1GscaCp_UF8N5SuzdnRE4tuXc5Il0P9DebyNuE4auRQuJ2wahcqLKSR6T7SGaOoku-HlR2EKPFSI0bgsAr1FMwt-dLC8hAbQIsJ9jZHY6L8hoZQCgh5regQPiHpRJFIIVU6Lul2tSFHC4zukkxjxVIncKfYdzZ1Y4Rqm8w2io-xtIONIRlW-a3wBKl5-QOzsZ5KEXgq4SxjTCTcTxMZLqODr6httHaPdUcM6pbhbls_Yud0oruam-X7xfA5TfQUbRRlOF-uHLFhSRdPzIJP2VOq5-PuLaOJcwp5pLjSGn10PZXLJQ0Fvdbc1kl8VvNh38z2hkc9Vm00]--></g></svg>