<?xml version="1.0" encoding="us-ascii" standalone="no"?><svg xmlns="http://www.w3.org/2000/svg" xmlns:xlink="http://www.w3.org/1999/xlink" contentStyleType="text/css" height="728px" preserveAspectRatio="none" style="width:1239px;height:728px;background:#FFFFFF;" version="1.1" viewBox="0 0 1239 728" width="1239px" zoomAndPan="magnify"><defs/><g><text fill="#000000" font-family="sans-serif" font-size="14" font-weight="bold" lengthAdjust="spacing" textLength="281" x="480.5" y="29.5332">Vue de Processus - Effectuer une vente</text><rect fill="none" height="122.4063" style="stroke:#000000;stroke-width:1.5;" width="481" x="486" y="229.2734"/><rect fill="none" height="111.7578" style="stroke:#000000;stroke-width:1.5;" width="747" x="486" y="426.3828"/><line style="stroke:#181818;stroke-width:0.5;stroke-dasharray:5.0,5.0;" x1="39" x2="39" y1="121.2188" y2="646.1953"/><line style="stroke:#181818;stroke-width:0.5;stroke-dasharray:5.0,5.0;" x1="189.5" x2="189.5" y1="121.2188" y2="646.1953"/><line style="stroke:#181818;stroke-width:0.5;stroke-dasharray:5.0,5.0;" x1="381.5" x2="381.5" y1="121.2188" y2="646.1953"/><line style="stroke:#181818;stroke-width:0.5;stroke-dasharray:5.0,5.0;" x1="554" x2="554" y1="121.2188" y2="646.1953"/><line style="stroke:#181818;stroke-width:0.5;stroke-dasharray:5.0,5.0;" x1="895" x2="895" y1="121.2188" y2="646.1953"/><line style="stroke:#181818;stroke-width:0.5;stroke-dasharray:5.0,5.0;" x1="1029" x2="1029" y1="121.2188" y2="646.1953"/><line style="stroke:#181818;stroke-width:0.5;stroke-dasharray:5.0,5.0;" x1="1162" x2="1162" y1="121.2188" y2="646.1953"/><text fill="#000000" font-family="sans-serif" font-size="14" lengthAdjust="spacing" textLength="62" x="5" y="118.1426">Utilisateur</text><ellipse cx="39" cy="52.1094" fill="#E2E2F0" rx="8" ry="8" style="stroke:#181818;stroke-width:0.5;"/><path d="M39,60.1094 L39,87.1094 M26,68.1094 L52,68.1094 M39,87.1094 L26,102.1094 M39,87.1094 L52,102.1094 " fill="none" style="stroke:#181818;stroke-width:0.5;"/><text fill="#000000" font-family="sans-serif" font-size="14" lengthAdjust="spacing" textLength="62" x="5" y="659.7285">Utilisateur</text><ellipse cx="39" cy="671.3047" fill="#E2E2F0" rx="8" ry="8" style="stroke:#181818;stroke-width:0.5;"/><path d="M39,679.3047 L39,706.3047 M26,687.3047 L52,687.3047 M39,706.3047 L26,721.3047 M39,706.3047 L52,721.3047 " fill="none" style="stroke:#181818;stroke-width:0.5;"/><rect fill="#E2E2F0" height="49.2188" rx="2.5" ry="2.5" style="stroke:#181818;stroke-width:0.5;" width="123" x="128.5" y="71"/><text fill="#000000" font-family="sans-serif" font-size="14" lengthAdjust="spacing" textLength="103" x="138.5" y="92.5332">Application MVC</text><text fill="#000000" font-family="sans-serif" font-size="14" lengthAdjust="spacing" textLength="109" x="135.5" y="110.1426">(VenteController)</text><rect fill="#E2E2F0" height="49.2188" rx="2.5" ry="2.5" style="stroke:#181818;stroke-width:0.5;" width="123" x="128.5" y="645.1953"/><text fill="#000000" font-family="sans-serif" font-size="14" lengthAdjust="spacing" textLength="103" x="138.5" y="666.7285">Application MVC</text><text fill="#000000" font-family="sans-serif" font-size="14" lengthAdjust="spacing" textLength="109" x="135.5" y="684.3379">(VenteController)</text><rect fill="#E2E2F0" height="49.2188" rx="2.5" ry="2.5" style="stroke:#181818;stroke-width:0.5;" width="123" x="320.5" y="71"/><text fill="#000000" font-family="sans-serif" font-size="14" lengthAdjust="spacing" textLength="102" x="331" y="92.5332">VenteMcService</text><text fill="#000000" font-family="sans-serif" font-size="14" lengthAdjust="spacing" textLength="109" x="327.5" y="110.1426">(VenteController)</text><rect fill="#E2E2F0" height="49.2188" rx="2.5" ry="2.5" style="stroke:#181818;stroke-width:0.5;" width="123" x="320.5" y="645.1953"/><text fill="#000000" font-family="sans-serif" font-size="14" lengthAdjust="spacing" textLength="102" x="331" y="666.7285">VenteMcService</text><text fill="#000000" font-family="sans-serif" font-size="14" lengthAdjust="spacing" textLength="109" x="327.5" y="684.3379">(VenteController)</text><rect fill="#E2E2F0" height="49.2188" rx="2.5" ry="2.5" style="stroke:#181818;stroke-width:0.5;" width="116" x="496" y="71"/><text fill="#000000" font-family="sans-serif" font-size="14" lengthAdjust="spacing" textLength="102" x="503" y="92.5332">VenteMcService</text><text fill="#000000" font-family="sans-serif" font-size="14" lengthAdjust="spacing" textLength="94" x="507" y="110.1426">(VenteService)</text><rect fill="#E2E2F0" height="49.2188" rx="2.5" ry="2.5" style="stroke:#181818;stroke-width:0.5;" width="116" x="496" y="645.1953"/><text fill="#000000" font-family="sans-serif" font-size="14" lengthAdjust="spacing" textLength="102" x="503" y="666.7285">VenteMcService</text><text fill="#000000" font-family="sans-serif" font-size="14" lengthAdjust="spacing" textLength="94" x="507" y="684.3379">(VenteService)</text><rect fill="#E2E2F0" height="49.2188" rx="2.5" ry="2.5" style="stroke:#181818;stroke-width:0.5;" width="124" x="833" y="71"/><text fill="#000000" font-family="sans-serif" font-size="14" lengthAdjust="spacing" textLength="110" x="840" y="92.5332">ProduitMcService</text><text fill="#000000" font-family="sans-serif" font-size="14" lengthAdjust="spacing" textLength="102" x="844" y="110.1426">(ProduitService)</text><rect fill="#E2E2F0" height="49.2188" rx="2.5" ry="2.5" style="stroke:#181818;stroke-width:0.5;" width="124" x="833" y="645.1953"/><text fill="#000000" font-family="sans-serif" font-size="14" lengthAdjust="spacing" textLength="110" x="840" y="666.7285">ProduitMcService</text><text fill="#000000" font-family="sans-serif" font-size="14" lengthAdjust="spacing" textLength="102" x="844" y="684.3379">(ProduitService)</text><rect fill="#E2E2F0" height="49.2188" rx="2.5" ry="2.5" style="stroke:#181818;stroke-width:0.5;" width="125" x="967" y="71"/><text fill="#000000" font-family="sans-serif" font-size="14" lengthAdjust="spacing" textLength="102" x="978.5" y="92.5332">VenteMcService</text><text fill="#000000" font-family="sans-serif" font-size="14" lengthAdjust="spacing" textLength="111" x="974" y="110.1426">(StockDbContext)</text><rect fill="#E2E2F0" height="49.2188" rx="2.5" ry="2.5" style="stroke:#181818;stroke-width:0.5;" width="125" x="967" y="645.1953"/><text fill="#000000" font-family="sans-serif" font-size="14" lengthAdjust="spacing" textLength="102" x="978.5" y="666.7285">VenteMcService</text><text fill="#000000" font-family="sans-serif" font-size="14" lengthAdjust="spacing" textLength="111" x="974" y="684.3379">(StockDbContext)</text><rect fill="#E2E2F0" height="49.2188" rx="2.5" ry="2.5" style="stroke:#181818;stroke-width:0.5;" width="121" x="1102" y="71"/><text fill="#000000" font-family="sans-serif" font-size="14" lengthAdjust="spacing" textLength="100" x="1112.5" y="92.5332">StockMcService</text><text fill="#000000" font-family="sans-serif" font-size="14" lengthAdjust="spacing" textLength="107" x="1109" y="110.1426">(StockController)</text><rect fill="#E2E2F0" height="49.2188" rx="2.5" ry="2.5" style="stroke:#181818;stroke-width:0.5;" width="121" x="1102" y="645.1953"/><text fill="#000000" font-family="sans-serif" font-size="14" lengthAdjust="spacing" textLength="100" x="1112.5" y="666.7285">StockMcService</text><text fill="#000000" font-family="sans-serif" font-size="14" lengthAdjust="spacing" textLength="107" x="1109" y="684.3379">(StockController)</text><polygon fill="#181818" points="178,149.5703,188,153.5703,178,157.5703,182,153.5703" style="stroke:#181818;stroke-width:1.0;"/><line style="stroke:#181818;stroke-width:1.0;" x1="39" x2="184" y1="153.5703" y2="153.5703"/><text fill="#000000" font-family="sans-serif" font-size="13" lengthAdjust="spacing" textLength="90" x="46" y="148.7139">Cr&#233;er une vente</text><polygon fill="#181818" points="370,179.9219,380,183.9219,370,187.9219,374,183.9219" style="stroke:#181818;stroke-width:1.0;"/><line style="stroke:#181818;stroke-width:1.0;" x1="190" x2="376" y1="183.9219" y2="183.9219"/><text fill="#000000" font-family="sans-serif" font-size="13" lengthAdjust="spacing" textLength="168" x="197" y="179.0654">POST api/v1/ventes, Payload</text><polygon fill="#181818" points="542,210.2734,552,214.2734,542,218.2734,546,214.2734" style="stroke:#181818;stroke-width:1.0;"/><line style="stroke:#181818;stroke-width:1.0;" x1="382" x2="548" y1="214.2734" y2="214.2734"/><text fill="#000000" font-family="sans-serif" font-size="13" lengthAdjust="spacing" textLength="142" x="389" y="209.417">created = CreateAsync()</text><path d="M486,229.2734 L559,229.2734 L559,237.625 L549,247.625 L486,247.625 L486,229.2734 " fill="#EEEEEE" style="stroke:#000000;stroke-width:1.5;"/><rect fill="none" height="122.4063" style="stroke:#000000;stroke-width:1.5;" width="481" x="486" y="229.2734"/><text fill="#000000" font-family="sans-serif" font-size="13" font-weight="bold" lengthAdjust="spacing" textLength="28" x="501" y="243.7686">loop</text><text fill="#000000" font-family="sans-serif" font-size="11" font-weight="bold" lengthAdjust="spacing" textLength="167" x="574" y="242.6924">[for each ligne in vente.lignes]</text><polygon fill="#181818" points="883,265.9766,893,269.9766,883,273.9766,887,269.9766" style="stroke:#181818;stroke-width:1.0;"/><line style="stroke:#181818;stroke-width:1.0;" x1="554" x2="889" y1="269.9766" y2="269.9766"/><text fill="#000000" font-family="sans-serif" font-size="13" lengthAdjust="spacing" textLength="260" x="561" y="265.1201">produit = GET api/v1/produits/{ligne.produitId}</text><polygon fill="#181818" points="565,296.3281,555,300.3281,565,304.3281,561,300.3281" style="stroke:#181818;stroke-width:1.0;"/><line style="stroke:#181818;stroke-width:1.0;stroke-dasharray:2.0,2.0;" x1="559" x2="894" y1="300.3281" y2="300.3281"/><text fill="#000000" font-family="sans-serif" font-size="13" lengthAdjust="spacing" textLength="95" x="571" y="295.4717">200 OK (produit)</text><line style="stroke:#181818;stroke-width:1.0;" x1="554" x2="596" y1="330.6797" y2="330.6797"/><line style="stroke:#181818;stroke-width:1.0;" x1="596" x2="596" y1="330.6797" y2="343.6797"/><line style="stroke:#181818;stroke-width:1.0;" x1="555" x2="596" y1="343.6797" y2="343.6797"/><polygon fill="#181818" points="565,339.6797,555,343.6797,565,347.6797,561,343.6797" style="stroke:#181818;stroke-width:1.0;"/><text fill="#000000" font-family="sans-serif" font-size="13" lengthAdjust="spacing" textLength="327" x="561" y="325.8232">lignesVente.Add(produit.Id, produit.Prix, produit.quantite)</text><polygon fill="#181818" points="1017.5,377.0313,1027.5,381.0313,1017.5,385.0313,1021.5,381.0313" style="stroke:#181818;stroke-width:1.0;"/><line style="stroke:#181818;stroke-width:1.0;" x1="554" x2="1023.5" y1="381.0313" y2="381.0313"/><text fill="#000000" font-family="sans-serif" font-size="13" lengthAdjust="spacing" textLength="61" x="561" y="376.1748">Add(vente)</text><polygon fill="#181818" points="1017.5,407.3828,1027.5,411.3828,1017.5,415.3828,1021.5,411.3828" style="stroke:#181818;stroke-width:1.0;"/><line style="stroke:#181818;stroke-width:1.0;" x1="554" x2="1023.5" y1="411.3828" y2="411.3828"/><text fill="#000000" font-family="sans-serif" font-size="13" lengthAdjust="spacing" textLength="124" x="561" y="406.5264">SaveChangesAsync()</text><path d="M486,426.3828 L559,426.3828 L559,434.7344 L549,444.7344 L486,444.7344 L486,426.3828 " fill="#EEEEEE" style="stroke:#000000;stroke-width:1.5;"/><rect fill="none" height="111.7578" style="stroke:#000000;stroke-width:1.5;" width="747" x="486" y="426.3828"/><text fill="#000000" font-family="sans-serif" font-size="13" font-weight="bold" lengthAdjust="spacing" textLength="28" x="501" y="440.8779">loop</text><text fill="#000000" font-family="sans-serif" font-size="11" font-weight="bold" lengthAdjust="spacing" textLength="173" x="574" y="439.8018">[for each ligne in lignesVentes]</text><polygon fill="#181818" points="1150.5,495.7891,1160.5,499.7891,1150.5,503.7891,1154.5,499.7891" style="stroke:#181818;stroke-width:1.0;"/><line style="stroke:#181818;stroke-width:1.0;" x1="554" x2="1156.5" y1="499.7891" y2="499.7891"/><text fill="#000000" font-family="sans-serif" font-size="13" lengthAdjust="spacing" textLength="280" x="561" y="462.2295">PUT api/v1/stocks?magasinId={vente.magasinId}</text><text fill="#000000" font-family="sans-serif" font-size="13" lengthAdjust="spacing" textLength="154" x="561" y="478.5811">&amp;produitId={ligne.produitId}</text><text fill="#000000" font-family="sans-serif" font-size="13" lengthAdjust="spacing" textLength="152" x="561" y="494.9326">&amp;quantite={-ligne.quantite}</text><polygon fill="#181818" points="565,526.1406,555,530.1406,565,534.1406,561,530.1406" style="stroke:#181818;stroke-width:1.0;"/><line style="stroke:#181818;stroke-width:1.0;stroke-dasharray:2.0,2.0;" x1="559" x2="1161.5" y1="530.1406" y2="530.1406"/><text fill="#000000" font-family="sans-serif" font-size="13" lengthAdjust="spacing" textLength="90" x="571" y="525.2842">204 No Content</text><polygon fill="#181818" points="393,563.4922,383,567.4922,393,571.4922,389,567.4922" style="stroke:#181818;stroke-width:1.0;"/><line style="stroke:#181818;stroke-width:1.0;" x1="387" x2="553" y1="567.4922" y2="567.4922"/><text fill="#000000" font-family="sans-serif" font-size="13" lengthAdjust="spacing" textLength="148" x="399" y="562.6357">201 Created (vente cr&#233;&#233;e)</text><polygon fill="#181818" points="201,593.8438,191,597.8438,201,601.8438,197,597.8438" style="stroke:#181818;stroke-width:1.0;"/><line style="stroke:#181818;stroke-width:1.0;stroke-dasharray:2.0,2.0;" x1="195" x2="381" y1="597.8438" y2="597.8438"/><text fill="#000000" font-family="sans-serif" font-size="13" lengthAdjust="spacing" textLength="148" x="207" y="592.9873">201 Created (vente cr&#233;&#233;e)</text><polygon fill="#181818" points="50,624.1953,40,628.1953,50,632.1953,46,628.1953" style="stroke:#181818;stroke-width:1.0;"/><line style="stroke:#181818;stroke-width:1.0;stroke-dasharray:2.0,2.0;" x1="44" x2="189" y1="628.1953" y2="628.1953"/><text fill="#000000" font-family="sans-serif" font-size="13" lengthAdjust="spacing" textLength="127" x="56" y="623.3389">Afficher la vente cr&#233;&#233;e</text><!--SRC=[ZLFBRjim4BppAnOv51OGFnBqLC0j33SeZ2AD0TS-vSAIAvkeIgeaPIGmya7vZlnOLozNf9muFfd3dTdHxD8hdo5i2WI9iBH6e7E5Wo7Sf2aANw25GYFiKNjaZ0jlBAozofJZ7WlBScwz4YhdsiF5BCyp9RXNHiFjPdwl1vkIDpVQMvDbQ9CBu0xMYv1M5TsA5Tgz4lWQAmBV8z4SE_m62SdqsR9Glajle40WnCxqNtaZVd_zLVh51ryBX5WeKDtr1E8C8f0nrfa533zJjF09vlRbEPWReNGN1KY5oxlLJ-2v6k-lnbMbkuGbVymCbookRWKQXyGM5gclX2arBF_DtACMWuInp9WSKbeKv687cTgI4QLhBwFgw1ZGBz0Z_J1Wwf3N07NuTdCqse1kVAYaHirv8PygqKXasFTzFPd0tNSODCJaf9U8KxkkmD5CofOxMiZBrkLeQTN3_zFVWkQgF2R0K4jWBEuGRWFrA7MhZ9BpjIk-n_cEwoswSx5th9-EFLggSY_MnxHTUUc-_E5RxfHUoEcX7kCHUBhN7uuZcFPcGhTj4jF3iBvjWNfWSVkJ4_i8FmnKdw_zAtdsr_jwSjMifeGwMThPbsTw74b_lTl7ynQfV4TbNUVDqTZIL8aTIMGSWdhs3m00]--></g></svg>