<?xml version="1.0" encoding="us-ascii" standalone="no"?><svg xmlns="http://www.w3.org/2000/svg" xmlns:xlink="http://www.w3.org/1999/xlink" contentStyleType="text/css" height="448px" preserveAspectRatio="none" style="width:639px;height:448px;background:#FFFFFF;" version="1.1" viewBox="0 0 639 448" width="639px" zoomAndPan="magnify"><defs/><g><text fill="#000000" font-family="sans-serif" font-size="14" font-weight="bold" lengthAdjust="spacing" textLength="336" x="151" y="29.5332">Vue de Processus - Ajout d&#8217;un produit au panier</text><line style="stroke:#181818;stroke-width:0.5;stroke-dasharray:5.0,5.0;" x1="39" x2="39" y1="121.2188" y2="366.6797"/><line style="stroke:#181818;stroke-width:0.5;stroke-dasharray:5.0,5.0;" x1="183.5" x2="183.5" y1="121.2188" y2="366.6797"/><line style="stroke:#181818;stroke-width:0.5;stroke-dasharray:5.0,5.0;" x1="345" x2="345" y1="121.2188" y2="366.6797"/><line style="stroke:#181818;stroke-width:0.5;stroke-dasharray:5.0,5.0;" x1="477" x2="477" y1="121.2188" y2="366.6797"/><text fill="#000000" font-family="sans-serif" font-size="14" lengthAdjust="spacing" textLength="62" x="5" y="118.1426">Utilisateur</text><ellipse cx="39" cy="52.1094" fill="#E2E2F0" rx="8" ry="8" style="stroke:#181818;stroke-width:0.5;"/><path d="M39,60.1094 L39,87.1094 M26,68.1094 L52,68.1094 M39,87.1094 L26,102.1094 M39,87.1094 L52,102.1094 " fill="none" style="stroke:#181818;stroke-width:0.5;"/><text fill="#000000" font-family="sans-serif" font-size="14" lengthAdjust="spacing" textLength="62" x="5" y="380.2129">Utilisateur</text><ellipse cx="39" cy="391.7891" fill="#E2E2F0" rx="8" ry="8" style="stroke:#181818;stroke-width:0.5;"/><path d="M39,399.7891 L39,426.7891 M26,407.7891 L52,407.7891 M39,426.7891 L26,441.7891 M39,426.7891 L52,441.7891 " fill="none" style="stroke:#181818;stroke-width:0.5;"/><rect fill="#E2E2F0" height="49.2188" rx="2.5" ry="2.5" style="stroke:#181818;stroke-width:0.5;" width="127" x="120.5" y="71"/><text fill="#000000" font-family="sans-serif" font-size="14" lengthAdjust="spacing" textLength="103" x="132.5" y="92.5332">Application MVC</text><text fill="#000000" font-family="sans-serif" font-size="14" lengthAdjust="spacing" textLength="113" x="127.5" y="110.1426">(PanierController)</text><rect fill="#E2E2F0" height="49.2188" rx="2.5" ry="2.5" style="stroke:#181818;stroke-width:0.5;" width="127" x="120.5" y="365.6797"/><text fill="#000000" font-family="sans-serif" font-size="14" lengthAdjust="spacing" textLength="103" x="132.5" y="387.2129">Application MVC</text><text fill="#000000" font-family="sans-serif" font-size="14" lengthAdjust="spacing" textLength="113" x="127.5" y="404.8223">(PanierController)</text><rect fill="#E2E2F0" height="49.2188" rx="2.5" ry="2.5" style="stroke:#181818;stroke-width:0.5;" width="124" x="283" y="71"/><text fill="#000000" font-family="sans-serif" font-size="14" lengthAdjust="spacing" textLength="110" x="290" y="92.5332">ProduitMcService</text><text fill="#000000" font-family="sans-serif" font-size="14" lengthAdjust="spacing" textLength="107" x="291.5" y="110.1426">ProduitController</text><rect fill="#E2E2F0" height="49.2188" rx="2.5" ry="2.5" style="stroke:#181818;stroke-width:0.5;" width="124" x="283" y="365.6797"/><text fill="#000000" font-family="sans-serif" font-size="14" lengthAdjust="spacing" textLength="110" x="290" y="387.2129">ProduitMcService</text><text fill="#000000" font-family="sans-serif" font-size="14" lengthAdjust="spacing" textLength="107" x="291.5" y="404.8223">ProduitController</text><rect fill="#E2E2F0" height="49.2188" rx="2.5" ry="2.5" style="stroke:#181818;stroke-width:0.5;" width="120" x="417" y="71"/><text fill="#000000" font-family="sans-serif" font-size="14" lengthAdjust="spacing" textLength="106" x="424" y="92.5332">PanierMcService</text><text fill="#000000" font-family="sans-serif" font-size="14" lengthAdjust="spacing" textLength="103" x="425.5" y="110.1426">PanierController</text><rect fill="#E2E2F0" height="49.2188" rx="2.5" ry="2.5" style="stroke:#181818;stroke-width:0.5;" width="120" x="417" y="365.6797"/><text fill="#000000" font-family="sans-serif" font-size="14" lengthAdjust="spacing" textLength="106" x="424" y="387.2129">PanierMcService</text><text fill="#000000" font-family="sans-serif" font-size="14" lengthAdjust="spacing" textLength="103" x="425.5" y="404.8223">PanierController</text><polygon fill="#181818" points="172,149.5703,182,153.5703,172,157.5703,176,153.5703" style="stroke:#181818;stroke-width:1.0;"/><line style="stroke:#181818;stroke-width:1.0;" x1="39" x2="178" y1="153.5703" y2="153.5703"/><text fill="#000000" font-family="sans-serif" font-size="13" lengthAdjust="spacing" textLength="121" x="46" y="148.7139">POST /panier/ajouter</text><polygon fill="#181818" points="333,179.9219,343,183.9219,333,187.9219,337,183.9219" style="stroke:#181818;stroke-width:1.0;"/><line style="stroke:#181818;stroke-width:1.0;" x1="184" x2="339" y1="183.9219" y2="183.9219"/><text fill="#000000" font-family="sans-serif" font-size="13" lengthAdjust="spacing" textLength="102" x="191" y="179.0654">GET /produits/{id}</text><polygon fill="#181818" points="195,210.2734,185,214.2734,195,218.2734,191,214.2734" style="stroke:#181818;stroke-width:1.0;"/><line style="stroke:#181818;stroke-width:1.0;stroke-dasharray:2.0,2.0;" x1="189" x2="344" y1="214.2734" y2="214.2734"/><text fill="#000000" font-family="sans-serif" font-size="13" lengthAdjust="spacing" textLength="137" x="201" y="209.417">200 OK (d&#233;tails produit)</text><polygon fill="#181818" points="465,240.625,475,244.625,465,248.625,469,244.625" style="stroke:#181818;stroke-width:1.0;"/><line style="stroke:#181818;stroke-width:1.0;" x1="184" x2="471" y1="244.625" y2="244.625"/><text fill="#000000" font-family="sans-serif" font-size="13" lengthAdjust="spacing" textLength="128" x="191" y="239.7686">POST /paniers/ajouter</text><line style="stroke:#181818;stroke-width:1.0;" x1="477" x2="519" y1="274.9766" y2="274.9766"/><line style="stroke:#181818;stroke-width:1.0;" x1="519" x2="519" y1="274.9766" y2="287.9766"/><line style="stroke:#181818;stroke-width:1.0;" x1="478" x2="519" y1="287.9766" y2="287.9766"/><polygon fill="#181818" points="488,283.9766,478,287.9766,488,291.9766,484,287.9766" style="stroke:#181818;stroke-width:1.0;"/><text fill="#000000" font-family="sans-serif" font-size="13" lengthAdjust="spacing" textLength="148" x="484" y="270.1201">Ajout du produit au panier</text><polygon fill="#181818" points="195,314.3281,185,318.3281,195,322.3281,191,318.3281" style="stroke:#181818;stroke-width:1.0;"/><line style="stroke:#181818;stroke-width:1.0;stroke-dasharray:2.0,2.0;" x1="189" x2="476" y1="318.3281" y2="318.3281"/><text fill="#000000" font-family="sans-serif" font-size="13" lengthAdjust="spacing" textLength="129" x="201" y="313.4717">200 OK (ligne ajout&#233;e)</text><polygon fill="#181818" points="50,344.6797,40,348.6797,50,352.6797,46,348.6797" style="stroke:#181818;stroke-width:1.0;"/><line style="stroke:#181818;stroke-width:1.0;stroke-dasharray:2.0,2.0;" x1="44" x2="183" y1="348.6797" y2="348.6797"/><text fill="#000000" font-family="sans-serif" font-size="13" lengthAdjust="spacing" textLength="98" x="56" y="343.8232">Panier mis &#224; jour</text><!--SRC=[RP7DIWCn58NtUOfBLvt5CCLb5q8f8YAb0xLTTHCoGQx492GtRaJmDTovxNFCc_WaPZA9ZeFBv9npl_j3I4h2AKZe9BJE2Ebzy533via4Wkxh_IDeiCvq0Gbu0CirIiSO5sGS70aLUauoE6Qv8nGO3GIBZRKA1ISq6dQdxLalsnJS6atEA2LTjG3kuNZtDzUEf9quIFU2Gfvr_laDfbp-dOKJOfgTCSTedc3IEzJNiHDOGxi_F40ppjZmOGNH6PMePs8qtTuCdl7fcrVitbWHwrBeQhM2_Jqik_v279KlAwnOAPSOCwJ_OMPvQimN2VzSexZdT8MFMaAgsLzabT23PpBvkW2UqKF_2T7hs3S0]--></g></svg>