<?xml version="1.0" encoding="us-ascii" standalone="no"?><svg xmlns="http://www.w3.org/2000/svg" xmlns:xlink="http://www.w3.org/1999/xlink" contentStyleType="text/css" height="699px" preserveAspectRatio="none" style="width:789px;height:699px;background:#FFFFFF;" version="1.1" viewBox="0 0 789 699" width="789px" zoomAndPan="magnify"><defs/><g><text fill="#000000" font-family="sans-serif" font-size="14" font-weight="bold" lengthAdjust="spacing" textLength="323" x="229" y="29.5332">Process View - G&#233;n&#233;rer un Rapport Consolid&#233;</text><line style="stroke:#181818;stroke-width:0.5;stroke-dasharray:5.0,5.0;" x1="48" x2="48" y1="121.2188" y2="617.5469"/><line style="stroke:#181818;stroke-width:0.5;stroke-dasharray:5.0,5.0;" x1="151" x2="151" y1="121.2188" y2="617.5469"/><line style="stroke:#181818;stroke-width:0.5;stroke-dasharray:5.0,5.0;" x1="269" x2="269" y1="121.2188" y2="617.5469"/><line style="stroke:#181818;stroke-width:0.5;stroke-dasharray:5.0,5.0;" x1="482.5" x2="482.5" y1="121.2188" y2="617.5469"/><line style="stroke:#181818;stroke-width:0.5;stroke-dasharray:5.0,5.0;" x1="710" x2="710" y1="121.2188" y2="617.5469"/><text fill="#000000" font-family="sans-serif" font-size="14" lengthAdjust="spacing" textLength="81" x="5" y="118.1426">Gestionnaire</text><ellipse cx="48.5" cy="52.1094" fill="#E2E2F0" rx="8" ry="8" style="stroke:#181818;stroke-width:0.5;"/><path d="M48.5,60.1094 L48.5,87.1094 M35.5,68.1094 L61.5,68.1094 M48.5,87.1094 L35.5,102.1094 M48.5,87.1094 L61.5,102.1094 " fill="none" style="stroke:#181818;stroke-width:0.5;"/><text fill="#000000" font-family="sans-serif" font-size="14" lengthAdjust="spacing" textLength="81" x="5" y="631.0801">Gestionnaire</text><ellipse cx="48.5" cy="642.6563" fill="#E2E2F0" rx="8" ry="8" style="stroke:#181818;stroke-width:0.5;"/><path d="M48.5,650.6563 L48.5,677.6563 M35.5,658.6563 L61.5,658.6563 M48.5,677.6563 L35.5,692.6563 M48.5,677.6563 L61.5,692.6563 " fill="none" style="stroke:#181818;stroke-width:0.5;"/><rect fill="#E2E2F0" height="31.6094" rx="2.5" ry="2.5" style="stroke:#181818;stroke-width:0.5;" width="65" x="119" y="88.6094"/><text fill="#000000" font-family="sans-serif" font-size="14" lengthAdjust="spacing" textLength="51" x="126" y="110.1426">Browser</text><rect fill="#E2E2F0" height="31.6094" rx="2.5" ry="2.5" style="stroke:#181818;stroke-width:0.5;" width="65" x="119" y="616.5469"/><text fill="#000000" font-family="sans-serif" font-size="14" lengthAdjust="spacing" textLength="51" x="126" y="638.0801">Browser</text><rect fill="#E2E2F0" height="31.6094" rx="2.5" ry="2.5" style="stroke:#181818;stroke-width:0.5;" width="127" x="206" y="88.6094"/><text fill="#000000" font-family="sans-serif" font-size="14" lengthAdjust="spacing" textLength="113" x="213" y="110.1426">RapportController</text><rect fill="#E2E2F0" height="31.6094" rx="2.5" ry="2.5" style="stroke:#181818;stroke-width:0.5;" width="127" x="206" y="616.5469"/><text fill="#000000" font-family="sans-serif" font-size="14" lengthAdjust="spacing" textLength="113" x="213" y="638.0801">RapportController</text><rect fill="#E2E2F0" height="31.6094" rx="2.5" ry="2.5" style="stroke:#181818;stroke-width:0.5;" width="112" x="426.5" y="88.6094"/><text fill="#000000" font-family="sans-serif" font-size="14" lengthAdjust="spacing" textLength="98" x="433.5" y="110.1426">RapportService</text><rect fill="#E2E2F0" height="31.6094" rx="2.5" ry="2.5" style="stroke:#181818;stroke-width:0.5;" width="112" x="426.5" y="616.5469"/><text fill="#000000" font-family="sans-serif" font-size="14" lengthAdjust="spacing" textLength="98" x="433.5" y="638.0801">RapportService</text><rect fill="#E2E2F0" height="31.6094" rx="2.5" ry="2.5" style="stroke:#181818;stroke-width:0.5;" width="133" x="644" y="88.6094"/><text fill="#000000" font-family="sans-serif" font-size="14" lengthAdjust="spacing" textLength="119" x="651" y="110.1426">MagasinDbContext</text><rect fill="#E2E2F0" height="31.6094" rx="2.5" ry="2.5" style="stroke:#181818;stroke-width:0.5;" width="133" x="644" y="616.5469"/><text fill="#000000" font-family="sans-serif" font-size="14" lengthAdjust="spacing" textLength="119" x="651" y="638.0801">MagasinDbContext</text><polygon fill="#181818" points="139.5,149.5703,149.5,153.5703,139.5,157.5703,143.5,153.5703" style="stroke:#181818;stroke-width:1.0;"/><line style="stroke:#181818;stroke-width:1.0;" x1="48.5" x2="145.5" y1="153.5703" y2="153.5703"/><text fill="#000000" font-family="sans-serif" font-size="13" lengthAdjust="spacing" textLength="79" x="55.5" y="148.7139">GET /Rapport</text><polygon fill="#181818" points="257.5,179.9219,267.5,183.9219,257.5,187.9219,261.5,183.9219" style="stroke:#181818;stroke-width:1.0;"/><line style="stroke:#181818;stroke-width:1.0;" x1="151.5" x2="263.5" y1="183.9219" y2="183.9219"/><text fill="#000000" font-family="sans-serif" font-size="13" lengthAdjust="spacing" textLength="79" x="158.5" y="179.0654">GET /Rapport</text><polygon fill="#181818" points="470.5,226.625,480.5,230.625,470.5,234.625,474.5,230.625" style="stroke:#181818;stroke-width:1.0;"/><line style="stroke:#181818;stroke-width:1.0;" x1="269.5" x2="476.5" y1="230.625" y2="230.625"/><text fill="#000000" font-family="sans-serif" font-size="13" lengthAdjust="spacing" textLength="109" x="276.5" y="209.417">rapportConsolide =</text><text fill="#000000" font-family="sans-serif" font-size="13" lengthAdjust="spacing" textLength="189" x="276.5" y="225.7686">ObtenirRapportConsolideAsync()</text><rect fill="#EEEEEE" height="3" style="stroke:#EEEEEE;stroke-width:1.0;" width="782" x="0" y="259.8008"/><line style="stroke:#000000;stroke-width:1.0;" x1="0" x2="782" y1="259.8008" y2="259.8008"/><line style="stroke:#000000;stroke-width:1.0;" x1="0" x2="782" y1="262.8008" y2="262.8008"/><rect fill="#EEEEEE" height="24.3516" style="stroke:#000000;stroke-width:2.0;" width="155" x="313.5" y="248.625"/><text fill="#000000" font-family="sans-serif" font-size="13" font-weight="bold" lengthAdjust="spacing" textLength="137" x="319.5" y="266.1201">Charger les magasins</text><polygon fill="#181818" points="698.5,366.7344,708.5,370.7344,698.5,374.7344,702.5,370.7344" style="stroke:#181818;stroke-width:1.0;"/><line style="stroke:#181818;stroke-width:1.0;" x1="482.5" x2="704.5" y1="370.7344" y2="370.7344"/><text fill="#000000" font-family="sans-serif" font-size="13" lengthAdjust="spacing" textLength="204" x="489.5" y="300.4717">Magasins.Include(m =&gt; m.Ventes).</text><text fill="#000000" font-family="sans-serif" font-size="13" lengthAdjust="spacing" textLength="160" x="489.5" y="316.8232">ThenInclude(v =&gt; v.Produit).</text><text fill="#000000" font-family="sans-serif" font-size="13" lengthAdjust="spacing" textLength="192" x="489.5" y="333.1748">Include(m =&gt; m.StocksProduits).</text><text fill="#000000" font-family="sans-serif" font-size="13" lengthAdjust="spacing" textLength="178" x="489.5" y="349.5264">ThenInclude(sp =&gt; sp.Produit).</text><text fill="#000000" font-family="sans-serif" font-size="13" lengthAdjust="spacing" textLength="80" x="489.5" y="365.8779">ToListAsync()</text><polygon fill="#181818" points="493.5,397.0859,483.5,401.0859,493.5,405.0859,489.5,401.0859" style="stroke:#181818;stroke-width:1.0;"/><line style="stroke:#181818;stroke-width:1.0;stroke-dasharray:2.0,2.0;" x1="487.5" x2="709.5" y1="401.0859" y2="401.0859"/><text fill="#000000" font-family="sans-serif" font-size="13" lengthAdjust="spacing" textLength="86" x="499.5" y="396.2295">List&lt;Magasin&gt;</text><rect fill="#EEEEEE" height="3" style="stroke:#EEEEEE;stroke-width:1.0;" width="782" x="0" y="430.2617"/><line style="stroke:#000000;stroke-width:1.0;" x1="0" x2="782" y1="430.2617" y2="430.2617"/><line style="stroke:#000000;stroke-width:1.0;" x1="0" x2="782" y1="433.2617" y2="433.2617"/><rect fill="#EEEEEE" height="24.3516" style="stroke:#000000;stroke-width:2.0;" width="169" x="306.5" y="419.0859"/><text fill="#000000" font-family="sans-serif" font-size="13" font-weight="bold" lengthAdjust="spacing" textLength="151" x="312.5" y="436.5811">Charger le stock central</text><polygon fill="#181818" points="698.5,504.4922,708.5,508.4922,698.5,512.4922,702.5,508.4922" style="stroke:#181818;stroke-width:1.0;"/><line style="stroke:#181818;stroke-width:1.0;" x1="482.5" x2="704.5" y1="508.4922" y2="508.4922"/><text fill="#000000" font-family="sans-serif" font-size="13" lengthAdjust="spacing" textLength="97" x="489.5" y="470.9326">StocksCentraux.</text><text fill="#000000" font-family="sans-serif" font-size="13" lengthAdjust="spacing" textLength="150" x="489.5" y="487.2842">Include(sc =&gt; sc.Produit).</text><text fill="#000000" font-family="sans-serif" font-size="13" lengthAdjust="spacing" textLength="80" x="489.5" y="503.6357">ToListAsync()</text><polygon fill="#181818" points="493.5,534.8438,483.5,538.8438,493.5,542.8438,489.5,538.8438" style="stroke:#181818;stroke-width:1.0;"/><line style="stroke:#181818;stroke-width:1.0;stroke-dasharray:2.0,2.0;" x1="487.5" x2="709.5" y1="538.8438" y2="538.8438"/><text fill="#000000" font-family="sans-serif" font-size="13" lengthAdjust="spacing" textLength="112" x="499.5" y="533.9873">List&lt;StockCentral&gt;</text><polygon fill="#181818" points="280.5,565.1953,270.5,569.1953,280.5,573.1953,276.5,569.1953" style="stroke:#181818;stroke-width:1.0;"/><line style="stroke:#181818;stroke-width:1.0;stroke-dasharray:2.0,2.0;" x1="274.5" x2="481.5" y1="569.1953" y2="569.1953"/><text fill="#000000" font-family="sans-serif" font-size="13" lengthAdjust="spacing" textLength="102" x="286.5" y="564.3389">List&lt;RapportDto&gt;</text><polygon fill="#181818" points="162.5,595.5469,152.5,599.5469,162.5,603.5469,158.5,599.5469" style="stroke:#181818;stroke-width:1.0;"/><line style="stroke:#181818;stroke-width:1.0;stroke-dasharray:2.0,2.0;" x1="156.5" x2="268.5" y1="599.5469" y2="599.5469"/><text fill="#000000" font-family="sans-serif" font-size="13" lengthAdjust="spacing" textLength="94" x="168.5" y="594.6904">200 OK + JSON</text><!--SRC=[bP5DRi8m48NtFiM85QWYHLrM3LARLAY_L0bYnSOn5bWrTkHnW1w9St2nsebJXRIRRjzxVlEDnmehENmOpJWYB0K_m1XcvvCwdmmtK2d8Q5bgOo7H2hKKw_E9K6QrWS6CenLQAIeC7m15w0g4bDHOmKH9bON1Wz47vAQE9L9mPI_zCCKDiKPB6P9PycSgvsOlM3CpooyZRtH3KQYqy5NyQEjGMX3IXOFnD530BSmU5t0TcabGdPybVSyfNi-TRdvmwp_X4A_KlB1S2PFrh7lyKcmu8eJ4CIHRQZRkNoL7s3Ma275CNAchJWjN7HR0w4anMQtvS0Vn57RHqd5n74KhjTXorPfxR-uZTy1r9QntUyzogzad1l_NSonz2ijkmKA_2hGjjcCQjrjx_IxmJQ6t4A2V1CnX6YfxIpKKIUrLnmubiXg0_GEWxcggfAVmOzfxrO5mWTJgQNspxh5l9XEOly0LFEVpzsy0]--></g></svg>