<?xml version="1.0" encoding="us-ascii" standalone="no"?><svg xmlns="http://www.w3.org/2000/svg" xmlns:xlink="http://www.w3.org/1999/xlink" contentStyleType="text/css" height="1025px" preserveAspectRatio="none" style="width:3417px;height:1025px;background:#FFFFFF;" version="1.1" viewBox="0 0 3417 1025" width="3417px" zoomAndPan="magnify"><defs/><g><text fill="#000000" font-family="sans-serif" font-size="14" font-weight="bold" lengthAdjust="spacing" textLength="215" x="1594" y="24.5332">Vue Logique - Magasin Central</text><!--cluster MagasinCentral--><g id="cluster_MagasinCentral"><path d="M8.5,44.6094 L119.5,44.6094 A3.75,3.75 0 0 1 122,47.1094 L129,68.2188 L3407.5,68.2188 A2.5,2.5 0 0 1 3410,70.7188 L3410,1016.1094 A2.5,2.5 0 0 1 3407.5,1018.6094 L8.5,1018.6094 A2.5,2.5 0 0 1 6,1016.1094 L6,47.1094 A2.5,2.5 0 0 1 8.5,44.6094 " fill="none" style="stroke:#000000;stroke-width:1.5;"/><line style="stroke:#000000;stroke-width:1.5;" x1="6" x2="129" y1="68.2188" y2="68.2188"/><text fill="#000000" font-family="sans-serif" font-size="14" font-weight="bold" lengthAdjust="spacing" textLength="110" x="10" y="61.1426">MagasinCentral</text></g><!--cluster models--><g id="cluster_models"><path d="M2560.5,530.6094 L2613.5,530.6094 A3.75,3.75 0 0 1 2616,533.1094 L2623,554.2188 L3375.5,554.2188 A2.5,2.5 0 0 1 3378,556.7188 L3378,984.1094 A2.5,2.5 0 0 1 3375.5,986.6094 L2560.5,986.6094 A2.5,2.5 0 0 1 2558,984.1094 L2558,533.1094 A2.5,2.5 0 0 1 2560.5,530.6094 " fill="none" style="stroke:#000000;stroke-width:1.5;"/><line style="stroke:#000000;stroke-width:1.5;" x1="2558" x2="2623" y1="554.2188" y2="554.2188"/><text fill="#000000" font-family="sans-serif" font-size="14" font-weight="bold" lengthAdjust="spacing" textLength="52" x="2562" y="547.1426">Models</text></g><!--cluster controllers--><g id="cluster_controllers"><path d="M310.5,96.6094 L390.5,96.6094 A3.75,3.75 0 0 1 393,99.1094 L400,120.2188 L1062.5,120.2188 A2.5,2.5 0 0 1 1065,122.7188 L1065,462.1094 A2.5,2.5 0 0 1 1062.5,464.6094 L310.5,464.6094 A2.5,2.5 0 0 1 308,462.1094 L308,99.1094 A2.5,2.5 0 0 1 310.5,96.6094 " fill="none" style="stroke:#000000;stroke-width:1.5;"/><line style="stroke:#000000;stroke-width:1.5;" x1="308" x2="400" y1="120.2188" y2="120.2188"/><text fill="#000000" font-family="sans-serif" font-size="14" font-weight="bold" lengthAdjust="spacing" textLength="79" x="312" y="113.1426">Controllers</text></g><!--cluster services--><g id="cluster_services"><path d="M1134.5,539.6094 L1197.5,539.6094 A3.75,3.75 0 0 1 1200,542.1094 L1207,563.2188 L2515.5,563.2188 A2.5,2.5 0 0 1 2518,565.7188 L2518,975.1094 A2.5,2.5 0 0 1 2515.5,977.6094 L1134.5,977.6094 A2.5,2.5 0 0 1 1132,975.1094 L1132,542.1094 A2.5,2.5 0 0 1 1134.5,539.6094 " fill="none" style="stroke:#000000;stroke-width:1.5;"/><line style="stroke:#000000;stroke-width:1.5;" x1="1132" x2="1207" y1="563.2188" y2="563.2188"/><text fill="#000000" font-family="sans-serif" font-size="14" font-weight="bold" lengthAdjust="spacing" textLength="62" x="1136" y="556.1426">Services</text></g><!--cluster api--><g id="cluster_api"><path d="M40.5,548.1094 L63.5,548.1094 A3.75,3.75 0 0 1 66,550.6094 L73,571.7188 L1089.5,571.7188 A2.5,2.5 0 0 1 1092,574.2188 L1092,940.1094 A2.5,2.5 0 0 1 1089.5,942.6094 L40.5,942.6094 A2.5,2.5 0 0 1 38,940.1094 L38,550.6094 A2.5,2.5 0 0 1 40.5,548.1094 " fill="none" style="stroke:#000000;stroke-width:1.5;"/><line style="stroke:#000000;stroke-width:1.5;" x1="38" x2="73" y1="571.7188" y2="571.7188"/><text fill="#000000" font-family="sans-serif" font-size="14" font-weight="bold" lengthAdjust="spacing" textLength="22" x="42" y="564.6426">Api</text></g><!--class Produit--><g id="elem_Produit"><rect codeLine="10" fill="#FFFFFF" height="136.0469" id="Produit" rx="2.5" ry="2.5" style="stroke:#181818;stroke-width:0.5;" width="136" x="3019" y="594.6094"/><ellipse cx="3060.55" cy="610.6094" fill="#ADD1B2" rx="11" ry="11" style="stroke:#181818;stroke-width:1.0;"/><path d="M3063.3156,606.4844 Q3063.4719,606.2656 3063.6594,606.1563 Q3063.8469,606.0469 3064.0656,606.0469 Q3064.4406,606.0469 3064.675,606.3125 Q3064.9094,606.5625 3064.9094,607.1719 L3064.9094,608.625 Q3064.9094,609.2344 3064.675,609.5 Q3064.4406,609.7656 3064.0656,609.7656 Q3063.7219,609.7656 3063.5188,609.5625 Q3063.3156,609.375 3063.2063,608.8594 Q3063.1594,608.5 3062.9719,608.3125 Q3062.6438,607.9375 3062.0344,607.7188 Q3061.425,607.5 3060.8,607.5 Q3060.0344,607.5 3059.3938,607.8281 Q3058.7688,608.1563 3058.2688,608.9063 Q3057.7844,609.6563 3057.7844,610.6875 L3057.7844,611.7813 Q3057.7844,613.0156 3058.675,613.8438 Q3059.5656,614.6563 3061.1594,614.6563 Q3062.0969,614.6563 3062.7531,614.4063 Q3063.1438,614.25 3063.5656,613.8125 Q3063.8313,613.5469 3063.9719,613.4688 Q3064.1281,613.3906 3064.3313,613.3906 Q3064.6594,613.3906 3064.9094,613.6563 Q3065.175,613.9063 3065.175,614.25 Q3065.175,614.5938 3064.8313,615 Q3064.3313,615.5781 3063.5344,615.9063 Q3062.4563,616.3594 3061.1594,616.3594 Q3059.6438,616.3594 3058.4406,615.7344 Q3057.4563,615.2344 3056.7688,614.1719 Q3056.0813,613.0938 3056.0813,611.8125 L3056.0813,610.6563 Q3056.0813,609.3281 3056.6906,608.1875 Q3057.3156,607.0313 3058.4094,606.4219 Q3059.5031,605.7969 3060.7375,605.7969 Q3061.4719,605.7969 3062.1125,605.9688 Q3062.7688,606.125 3063.3156,606.4844 Z " fill="#000000"/><text fill="#000000" font-family="sans-serif" font-size="14" lengthAdjust="spacing" textLength="45" x="3080.45" y="616.3379">Produit</text><line style="stroke:#181818;stroke-width:0.5;" x1="3020" x2="3154" y1="626.6094" y2="626.6094"/><ellipse cx="3030" cy="640.9141" fill="none" rx="3" ry="3" style="stroke:#038048;stroke-width:1.0;"/><text fill="#000000" font-family="sans-serif" font-size="14" lengthAdjust="spacing" textLength="75" x="3039" y="645.1426">int ProduitId</text><ellipse cx="3030" cy="658.5234" fill="none" rx="3" ry="3" style="stroke:#038048;stroke-width:1.0;"/><text fill="#000000" font-family="sans-serif" font-size="14" lengthAdjust="spacing" textLength="67" x="3039" y="662.752">string Nom</text><ellipse cx="3030" cy="676.1328" fill="none" rx="3" ry="3" style="stroke:#038048;stroke-width:1.0;"/><text fill="#000000" font-family="sans-serif" font-size="14" lengthAdjust="spacing" textLength="101" x="3039" y="680.3613">string Categorie</text><ellipse cx="3030" cy="693.7422" fill="none" rx="3" ry="3" style="stroke:#038048;stroke-width:1.0;"/><text fill="#000000" font-family="sans-serif" font-size="14" lengthAdjust="spacing" textLength="75" x="3039" y="697.9707">decimal Prix</text><ellipse cx="3030" cy="711.3516" fill="none" rx="3" ry="3" style="stroke:#038048;stroke-width:1.0;"/><text fill="#000000" font-family="sans-serif" font-size="14" lengthAdjust="spacing" textLength="110" x="3039" y="715.5801">string Description</text><line style="stroke:#181818;stroke-width:0.5;" x1="3020" x2="3154" y1="722.6563" y2="722.6563"/></g><!--class Magasin--><g id="elem_Magasin"><rect codeLine="17" fill="#FFFFFF" height="100.8281" id="Magasin" rx="2.5" ry="2.5" style="stroke:#181818;stroke-width:0.5;" width="117" x="2831.5" y="612.1094"/><ellipse cx="2860.9" cy="628.1094" fill="#ADD1B2" rx="11" ry="11" style="stroke:#181818;stroke-width:1.0;"/><path d="M2863.6656,623.9844 Q2863.8219,623.7656 2864.0094,623.6563 Q2864.1969,623.5469 2864.4156,623.5469 Q2864.7906,623.5469 2865.025,623.8125 Q2865.2594,624.0625 2865.2594,624.6719 L2865.2594,626.125 Q2865.2594,626.7344 2865.025,627 Q2864.7906,627.2656 2864.4156,627.2656 Q2864.0719,627.2656 2863.8688,627.0625 Q2863.6656,626.875 2863.5563,626.3594 Q2863.5094,626 2863.3219,625.8125 Q2862.9938,625.4375 2862.3844,625.2188 Q2861.775,625 2861.15,625 Q2860.3844,625 2859.7438,625.3281 Q2859.1188,625.6563 2858.6188,626.4063 Q2858.1344,627.1563 2858.1344,628.1875 L2858.1344,629.2813 Q2858.1344,630.5156 2859.025,631.3438 Q2859.9156,632.1563 2861.5094,632.1563 Q2862.4469,632.1563 2863.1031,631.9063 Q2863.4938,631.75 2863.9156,631.3125 Q2864.1813,631.0469 2864.3219,630.9688 Q2864.4781,630.8906 2864.6813,630.8906 Q2865.0094,630.8906 2865.2594,631.1563 Q2865.525,631.4063 2865.525,631.75 Q2865.525,632.0938 2865.1813,632.5 Q2864.6813,633.0781 2863.8844,633.4063 Q2862.8063,633.8594 2861.5094,633.8594 Q2859.9938,633.8594 2858.7906,633.2344 Q2857.8063,632.7344 2857.1188,631.6719 Q2856.4313,630.5938 2856.4313,629.3125 L2856.4313,628.1563 Q2856.4313,626.8281 2857.0406,625.6875 Q2857.6656,624.5313 2858.7594,623.9219 Q2859.8531,623.2969 2861.0875,623.2969 Q2861.8219,623.2969 2862.4625,623.4688 Q2863.1188,623.625 2863.6656,623.9844 Z " fill="#000000"/><text fill="#000000" font-family="sans-serif" font-size="14" lengthAdjust="spacing" textLength="53" x="2878.1" y="633.8379">Magasin</text><line style="stroke:#181818;stroke-width:0.5;" x1="2832.5" x2="2947.5" y1="644.1094" y2="644.1094"/><ellipse cx="2842.5" cy="658.4141" fill="none" rx="3" ry="3" style="stroke:#038048;stroke-width:1.0;"/><text fill="#000000" font-family="sans-serif" font-size="14" lengthAdjust="spacing" textLength="83" x="2851.5" y="662.6426">int MagasinId</text><ellipse cx="2842.5" cy="676.0234" fill="none" rx="3" ry="3" style="stroke:#038048;stroke-width:1.0;"/><text fill="#000000" font-family="sans-serif" font-size="14" lengthAdjust="spacing" textLength="67" x="2851.5" y="680.252">string Nom</text><ellipse cx="2842.5" cy="693.6328" fill="none" rx="3" ry="3" style="stroke:#038048;stroke-width:1.0;"/><text fill="#000000" font-family="sans-serif" font-size="14" lengthAdjust="spacing" textLength="91" x="2851.5" y="697.8613">string Adresse</text><line style="stroke:#181818;stroke-width:0.5;" x1="2832.5" x2="2947.5" y1="704.9375" y2="704.9375"/></g><!--class MagasinStockProduit--><g id="elem_MagasinStockProduit"><rect codeLine="22" fill="#FFFFFF" height="100.8281" id="MagasinStockProduit" rx="2.5" ry="2.5" style="stroke:#181818;stroke-width:0.5;" width="165" x="3040.5" y="835.1094"/><ellipse cx="3055.5" cy="851.1094" fill="#ADD1B2" rx="11" ry="11" style="stroke:#181818;stroke-width:1.0;"/><path d="M3058.2656,846.9844 Q3058.4219,846.7656 3058.6094,846.6563 Q3058.7969,846.5469 3059.0156,846.5469 Q3059.3906,846.5469 3059.625,846.8125 Q3059.8594,847.0625 3059.8594,847.6719 L3059.8594,849.125 Q3059.8594,849.7344 3059.625,850 Q3059.3906,850.2656 3059.0156,850.2656 Q3058.6719,850.2656 3058.4688,850.0625 Q3058.2656,849.875 3058.1563,849.3594 Q3058.1094,849 3057.9219,848.8125 Q3057.5938,848.4375 3056.9844,848.2188 Q3056.375,848 3055.75,848 Q3054.9844,848 3054.3438,848.3281 Q3053.7188,848.6563 3053.2188,849.4063 Q3052.7344,850.1563 3052.7344,851.1875 L3052.7344,852.2813 Q3052.7344,853.5156 3053.625,854.3438 Q3054.5156,855.1563 3056.1094,855.1563 Q3057.0469,855.1563 3057.7031,854.9063 Q3058.0938,854.75 3058.5156,854.3125 Q3058.7813,854.0469 3058.9219,853.9688 Q3059.0781,853.8906 3059.2813,853.8906 Q3059.6094,853.8906 3059.8594,854.1563 Q3060.125,854.4063 3060.125,854.75 Q3060.125,855.0938 3059.7813,855.5 Q3059.2813,856.0781 3058.4844,856.4063 Q3057.4063,856.8594 3056.1094,856.8594 Q3054.5938,856.8594 3053.3906,856.2344 Q3052.4063,855.7344 3051.7188,854.6719 Q3051.0313,853.5938 3051.0313,852.3125 L3051.0313,851.1563 Q3051.0313,849.8281 3051.6406,848.6875 Q3052.2656,847.5313 3053.3594,846.9219 Q3054.4531,846.2969 3055.6875,846.2969 Q3056.4219,846.2969 3057.0625,846.4688 Q3057.7188,846.625 3058.2656,846.9844 Z " fill="#000000"/><text fill="#000000" font-family="sans-serif" font-size="14" lengthAdjust="spacing" textLength="133" x="3069.5" y="856.8379">MagasinStockProduit</text><line style="stroke:#181818;stroke-width:0.5;" x1="3041.5" x2="3204.5" y1="867.1094" y2="867.1094"/><ellipse cx="3051.5" cy="881.4141" fill="none" rx="3" ry="3" style="stroke:#038048;stroke-width:1.0;"/><text fill="#000000" font-family="sans-serif" font-size="14" lengthAdjust="spacing" textLength="83" x="3060.5" y="885.6426">int MagasinId</text><ellipse cx="3051.5" cy="899.0234" fill="none" rx="3" ry="3" style="stroke:#038048;stroke-width:1.0;"/><text fill="#000000" font-family="sans-serif" font-size="14" lengthAdjust="spacing" textLength="75" x="3060.5" y="903.252">int ProduitId</text><ellipse cx="3051.5" cy="916.6328" fill="none" rx="3" ry="3" style="stroke:#038048;stroke-width:1.0;"/><text fill="#000000" font-family="sans-serif" font-size="14" lengthAdjust="spacing" textLength="73" x="3060.5" y="920.8613">int Quantite</text><line style="stroke:#181818;stroke-width:0.5;" x1="3041.5" x2="3204.5" y1="927.9375" y2="927.9375"/></g><!--class StockCentral--><g id="elem_StockCentral"><rect codeLine="27" fill="#FFFFFF" height="83.2188" id="StockCentral" rx="2.5" ry="2.5" style="stroke:#181818;stroke-width:0.5;" width="113" x="3240.5" y="844.1094"/><ellipse cx="3255.5" cy="860.1094" fill="#ADD1B2" rx="11" ry="11" style="stroke:#181818;stroke-width:1.0;"/><path d="M3258.2656,855.9844 Q3258.4219,855.7656 3258.6094,855.6563 Q3258.7969,855.5469 3259.0156,855.5469 Q3259.3906,855.5469 3259.625,855.8125 Q3259.8594,856.0625 3259.8594,856.6719 L3259.8594,858.125 Q3259.8594,858.7344 3259.625,859 Q3259.3906,859.2656 3259.0156,859.2656 Q3258.6719,859.2656 3258.4688,859.0625 Q3258.2656,858.875 3258.1563,858.3594 Q3258.1094,858 3257.9219,857.8125 Q3257.5938,857.4375 3256.9844,857.2188 Q3256.375,857 3255.75,857 Q3254.9844,857 3254.3438,857.3281 Q3253.7188,857.6563 3253.2188,858.4063 Q3252.7344,859.1563 3252.7344,860.1875 L3252.7344,861.2813 Q3252.7344,862.5156 3253.625,863.3438 Q3254.5156,864.1563 3256.1094,864.1563 Q3257.0469,864.1563 3257.7031,863.9063 Q3258.0938,863.75 3258.5156,863.3125 Q3258.7813,863.0469 3258.9219,862.9688 Q3259.0781,862.8906 3259.2813,862.8906 Q3259.6094,862.8906 3259.8594,863.1563 Q3260.125,863.4063 3260.125,863.75 Q3260.125,864.0938 3259.7813,864.5 Q3259.2813,865.0781 3258.4844,865.4063 Q3257.4063,865.8594 3256.1094,865.8594 Q3254.5938,865.8594 3253.3906,865.2344 Q3252.4063,864.7344 3251.7188,863.6719 Q3251.0313,862.5938 3251.0313,861.3125 L3251.0313,860.1563 Q3251.0313,858.8281 3251.6406,857.6875 Q3252.2656,856.5313 3253.3594,855.9219 Q3254.4531,855.2969 3255.6875,855.2969 Q3256.4219,855.2969 3257.0625,855.4688 Q3257.7188,855.625 3258.2656,855.9844 Z " fill="#000000"/><text fill="#000000" font-family="sans-serif" font-size="14" lengthAdjust="spacing" textLength="81" x="3269.5" y="865.8379">StockCentral</text><line style="stroke:#181818;stroke-width:0.5;" x1="3241.5" x2="3352.5" y1="876.1094" y2="876.1094"/><ellipse cx="3251.5" cy="890.4141" fill="none" rx="3" ry="3" style="stroke:#038048;stroke-width:1.0;"/><text fill="#000000" font-family="sans-serif" font-size="14" lengthAdjust="spacing" textLength="75" x="3260.5" y="894.6426">int ProduitId</text><ellipse cx="3251.5" cy="908.0234" fill="none" rx="3" ry="3" style="stroke:#038048;stroke-width:1.0;"/><text fill="#000000" font-family="sans-serif" font-size="14" lengthAdjust="spacing" textLength="73" x="3260.5" y="912.252">int Quantite</text><line style="stroke:#181818;stroke-width:0.5;" x1="3241.5" x2="3352.5" y1="919.3281" y2="919.3281"/></g><!--class Vente--><g id="elem_Vente"><rect codeLine="31" fill="#FFFFFF" height="153.6563" id="Vente" rx="2.5" ry="2.5" style="stroke:#181818;stroke-width:0.5;" width="149" x="2590.5" y="808.6094"/><ellipse cx="2642.25" cy="824.6094" fill="#ADD1B2" rx="11" ry="11" style="stroke:#181818;stroke-width:1.0;"/><path d="M2645.0156,820.4844 Q2645.1719,820.2656 2645.3594,820.1563 Q2645.5469,820.0469 2645.7656,820.0469 Q2646.1406,820.0469 2646.375,820.3125 Q2646.6094,820.5625 2646.6094,821.1719 L2646.6094,822.625 Q2646.6094,823.2344 2646.375,823.5 Q2646.1406,823.7656 2645.7656,823.7656 Q2645.4219,823.7656 2645.2188,823.5625 Q2645.0156,823.375 2644.9063,822.8594 Q2644.8594,822.5 2644.6719,822.3125 Q2644.3438,821.9375 2643.7344,821.7188 Q2643.125,821.5 2642.5,821.5 Q2641.7344,821.5 2641.0938,821.8281 Q2640.4688,822.1563 2639.9688,822.9063 Q2639.4844,823.6563 2639.4844,824.6875 L2639.4844,825.7813 Q2639.4844,827.0156 2640.375,827.8438 Q2641.2656,828.6563 2642.8594,828.6563 Q2643.7969,828.6563 2644.4531,828.4063 Q2644.8438,828.25 2645.2656,827.8125 Q2645.5313,827.5469 2645.6719,827.4688 Q2645.8281,827.3906 2646.0313,827.3906 Q2646.3594,827.3906 2646.6094,827.6563 Q2646.875,827.9063 2646.875,828.25 Q2646.875,828.5938 2646.5313,829 Q2646.0313,829.5781 2645.2344,829.9063 Q2644.1563,830.3594 2642.8594,830.3594 Q2641.3438,830.3594 2640.1406,829.7344 Q2639.1563,829.2344 2638.4688,828.1719 Q2637.7813,827.0938 2637.7813,825.8125 L2637.7813,824.6563 Q2637.7813,823.3281 2638.3906,822.1875 Q2639.0156,821.0313 2640.1094,820.4219 Q2641.2031,819.7969 2642.4375,819.7969 Q2643.1719,819.7969 2643.8125,819.9688 Q2644.4688,820.125 2645.0156,820.4844 Z " fill="#000000"/><text fill="#000000" font-family="sans-serif" font-size="14" lengthAdjust="spacing" textLength="37" x="2662.75" y="830.3379">Vente</text><line style="stroke:#181818;stroke-width:0.5;" x1="2591.5" x2="2738.5" y1="840.6094" y2="840.6094"/><ellipse cx="2601.5" cy="854.9141" fill="none" rx="3" ry="3" style="stroke:#038048;stroke-width:1.0;"/><text fill="#000000" font-family="sans-serif" font-size="14" lengthAdjust="spacing" textLength="67" x="2610.5" y="859.1426">int VenteId</text><ellipse cx="2601.5" cy="872.5234" fill="none" rx="3" ry="3" style="stroke:#038048;stroke-width:1.0;"/><text fill="#000000" font-family="sans-serif" font-size="14" lengthAdjust="spacing" textLength="95" x="2610.5" y="876.752">DateTime Date</text><ellipse cx="2601.5" cy="890.1328" fill="none" rx="3" ry="3" style="stroke:#038048;stroke-width:1.0;"/><text fill="#000000" font-family="sans-serif" font-size="14" lengthAdjust="spacing" textLength="83" x="2610.5" y="894.3613">int MagasinId</text><ellipse cx="2601.5" cy="907.7422" fill="none" rx="3" ry="3" style="stroke:#038048;stroke-width:1.0;"/><text fill="#000000" font-family="sans-serif" font-size="14" lengthAdjust="spacing" textLength="75" x="2610.5" y="911.9707">int ProduitId</text><ellipse cx="2601.5" cy="925.3516" fill="none" rx="3" ry="3" style="stroke:#038048;stroke-width:1.0;"/><text fill="#000000" font-family="sans-serif" font-size="14" lengthAdjust="spacing" textLength="73" x="2610.5" y="929.5801">int Quantite</text><ellipse cx="2601.5" cy="942.9609" fill="none" rx="3" ry="3" style="stroke:#038048;stroke-width:1.0;"/><text fill="#000000" font-family="sans-serif" font-size="14" lengthAdjust="spacing" textLength="123" x="2610.5" y="947.1895">decimal PrixUnitaire</text><line style="stroke:#181818;stroke-width:0.5;" x1="2591.5" x2="2738.5" y1="954.2656" y2="954.2656"/></g><!--class DemandeReapprovisionnement--><g id="elem_DemandeReapprovisionnement"><rect codeLine="39" fill="#FFFFFF" height="153.6563" id="DemandeReapprovisionnement" rx="2.5" ry="2.5" style="stroke:#181818;stroke-width:0.5;" width="231" x="2774.5" y="808.6094"/><ellipse cx="2789.5" cy="824.6094" fill="#ADD1B2" rx="11" ry="11" style="stroke:#181818;stroke-width:1.0;"/><path d="M2792.2656,820.4844 Q2792.4219,820.2656 2792.6094,820.1563 Q2792.7969,820.0469 2793.0156,820.0469 Q2793.3906,820.0469 2793.625,820.3125 Q2793.8594,820.5625 2793.8594,821.1719 L2793.8594,822.625 Q2793.8594,823.2344 2793.625,823.5 Q2793.3906,823.7656 2793.0156,823.7656 Q2792.6719,823.7656 2792.4688,823.5625 Q2792.2656,823.375 2792.1563,822.8594 Q2792.1094,822.5 2791.9219,822.3125 Q2791.5938,821.9375 2790.9844,821.7188 Q2790.375,821.5 2789.75,821.5 Q2788.9844,821.5 2788.3438,821.8281 Q2787.7188,822.1563 2787.2188,822.9063 Q2786.7344,823.6563 2786.7344,824.6875 L2786.7344,825.7813 Q2786.7344,827.0156 2787.625,827.8438 Q2788.5156,828.6563 2790.1094,828.6563 Q2791.0469,828.6563 2791.7031,828.4063 Q2792.0938,828.25 2792.5156,827.8125 Q2792.7813,827.5469 2792.9219,827.4688 Q2793.0781,827.3906 2793.2813,827.3906 Q2793.6094,827.3906 2793.8594,827.6563 Q2794.125,827.9063 2794.125,828.25 Q2794.125,828.5938 2793.7813,829 Q2793.2813,829.5781 2792.4844,829.9063 Q2791.4063,830.3594 2790.1094,830.3594 Q2788.5938,830.3594 2787.3906,829.7344 Q2786.4063,829.2344 2785.7188,828.1719 Q2785.0313,827.0938 2785.0313,825.8125 L2785.0313,824.6563 Q2785.0313,823.3281 2785.6406,822.1875 Q2786.2656,821.0313 2787.3594,820.4219 Q2788.4531,819.7969 2789.6875,819.7969 Q2790.4219,819.7969 2791.0625,819.9688 Q2791.7188,820.125 2792.2656,820.4844 Z " fill="#000000"/><text fill="#000000" font-family="sans-serif" font-size="14" lengthAdjust="spacing" textLength="199" x="2803.5" y="830.3379">DemandeReapprovisionnement</text><line style="stroke:#181818;stroke-width:0.5;" x1="2775.5" x2="3004.5" y1="840.6094" y2="840.6094"/><ellipse cx="2785.5" cy="854.9141" fill="none" rx="3" ry="3" style="stroke:#038048;stroke-width:1.0;"/><text fill="#000000" font-family="sans-serif" font-size="14" lengthAdjust="spacing" textLength="91" x="2794.5" y="859.1426">int DemandeId</text><ellipse cx="2785.5" cy="872.5234" fill="none" rx="3" ry="3" style="stroke:#038048;stroke-width:1.0;"/><text fill="#000000" font-family="sans-serif" font-size="14" lengthAdjust="spacing" textLength="83" x="2794.5" y="876.752">int MagasinId</text><ellipse cx="2785.5" cy="890.1328" fill="none" rx="3" ry="3" style="stroke:#038048;stroke-width:1.0;"/><text fill="#000000" font-family="sans-serif" font-size="14" lengthAdjust="spacing" textLength="75" x="2794.5" y="894.3613">int ProduitId</text><ellipse cx="2785.5" cy="907.7422" fill="none" rx="3" ry="3" style="stroke:#038048;stroke-width:1.0;"/><text fill="#000000" font-family="sans-serif" font-size="14" lengthAdjust="spacing" textLength="142" x="2794.5" y="911.9707">int QuantiteDemandee</text><ellipse cx="2785.5" cy="925.3516" fill="none" rx="3" ry="3" style="stroke:#038048;stroke-width:1.0;"/><text fill="#000000" font-family="sans-serif" font-size="14" lengthAdjust="spacing" textLength="156" x="2794.5" y="929.5801">DateTime DateDemande</text><ellipse cx="2785.5" cy="942.9609" fill="none" rx="3" ry="3" style="stroke:#038048;stroke-width:1.0;"/><text fill="#000000" font-family="sans-serif" font-size="14" lengthAdjust="spacing" textLength="76" x="2794.5" y="947.1895">string Statut</text><line style="stroke:#181818;stroke-width:0.5;" x1="2775.5" x2="3004.5" y1="954.2656" y2="954.2656"/></g><!--class ProduitController--><g id="elem_ProduitController"><rect codeLine="50" fill="#FFFFFF" height="118.4375" id="ProduitController" rx="2.5" ry="2.5" style="stroke:#181818;stroke-width:0.5;" width="188" x="334" y="160.6094"/><ellipse cx="371.05" cy="176.6094" fill="#ADD1B2" rx="11" ry="11" style="stroke:#181818;stroke-width:1.0;"/><path d="M373.8156,172.4844 Q373.9719,172.2656 374.1594,172.1563 Q374.3469,172.0469 374.5656,172.0469 Q374.9406,172.0469 375.175,172.3125 Q375.4094,172.5625 375.4094,173.1719 L375.4094,174.625 Q375.4094,175.2344 375.175,175.5 Q374.9406,175.7656 374.5656,175.7656 Q374.2219,175.7656 374.0188,175.5625 Q373.8156,175.375 373.7063,174.8594 Q373.6594,174.5 373.4719,174.3125 Q373.1438,173.9375 372.5344,173.7188 Q371.925,173.5 371.3,173.5 Q370.5344,173.5 369.8938,173.8281 Q369.2688,174.1563 368.7688,174.9063 Q368.2844,175.6563 368.2844,176.6875 L368.2844,177.7813 Q368.2844,179.0156 369.175,179.8438 Q370.0656,180.6563 371.6594,180.6563 Q372.5969,180.6563 373.2531,180.4063 Q373.6438,180.25 374.0656,179.8125 Q374.3313,179.5469 374.4719,179.4688 Q374.6281,179.3906 374.8313,179.3906 Q375.1594,179.3906 375.4094,179.6563 Q375.675,179.9063 375.675,180.25 Q375.675,180.5938 375.3313,181 Q374.8313,181.5781 374.0344,181.9063 Q372.9563,182.3594 371.6594,182.3594 Q370.1438,182.3594 368.9406,181.7344 Q367.9563,181.2344 367.2688,180.1719 Q366.5813,179.0938 366.5813,177.8125 L366.5813,176.6563 Q366.5813,175.3281 367.1906,174.1875 Q367.8156,173.0313 368.9094,172.4219 Q370.0031,171.7969 371.2375,171.7969 Q371.9719,171.7969 372.6125,171.9688 Q373.2688,172.125 373.8156,172.4844 Z " fill="#000000"/><text fill="#000000" font-family="sans-serif" font-size="14" lengthAdjust="spacing" textLength="107" x="389.95" y="182.3379">ProduitController</text><line style="stroke:#181818;stroke-width:0.5;" x1="335" x2="521" y1="192.6094" y2="192.6094"/><line style="stroke:#181818;stroke-width:0.5;" x1="335" x2="521" y1="200.6094" y2="200.6094"/><ellipse cx="345" cy="214.9141" fill="#84BE84" rx="3" ry="3" style="stroke:#038048;stroke-width:1.0;"/><text fill="#000000" font-family="sans-serif" font-size="14" lengthAdjust="spacing" textLength="43" x="354" y="219.1426">Index()</text><ellipse cx="345" cy="232.5234" fill="#84BE84" rx="3" ry="3" style="stroke:#038048;stroke-width:1.0;"/><text fill="#000000" font-family="sans-serif" font-size="14" lengthAdjust="spacing" textLength="134" x="354" y="236.752">Modifier(int produitId)</text><ellipse cx="345" cy="250.1328" fill="#84BE84" rx="3" ry="3" style="stroke:#038048;stroke-width:1.0;"/><text fill="#000000" font-family="sans-serif" font-size="14" lengthAdjust="spacing" textLength="153" x="354" y="254.3613">Modifier(Produit produit)</text><ellipse cx="345" cy="267.7422" fill="#84BE84" rx="3" ry="3" style="stroke:#038048;stroke-width:1.0;"/><text fill="#000000" font-family="sans-serif" font-size="14" lengthAdjust="spacing" textLength="162" x="354" y="271.9707">Recherche(string produit)</text></g><!--class RapportController--><g id="elem_RapportController"><rect codeLine="56" fill="#FFFFFF" height="65.6094" id="RapportController" rx="2.5" ry="2.5" style="stroke:#181818;stroke-width:0.5;" width="145" x="561.5" y="186.6094"/><ellipse cx="576.5" cy="202.6094" fill="#ADD1B2" rx="11" ry="11" style="stroke:#181818;stroke-width:1.0;"/><path d="M579.2656,198.4844 Q579.4219,198.2656 579.6094,198.1563 Q579.7969,198.0469 580.0156,198.0469 Q580.3906,198.0469 580.625,198.3125 Q580.8594,198.5625 580.8594,199.1719 L580.8594,200.625 Q580.8594,201.2344 580.625,201.5 Q580.3906,201.7656 580.0156,201.7656 Q579.6719,201.7656 579.4688,201.5625 Q579.2656,201.375 579.1563,200.8594 Q579.1094,200.5 578.9219,200.3125 Q578.5938,199.9375 577.9844,199.7188 Q577.375,199.5 576.75,199.5 Q575.9844,199.5 575.3438,199.8281 Q574.7188,200.1563 574.2188,200.9063 Q573.7344,201.6563 573.7344,202.6875 L573.7344,203.7813 Q573.7344,205.0156 574.625,205.8438 Q575.5156,206.6563 577.1094,206.6563 Q578.0469,206.6563 578.7031,206.4063 Q579.0938,206.25 579.5156,205.8125 Q579.7813,205.5469 579.9219,205.4688 Q580.0781,205.3906 580.2813,205.3906 Q580.6094,205.3906 580.8594,205.6563 Q581.125,205.9063 581.125,206.25 Q581.125,206.5938 580.7813,207 Q580.2813,207.5781 579.4844,207.9063 Q578.4063,208.3594 577.1094,208.3594 Q575.5938,208.3594 574.3906,207.7344 Q573.4063,207.2344 572.7188,206.1719 Q572.0313,205.0938 572.0313,203.8125 L572.0313,202.6563 Q572.0313,201.3281 572.6406,200.1875 Q573.2656,199.0313 574.3594,198.4219 Q575.4531,197.7969 576.6875,197.7969 Q577.4219,197.7969 578.0625,197.9688 Q578.7188,198.125 579.2656,198.4844 Z " fill="#000000"/><text fill="#000000" font-family="sans-serif" font-size="14" lengthAdjust="spacing" textLength="113" x="590.5" y="208.3379">RapportController</text><line style="stroke:#181818;stroke-width:0.5;" x1="562.5" x2="705.5" y1="218.6094" y2="218.6094"/><line style="stroke:#181818;stroke-width:0.5;" x1="562.5" x2="705.5" y1="226.6094" y2="226.6094"/><ellipse cx="572.5" cy="240.9141" fill="#84BE84" rx="3" ry="3" style="stroke:#038048;stroke-width:1.0;"/><text fill="#000000" font-family="sans-serif" font-size="14" lengthAdjust="spacing" textLength="43" x="581.5" y="245.1426">Index()</text></g><!--class TraiterDemandesController--><g id="elem_TraiterDemandesController"><rect codeLine="60" fill="#FFFFFF" height="83.2188" id="TraiterDemandesController" rx="2.5" ry="2.5" style="stroke:#181818;stroke-width:0.5;" width="271" x="743.5" y="178.1094"/><ellipse cx="788.75" cy="194.1094" fill="#ADD1B2" rx="11" ry="11" style="stroke:#181818;stroke-width:1.0;"/><path d="M791.5156,189.9844 Q791.6719,189.7656 791.8594,189.6563 Q792.0469,189.5469 792.2656,189.5469 Q792.6406,189.5469 792.875,189.8125 Q793.1094,190.0625 793.1094,190.6719 L793.1094,192.125 Q793.1094,192.7344 792.875,193 Q792.6406,193.2656 792.2656,193.2656 Q791.9219,193.2656 791.7188,193.0625 Q791.5156,192.875 791.4063,192.3594 Q791.3594,192 791.1719,191.8125 Q790.8438,191.4375 790.2344,191.2188 Q789.625,191 789,191 Q788.2344,191 787.5938,191.3281 Q786.9688,191.6563 786.4688,192.4063 Q785.9844,193.1563 785.9844,194.1875 L785.9844,195.2813 Q785.9844,196.5156 786.875,197.3438 Q787.7656,198.1563 789.3594,198.1563 Q790.2969,198.1563 790.9531,197.9063 Q791.3438,197.75 791.7656,197.3125 Q792.0313,197.0469 792.1719,196.9688 Q792.3281,196.8906 792.5313,196.8906 Q792.8594,196.8906 793.1094,197.1563 Q793.375,197.4063 793.375,197.75 Q793.375,198.0938 793.0313,198.5 Q792.5313,199.0781 791.7344,199.4063 Q790.6563,199.8594 789.3594,199.8594 Q787.8438,199.8594 786.6406,199.2344 Q785.6563,198.7344 784.9688,197.6719 Q784.2813,196.5938 784.2813,195.3125 L784.2813,194.1563 Q784.2813,192.8281 784.8906,191.6875 Q785.5156,190.5313 786.6094,189.9219 Q787.7031,189.2969 788.9375,189.2969 Q789.6719,189.2969 790.3125,189.4688 Q790.9688,189.625 791.5156,189.9844 Z " fill="#000000"/><text fill="#000000" font-family="sans-serif" font-size="14" lengthAdjust="spacing" textLength="172" x="809.25" y="199.8379">TraiterDemandesController</text><line style="stroke:#181818;stroke-width:0.5;" x1="744.5" x2="1013.5" y1="210.1094" y2="210.1094"/><line style="stroke:#181818;stroke-width:0.5;" x1="744.5" x2="1013.5" y1="218.1094" y2="218.1094"/><ellipse cx="754.5" cy="232.4141" fill="#84BE84" rx="3" ry="3" style="stroke:#038048;stroke-width:1.0;"/><text fill="#000000" font-family="sans-serif" font-size="14" lengthAdjust="spacing" textLength="43" x="763.5" y="236.6426">Index()</text><ellipse cx="754.5" cy="250.0234" fill="#84BE84" rx="3" ry="3" style="stroke:#038048;stroke-width:1.0;"/><text fill="#000000" font-family="sans-serif" font-size="14" lengthAdjust="spacing" textLength="245" x="763.5" y="254.252">Traiter(int demandeId, bool approuver)</text></g><!--class PerformancesController--><g id="elem_PerformancesController"><rect codeLine="64" fill="#FFFFFF" height="65.6094" id="PerformancesController" rx="2.5" ry="2.5" style="stroke:#181818;stroke-width:0.5;" width="182" x="332" y="357.1094"/><ellipse cx="347" cy="373.1094" fill="#ADD1B2" rx="11" ry="11" style="stroke:#181818;stroke-width:1.0;"/><path d="M349.7656,368.9844 Q349.9219,368.7656 350.1094,368.6563 Q350.2969,368.5469 350.5156,368.5469 Q350.8906,368.5469 351.125,368.8125 Q351.3594,369.0625 351.3594,369.6719 L351.3594,371.125 Q351.3594,371.7344 351.125,372 Q350.8906,372.2656 350.5156,372.2656 Q350.1719,372.2656 349.9688,372.0625 Q349.7656,371.875 349.6563,371.3594 Q349.6094,371 349.4219,370.8125 Q349.0938,370.4375 348.4844,370.2188 Q347.875,370 347.25,370 Q346.4844,370 345.8438,370.3281 Q345.2188,370.6563 344.7188,371.4063 Q344.2344,372.1563 344.2344,373.1875 L344.2344,374.2813 Q344.2344,375.5156 345.125,376.3438 Q346.0156,377.1563 347.6094,377.1563 Q348.5469,377.1563 349.2031,376.9063 Q349.5938,376.75 350.0156,376.3125 Q350.2813,376.0469 350.4219,375.9688 Q350.5781,375.8906 350.7813,375.8906 Q351.1094,375.8906 351.3594,376.1563 Q351.625,376.4063 351.625,376.75 Q351.625,377.0938 351.2813,377.5 Q350.7813,378.0781 349.9844,378.4063 Q348.9063,378.8594 347.6094,378.8594 Q346.0938,378.8594 344.8906,378.2344 Q343.9063,377.7344 343.2188,376.6719 Q342.5313,375.5938 342.5313,374.3125 L342.5313,373.1563 Q342.5313,371.8281 343.1406,370.6875 Q343.7656,369.5313 344.8594,368.9219 Q345.9531,368.2969 347.1875,368.2969 Q347.9219,368.2969 348.5625,368.4688 Q349.2188,368.625 349.7656,368.9844 Z " fill="#000000"/><text fill="#000000" font-family="sans-serif" font-size="14" lengthAdjust="spacing" textLength="150" x="361" y="378.8379">PerformancesController</text><line style="stroke:#181818;stroke-width:0.5;" x1="333" x2="513" y1="389.1094" y2="389.1094"/><line style="stroke:#181818;stroke-width:0.5;" x1="333" x2="513" y1="397.1094" y2="397.1094"/><text fill="#000000" font-family="sans-serif" font-size="14" lengthAdjust="spacing" textLength="43" x="338" y="415.6426">Index()</text></g><!--class ReapprovisionnementController--><g id="elem_ReapprovisionnementController"><rect codeLine="67" fill="#FFFFFF" height="100.8281" id="ReapprovisionnementController" rx="2.5" ry="2.5" style="stroke:#181818;stroke-width:0.5;" width="483" x="549.5" y="339.6094"/><ellipse cx="686.75" cy="355.6094" fill="#ADD1B2" rx="11" ry="11" style="stroke:#181818;stroke-width:1.0;"/><path d="M689.5156,351.4844 Q689.6719,351.2656 689.8594,351.1563 Q690.0469,351.0469 690.2656,351.0469 Q690.6406,351.0469 690.875,351.3125 Q691.1094,351.5625 691.1094,352.1719 L691.1094,353.625 Q691.1094,354.2344 690.875,354.5 Q690.6406,354.7656 690.2656,354.7656 Q689.9219,354.7656 689.7188,354.5625 Q689.5156,354.375 689.4063,353.8594 Q689.3594,353.5 689.1719,353.3125 Q688.8438,352.9375 688.2344,352.7188 Q687.625,352.5 687,352.5 Q686.2344,352.5 685.5938,352.8281 Q684.9688,353.1563 684.4688,353.9063 Q683.9844,354.6563 683.9844,355.6875 L683.9844,356.7813 Q683.9844,358.0156 684.875,358.8438 Q685.7656,359.6563 687.3594,359.6563 Q688.2969,359.6563 688.9531,359.4063 Q689.3438,359.25 689.7656,358.8125 Q690.0313,358.5469 690.1719,358.4688 Q690.3281,358.3906 690.5313,358.3906 Q690.8594,358.3906 691.1094,358.6563 Q691.375,358.9063 691.375,359.25 Q691.375,359.5938 691.0313,360 Q690.5313,360.5781 689.7344,360.9063 Q688.6563,361.3594 687.3594,361.3594 Q685.8438,361.3594 684.6406,360.7344 Q683.6563,360.2344 682.9688,359.1719 Q682.2813,358.0938 682.2813,356.8125 L682.2813,355.6563 Q682.2813,354.3281 682.8906,353.1875 Q683.5156,352.0313 684.6094,351.4219 Q685.7031,350.7969 686.9375,350.7969 Q687.6719,350.7969 688.3125,350.9688 Q688.9688,351.125 689.5156,351.4844 Z " fill="#000000"/><text fill="#000000" font-family="sans-serif" font-size="14" lengthAdjust="spacing" textLength="200" x="707.25" y="361.3379">ReapprovisionnementController</text><line style="stroke:#181818;stroke-width:0.5;" x1="550.5" x2="1031.5" y1="371.6094" y2="371.6094"/><line style="stroke:#181818;stroke-width:0.5;" x1="550.5" x2="1031.5" y1="379.6094" y2="379.6094"/><ellipse cx="560.5" cy="393.9141" fill="#84BE84" rx="3" ry="3" style="stroke:#038048;stroke-width:1.0;"/><text fill="#000000" font-family="sans-serif" font-size="14" lengthAdjust="spacing" textLength="126" x="569.5" y="398.1426">Index(int magasinId)</text><ellipse cx="560.5" cy="411.5234" fill="#84BE84" rx="3" ry="3" style="stroke:#038048;stroke-width:1.0;"/><text fill="#000000" font-family="sans-serif" font-size="14" lengthAdjust="spacing" textLength="457" x="569.5" y="415.752">DemanderReapprovisionnement(int magasinId, int produitId, int quantite)</text><ellipse cx="560.5" cy="429.1328" fill="#84BE84" rx="3" ry="3" style="stroke:#038048;stroke-width:1.0;"/><text fill="#000000" font-family="sans-serif" font-size="14" lengthAdjust="spacing" textLength="216" x="569.5" y="433.3613">DemandesReapprovisionnement()</text></g><!--class ProduitService--><g id="elem_ProduitService"><rect codeLine="76" fill="#FFFFFF" height="118.4375" id="ProduitService" rx="2.5" ry="2.5" style="stroke:#181818;stroke-width:0.5;" width="275" x="1175.5" y="603.6094"/><ellipse cx="1262.75" cy="619.6094" fill="#ADD1B2" rx="11" ry="11" style="stroke:#181818;stroke-width:1.0;"/><path d="M1265.5156,615.4844 Q1265.6719,615.2656 1265.8594,615.1563 Q1266.0469,615.0469 1266.2656,615.0469 Q1266.6406,615.0469 1266.875,615.3125 Q1267.1094,615.5625 1267.1094,616.1719 L1267.1094,617.625 Q1267.1094,618.2344 1266.875,618.5 Q1266.6406,618.7656 1266.2656,618.7656 Q1265.9219,618.7656 1265.7188,618.5625 Q1265.5156,618.375 1265.4063,617.8594 Q1265.3594,617.5 1265.1719,617.3125 Q1264.8438,616.9375 1264.2344,616.7188 Q1263.625,616.5 1263,616.5 Q1262.2344,616.5 1261.5938,616.8281 Q1260.9688,617.1563 1260.4688,617.9063 Q1259.9844,618.6563 1259.9844,619.6875 L1259.9844,620.7813 Q1259.9844,622.0156 1260.875,622.8438 Q1261.7656,623.6563 1263.3594,623.6563 Q1264.2969,623.6563 1264.9531,623.4063 Q1265.3438,623.25 1265.7656,622.8125 Q1266.0313,622.5469 1266.1719,622.4688 Q1266.3281,622.3906 1266.5313,622.3906 Q1266.8594,622.3906 1267.1094,622.6563 Q1267.375,622.9063 1267.375,623.25 Q1267.375,623.5938 1267.0313,624 Q1266.5313,624.5781 1265.7344,624.9063 Q1264.6563,625.3594 1263.3594,625.3594 Q1261.8438,625.3594 1260.6406,624.7344 Q1259.6563,624.2344 1258.9688,623.1719 Q1258.2813,622.0938 1258.2813,620.8125 L1258.2813,619.6563 Q1258.2813,618.3281 1258.8906,617.1875 Q1259.5156,616.0313 1260.6094,615.4219 Q1261.7031,614.7969 1262.9375,614.7969 Q1263.6719,614.7969 1264.3125,614.9688 Q1264.9688,615.125 1265.5156,615.4844 Z " fill="#000000"/><text fill="#000000" font-family="sans-serif" font-size="14" lengthAdjust="spacing" textLength="92" x="1283.25" y="625.3379">ProduitService</text><line style="stroke:#181818;stroke-width:0.5;" x1="1176.5" x2="1449.5" y1="635.6094" y2="635.6094"/><line style="stroke:#181818;stroke-width:0.5;" x1="1176.5" x2="1449.5" y1="643.6094" y2="643.6094"/><ellipse cx="1186.5" cy="657.9141" fill="#84BE84" rx="3" ry="3" style="stroke:#038048;stroke-width:1.0;"/><text fill="#000000" font-family="sans-serif" font-size="14" lengthAdjust="spacing" textLength="138" x="1195.5" y="662.1426">GetAllProduitsAsync()</text><ellipse cx="1186.5" cy="675.5234" fill="#84BE84" rx="3" ry="3" style="stroke:#038048;stroke-width:1.0;"/><text fill="#000000" font-family="sans-serif" font-size="14" lengthAdjust="spacing" textLength="217" x="1195.5" y="679.752">GetProduitByIdAsync(int produitId)</text><ellipse cx="1186.5" cy="693.1328" fill="#84BE84" rx="3" ry="3" style="stroke:#038048;stroke-width:1.0;"/><text fill="#000000" font-family="sans-serif" font-size="14" lengthAdjust="spacing" textLength="236" x="1195.5" y="697.3613">ModifierProduitAsync(Produit produit)</text><ellipse cx="1186.5" cy="710.7422" fill="#84BE84" rx="3" ry="3" style="stroke:#038048;stroke-width:1.0;"/><text fill="#000000" font-family="sans-serif" font-size="14" lengthAdjust="spacing" textLength="249" x="1195.5" y="714.9707">RechercherProduitsAsync(string terme)</text></g><!--class RapportService--><g id="elem_RapportService"><rect codeLine="82" fill="#FFFFFF" height="65.6094" id="RapportService" rx="2.5" ry="2.5" style="stroke:#181818;stroke-width:0.5;" width="235" x="1485.5" y="629.6094"/><ellipse cx="1549.75" cy="645.6094" fill="#ADD1B2" rx="11" ry="11" style="stroke:#181818;stroke-width:1.0;"/><path d="M1552.5156,641.4844 Q1552.6719,641.2656 1552.8594,641.1563 Q1553.0469,641.0469 1553.2656,641.0469 Q1553.6406,641.0469 1553.875,641.3125 Q1554.1094,641.5625 1554.1094,642.1719 L1554.1094,643.625 Q1554.1094,644.2344 1553.875,644.5 Q1553.6406,644.7656 1553.2656,644.7656 Q1552.9219,644.7656 1552.7188,644.5625 Q1552.5156,644.375 1552.4063,643.8594 Q1552.3594,643.5 1552.1719,643.3125 Q1551.8438,642.9375 1551.2344,642.7188 Q1550.625,642.5 1550,642.5 Q1549.2344,642.5 1548.5938,642.8281 Q1547.9688,643.1563 1547.4688,643.9063 Q1546.9844,644.6563 1546.9844,645.6875 L1546.9844,646.7813 Q1546.9844,648.0156 1547.875,648.8438 Q1548.7656,649.6563 1550.3594,649.6563 Q1551.2969,649.6563 1551.9531,649.4063 Q1552.3438,649.25 1552.7656,648.8125 Q1553.0313,648.5469 1553.1719,648.4688 Q1553.3281,648.3906 1553.5313,648.3906 Q1553.8594,648.3906 1554.1094,648.6563 Q1554.375,648.9063 1554.375,649.25 Q1554.375,649.5938 1554.0313,650 Q1553.5313,650.5781 1552.7344,650.9063 Q1551.6563,651.3594 1550.3594,651.3594 Q1548.8438,651.3594 1547.6406,650.7344 Q1546.6563,650.2344 1545.9688,649.1719 Q1545.2813,648.0938 1545.2813,646.8125 L1545.2813,645.6563 Q1545.2813,644.3281 1545.8906,643.1875 Q1546.5156,642.0313 1547.6094,641.4219 Q1548.7031,640.7969 1549.9375,640.7969 Q1550.6719,640.7969 1551.3125,640.9688 Q1551.9688,641.125 1552.5156,641.4844 Z " fill="#000000"/><text fill="#000000" font-family="sans-serif" font-size="14" lengthAdjust="spacing" textLength="98" x="1570.25" y="651.3379">RapportService</text><line style="stroke:#181818;stroke-width:0.5;" x1="1486.5" x2="1719.5" y1="661.6094" y2="661.6094"/><line style="stroke:#181818;stroke-width:0.5;" x1="1486.5" x2="1719.5" y1="669.6094" y2="669.6094"/><ellipse cx="1496.5" cy="683.9141" fill="#84BE84" rx="3" ry="3" style="stroke:#038048;stroke-width:1.0;"/><text fill="#000000" font-family="sans-serif" font-size="14" lengthAdjust="spacing" textLength="209" x="1505.5" y="688.1426">ObtenirRapportConsolideAsync()</text></g><!--class StockService--><g id="elem_StockService"><rect codeLine="85" fill="#FFFFFF" height="65.6094" id="StockService" rx="2.5" ry="2.5" style="stroke:#181818;stroke-width:0.5;" width="257" x="1755.5" y="629.6094"/><ellipse cx="1838.75" cy="645.6094" fill="#ADD1B2" rx="11" ry="11" style="stroke:#181818;stroke-width:1.0;"/><path d="M1841.5156,641.4844 Q1841.6719,641.2656 1841.8594,641.1563 Q1842.0469,641.0469 1842.2656,641.0469 Q1842.6406,641.0469 1842.875,641.3125 Q1843.1094,641.5625 1843.1094,642.1719 L1843.1094,643.625 Q1843.1094,644.2344 1842.875,644.5 Q1842.6406,644.7656 1842.2656,644.7656 Q1841.9219,644.7656 1841.7188,644.5625 Q1841.5156,644.375 1841.4063,643.8594 Q1841.3594,643.5 1841.1719,643.3125 Q1840.8438,642.9375 1840.2344,642.7188 Q1839.625,642.5 1839,642.5 Q1838.2344,642.5 1837.5938,642.8281 Q1836.9688,643.1563 1836.4688,643.9063 Q1835.9844,644.6563 1835.9844,645.6875 L1835.9844,646.7813 Q1835.9844,648.0156 1836.875,648.8438 Q1837.7656,649.6563 1839.3594,649.6563 Q1840.2969,649.6563 1840.9531,649.4063 Q1841.3438,649.25 1841.7656,648.8125 Q1842.0313,648.5469 1842.1719,648.4688 Q1842.3281,648.3906 1842.5313,648.3906 Q1842.8594,648.3906 1843.1094,648.6563 Q1843.375,648.9063 1843.375,649.25 Q1843.375,649.5938 1843.0313,650 Q1842.5313,650.5781 1841.7344,650.9063 Q1840.6563,651.3594 1839.3594,651.3594 Q1837.8438,651.3594 1836.6406,650.7344 Q1835.6563,650.2344 1834.9688,649.1719 Q1834.2813,648.0938 1834.2813,646.8125 L1834.2813,645.6563 Q1834.2813,644.3281 1834.8906,643.1875 Q1835.5156,642.0313 1836.6094,641.4219 Q1837.7031,640.7969 1838.9375,640.7969 Q1839.6719,640.7969 1840.3125,640.9688 Q1840.9688,641.125 1841.5156,641.4844 Z " fill="#000000"/><text fill="#000000" font-family="sans-serif" font-size="14" lengthAdjust="spacing" textLength="82" x="1859.25" y="651.3379">StockService</text><line style="stroke:#181818;stroke-width:0.5;" x1="1756.5" x2="2011.5" y1="661.6094" y2="661.6094"/><line style="stroke:#181818;stroke-width:0.5;" x1="1756.5" x2="2011.5" y1="669.6094" y2="669.6094"/><ellipse cx="1766.5" cy="683.9141" fill="#84BE84" rx="3" ry="3" style="stroke:#038048;stroke-width:1.0;"/><text fill="#000000" font-family="sans-serif" font-size="14" lengthAdjust="spacing" textLength="231" x="1775.5" y="688.1426">GetStockByMagasinId(int magasinId)</text></g><!--class PerformancesService--><g id="elem_PerformancesService"><rect codeLine="88" fill="#FFFFFF" height="65.6094" id="PerformancesService" rx="2.5" ry="2.5" style="stroke:#181818;stroke-width:0.5;" width="167" x="1164.5" y="852.6094"/><ellipse cx="1179.5" cy="868.6094" fill="#ADD1B2" rx="11" ry="11" style="stroke:#181818;stroke-width:1.0;"/><path d="M1182.2656,864.4844 Q1182.4219,864.2656 1182.6094,864.1563 Q1182.7969,864.0469 1183.0156,864.0469 Q1183.3906,864.0469 1183.625,864.3125 Q1183.8594,864.5625 1183.8594,865.1719 L1183.8594,866.625 Q1183.8594,867.2344 1183.625,867.5 Q1183.3906,867.7656 1183.0156,867.7656 Q1182.6719,867.7656 1182.4688,867.5625 Q1182.2656,867.375 1182.1563,866.8594 Q1182.1094,866.5 1181.9219,866.3125 Q1181.5938,865.9375 1180.9844,865.7188 Q1180.375,865.5 1179.75,865.5 Q1178.9844,865.5 1178.3438,865.8281 Q1177.7188,866.1563 1177.2188,866.9063 Q1176.7344,867.6563 1176.7344,868.6875 L1176.7344,869.7813 Q1176.7344,871.0156 1177.625,871.8438 Q1178.5156,872.6563 1180.1094,872.6563 Q1181.0469,872.6563 1181.7031,872.4063 Q1182.0938,872.25 1182.5156,871.8125 Q1182.7813,871.5469 1182.9219,871.4688 Q1183.0781,871.3906 1183.2813,871.3906 Q1183.6094,871.3906 1183.8594,871.6563 Q1184.125,871.9063 1184.125,872.25 Q1184.125,872.5938 1183.7813,873 Q1183.2813,873.5781 1182.4844,873.9063 Q1181.4063,874.3594 1180.1094,874.3594 Q1178.5938,874.3594 1177.3906,873.7344 Q1176.4063,873.2344 1175.7188,872.1719 Q1175.0313,871.0938 1175.0313,869.8125 L1175.0313,868.6563 Q1175.0313,867.3281 1175.6406,866.1875 Q1176.2656,865.0313 1177.3594,864.4219 Q1178.4531,863.7969 1179.6875,863.7969 Q1180.4219,863.7969 1181.0625,863.9688 Q1181.7188,864.125 1182.2656,864.4844 Z " fill="#000000"/><text fill="#000000" font-family="sans-serif" font-size="14" lengthAdjust="spacing" textLength="135" x="1193.5" y="874.3379">PerformancesService</text><line style="stroke:#181818;stroke-width:0.5;" x1="1165.5" x2="1330.5" y1="884.6094" y2="884.6094"/><line style="stroke:#181818;stroke-width:0.5;" x1="1165.5" x2="1330.5" y1="892.6094" y2="892.6094"/><ellipse cx="1175.5" cy="906.9141" fill="#84BE84" rx="3" ry="3" style="stroke:#038048;stroke-width:1.0;"/><text fill="#000000" font-family="sans-serif" font-size="14" lengthAdjust="spacing" textLength="121" x="1184.5" y="911.1426">GetPerformances()</text></g><!--class ReapprovisionnementService--><g id="elem_ReapprovisionnementService"><rect codeLine="91" fill="#FFFFFF" height="136.0469" id="ReapprovisionnementService" rx="2.5" ry="2.5" style="stroke:#181818;stroke-width:0.5;" width="613" x="1366.5" y="817.6094"/><ellipse cx="1576.25" cy="833.6094" fill="#ADD1B2" rx="11" ry="11" style="stroke:#181818;stroke-width:1.0;"/><path d="M1579.0156,829.4844 Q1579.1719,829.2656 1579.3594,829.1563 Q1579.5469,829.0469 1579.7656,829.0469 Q1580.1406,829.0469 1580.375,829.3125 Q1580.6094,829.5625 1580.6094,830.1719 L1580.6094,831.625 Q1580.6094,832.2344 1580.375,832.5 Q1580.1406,832.7656 1579.7656,832.7656 Q1579.4219,832.7656 1579.2188,832.5625 Q1579.0156,832.375 1578.9063,831.8594 Q1578.8594,831.5 1578.6719,831.3125 Q1578.3438,830.9375 1577.7344,830.7188 Q1577.125,830.5 1576.5,830.5 Q1575.7344,830.5 1575.0938,830.8281 Q1574.4688,831.1563 1573.9688,831.9063 Q1573.4844,832.6563 1573.4844,833.6875 L1573.4844,834.7813 Q1573.4844,836.0156 1574.375,836.8438 Q1575.2656,837.6563 1576.8594,837.6563 Q1577.7969,837.6563 1578.4531,837.4063 Q1578.8438,837.25 1579.2656,836.8125 Q1579.5313,836.5469 1579.6719,836.4688 Q1579.8281,836.3906 1580.0313,836.3906 Q1580.3594,836.3906 1580.6094,836.6563 Q1580.875,836.9063 1580.875,837.25 Q1580.875,837.5938 1580.5313,838 Q1580.0313,838.5781 1579.2344,838.9063 Q1578.1563,839.3594 1576.8594,839.3594 Q1575.3438,839.3594 1574.1406,838.7344 Q1573.1563,838.2344 1572.4688,837.1719 Q1571.7813,836.0938 1571.7813,834.8125 L1571.7813,833.6563 Q1571.7813,832.3281 1572.3906,831.1875 Q1573.0156,830.0313 1574.1094,829.4219 Q1575.2031,828.7969 1576.4375,828.7969 Q1577.1719,828.7969 1577.8125,828.9688 Q1578.4688,829.125 1579.0156,829.4844 Z " fill="#000000"/><text fill="#000000" font-family="sans-serif" font-size="14" lengthAdjust="spacing" textLength="185" x="1596.75" y="839.3379">ReapprovisionnementService</text><line style="stroke:#181818;stroke-width:0.5;" x1="1367.5" x2="1978.5" y1="849.6094" y2="849.6094"/><line style="stroke:#181818;stroke-width:0.5;" x1="1367.5" x2="1978.5" y1="857.6094" y2="857.6094"/><ellipse cx="1377.5" cy="871.9141" fill="#84BE84" rx="3" ry="3" style="stroke:#038048;stroke-width:1.0;"/><text fill="#000000" font-family="sans-serif" font-size="14" lengthAdjust="spacing" textLength="196" x="1386.5" y="876.1426">GetStocksAsync(int magasinId)</text><ellipse cx="1377.5" cy="889.5234" fill="#84BE84" rx="3" ry="3" style="stroke:#038048;stroke-width:1.0;"/><text fill="#000000" font-family="sans-serif" font-size="14" lengthAdjust="spacing" textLength="587" x="1386.5" y="893.752">CreerDemandeReapprovisionnementAsync(int magasinId, int produitId, int quantiteDemande)</text><ellipse cx="1377.5" cy="907.1328" fill="#84BE84" rx="3" ry="3" style="stroke:#038048;stroke-width:1.0;"/><text fill="#000000" font-family="sans-serif" font-size="14" lengthAdjust="spacing" textLength="277" x="1386.5" y="911.3613">GetDemandesReapprovisionnementAsync()</text><ellipse cx="1377.5" cy="924.7422" fill="#84BE84" rx="3" ry="3" style="stroke:#038048;stroke-width:1.0;"/><text fill="#000000" font-family="sans-serif" font-size="14" lengthAdjust="spacing" textLength="201" x="1386.5" y="928.9707">GetDemandesEnAttenteAsync()</text><ellipse cx="1377.5" cy="942.3516" fill="#84BE84" rx="3" ry="3" style="stroke:#038048;stroke-width:1.0;"/><text fill="#000000" font-family="sans-serif" font-size="14" lengthAdjust="spacing" textLength="344" x="1386.5" y="946.5801">TraiterDemandeAsync(int demandeId, bool approuver)</text></g><!--class VenteService--><g id="elem_VenteService"><rect codeLine="98" fill="#FFFFFF" height="100.8281" id="VenteService" rx="2.5" ry="2.5" style="stroke:#181818;stroke-width:0.5;" width="479" x="2014.5" y="835.1094"/><ellipse cx="2207.75" cy="851.1094" fill="#ADD1B2" rx="11" ry="11" style="stroke:#181818;stroke-width:1.0;"/><path d="M2210.5156,846.9844 Q2210.6719,846.7656 2210.8594,846.6563 Q2211.0469,846.5469 2211.2656,846.5469 Q2211.6406,846.5469 2211.875,846.8125 Q2212.1094,847.0625 2212.1094,847.6719 L2212.1094,849.125 Q2212.1094,849.7344 2211.875,850 Q2211.6406,850.2656 2211.2656,850.2656 Q2210.9219,850.2656 2210.7188,850.0625 Q2210.5156,849.875 2210.4063,849.3594 Q2210.3594,849 2210.1719,848.8125 Q2209.8438,848.4375 2209.2344,848.2188 Q2208.625,848 2208,848 Q2207.2344,848 2206.5938,848.3281 Q2205.9688,848.6563 2205.4688,849.4063 Q2204.9844,850.1563 2204.9844,851.1875 L2204.9844,852.2813 Q2204.9844,853.5156 2205.875,854.3438 Q2206.7656,855.1563 2208.3594,855.1563 Q2209.2969,855.1563 2209.9531,854.9063 Q2210.3438,854.75 2210.7656,854.3125 Q2211.0313,854.0469 2211.1719,853.9688 Q2211.3281,853.8906 2211.5313,853.8906 Q2211.8594,853.8906 2212.1094,854.1563 Q2212.375,854.4063 2212.375,854.75 Q2212.375,855.0938 2212.0313,855.5 Q2211.5313,856.0781 2210.7344,856.4063 Q2209.6563,856.8594 2208.3594,856.8594 Q2206.8438,856.8594 2205.6406,856.2344 Q2204.6563,855.7344 2203.9688,854.6719 Q2203.2813,853.5938 2203.2813,852.3125 L2203.2813,851.1563 Q2203.2813,849.8281 2203.8906,848.6875 Q2204.5156,847.5313 2205.6094,846.9219 Q2206.7031,846.2969 2207.9375,846.2969 Q2208.6719,846.2969 2209.3125,846.4688 Q2209.9688,846.625 2210.5156,846.9844 Z " fill="#000000"/><text fill="#000000" font-family="sans-serif" font-size="14" lengthAdjust="spacing" textLength="84" x="2228.25" y="856.8379">VenteService</text><line style="stroke:#181818;stroke-width:0.5;" x1="2015.5" x2="2492.5" y1="867.1094" y2="867.1094"/><line style="stroke:#181818;stroke-width:0.5;" x1="2015.5" x2="2492.5" y1="875.1094" y2="875.1094"/><ellipse cx="2025.5" cy="889.4141" fill="#84BE84" rx="3" ry="3" style="stroke:#038048;stroke-width:1.0;"/><text fill="#000000" font-family="sans-serif" font-size="14" lengthAdjust="spacing" textLength="453" x="2034.5" y="893.6426">CreerVenteAsync(int magasinId, List&lt;(int produitId, int quantite)&gt; lignes)</text><ellipse cx="2025.5" cy="907.0234" fill="#84BE84" rx="3" ry="3" style="stroke:#038048;stroke-width:1.0;"/><text fill="#000000" font-family="sans-serif" font-size="14" lengthAdjust="spacing" textLength="199" x="2034.5" y="911.252">AnnulerVenteAsync(int venteId)</text><ellipse cx="2025.5" cy="924.6328" fill="#84BE84" rx="3" ry="3" style="stroke:#038048;stroke-width:1.0;"/><text fill="#000000" font-family="sans-serif" font-size="14" lengthAdjust="spacing" textLength="115" x="2034.5" y="928.8613">GetVentesAsync()</text></g><!--class ProduitApiController--><g id="elem_ProduitApiController"><rect codeLine="106" fill="#FFFFFF" height="100.8281" id="ProduitApiController" rx="2.5" ry="2.5" style="stroke:#181818;stroke-width:0.5;" width="427" x="81.5" y="612.1094"/><ellipse cx="227.25" cy="628.1094" fill="#ADD1B2" rx="11" ry="11" style="stroke:#181818;stroke-width:1.0;"/><path d="M230.0156,623.9844 Q230.1719,623.7656 230.3594,623.6563 Q230.5469,623.5469 230.7656,623.5469 Q231.1406,623.5469 231.375,623.8125 Q231.6094,624.0625 231.6094,624.6719 L231.6094,626.125 Q231.6094,626.7344 231.375,627 Q231.1406,627.2656 230.7656,627.2656 Q230.4219,627.2656 230.2188,627.0625 Q230.0156,626.875 229.9063,626.3594 Q229.8594,626 229.6719,625.8125 Q229.3438,625.4375 228.7344,625.2188 Q228.125,625 227.5,625 Q226.7344,625 226.0938,625.3281 Q225.4688,625.6563 224.9688,626.4063 Q224.4844,627.1563 224.4844,628.1875 L224.4844,629.2813 Q224.4844,630.5156 225.375,631.3438 Q226.2656,632.1563 227.8594,632.1563 Q228.7969,632.1563 229.4531,631.9063 Q229.8438,631.75 230.2656,631.3125 Q230.5313,631.0469 230.6719,630.9688 Q230.8281,630.8906 231.0313,630.8906 Q231.3594,630.8906 231.6094,631.1563 Q231.875,631.4063 231.875,631.75 Q231.875,632.0938 231.5313,632.5 Q231.0313,633.0781 230.2344,633.4063 Q229.1563,633.8594 227.8594,633.8594 Q226.3438,633.8594 225.1406,633.2344 Q224.1563,632.7344 223.4688,631.6719 Q222.7813,630.5938 222.7813,629.3125 L222.7813,628.1563 Q222.7813,626.8281 223.3906,625.6875 Q224.0156,624.5313 225.1094,623.9219 Q226.2031,623.2969 227.4375,623.2969 Q228.1719,623.2969 228.8125,623.4688 Q229.4688,623.625 230.0156,623.9844 Z " fill="#000000"/><text fill="#000000" font-family="sans-serif" font-size="14" lengthAdjust="spacing" textLength="127" x="247.75" y="633.8379">ProduitApiController</text><line style="stroke:#181818;stroke-width:0.5;" x1="82.5" x2="507.5" y1="644.1094" y2="644.1094"/><line style="stroke:#181818;stroke-width:0.5;" x1="82.5" x2="507.5" y1="652.1094" y2="652.1094"/><ellipse cx="92.5" cy="666.4141" fill="#84BE84" rx="3" ry="3" style="stroke:#038048;stroke-width:1.0;"/><text fill="#000000" font-family="sans-serif" font-size="14" lengthAdjust="spacing" textLength="62" x="101.5" y="670.6426">Produits()</text><ellipse cx="92.5" cy="684.0234" fill="#84BE84" rx="3" ry="3" style="stroke:#038048;stroke-width:1.0;"/><text fill="#000000" font-family="sans-serif" font-size="14" lengthAdjust="spacing" textLength="129" x="101.5" y="688.252">Produit(int produitId)</text><ellipse cx="92.5" cy="701.6328" fill="#84BE84" rx="3" ry="3" style="stroke:#038048;stroke-width:1.0;"/><text fill="#000000" font-family="sans-serif" font-size="14" lengthAdjust="spacing" textLength="401" x="101.5" y="705.8613">Modifier([FromRoute] int produitId, [FromBody] Produit payload)</text></g><!--class RapportApiController--><g id="elem_RapportApiController"><rect codeLine="111" fill="#FFFFFF" height="65.6094" id="RapportApiController" rx="2.5" ry="2.5" style="stroke:#181818;stroke-width:0.5;" width="165" x="543.5" y="629.6094"/><ellipse cx="558.5" cy="645.6094" fill="#ADD1B2" rx="11" ry="11" style="stroke:#181818;stroke-width:1.0;"/><path d="M561.2656,641.4844 Q561.4219,641.2656 561.6094,641.1563 Q561.7969,641.0469 562.0156,641.0469 Q562.3906,641.0469 562.625,641.3125 Q562.8594,641.5625 562.8594,642.1719 L562.8594,643.625 Q562.8594,644.2344 562.625,644.5 Q562.3906,644.7656 562.0156,644.7656 Q561.6719,644.7656 561.4688,644.5625 Q561.2656,644.375 561.1563,643.8594 Q561.1094,643.5 560.9219,643.3125 Q560.5938,642.9375 559.9844,642.7188 Q559.375,642.5 558.75,642.5 Q557.9844,642.5 557.3438,642.8281 Q556.7188,643.1563 556.2188,643.9063 Q555.7344,644.6563 555.7344,645.6875 L555.7344,646.7813 Q555.7344,648.0156 556.625,648.8438 Q557.5156,649.6563 559.1094,649.6563 Q560.0469,649.6563 560.7031,649.4063 Q561.0938,649.25 561.5156,648.8125 Q561.7813,648.5469 561.9219,648.4688 Q562.0781,648.3906 562.2813,648.3906 Q562.6094,648.3906 562.8594,648.6563 Q563.125,648.9063 563.125,649.25 Q563.125,649.5938 562.7813,650 Q562.2813,650.5781 561.4844,650.9063 Q560.4063,651.3594 559.1094,651.3594 Q557.5938,651.3594 556.3906,650.7344 Q555.4063,650.2344 554.7188,649.1719 Q554.0313,648.0938 554.0313,646.8125 L554.0313,645.6563 Q554.0313,644.3281 554.6406,643.1875 Q555.2656,642.0313 556.3594,641.4219 Q557.4531,640.7969 558.6875,640.7969 Q559.4219,640.7969 560.0625,640.9688 Q560.7188,641.125 561.2656,641.4844 Z " fill="#000000"/><text fill="#000000" font-family="sans-serif" font-size="14" lengthAdjust="spacing" textLength="133" x="572.5" y="651.3379">RapportApiController</text><line style="stroke:#181818;stroke-width:0.5;" x1="544.5" x2="707.5" y1="661.6094" y2="661.6094"/><line style="stroke:#181818;stroke-width:0.5;" x1="544.5" x2="707.5" y1="669.6094" y2="669.6094"/><ellipse cx="554.5" cy="683.9141" fill="#84BE84" rx="3" ry="3" style="stroke:#038048;stroke-width:1.0;"/><text fill="#000000" font-family="sans-serif" font-size="14" lengthAdjust="spacing" textLength="124" x="563.5" y="688.1426">RapportConsolide()</text></g><!--class AuthApiController--><g id="elem_AuthApiController"><rect codeLine="114" fill="#FFFFFF" height="83.2188" id="AuthApiController" rx="2.5" ry="2.5" style="stroke:#181818;stroke-width:0.5;" width="324" x="744" y="621.1094"/><ellipse cx="846.25" cy="637.1094" fill="#ADD1B2" rx="11" ry="11" style="stroke:#181818;stroke-width:1.0;"/><path d="M849.0156,632.9844 Q849.1719,632.7656 849.3594,632.6563 Q849.5469,632.5469 849.7656,632.5469 Q850.1406,632.5469 850.375,632.8125 Q850.6094,633.0625 850.6094,633.6719 L850.6094,635.125 Q850.6094,635.7344 850.375,636 Q850.1406,636.2656 849.7656,636.2656 Q849.4219,636.2656 849.2188,636.0625 Q849.0156,635.875 848.9063,635.3594 Q848.8594,635 848.6719,634.8125 Q848.3438,634.4375 847.7344,634.2188 Q847.125,634 846.5,634 Q845.7344,634 845.0938,634.3281 Q844.4688,634.6563 843.9688,635.4063 Q843.4844,636.1563 843.4844,637.1875 L843.4844,638.2813 Q843.4844,639.5156 844.375,640.3438 Q845.2656,641.1563 846.8594,641.1563 Q847.7969,641.1563 848.4531,640.9063 Q848.8438,640.75 849.2656,640.3125 Q849.5313,640.0469 849.6719,639.9688 Q849.8281,639.8906 850.0313,639.8906 Q850.3594,639.8906 850.6094,640.1563 Q850.875,640.4063 850.875,640.75 Q850.875,641.0938 850.5313,641.5 Q850.0313,642.0781 849.2344,642.4063 Q848.1563,642.8594 846.8594,642.8594 Q845.3438,642.8594 844.1406,642.2344 Q843.1563,641.7344 842.4688,640.6719 Q841.7813,639.5938 841.7813,638.3125 L841.7813,637.1563 Q841.7813,635.8281 842.3906,634.6875 Q843.0156,633.5313 844.1094,632.9219 Q845.2031,632.2969 846.4375,632.2969 Q847.1719,632.2969 847.8125,632.4688 Q848.4688,632.625 849.0156,632.9844 Z " fill="#000000"/><text fill="#000000" font-family="sans-serif" font-size="14" lengthAdjust="spacing" textLength="111" x="866.75" y="642.8379">AuthApiController</text><line style="stroke:#181818;stroke-width:0.5;" x1="745" x2="1067" y1="653.1094" y2="653.1094"/><line style="stroke:#181818;stroke-width:0.5;" x1="745" x2="1067" y1="661.1094" y2="661.1094"/><ellipse cx="755" cy="675.4141" fill="#84BE84" rx="3" ry="3" style="stroke:#038048;stroke-width:1.0;"/><text fill="#000000" font-family="sans-serif" font-size="14" lengthAdjust="spacing" textLength="262" x="764" y="679.6426">Login([FromBody] LoginRequest request)</text><ellipse cx="755" cy="693.0234" fill="#84BE84" rx="3" ry="3" style="stroke:#038048;stroke-width:1.0;"/><text fill="#000000" font-family="sans-serif" font-size="14" lengthAdjust="spacing" textLength="298" x="764" y="697.252">Register([FromBody] RegisterRequest request)</text></g><!--class PerformancesApiController--><g id="elem_PerformancesApiController"><rect codeLine="118" fill="#FFFFFF" height="65.6094" id="PerformancesApiController" rx="2.5" ry="2.5" style="stroke:#181818;stroke-width:0.5;" width="202" x="194" y="852.6094"/><ellipse cx="209" cy="868.6094" fill="#ADD1B2" rx="11" ry="11" style="stroke:#181818;stroke-width:1.0;"/><path d="M211.7656,864.4844 Q211.9219,864.2656 212.1094,864.1563 Q212.2969,864.0469 212.5156,864.0469 Q212.8906,864.0469 213.125,864.3125 Q213.3594,864.5625 213.3594,865.1719 L213.3594,866.625 Q213.3594,867.2344 213.125,867.5 Q212.8906,867.7656 212.5156,867.7656 Q212.1719,867.7656 211.9688,867.5625 Q211.7656,867.375 211.6563,866.8594 Q211.6094,866.5 211.4219,866.3125 Q211.0938,865.9375 210.4844,865.7188 Q209.875,865.5 209.25,865.5 Q208.4844,865.5 207.8438,865.8281 Q207.2188,866.1563 206.7188,866.9063 Q206.2344,867.6563 206.2344,868.6875 L206.2344,869.7813 Q206.2344,871.0156 207.125,871.8438 Q208.0156,872.6563 209.6094,872.6563 Q210.5469,872.6563 211.2031,872.4063 Q211.5938,872.25 212.0156,871.8125 Q212.2813,871.5469 212.4219,871.4688 Q212.5781,871.3906 212.7813,871.3906 Q213.1094,871.3906 213.3594,871.6563 Q213.625,871.9063 213.625,872.25 Q213.625,872.5938 213.2813,873 Q212.7813,873.5781 211.9844,873.9063 Q210.9063,874.3594 209.6094,874.3594 Q208.0938,874.3594 206.8906,873.7344 Q205.9063,873.2344 205.2188,872.1719 Q204.5313,871.0938 204.5313,869.8125 L204.5313,868.6563 Q204.5313,867.3281 205.1406,866.1875 Q205.7656,865.0313 206.8594,864.4219 Q207.9531,863.7969 209.1875,863.7969 Q209.9219,863.7969 210.5625,863.9688 Q211.2188,864.125 211.7656,864.4844 Z " fill="#000000"/><text fill="#000000" font-family="sans-serif" font-size="14" lengthAdjust="spacing" textLength="170" x="223" y="874.3379">PerformancesApiController</text><line style="stroke:#181818;stroke-width:0.5;" x1="195" x2="395" y1="884.6094" y2="884.6094"/><line style="stroke:#181818;stroke-width:0.5;" x1="195" x2="395" y1="892.6094" y2="892.6094"/><ellipse cx="205" cy="906.9141" fill="#84BE84" rx="3" ry="3" style="stroke:#038048;stroke-width:1.0;"/><text fill="#000000" font-family="sans-serif" font-size="14" lengthAdjust="spacing" textLength="121" x="214" y="911.1426">GetPerformances()</text></g><!--class StockApiController--><g id="elem_StockApiController"><rect codeLine="121" fill="#FFFFFF" height="65.6094" id="StockApiController" rx="2.5" ry="2.5" style="stroke:#181818;stroke-width:0.5;" width="230" x="431" y="852.6094"/><ellipse cx="483.25" cy="868.6094" fill="#ADD1B2" rx="11" ry="11" style="stroke:#181818;stroke-width:1.0;"/><path d="M486.0156,864.4844 Q486.1719,864.2656 486.3594,864.1563 Q486.5469,864.0469 486.7656,864.0469 Q487.1406,864.0469 487.375,864.3125 Q487.6094,864.5625 487.6094,865.1719 L487.6094,866.625 Q487.6094,867.2344 487.375,867.5 Q487.1406,867.7656 486.7656,867.7656 Q486.4219,867.7656 486.2188,867.5625 Q486.0156,867.375 485.9063,866.8594 Q485.8594,866.5 485.6719,866.3125 Q485.3438,865.9375 484.7344,865.7188 Q484.125,865.5 483.5,865.5 Q482.7344,865.5 482.0938,865.8281 Q481.4688,866.1563 480.9688,866.9063 Q480.4844,867.6563 480.4844,868.6875 L480.4844,869.7813 Q480.4844,871.0156 481.375,871.8438 Q482.2656,872.6563 483.8594,872.6563 Q484.7969,872.6563 485.4531,872.4063 Q485.8438,872.25 486.2656,871.8125 Q486.5313,871.5469 486.6719,871.4688 Q486.8281,871.3906 487.0313,871.3906 Q487.3594,871.3906 487.6094,871.6563 Q487.875,871.9063 487.875,872.25 Q487.875,872.5938 487.5313,873 Q487.0313,873.5781 486.2344,873.9063 Q485.1563,874.3594 483.8594,874.3594 Q482.3438,874.3594 481.1406,873.7344 Q480.1563,873.2344 479.4688,872.1719 Q478.7813,871.0938 478.7813,869.8125 L478.7813,868.6563 Q478.7813,867.3281 479.3906,866.1875 Q480.0156,865.0313 481.1094,864.4219 Q482.2031,863.7969 483.4375,863.7969 Q484.1719,863.7969 484.8125,863.9688 Q485.4688,864.125 486.0156,864.4844 Z " fill="#000000"/><text fill="#000000" font-family="sans-serif" font-size="14" lengthAdjust="spacing" textLength="117" x="503.75" y="874.3379">StockApiController</text><line style="stroke:#181818;stroke-width:0.5;" x1="432" x2="660" y1="884.6094" y2="884.6094"/><line style="stroke:#181818;stroke-width:0.5;" x1="432" x2="660" y1="892.6094" y2="892.6094"/><ellipse cx="442" cy="906.9141" fill="#84BE84" rx="3" ry="3" style="stroke:#038048;stroke-width:1.0;"/><text fill="#000000" font-family="sans-serif" font-size="14" lengthAdjust="spacing" textLength="204" x="451" y="911.1426">GetStockMagasin(int magasinId)</text></g><!--link Magasin to MagasinStockProduit--><g id="link_Magasin_MagasinStockProduit"><path codeLine="128" d="M2942.29,713.2094 C2980.53,749.4794 3032.19,798.4794 3070.48,834.7994 " fill="none" id="Magasin-MagasinStockProduit" style="stroke:#2E8B57;stroke-width:1.0;"/><text fill="#000000" font-family="sans-serif" font-size="13" lengthAdjust="spacing" textLength="39" x="3007" y="775.1045">stocks</text><text fill="#000000" font-family="sans-serif" font-size="13" lengthAdjust="spacing" textLength="7" x="2941.8462" y="734.614">1</text><text fill="#000000" font-family="sans-serif" font-size="13" lengthAdjust="spacing" textLength="20" x="3042.0789" y="824.4271">0..*</text></g><!--link Produit to MagasinStockProduit--><g id="link_Produit_MagasinStockProduit"><path codeLine="129" d="M3097.95,730.8194 C3103.41,764.3394 3109.9,804.1794 3114.9,834.9094 " fill="none" id="Produit-MagasinStockProduit" style="stroke:#2E8B57;stroke-width:1.0;"/><text fill="#000000" font-family="sans-serif" font-size="13" lengthAdjust="spacing" textLength="7" x="3091.7183" y="752.1894">1</text><text fill="#000000" font-family="sans-serif" font-size="13" lengthAdjust="spacing" textLength="20" x="3092.3547" y="824.1866">0..*</text></g><!--link Produit to StockCentral--><g id="link_Produit_StockCentral"><path codeLine="130" d="M3150.86,730.8194 C3185.98,767.7694 3228.38,812.3994 3258.45,844.0394 " fill="none" id="Produit-StockCentral" style="stroke:#2E8B57;stroke-width:1.0;"/><text fill="#000000" font-family="sans-serif" font-size="13" lengthAdjust="spacing" textLength="7" x="3150.0846" y="752.1894">1</text><text fill="#000000" font-family="sans-serif" font-size="13" lengthAdjust="spacing" textLength="7" x="3244.4855" y="833.3355">1</text></g><!--link Magasin to Vente--><g id="link_Magasin_Vente"><path codeLine="131" d="M2844.66,713.3594 C2839.11,719.2294 2833.46,725.0894 2828,730.6094 C2799.79,759.1094 2767.9,789.6094 2739.85,815.8794 " fill="none" id="Magasin-Vente" style="stroke:#2E8B57;stroke-width:1.0;"/><text fill="#000000" font-family="sans-serif" font-size="13" lengthAdjust="spacing" textLength="7" x="2831.4024" y="734.4154">1</text><text fill="#000000" font-family="sans-serif" font-size="13" lengthAdjust="spacing" textLength="20" x="2746.3711" y="805.8242">0..*</text></g><!--link Produit to Vente--><g id="link_Produit_Vente"><path codeLine="132" d="M3018.81,703.6794 C3001.81,713.0194 2983.45,722.5794 2966,730.6094 C2875.94,772.0694 2842.85,759.0194 2757,808.6094 C2751.17,811.9794 2745.34,815.7194 2739.6,819.6694 " fill="none" id="Produit-Vente" style="stroke:#2E8B57;stroke-width:1.0;"/><text fill="#000000" font-family="sans-serif" font-size="13" lengthAdjust="spacing" textLength="7" x="3003.9689" y="704.8082">1</text><text fill="#000000" font-family="sans-serif" font-size="13" lengthAdjust="spacing" textLength="20" x="2746.3631" y="827.3638">0..*</text></g><!--link Magasin to DemandeReapprovisionnement--><g id="link_Magasin_DemandeReapprovisionnement"><path codeLine="133" d="M2890,713.2094 C2890,741.1994 2890,776.7894 2890,808.2694 " fill="none" id="Magasin-DemandeReapprovisionnement" style="stroke:#2E8B57;stroke-width:1.0;"/><text fill="#000000" font-family="sans-serif" font-size="13" lengthAdjust="spacing" textLength="7" x="2882.5297" y="734.614">1</text><text fill="#000000" font-family="sans-serif" font-size="13" lengthAdjust="spacing" textLength="20" x="2869.0469" y="797.6637">0..*</text></g><!--link Produit to DemandeReapprovisionnement--><g id="link_Produit_DemandeReapprovisionnement"><path codeLine="134" d="M3079.07,730.6294 C3074.77,747.4094 3068.15,764.6094 3058,778.6094 C3053.52,784.7894 3032.06,799.3594 3005.9,815.7894 " fill="none" id="Produit-DemandeReapprovisionnement" style="stroke:#2E8B57;stroke-width:1.0;"/><text fill="#000000" font-family="sans-serif" font-size="13" lengthAdjust="spacing" textLength="7" x="3070.8913" y="751.9798">1</text><text fill="#000000" font-family="sans-serif" font-size="13" lengthAdjust="spacing" textLength="20" x="3013.572" y="808.5635">0..*</text></g><!--link controllers to services--><g id="link_controllers_services"><path codeLine="136" d="M1065.0418,252.253 C1065.1072,252.5182 1065.1729,252.7845 1065.2387,253.0517 C1065.3703,253.5863 1065.5028,254.1249 1065.636,254.6675 C1065.9024,255.7525 1066.1718,256.8532 1066.4437,257.9679 C1066.9875,260.1973 1067.5413,262.4827 1068.1012,264.8112 C1069.2211,269.4682 1070.3655,274.2979 1071.5033,279.1973 C1073.7788,288.9963 1076.0275,299.0744 1078,308.6094 C1093.89,385.3844 1109.1575,472.0969 1120.5662,540.3669 C1123.4184,557.4344 1126.0295,573.3492 1128.3487,587.668 C1129.5084,594.8273 1130.5951,601.5877 1131.6025,607.8936 C1131.7285,608.6818 1130.9081,603.5379 1131.0315,604.3118 " fill="none" id="controllers-to-services" style="stroke:#2E8B57;stroke-width:1.0;"/><polygon fill="#2E8B57" points="1131.9766,610.2369,1134.5091,600.7192,1131.189,605.2993,1126.6089,601.9793,1131.9766,610.2369" style="stroke:#2E8B57;stroke-width:1.0;"/><text fill="#000000" font-family="sans-serif" font-size="13" lengthAdjust="spacing" textLength="34" x="1111" y="395.6045">utilise</text></g><!--link services to models--><g id="link_services_models"><path codeLine="137" d="M1131.9306,634.8475 C1131.8903,634.6716 1131.8501,634.4951 1131.81,634.3181 C1131.7297,633.964 1131.6497,633.6076 1131.57,633.249 C1131.4107,632.5316 1131.2526,631.8052 1131.0961,631.0703 C1130.7831,629.6003 1130.4767,628.0961 1130.1799,626.5613 C1128.9925,620.4223 1127.9581,613.7956 1127.27,606.9269 C1124.5175,579.4519 1127.305,548.1044 1148,528.6094 C1203.08,476.7194 2447.02,486.6694 2510,528.6094 C2535.605,545.6594 2549.5225,576.8919 2557.0775,604.9169 C2557.3136,605.7927 2557.5435,606.6653 2557.7673,607.5343 C2557.8233,607.7515 2556.3982,602.1541 2556.4534,602.3709 " fill="none" id="services-to-models" style="stroke:#2E8B57;stroke-width:1.0;"/><polygon fill="#2E8B57" points="2557.934,608.1853,2559.5893,598.4766,2556.7002,603.34,2551.8368,600.4508,2557.934,608.1853" style="stroke:#2E8B57;stroke-width:1.0;"/><text fill="#000000" font-family="sans-serif" font-size="13" lengthAdjust="spacing" textLength="120" x="1796" y="503.1045">acc&#232;de aux donn&#233;es</text></g><!--link api to services--><g id="link_api_services"><path codeLine="138" d="M50.0626,547.6552 C50.1649,547.4624 50.2681,547.2701 50.3721,547.0782 C50.788,546.3109 51.2169,545.5513 51.6592,544.8 C55.1972,538.7894 59.5888,533.3081 65,528.6094 C107.75,491.4994 1036.88,497.2294 1084,528.6094 C1109.605,545.6594 1123.5225,576.8919 1131.0775,604.9169 C1131.3136,605.7927 1131.5435,606.6653 1131.7673,607.5343 C1131.8233,607.7515 1130.3982,602.1541 1130.4534,602.3709 " fill="none" id="api-to-services" style="stroke:#2E8B57;stroke-width:1.0;"/><polygon fill="#2E8B57" points="1131.934,608.1853,1133.5893,598.4766,1130.7002,603.34,1125.8368,600.4508,1131.934,608.1853" style="stroke:#2E8B57;stroke-width:1.0;"/><text fill="#000000" font-family="sans-serif" font-size="13" lengthAdjust="spacing" textLength="34" x="150" y="503.1045">utilise</text></g><!--SRC=[jLVTRjCm5BxFKrYzAh1ES8lGfBI3QTA0qOrnWNRX9MUTDSVERAUiGdiVU8wz62UEqn_7JbiGbQeaFl_dVEVODinm85SLa3CvOm_u796FT4Or4sG2mYZA4oDBOYIvaSR8WkHCGMQO58c-PwAaYXOaurHhyZCXP4op-vcIbSWdaaj5ljqn0xYUAYL_D4iNG4yKW4YUagH4TZe3Cd0sdSc1rKN8-P8iS-1wGAWcXNrjwFMliNskP5unGrRhzUyL4wObdUQR96qK4pFoIHR1zGarC9EAmIOrXumLbADIzXYKEmQTALRQ1BMq9y_PDi41PnrfJsVJN87MiCtWXP7PVK-c8iPxabYJlbHKcARAOUlMhAli7WNQIVSLgeMGKalmLHvZKIzP0QH- -M_nTu3oLJ13iMsYKHn3GKKEKw1bgUISQKIFW09328Nck4E-_5i4JZ7q9Csn155uOQYfZ1SaDddzM3RwH28E9EUWcdRELj-Hdbv9-CauHKyUXoys5t5Ki5i6QbX7LhP1nvZQRd2C7jiKiZjG-1-w43jiVYMdM46fTl0vgk5IKIo5SedMUqRlf6tmUOkJ0vpTaXCBhceEAkx-EQXRgL0iwx7i6-xae0lZRL7KxXOjThsGN2PKGEsct07PA7dp-U2m7LQgGqexnV4nV05gpZ135i3QVKJGwtZzi4_0f9mx7ftgXSZyKYABeuyNftd3iWkcdL0Zi2E-rQOd3kq8f0AsOZqIuUSR0uAfLKDeoLaEVgZ1pIAUD4iUBvPpBeQSFc37jQzpxGVmBHxhLVbYC9_WcKZ5DuA0WbwyEqrTJFKWFmR3LkIzI8sfzzKWu-RWMldx5sF8RjwHbDeyNQsyy59onhHvD-mR14U4iva0xRcV2b7nZkPvSupeviJowJ2Q_NcHbioE2beo4XaJo1AVaMrp-XbtwxljTDy_A5bCPMNWsiUD9OrblhXUdgDBkk2IvbkRlzTll_TxMYgjp5slhlfw8ePhdjg5AU2LHHkYccTdlCqG3MtiZLYx5fNicnoz7ku-F-n8sARBChavrp_bdkgRLD9UAWPl1cGq8eFNXuSl1y6J_rkYxKnAseMj8XrEVAoVwYF6ROz4h3Iqi5ny2aQKzGWaQmTCCZfQRjUOXSempl3Mj5n2SdExH2BDikTVEH1QFP8SjJt_1ftK3HpMyGS0]--></g></svg>