<?xml version="1.0" encoding="us-ascii" standalone="no"?><svg xmlns="http://www.w3.org/2000/svg" xmlns:xlink="http://www.w3.org/1999/xlink" contentStyleType="text/css" height="479px" preserveAspectRatio="none" style="width:2481px;height:479px;background:#FFFFFF;" version="1.1" viewBox="0 0 2481 479" width="2481px" zoomAndPan="magnify"><defs/><g><text fill="#000000" font-family="sans-serif" font-size="14" font-weight="bold" lengthAdjust="spacing" textLength="229" x="1119" y="24.5332">Vue de Paquet - Magasin Central</text><!--cluster MagasinCentral--><g id="cluster_MagasinCentral"><path d="M8.5,44.6094 L119.5,44.6094 A3.75,3.75 0 0 1 122,47.1094 L129,68.2188 L2471.5,68.2188 A2.5,2.5 0 0 1 2474,70.7188 L2474,470.1094 A2.5,2.5 0 0 1 2471.5,472.6094 L8.5,472.6094 A2.5,2.5 0 0 1 6,470.1094 L6,47.1094 A2.5,2.5 0 0 1 8.5,44.6094 " fill="none" style="stroke:#000000;stroke-width:1.5;"/><line style="stroke:#000000;stroke-width:1.5;" x1="6" x2="129" y1="68.2188" y2="68.2188"/><text fill="#000000" font-family="sans-serif" font-size="14" font-weight="bold" lengthAdjust="spacing" textLength="110" x="10" y="61.1426">MagasinCentral</text></g><!--cluster WebMVC--><g id="cluster_WebMVC"><path d="M1734.5,88.6094 L1798.5,88.6094 A3.75,3.75 0 0 1 1801,91.1094 L1808,112.2188 L2447.5,112.2188 A2.5,2.5 0 0 1 2450,114.7188 L2450,362.1094 A2.5,2.5 0 0 1 2447.5,364.6094 L1734.5,364.6094 A2.5,2.5 0 0 1 1732,362.1094 L1732,91.1094 A2.5,2.5 0 0 1 1734.5,88.6094 " fill="none" style="stroke:#000000;stroke-width:1.5;"/><line style="stroke:#000000;stroke-width:1.5;" x1="1732" x2="1808" y1="112.2188" y2="112.2188"/><text fill="#000000" font-family="sans-serif" font-size="14" font-weight="bold" lengthAdjust="spacing" textLength="63" x="1736" y="105.1426">WebMVC</text></g><!--cluster Controllers--><g id="cluster_Controllers"><path d="M1758.5,132.6094 L1838.5,132.6094 A3.75,3.75 0 0 1 1841,135.1094 L1848,156.2188 L2423.5,156.2188 A2.5,2.5 0 0 1 2426,158.7188 L2426,338.1094 A2.5,2.5 0 0 1 2423.5,340.6094 L1758.5,340.6094 A2.5,2.5 0 0 1 1756,338.1094 L1756,135.1094 A2.5,2.5 0 0 1 1758.5,132.6094 " fill="none" style="stroke:#000000;stroke-width:1.5;"/><line style="stroke:#000000;stroke-width:1.5;" x1="1756" x2="1848" y1="156.2188" y2="156.2188"/><text fill="#000000" font-family="sans-serif" font-size="14" font-weight="bold" lengthAdjust="spacing" textLength="79" x="1760" y="149.1426">Controllers</text></g><!--cluster Services--><g id="cluster_Services"><path d="M922.5,132.6094 L985.5,132.6094 A3.75,3.75 0 0 1 988,135.1094 L995,156.2188 L1705.5,156.2188 A2.5,2.5 0 0 1 1708,158.7188 L1708,446.1094 A2.5,2.5 0 0 1 1705.5,448.6094 L922.5,448.6094 A2.5,2.5 0 0 1 920,446.1094 L920,135.1094 A2.5,2.5 0 0 1 922.5,132.6094 " fill="none" style="stroke:#000000;stroke-width:1.5;"/><line style="stroke:#000000;stroke-width:1.5;" x1="920" x2="995" y1="156.2188" y2="156.2188"/><text fill="#000000" font-family="sans-serif" font-size="14" font-weight="bold" lengthAdjust="spacing" textLength="62" x="924" y="149.1426">Services</text></g><!--cluster Data--><g id="cluster_Data"><path d="M571.5,132.6094 L603.5,132.6094 A3.75,3.75 0 0 1 606,135.1094 L613,156.2188 L893.5,156.2188 A2.5,2.5 0 0 1 896,158.7188 L896,230.1094 A2.5,2.5 0 0 1 893.5,232.6094 L571.5,232.6094 A2.5,2.5 0 0 1 569,230.1094 L569,135.1094 A2.5,2.5 0 0 1 571.5,132.6094 " fill="none" style="stroke:#000000;stroke-width:1.5;"/><line style="stroke:#000000;stroke-width:1.5;" x1="569" x2="613" y1="156.2188" y2="156.2188"/><text fill="#000000" font-family="sans-serif" font-size="14" font-weight="bold" lengthAdjust="spacing" textLength="31" x="573" y="149.1426">Data</text></g><!--cluster Models--><g id="cluster_Models"><path d="M32.5,132.6094 L85.5,132.6094 A3.75,3.75 0 0 1 88,135.1094 L95,156.2188 L542.5,156.2188 A2.5,2.5 0 0 1 545,158.7188 L545,446.1094 A2.5,2.5 0 0 1 542.5,448.6094 L32.5,448.6094 A2.5,2.5 0 0 1 30,446.1094 L30,135.1094 A2.5,2.5 0 0 1 32.5,132.6094 " fill="none" style="stroke:#000000;stroke-width:1.5;"/><line style="stroke:#000000;stroke-width:1.5;" x1="30" x2="95" y1="156.2188" y2="156.2188"/><text fill="#000000" font-family="sans-serif" font-size="14" font-weight="bold" lengthAdjust="spacing" textLength="52" x="34" y="149.1426">Models</text></g><!--class ProduitController--><g id="elem_ProduitController"><rect codeLine="6" fill="#F1F1F1" height="48" id="ProduitController" rx="2.5" ry="2.5" style="stroke:#181818;stroke-width:0.5;" width="139" x="1818.5" y="168.6094"/><ellipse cx="1833.5" cy="184.6094" fill="#ADD1B2" rx="11" ry="11" style="stroke:#181818;stroke-width:1.0;"/><path d="M1836.2656,180.4844 Q1836.4219,180.2656 1836.6094,180.1563 Q1836.7969,180.0469 1837.0156,180.0469 Q1837.3906,180.0469 1837.625,180.3125 Q1837.8594,180.5625 1837.8594,181.1719 L1837.8594,182.625 Q1837.8594,183.2344 1837.625,183.5 Q1837.3906,183.7656 1837.0156,183.7656 Q1836.6719,183.7656 1836.4688,183.5625 Q1836.2656,183.375 1836.1563,182.8594 Q1836.1094,182.5 1835.9219,182.3125 Q1835.5938,181.9375 1834.9844,181.7188 Q1834.375,181.5 1833.75,181.5 Q1832.9844,181.5 1832.3438,181.8281 Q1831.7188,182.1563 1831.2188,182.9063 Q1830.7344,183.6563 1830.7344,184.6875 L1830.7344,185.7813 Q1830.7344,187.0156 1831.625,187.8438 Q1832.5156,188.6563 1834.1094,188.6563 Q1835.0469,188.6563 1835.7031,188.4063 Q1836.0938,188.25 1836.5156,187.8125 Q1836.7813,187.5469 1836.9219,187.4688 Q1837.0781,187.3906 1837.2813,187.3906 Q1837.6094,187.3906 1837.8594,187.6563 Q1838.125,187.9063 1838.125,188.25 Q1838.125,188.5938 1837.7813,189 Q1837.2813,189.5781 1836.4844,189.9063 Q1835.4063,190.3594 1834.1094,190.3594 Q1832.5938,190.3594 1831.3906,189.7344 Q1830.4063,189.2344 1829.7188,188.1719 Q1829.0313,187.0938 1829.0313,185.8125 L1829.0313,184.6563 Q1829.0313,183.3281 1829.6406,182.1875 Q1830.2656,181.0313 1831.3594,180.4219 Q1832.4531,179.7969 1833.6875,179.7969 Q1834.4219,179.7969 1835.0625,179.9688 Q1835.7188,180.125 1836.2656,180.4844 Z " fill="#000000"/><text fill="#000000" font-family="sans-serif" font-size="14" lengthAdjust="spacing" textLength="107" x="1847.5" y="190.3379">ProduitController</text><line style="stroke:#181818;stroke-width:0.5;" x1="1819.5" x2="1956.5" y1="200.6094" y2="200.6094"/><line style="stroke:#181818;stroke-width:0.5;" x1="1819.5" x2="1956.5" y1="208.6094" y2="208.6094"/></g><!--class RapportController--><g id="elem_RapportController"><rect codeLine="7" fill="#F1F1F1" height="48" id="RapportController" rx="2.5" ry="2.5" style="stroke:#181818;stroke-width:0.5;" width="145" x="1992.5" y="168.6094"/><ellipse cx="2007.5" cy="184.6094" fill="#ADD1B2" rx="11" ry="11" style="stroke:#181818;stroke-width:1.0;"/><path d="M2010.2656,180.4844 Q2010.4219,180.2656 2010.6094,180.1563 Q2010.7969,180.0469 2011.0156,180.0469 Q2011.3906,180.0469 2011.625,180.3125 Q2011.8594,180.5625 2011.8594,181.1719 L2011.8594,182.625 Q2011.8594,183.2344 2011.625,183.5 Q2011.3906,183.7656 2011.0156,183.7656 Q2010.6719,183.7656 2010.4688,183.5625 Q2010.2656,183.375 2010.1563,182.8594 Q2010.1094,182.5 2009.9219,182.3125 Q2009.5938,181.9375 2008.9844,181.7188 Q2008.375,181.5 2007.75,181.5 Q2006.9844,181.5 2006.3438,181.8281 Q2005.7188,182.1563 2005.2188,182.9063 Q2004.7344,183.6563 2004.7344,184.6875 L2004.7344,185.7813 Q2004.7344,187.0156 2005.625,187.8438 Q2006.5156,188.6563 2008.1094,188.6563 Q2009.0469,188.6563 2009.7031,188.4063 Q2010.0938,188.25 2010.5156,187.8125 Q2010.7813,187.5469 2010.9219,187.4688 Q2011.0781,187.3906 2011.2813,187.3906 Q2011.6094,187.3906 2011.8594,187.6563 Q2012.125,187.9063 2012.125,188.25 Q2012.125,188.5938 2011.7813,189 Q2011.2813,189.5781 2010.4844,189.9063 Q2009.4063,190.3594 2008.1094,190.3594 Q2006.5938,190.3594 2005.3906,189.7344 Q2004.4063,189.2344 2003.7188,188.1719 Q2003.0313,187.0938 2003.0313,185.8125 L2003.0313,184.6563 Q2003.0313,183.3281 2003.6406,182.1875 Q2004.2656,181.0313 2005.3594,180.4219 Q2006.4531,179.7969 2007.6875,179.7969 Q2008.4219,179.7969 2009.0625,179.9688 Q2009.7188,180.125 2010.2656,180.4844 Z " fill="#000000"/><text fill="#000000" font-family="sans-serif" font-size="14" lengthAdjust="spacing" textLength="113" x="2021.5" y="190.3379">RapportController</text><line style="stroke:#181818;stroke-width:0.5;" x1="1993.5" x2="2136.5" y1="200.6094" y2="200.6094"/><line style="stroke:#181818;stroke-width:0.5;" x1="1993.5" x2="2136.5" y1="208.6094" y2="208.6094"/></g><!--class PerformancesController--><g id="elem_PerformancesController"><rect codeLine="8" fill="#F1F1F1" height="48" id="PerformancesController" rx="2.5" ry="2.5" style="stroke:#181818;stroke-width:0.5;" width="182" x="2173" y="168.6094"/><ellipse cx="2188" cy="184.6094" fill="#ADD1B2" rx="11" ry="11" style="stroke:#181818;stroke-width:1.0;"/><path d="M2190.7656,180.4844 Q2190.9219,180.2656 2191.1094,180.1563 Q2191.2969,180.0469 2191.5156,180.0469 Q2191.8906,180.0469 2192.125,180.3125 Q2192.3594,180.5625 2192.3594,181.1719 L2192.3594,182.625 Q2192.3594,183.2344 2192.125,183.5 Q2191.8906,183.7656 2191.5156,183.7656 Q2191.1719,183.7656 2190.9688,183.5625 Q2190.7656,183.375 2190.6563,182.8594 Q2190.6094,182.5 2190.4219,182.3125 Q2190.0938,181.9375 2189.4844,181.7188 Q2188.875,181.5 2188.25,181.5 Q2187.4844,181.5 2186.8438,181.8281 Q2186.2188,182.1563 2185.7188,182.9063 Q2185.2344,183.6563 2185.2344,184.6875 L2185.2344,185.7813 Q2185.2344,187.0156 2186.125,187.8438 Q2187.0156,188.6563 2188.6094,188.6563 Q2189.5469,188.6563 2190.2031,188.4063 Q2190.5938,188.25 2191.0156,187.8125 Q2191.2813,187.5469 2191.4219,187.4688 Q2191.5781,187.3906 2191.7813,187.3906 Q2192.1094,187.3906 2192.3594,187.6563 Q2192.625,187.9063 2192.625,188.25 Q2192.625,188.5938 2192.2813,189 Q2191.7813,189.5781 2190.9844,189.9063 Q2189.9063,190.3594 2188.6094,190.3594 Q2187.0938,190.3594 2185.8906,189.7344 Q2184.9063,189.2344 2184.2188,188.1719 Q2183.5313,187.0938 2183.5313,185.8125 L2183.5313,184.6563 Q2183.5313,183.3281 2184.1406,182.1875 Q2184.7656,181.0313 2185.8594,180.4219 Q2186.9531,179.7969 2188.1875,179.7969 Q2188.9219,179.7969 2189.5625,179.9688 Q2190.2188,180.125 2190.7656,180.4844 Z " fill="#000000"/><text fill="#000000" font-family="sans-serif" font-size="14" lengthAdjust="spacing" textLength="150" x="2202" y="190.3379">PerformancesController</text><line style="stroke:#181818;stroke-width:0.5;" x1="2174" x2="2354" y1="200.6094" y2="200.6094"/><line style="stroke:#181818;stroke-width:0.5;" x1="2174" x2="2354" y1="208.6094" y2="208.6094"/></g><!--class ReapprovisionnementController--><g id="elem_ReapprovisionnementController"><rect codeLine="9" fill="#F1F1F1" height="48" id="ReapprovisionnementController" rx="2.5" ry="2.5" style="stroke:#181818;stroke-width:0.5;" width="232" x="1772" y="276.6094"/><ellipse cx="1787" cy="292.6094" fill="#ADD1B2" rx="11" ry="11" style="stroke:#181818;stroke-width:1.0;"/><path d="M1789.7656,288.4844 Q1789.9219,288.2656 1790.1094,288.1563 Q1790.2969,288.0469 1790.5156,288.0469 Q1790.8906,288.0469 1791.125,288.3125 Q1791.3594,288.5625 1791.3594,289.1719 L1791.3594,290.625 Q1791.3594,291.2344 1791.125,291.5 Q1790.8906,291.7656 1790.5156,291.7656 Q1790.1719,291.7656 1789.9688,291.5625 Q1789.7656,291.375 1789.6563,290.8594 Q1789.6094,290.5 1789.4219,290.3125 Q1789.0938,289.9375 1788.4844,289.7188 Q1787.875,289.5 1787.25,289.5 Q1786.4844,289.5 1785.8438,289.8281 Q1785.2188,290.1563 1784.7188,290.9063 Q1784.2344,291.6563 1784.2344,292.6875 L1784.2344,293.7813 Q1784.2344,295.0156 1785.125,295.8438 Q1786.0156,296.6563 1787.6094,296.6563 Q1788.5469,296.6563 1789.2031,296.4063 Q1789.5938,296.25 1790.0156,295.8125 Q1790.2813,295.5469 1790.4219,295.4688 Q1790.5781,295.3906 1790.7813,295.3906 Q1791.1094,295.3906 1791.3594,295.6563 Q1791.625,295.9063 1791.625,296.25 Q1791.625,296.5938 1791.2813,297 Q1790.7813,297.5781 1789.9844,297.9063 Q1788.9063,298.3594 1787.6094,298.3594 Q1786.0938,298.3594 1784.8906,297.7344 Q1783.9063,297.2344 1783.2188,296.1719 Q1782.5313,295.0938 1782.5313,293.8125 L1782.5313,292.6563 Q1782.5313,291.3281 1783.1406,290.1875 Q1783.7656,289.0313 1784.8594,288.4219 Q1785.9531,287.7969 1787.1875,287.7969 Q1787.9219,287.7969 1788.5625,287.9688 Q1789.2188,288.125 1789.7656,288.4844 Z " fill="#000000"/><text fill="#000000" font-family="sans-serif" font-size="14" lengthAdjust="spacing" textLength="200" x="1801" y="298.3379">ReapprovisionnementController</text><line style="stroke:#181818;stroke-width:0.5;" x1="1773" x2="2003" y1="308.6094" y2="308.6094"/><line style="stroke:#181818;stroke-width:0.5;" x1="1773" x2="2003" y1="316.6094" y2="316.6094"/></g><!--class TraiterDemandesController--><g id="elem_TraiterDemandesController"><rect codeLine="10" fill="#F1F1F1" height="48" id="TraiterDemandesController" rx="2.5" ry="2.5" style="stroke:#181818;stroke-width:0.5;" width="204" x="2039" y="276.6094"/><ellipse cx="2054" cy="292.6094" fill="#ADD1B2" rx="11" ry="11" style="stroke:#181818;stroke-width:1.0;"/><path d="M2056.7656,288.4844 Q2056.9219,288.2656 2057.1094,288.1563 Q2057.2969,288.0469 2057.5156,288.0469 Q2057.8906,288.0469 2058.125,288.3125 Q2058.3594,288.5625 2058.3594,289.1719 L2058.3594,290.625 Q2058.3594,291.2344 2058.125,291.5 Q2057.8906,291.7656 2057.5156,291.7656 Q2057.1719,291.7656 2056.9688,291.5625 Q2056.7656,291.375 2056.6563,290.8594 Q2056.6094,290.5 2056.4219,290.3125 Q2056.0938,289.9375 2055.4844,289.7188 Q2054.875,289.5 2054.25,289.5 Q2053.4844,289.5 2052.8438,289.8281 Q2052.2188,290.1563 2051.7188,290.9063 Q2051.2344,291.6563 2051.2344,292.6875 L2051.2344,293.7813 Q2051.2344,295.0156 2052.125,295.8438 Q2053.0156,296.6563 2054.6094,296.6563 Q2055.5469,296.6563 2056.2031,296.4063 Q2056.5938,296.25 2057.0156,295.8125 Q2057.2813,295.5469 2057.4219,295.4688 Q2057.5781,295.3906 2057.7813,295.3906 Q2058.1094,295.3906 2058.3594,295.6563 Q2058.625,295.9063 2058.625,296.25 Q2058.625,296.5938 2058.2813,297 Q2057.7813,297.5781 2056.9844,297.9063 Q2055.9063,298.3594 2054.6094,298.3594 Q2053.0938,298.3594 2051.8906,297.7344 Q2050.9063,297.2344 2050.2188,296.1719 Q2049.5313,295.0938 2049.5313,293.8125 L2049.5313,292.6563 Q2049.5313,291.3281 2050.1406,290.1875 Q2050.7656,289.0313 2051.8594,288.4219 Q2052.9531,287.7969 2054.1875,287.7969 Q2054.9219,287.7969 2055.5625,287.9688 Q2056.2188,288.125 2056.7656,288.4844 Z " fill="#000000"/><text fill="#000000" font-family="sans-serif" font-size="14" lengthAdjust="spacing" textLength="172" x="2068" y="298.3379">TraiterDemandesController</text><line style="stroke:#181818;stroke-width:0.5;" x1="2040" x2="2242" y1="308.6094" y2="308.6094"/><line style="stroke:#181818;stroke-width:0.5;" x1="2040" x2="2242" y1="316.6094" y2="316.6094"/></g><!--class VenteController--><g id="elem_VenteController"><rect codeLine="11" fill="#F1F1F1" height="48" id="VenteController" rx="2.5" ry="2.5" style="stroke:#181818;stroke-width:0.5;" width="131" x="2278.5" y="276.6094"/><ellipse cx="2293.5" cy="292.6094" fill="#ADD1B2" rx="11" ry="11" style="stroke:#181818;stroke-width:1.0;"/><path d="M2296.2656,288.4844 Q2296.4219,288.2656 2296.6094,288.1563 Q2296.7969,288.0469 2297.0156,288.0469 Q2297.3906,288.0469 2297.625,288.3125 Q2297.8594,288.5625 2297.8594,289.1719 L2297.8594,290.625 Q2297.8594,291.2344 2297.625,291.5 Q2297.3906,291.7656 2297.0156,291.7656 Q2296.6719,291.7656 2296.4688,291.5625 Q2296.2656,291.375 2296.1563,290.8594 Q2296.1094,290.5 2295.9219,290.3125 Q2295.5938,289.9375 2294.9844,289.7188 Q2294.375,289.5 2293.75,289.5 Q2292.9844,289.5 2292.3438,289.8281 Q2291.7188,290.1563 2291.2188,290.9063 Q2290.7344,291.6563 2290.7344,292.6875 L2290.7344,293.7813 Q2290.7344,295.0156 2291.625,295.8438 Q2292.5156,296.6563 2294.1094,296.6563 Q2295.0469,296.6563 2295.7031,296.4063 Q2296.0938,296.25 2296.5156,295.8125 Q2296.7813,295.5469 2296.9219,295.4688 Q2297.0781,295.3906 2297.2813,295.3906 Q2297.6094,295.3906 2297.8594,295.6563 Q2298.125,295.9063 2298.125,296.25 Q2298.125,296.5938 2297.7813,297 Q2297.2813,297.5781 2296.4844,297.9063 Q2295.4063,298.3594 2294.1094,298.3594 Q2292.5938,298.3594 2291.3906,297.7344 Q2290.4063,297.2344 2289.7188,296.1719 Q2289.0313,295.0938 2289.0313,293.8125 L2289.0313,292.6563 Q2289.0313,291.3281 2289.6406,290.1875 Q2290.2656,289.0313 2291.3594,288.4219 Q2292.4531,287.7969 2293.6875,287.7969 Q2294.4219,287.7969 2295.0625,287.9688 Q2295.7188,288.125 2296.2656,288.4844 Z " fill="#000000"/><text fill="#000000" font-family="sans-serif" font-size="14" lengthAdjust="spacing" textLength="99" x="2307.5" y="298.3379">VenteController</text><line style="stroke:#181818;stroke-width:0.5;" x1="2279.5" x2="2408.5" y1="308.6094" y2="308.6094"/><line style="stroke:#181818;stroke-width:0.5;" x1="2279.5" x2="2408.5" y1="316.6094" y2="316.6094"/></g><!--class IProduitService--><g id="elem_IProduitService"><rect codeLine="16" fill="#F1F1F1" height="48" id="IProduitService" rx="2.5" ry="2.5" style="stroke:#181818;stroke-width:0.5;" width="127" x="936.5" y="168.6094"/><ellipse cx="951.5" cy="184.6094" fill="#B4A7E5" rx="11" ry="11" style="stroke:#181818;stroke-width:1.0;"/><path d="M952.4531,181.25 L952.4531,187.9063 L954.1719,187.9063 Q954.7813,187.9063 955.0469,188.1406 Q955.3125,188.375 955.3125,188.7656 Q955.3125,189.1406 955.0469,189.375 Q954.7813,189.6094 954.1719,189.6094 L949.0313,189.6094 Q948.4219,189.6094 948.1563,189.375 Q947.8906,189.1406 947.8906,188.75 Q947.8906,188.375 948.1563,188.1406 Q948.4219,187.9063 949.0313,187.9063 L950.75,187.9063 L950.75,181.25 L949.0313,181.25 Q948.4219,181.25 948.1563,181.0156 Q947.8906,180.7813 947.8906,180.3906 Q947.8906,180.0156 948.1563,179.7813 Q948.4219,179.5469 949.0313,179.5469 L954.1719,179.5469 Q954.7813,179.5469 955.0469,179.7813 Q955.3125,180.0156 955.3125,180.3906 Q955.3125,180.7813 955.0469,181.0156 Q954.7813,181.25 954.1719,181.25 L952.4531,181.25 Z " fill="#000000"/><text fill="#000000" font-family="sans-serif" font-size="14" font-style="italic" lengthAdjust="spacing" textLength="95" x="965.5" y="190.3379">IProduitService</text><line style="stroke:#181818;stroke-width:0.5;" x1="937.5" x2="1062.5" y1="200.6094" y2="200.6094"/><line style="stroke:#181818;stroke-width:0.5;" x1="937.5" x2="1062.5" y1="208.6094" y2="208.6094"/></g><!--class IRapportService--><g id="elem_IRapportService"><rect codeLine="17" fill="#F1F1F1" height="48" id="IRapportService" rx="2.5" ry="2.5" style="stroke:#181818;stroke-width:0.5;" width="133" x="1098.5" y="168.6094"/><ellipse cx="1113.5" cy="184.6094" fill="#B4A7E5" rx="11" ry="11" style="stroke:#181818;stroke-width:1.0;"/><path d="M1114.4531,181.25 L1114.4531,187.9063 L1116.1719,187.9063 Q1116.7813,187.9063 1117.0469,188.1406 Q1117.3125,188.375 1117.3125,188.7656 Q1117.3125,189.1406 1117.0469,189.375 Q1116.7813,189.6094 1116.1719,189.6094 L1111.0313,189.6094 Q1110.4219,189.6094 1110.1563,189.375 Q1109.8906,189.1406 1109.8906,188.75 Q1109.8906,188.375 1110.1563,188.1406 Q1110.4219,187.9063 1111.0313,187.9063 L1112.75,187.9063 L1112.75,181.25 L1111.0313,181.25 Q1110.4219,181.25 1110.1563,181.0156 Q1109.8906,180.7813 1109.8906,180.3906 Q1109.8906,180.0156 1110.1563,179.7813 Q1110.4219,179.5469 1111.0313,179.5469 L1116.1719,179.5469 Q1116.7813,179.5469 1117.0469,179.7813 Q1117.3125,180.0156 1117.3125,180.3906 Q1117.3125,180.7813 1117.0469,181.0156 Q1116.7813,181.25 1116.1719,181.25 L1114.4531,181.25 Z " fill="#000000"/><text fill="#000000" font-family="sans-serif" font-size="14" font-style="italic" lengthAdjust="spacing" textLength="101" x="1127.5" y="190.3379">IRapportService</text><line style="stroke:#181818;stroke-width:0.5;" x1="1099.5" x2="1230.5" y1="200.6094" y2="200.6094"/><line style="stroke:#181818;stroke-width:0.5;" x1="1099.5" x2="1230.5" y1="208.6094" y2="208.6094"/></g><!--class IPerformancesService--><g id="elem_IPerformancesService"><rect codeLine="18" fill="#F1F1F1" height="48" id="IPerformancesService" rx="2.5" ry="2.5" style="stroke:#181818;stroke-width:0.5;" width="170" x="1267" y="168.6094"/><ellipse cx="1282" cy="184.6094" fill="#B4A7E5" rx="11" ry="11" style="stroke:#181818;stroke-width:1.0;"/><path d="M1282.9531,181.25 L1282.9531,187.9063 L1284.6719,187.9063 Q1285.2813,187.9063 1285.5469,188.1406 Q1285.8125,188.375 1285.8125,188.7656 Q1285.8125,189.1406 1285.5469,189.375 Q1285.2813,189.6094 1284.6719,189.6094 L1279.5313,189.6094 Q1278.9219,189.6094 1278.6563,189.375 Q1278.3906,189.1406 1278.3906,188.75 Q1278.3906,188.375 1278.6563,188.1406 Q1278.9219,187.9063 1279.5313,187.9063 L1281.25,187.9063 L1281.25,181.25 L1279.5313,181.25 Q1278.9219,181.25 1278.6563,181.0156 Q1278.3906,180.7813 1278.3906,180.3906 Q1278.3906,180.0156 1278.6563,179.7813 Q1278.9219,179.5469 1279.5313,179.5469 L1284.6719,179.5469 Q1285.2813,179.5469 1285.5469,179.7813 Q1285.8125,180.0156 1285.8125,180.3906 Q1285.8125,180.7813 1285.5469,181.0156 Q1285.2813,181.25 1284.6719,181.25 L1282.9531,181.25 Z " fill="#000000"/><text fill="#000000" font-family="sans-serif" font-size="14" font-style="italic" lengthAdjust="spacing" textLength="138" x="1296" y="190.3379">IPerformancesService</text><line style="stroke:#181818;stroke-width:0.5;" x1="1268" x2="1436" y1="200.6094" y2="200.6094"/><line style="stroke:#181818;stroke-width:0.5;" x1="1268" x2="1436" y1="208.6094" y2="208.6094"/></g><!--class IReapprovisionnementService--><g id="elem_IReapprovisionnementService"><rect codeLine="19" fill="#F1F1F1" height="48" id="IReapprovisionnementService" rx="2.5" ry="2.5" style="stroke:#181818;stroke-width:0.5;" width="219" x="1472.5" y="168.6094"/><ellipse cx="1487.5" cy="184.6094" fill="#B4A7E5" rx="11" ry="11" style="stroke:#181818;stroke-width:1.0;"/><path d="M1488.4531,181.25 L1488.4531,187.9063 L1490.1719,187.9063 Q1490.7813,187.9063 1491.0469,188.1406 Q1491.3125,188.375 1491.3125,188.7656 Q1491.3125,189.1406 1491.0469,189.375 Q1490.7813,189.6094 1490.1719,189.6094 L1485.0313,189.6094 Q1484.4219,189.6094 1484.1563,189.375 Q1483.8906,189.1406 1483.8906,188.75 Q1483.8906,188.375 1484.1563,188.1406 Q1484.4219,187.9063 1485.0313,187.9063 L1486.75,187.9063 L1486.75,181.25 L1485.0313,181.25 Q1484.4219,181.25 1484.1563,181.0156 Q1483.8906,180.7813 1483.8906,180.3906 Q1483.8906,180.0156 1484.1563,179.7813 Q1484.4219,179.5469 1485.0313,179.5469 L1490.1719,179.5469 Q1490.7813,179.5469 1491.0469,179.7813 Q1491.3125,180.0156 1491.3125,180.3906 Q1491.3125,180.7813 1491.0469,181.0156 Q1490.7813,181.25 1490.1719,181.25 L1488.4531,181.25 Z " fill="#000000"/><text fill="#000000" font-family="sans-serif" font-size="14" font-style="italic" lengthAdjust="spacing" textLength="187" x="1501.5" y="190.3379">IReapprovisionnementService</text><line style="stroke:#181818;stroke-width:0.5;" x1="1473.5" x2="1690.5" y1="200.6094" y2="200.6094"/><line style="stroke:#181818;stroke-width:0.5;" x1="1473.5" x2="1690.5" y1="208.6094" y2="208.6094"/></g><!--class IVenteService--><g id="elem_IVenteService"><rect codeLine="20" fill="#F1F1F1" height="48" id="IVenteService" rx="2.5" ry="2.5" style="stroke:#181818;stroke-width:0.5;" width="119" x="962.5" y="276.6094"/><ellipse cx="977.5" cy="292.6094" fill="#B4A7E5" rx="11" ry="11" style="stroke:#181818;stroke-width:1.0;"/><path d="M978.4531,289.25 L978.4531,295.9063 L980.1719,295.9063 Q980.7813,295.9063 981.0469,296.1406 Q981.3125,296.375 981.3125,296.7656 Q981.3125,297.1406 981.0469,297.375 Q980.7813,297.6094 980.1719,297.6094 L975.0313,297.6094 Q974.4219,297.6094 974.1563,297.375 Q973.8906,297.1406 973.8906,296.75 Q973.8906,296.375 974.1563,296.1406 Q974.4219,295.9063 975.0313,295.9063 L976.75,295.9063 L976.75,289.25 L975.0313,289.25 Q974.4219,289.25 974.1563,289.0156 Q973.8906,288.7813 973.8906,288.3906 Q973.8906,288.0156 974.1563,287.7813 Q974.4219,287.5469 975.0313,287.5469 L980.1719,287.5469 Q980.7813,287.5469 981.0469,287.7813 Q981.3125,288.0156 981.3125,288.3906 Q981.3125,288.7813 981.0469,289.0156 Q980.7813,289.25 980.1719,289.25 L978.4531,289.25 Z " fill="#000000"/><text fill="#000000" font-family="sans-serif" font-size="14" font-style="italic" lengthAdjust="spacing" textLength="87" x="991.5" y="298.3379">IVenteService</text><line style="stroke:#181818;stroke-width:0.5;" x1="963.5" x2="1080.5" y1="308.6094" y2="308.6094"/><line style="stroke:#181818;stroke-width:0.5;" x1="963.5" x2="1080.5" y1="316.6094" y2="316.6094"/></g><!--class ProduitService--><g id="elem_ProduitService"><rect codeLine="22" fill="#F1F1F1" height="48" id="ProduitService" rx="2.5" ry="2.5" style="stroke:#181818;stroke-width:0.5;" width="124" x="1117" y="276.6094"/><ellipse cx="1132" cy="292.6094" fill="#ADD1B2" rx="11" ry="11" style="stroke:#181818;stroke-width:1.0;"/><path d="M1134.7656,288.4844 Q1134.9219,288.2656 1135.1094,288.1563 Q1135.2969,288.0469 1135.5156,288.0469 Q1135.8906,288.0469 1136.125,288.3125 Q1136.3594,288.5625 1136.3594,289.1719 L1136.3594,290.625 Q1136.3594,291.2344 1136.125,291.5 Q1135.8906,291.7656 1135.5156,291.7656 Q1135.1719,291.7656 1134.9688,291.5625 Q1134.7656,291.375 1134.6563,290.8594 Q1134.6094,290.5 1134.4219,290.3125 Q1134.0938,289.9375 1133.4844,289.7188 Q1132.875,289.5 1132.25,289.5 Q1131.4844,289.5 1130.8438,289.8281 Q1130.2188,290.1563 1129.7188,290.9063 Q1129.2344,291.6563 1129.2344,292.6875 L1129.2344,293.7813 Q1129.2344,295.0156 1130.125,295.8438 Q1131.0156,296.6563 1132.6094,296.6563 Q1133.5469,296.6563 1134.2031,296.4063 Q1134.5938,296.25 1135.0156,295.8125 Q1135.2813,295.5469 1135.4219,295.4688 Q1135.5781,295.3906 1135.7813,295.3906 Q1136.1094,295.3906 1136.3594,295.6563 Q1136.625,295.9063 1136.625,296.25 Q1136.625,296.5938 1136.2813,297 Q1135.7813,297.5781 1134.9844,297.9063 Q1133.9063,298.3594 1132.6094,298.3594 Q1131.0938,298.3594 1129.8906,297.7344 Q1128.9063,297.2344 1128.2188,296.1719 Q1127.5313,295.0938 1127.5313,293.8125 L1127.5313,292.6563 Q1127.5313,291.3281 1128.1406,290.1875 Q1128.7656,289.0313 1129.8594,288.4219 Q1130.9531,287.7969 1132.1875,287.7969 Q1132.9219,287.7969 1133.5625,287.9688 Q1134.2188,288.125 1134.7656,288.4844 Z " fill="#000000"/><text fill="#000000" font-family="sans-serif" font-size="14" lengthAdjust="spacing" textLength="92" x="1146" y="298.3379">ProduitService</text><line style="stroke:#181818;stroke-width:0.5;" x1="1118" x2="1240" y1="308.6094" y2="308.6094"/><line style="stroke:#181818;stroke-width:0.5;" x1="1118" x2="1240" y1="316.6094" y2="316.6094"/></g><!--class RapportService--><g id="elem_RapportService"><rect codeLine="23" fill="#F1F1F1" height="48" id="RapportService" rx="2.5" ry="2.5" style="stroke:#181818;stroke-width:0.5;" width="130" x="1276" y="276.6094"/><ellipse cx="1291" cy="292.6094" fill="#ADD1B2" rx="11" ry="11" style="stroke:#181818;stroke-width:1.0;"/><path d="M1293.7656,288.4844 Q1293.9219,288.2656 1294.1094,288.1563 Q1294.2969,288.0469 1294.5156,288.0469 Q1294.8906,288.0469 1295.125,288.3125 Q1295.3594,288.5625 1295.3594,289.1719 L1295.3594,290.625 Q1295.3594,291.2344 1295.125,291.5 Q1294.8906,291.7656 1294.5156,291.7656 Q1294.1719,291.7656 1293.9688,291.5625 Q1293.7656,291.375 1293.6563,290.8594 Q1293.6094,290.5 1293.4219,290.3125 Q1293.0938,289.9375 1292.4844,289.7188 Q1291.875,289.5 1291.25,289.5 Q1290.4844,289.5 1289.8438,289.8281 Q1289.2188,290.1563 1288.7188,290.9063 Q1288.2344,291.6563 1288.2344,292.6875 L1288.2344,293.7813 Q1288.2344,295.0156 1289.125,295.8438 Q1290.0156,296.6563 1291.6094,296.6563 Q1292.5469,296.6563 1293.2031,296.4063 Q1293.5938,296.25 1294.0156,295.8125 Q1294.2813,295.5469 1294.4219,295.4688 Q1294.5781,295.3906 1294.7813,295.3906 Q1295.1094,295.3906 1295.3594,295.6563 Q1295.625,295.9063 1295.625,296.25 Q1295.625,296.5938 1295.2813,297 Q1294.7813,297.5781 1293.9844,297.9063 Q1292.9063,298.3594 1291.6094,298.3594 Q1290.0938,298.3594 1288.8906,297.7344 Q1287.9063,297.2344 1287.2188,296.1719 Q1286.5313,295.0938 1286.5313,293.8125 L1286.5313,292.6563 Q1286.5313,291.3281 1287.1406,290.1875 Q1287.7656,289.0313 1288.8594,288.4219 Q1289.9531,287.7969 1291.1875,287.7969 Q1291.9219,287.7969 1292.5625,287.9688 Q1293.2188,288.125 1293.7656,288.4844 Z " fill="#000000"/><text fill="#000000" font-family="sans-serif" font-size="14" lengthAdjust="spacing" textLength="98" x="1305" y="298.3379">RapportService</text><line style="stroke:#181818;stroke-width:0.5;" x1="1277" x2="1405" y1="308.6094" y2="308.6094"/><line style="stroke:#181818;stroke-width:0.5;" x1="1277" x2="1405" y1="316.6094" y2="316.6094"/></g><!--class PerformancesService--><g id="elem_PerformancesService"><rect codeLine="24" fill="#F1F1F1" height="48" id="PerformancesService" rx="2.5" ry="2.5" style="stroke:#181818;stroke-width:0.5;" width="167" x="1441.5" y="276.6094"/><ellipse cx="1456.5" cy="292.6094" fill="#ADD1B2" rx="11" ry="11" style="stroke:#181818;stroke-width:1.0;"/><path d="M1459.2656,288.4844 Q1459.4219,288.2656 1459.6094,288.1563 Q1459.7969,288.0469 1460.0156,288.0469 Q1460.3906,288.0469 1460.625,288.3125 Q1460.8594,288.5625 1460.8594,289.1719 L1460.8594,290.625 Q1460.8594,291.2344 1460.625,291.5 Q1460.3906,291.7656 1460.0156,291.7656 Q1459.6719,291.7656 1459.4688,291.5625 Q1459.2656,291.375 1459.1563,290.8594 Q1459.1094,290.5 1458.9219,290.3125 Q1458.5938,289.9375 1457.9844,289.7188 Q1457.375,289.5 1456.75,289.5 Q1455.9844,289.5 1455.3438,289.8281 Q1454.7188,290.1563 1454.2188,290.9063 Q1453.7344,291.6563 1453.7344,292.6875 L1453.7344,293.7813 Q1453.7344,295.0156 1454.625,295.8438 Q1455.5156,296.6563 1457.1094,296.6563 Q1458.0469,296.6563 1458.7031,296.4063 Q1459.0938,296.25 1459.5156,295.8125 Q1459.7813,295.5469 1459.9219,295.4688 Q1460.0781,295.3906 1460.2813,295.3906 Q1460.6094,295.3906 1460.8594,295.6563 Q1461.125,295.9063 1461.125,296.25 Q1461.125,296.5938 1460.7813,297 Q1460.2813,297.5781 1459.4844,297.9063 Q1458.4063,298.3594 1457.1094,298.3594 Q1455.5938,298.3594 1454.3906,297.7344 Q1453.4063,297.2344 1452.7188,296.1719 Q1452.0313,295.0938 1452.0313,293.8125 L1452.0313,292.6563 Q1452.0313,291.3281 1452.6406,290.1875 Q1453.2656,289.0313 1454.3594,288.4219 Q1455.4531,287.7969 1456.6875,287.7969 Q1457.4219,287.7969 1458.0625,287.9688 Q1458.7188,288.125 1459.2656,288.4844 Z " fill="#000000"/><text fill="#000000" font-family="sans-serif" font-size="14" lengthAdjust="spacing" textLength="135" x="1470.5" y="298.3379">PerformancesService</text><line style="stroke:#181818;stroke-width:0.5;" x1="1442.5" x2="1607.5" y1="308.6094" y2="308.6094"/><line style="stroke:#181818;stroke-width:0.5;" x1="1442.5" x2="1607.5" y1="316.6094" y2="316.6094"/></g><!--class ReapprovisionnementService--><g id="elem_ReapprovisionnementService"><rect codeLine="25" fill="#F1F1F1" height="48" id="ReapprovisionnementService" rx="2.5" ry="2.5" style="stroke:#181818;stroke-width:0.5;" width="217" x="936.5" y="384.6094"/><ellipse cx="951.5" cy="400.6094" fill="#ADD1B2" rx="11" ry="11" style="stroke:#181818;stroke-width:1.0;"/><path d="M954.2656,396.4844 Q954.4219,396.2656 954.6094,396.1563 Q954.7969,396.0469 955.0156,396.0469 Q955.3906,396.0469 955.625,396.3125 Q955.8594,396.5625 955.8594,397.1719 L955.8594,398.625 Q955.8594,399.2344 955.625,399.5 Q955.3906,399.7656 955.0156,399.7656 Q954.6719,399.7656 954.4688,399.5625 Q954.2656,399.375 954.1563,398.8594 Q954.1094,398.5 953.9219,398.3125 Q953.5938,397.9375 952.9844,397.7188 Q952.375,397.5 951.75,397.5 Q950.9844,397.5 950.3438,397.8281 Q949.7188,398.1563 949.2188,398.9063 Q948.7344,399.6563 948.7344,400.6875 L948.7344,401.7813 Q948.7344,403.0156 949.625,403.8438 Q950.5156,404.6563 952.1094,404.6563 Q953.0469,404.6563 953.7031,404.4063 Q954.0938,404.25 954.5156,403.8125 Q954.7813,403.5469 954.9219,403.4688 Q955.0781,403.3906 955.2813,403.3906 Q955.6094,403.3906 955.8594,403.6563 Q956.125,403.9063 956.125,404.25 Q956.125,404.5938 955.7813,405 Q955.2813,405.5781 954.4844,405.9063 Q953.4063,406.3594 952.1094,406.3594 Q950.5938,406.3594 949.3906,405.7344 Q948.4063,405.2344 947.7188,404.1719 Q947.0313,403.0938 947.0313,401.8125 L947.0313,400.6563 Q947.0313,399.3281 947.6406,398.1875 Q948.2656,397.0313 949.3594,396.4219 Q950.4531,395.7969 951.6875,395.7969 Q952.4219,395.7969 953.0625,395.9688 Q953.7188,396.125 954.2656,396.4844 Z " fill="#000000"/><text fill="#000000" font-family="sans-serif" font-size="14" lengthAdjust="spacing" textLength="185" x="965.5" y="406.3379">ReapprovisionnementService</text><line style="stroke:#181818;stroke-width:0.5;" x1="937.5" x2="1152.5" y1="416.6094" y2="416.6094"/><line style="stroke:#181818;stroke-width:0.5;" x1="937.5" x2="1152.5" y1="424.6094" y2="424.6094"/></g><!--class VenteService--><g id="elem_VenteService"><rect codeLine="26" fill="#F1F1F1" height="48" id="VenteService" rx="2.5" ry="2.5" style="stroke:#181818;stroke-width:0.5;" width="116" x="1189" y="384.6094"/><ellipse cx="1204" cy="400.6094" fill="#ADD1B2" rx="11" ry="11" style="stroke:#181818;stroke-width:1.0;"/><path d="M1206.7656,396.4844 Q1206.9219,396.2656 1207.1094,396.1563 Q1207.2969,396.0469 1207.5156,396.0469 Q1207.8906,396.0469 1208.125,396.3125 Q1208.3594,396.5625 1208.3594,397.1719 L1208.3594,398.625 Q1208.3594,399.2344 1208.125,399.5 Q1207.8906,399.7656 1207.5156,399.7656 Q1207.1719,399.7656 1206.9688,399.5625 Q1206.7656,399.375 1206.6563,398.8594 Q1206.6094,398.5 1206.4219,398.3125 Q1206.0938,397.9375 1205.4844,397.7188 Q1204.875,397.5 1204.25,397.5 Q1203.4844,397.5 1202.8438,397.8281 Q1202.2188,398.1563 1201.7188,398.9063 Q1201.2344,399.6563 1201.2344,400.6875 L1201.2344,401.7813 Q1201.2344,403.0156 1202.125,403.8438 Q1203.0156,404.6563 1204.6094,404.6563 Q1205.5469,404.6563 1206.2031,404.4063 Q1206.5938,404.25 1207.0156,403.8125 Q1207.2813,403.5469 1207.4219,403.4688 Q1207.5781,403.3906 1207.7813,403.3906 Q1208.1094,403.3906 1208.3594,403.6563 Q1208.625,403.9063 1208.625,404.25 Q1208.625,404.5938 1208.2813,405 Q1207.7813,405.5781 1206.9844,405.9063 Q1205.9063,406.3594 1204.6094,406.3594 Q1203.0938,406.3594 1201.8906,405.7344 Q1200.9063,405.2344 1200.2188,404.1719 Q1199.5313,403.0938 1199.5313,401.8125 L1199.5313,400.6563 Q1199.5313,399.3281 1200.1406,398.1875 Q1200.7656,397.0313 1201.8594,396.4219 Q1202.9531,395.7969 1204.1875,395.7969 Q1204.9219,395.7969 1205.5625,395.9688 Q1206.2188,396.125 1206.7656,396.4844 Z " fill="#000000"/><text fill="#000000" font-family="sans-serif" font-size="14" lengthAdjust="spacing" textLength="84" x="1218" y="406.3379">VenteService</text><line style="stroke:#181818;stroke-width:0.5;" x1="1190" x2="1304" y1="416.6094" y2="416.6094"/><line style="stroke:#181818;stroke-width:0.5;" x1="1190" x2="1304" y1="424.6094" y2="424.6094"/></g><!--class MagasinDbContext--><g id="elem_MagasinDbContext"><rect codeLine="30" fill="#F1F1F1" height="48" id="MagasinDbContext" rx="2.5" ry="2.5" style="stroke:#181818;stroke-width:0.5;" width="151" x="728.5" y="168.6094"/><ellipse cx="743.5" cy="184.6094" fill="#ADD1B2" rx="11" ry="11" style="stroke:#181818;stroke-width:1.0;"/><path d="M746.2656,180.4844 Q746.4219,180.2656 746.6094,180.1563 Q746.7969,180.0469 747.0156,180.0469 Q747.3906,180.0469 747.625,180.3125 Q747.8594,180.5625 747.8594,181.1719 L747.8594,182.625 Q747.8594,183.2344 747.625,183.5 Q747.3906,183.7656 747.0156,183.7656 Q746.6719,183.7656 746.4688,183.5625 Q746.2656,183.375 746.1563,182.8594 Q746.1094,182.5 745.9219,182.3125 Q745.5938,181.9375 744.9844,181.7188 Q744.375,181.5 743.75,181.5 Q742.9844,181.5 742.3438,181.8281 Q741.7188,182.1563 741.2188,182.9063 Q740.7344,183.6563 740.7344,184.6875 L740.7344,185.7813 Q740.7344,187.0156 741.625,187.8438 Q742.5156,188.6563 744.1094,188.6563 Q745.0469,188.6563 745.7031,188.4063 Q746.0938,188.25 746.5156,187.8125 Q746.7813,187.5469 746.9219,187.4688 Q747.0781,187.3906 747.2813,187.3906 Q747.6094,187.3906 747.8594,187.6563 Q748.125,187.9063 748.125,188.25 Q748.125,188.5938 747.7813,189 Q747.2813,189.5781 746.4844,189.9063 Q745.4063,190.3594 744.1094,190.3594 Q742.5938,190.3594 741.3906,189.7344 Q740.4063,189.2344 739.7188,188.1719 Q739.0313,187.0938 739.0313,185.8125 L739.0313,184.6563 Q739.0313,183.3281 739.6406,182.1875 Q740.2656,181.0313 741.3594,180.4219 Q742.4531,179.7969 743.6875,179.7969 Q744.4219,179.7969 745.0625,179.9688 Q745.7188,180.125 746.2656,180.4844 Z " fill="#000000"/><text fill="#000000" font-family="sans-serif" font-size="14" lengthAdjust="spacing" textLength="119" x="757.5" y="190.3379">MagasinDbContext</text><line style="stroke:#181818;stroke-width:0.5;" x1="729.5" x2="878.5" y1="200.6094" y2="200.6094"/><line style="stroke:#181818;stroke-width:0.5;" x1="729.5" x2="878.5" y1="208.6094" y2="208.6094"/></g><!--class DataSeeder--><g id="elem_DataSeeder"><rect codeLine="31" fill="#F1F1F1" height="48" id="DataSeeder" rx="2.5" ry="2.5" style="stroke:#181818;stroke-width:0.5;" width="108" x="585" y="168.6094"/><ellipse cx="600" cy="184.6094" fill="#ADD1B2" rx="11" ry="11" style="stroke:#181818;stroke-width:1.0;"/><path d="M602.7656,180.4844 Q602.9219,180.2656 603.1094,180.1563 Q603.2969,180.0469 603.5156,180.0469 Q603.8906,180.0469 604.125,180.3125 Q604.3594,180.5625 604.3594,181.1719 L604.3594,182.625 Q604.3594,183.2344 604.125,183.5 Q603.8906,183.7656 603.5156,183.7656 Q603.1719,183.7656 602.9688,183.5625 Q602.7656,183.375 602.6563,182.8594 Q602.6094,182.5 602.4219,182.3125 Q602.0938,181.9375 601.4844,181.7188 Q600.875,181.5 600.25,181.5 Q599.4844,181.5 598.8438,181.8281 Q598.2188,182.1563 597.7188,182.9063 Q597.2344,183.6563 597.2344,184.6875 L597.2344,185.7813 Q597.2344,187.0156 598.125,187.8438 Q599.0156,188.6563 600.6094,188.6563 Q601.5469,188.6563 602.2031,188.4063 Q602.5938,188.25 603.0156,187.8125 Q603.2813,187.5469 603.4219,187.4688 Q603.5781,187.3906 603.7813,187.3906 Q604.1094,187.3906 604.3594,187.6563 Q604.625,187.9063 604.625,188.25 Q604.625,188.5938 604.2813,189 Q603.7813,189.5781 602.9844,189.9063 Q601.9063,190.3594 600.6094,190.3594 Q599.0938,190.3594 597.8906,189.7344 Q596.9063,189.2344 596.2188,188.1719 Q595.5313,187.0938 595.5313,185.8125 L595.5313,184.6563 Q595.5313,183.3281 596.1406,182.1875 Q596.7656,181.0313 597.8594,180.4219 Q598.9531,179.7969 600.1875,179.7969 Q600.9219,179.7969 601.5625,179.9688 Q602.2188,180.125 602.7656,180.4844 Z " fill="#000000"/><text fill="#000000" font-family="sans-serif" font-size="14" lengthAdjust="spacing" textLength="76" x="614" y="190.3379">DataSeeder</text><line style="stroke:#181818;stroke-width:0.5;" x1="586" x2="692" y1="200.6094" y2="200.6094"/><line style="stroke:#181818;stroke-width:0.5;" x1="586" x2="692" y1="208.6094" y2="208.6094"/></g><!--class DemandeReapprovisionnement--><g id="elem_DemandeReapprovisionnement"><rect codeLine="35" fill="#F1F1F1" height="48" id="DemandeReapprovisionnement" rx="2.5" ry="2.5" style="stroke:#181818;stroke-width:0.5;" width="231" x="46.5" y="168.6094"/><ellipse cx="61.5" cy="184.6094" fill="#ADD1B2" rx="11" ry="11" style="stroke:#181818;stroke-width:1.0;"/><path d="M64.2656,180.4844 Q64.4219,180.2656 64.6094,180.1563 Q64.7969,180.0469 65.0156,180.0469 Q65.3906,180.0469 65.625,180.3125 Q65.8594,180.5625 65.8594,181.1719 L65.8594,182.625 Q65.8594,183.2344 65.625,183.5 Q65.3906,183.7656 65.0156,183.7656 Q64.6719,183.7656 64.4688,183.5625 Q64.2656,183.375 64.1563,182.8594 Q64.1094,182.5 63.9219,182.3125 Q63.5938,181.9375 62.9844,181.7188 Q62.375,181.5 61.75,181.5 Q60.9844,181.5 60.3438,181.8281 Q59.7188,182.1563 59.2188,182.9063 Q58.7344,183.6563 58.7344,184.6875 L58.7344,185.7813 Q58.7344,187.0156 59.625,187.8438 Q60.5156,188.6563 62.1094,188.6563 Q63.0469,188.6563 63.7031,188.4063 Q64.0938,188.25 64.5156,187.8125 Q64.7813,187.5469 64.9219,187.4688 Q65.0781,187.3906 65.2813,187.3906 Q65.6094,187.3906 65.8594,187.6563 Q66.125,187.9063 66.125,188.25 Q66.125,188.5938 65.7813,189 Q65.2813,189.5781 64.4844,189.9063 Q63.4063,190.3594 62.1094,190.3594 Q60.5938,190.3594 59.3906,189.7344 Q58.4063,189.2344 57.7188,188.1719 Q57.0313,187.0938 57.0313,185.8125 L57.0313,184.6563 Q57.0313,183.3281 57.6406,182.1875 Q58.2656,181.0313 59.3594,180.4219 Q60.4531,179.7969 61.6875,179.7969 Q62.4219,179.7969 63.0625,179.9688 Q63.7188,180.125 64.2656,180.4844 Z " fill="#000000"/><text fill="#000000" font-family="sans-serif" font-size="14" lengthAdjust="spacing" textLength="199" x="75.5" y="190.3379">DemandeReapprovisionnement</text><line style="stroke:#181818;stroke-width:0.5;" x1="47.5" x2="276.5" y1="200.6094" y2="200.6094"/><line style="stroke:#181818;stroke-width:0.5;" x1="47.5" x2="276.5" y1="208.6094" y2="208.6094"/></g><!--class Produit--><g id="elem_Produit"><rect codeLine="36" fill="#F1F1F1" height="48" id="Produit" rx="2.5" ry="2.5" style="stroke:#181818;stroke-width:0.5;" width="77" x="312.5" y="168.6094"/><ellipse cx="327.5" cy="184.6094" fill="#ADD1B2" rx="11" ry="11" style="stroke:#181818;stroke-width:1.0;"/><path d="M330.2656,180.4844 Q330.4219,180.2656 330.6094,180.1563 Q330.7969,180.0469 331.0156,180.0469 Q331.3906,180.0469 331.625,180.3125 Q331.8594,180.5625 331.8594,181.1719 L331.8594,182.625 Q331.8594,183.2344 331.625,183.5 Q331.3906,183.7656 331.0156,183.7656 Q330.6719,183.7656 330.4688,183.5625 Q330.2656,183.375 330.1563,182.8594 Q330.1094,182.5 329.9219,182.3125 Q329.5938,181.9375 328.9844,181.7188 Q328.375,181.5 327.75,181.5 Q326.9844,181.5 326.3438,181.8281 Q325.7188,182.1563 325.2188,182.9063 Q324.7344,183.6563 324.7344,184.6875 L324.7344,185.7813 Q324.7344,187.0156 325.625,187.8438 Q326.5156,188.6563 328.1094,188.6563 Q329.0469,188.6563 329.7031,188.4063 Q330.0938,188.25 330.5156,187.8125 Q330.7813,187.5469 330.9219,187.4688 Q331.0781,187.3906 331.2813,187.3906 Q331.6094,187.3906 331.8594,187.6563 Q332.125,187.9063 332.125,188.25 Q332.125,188.5938 331.7813,189 Q331.2813,189.5781 330.4844,189.9063 Q329.4063,190.3594 328.1094,190.3594 Q326.5938,190.3594 325.3906,189.7344 Q324.4063,189.2344 323.7188,188.1719 Q323.0313,187.0938 323.0313,185.8125 L323.0313,184.6563 Q323.0313,183.3281 323.6406,182.1875 Q324.2656,181.0313 325.3594,180.4219 Q326.4531,179.7969 327.6875,179.7969 Q328.4219,179.7969 329.0625,179.9688 Q329.7188,180.125 330.2656,180.4844 Z " fill="#000000"/><text fill="#000000" font-family="sans-serif" font-size="14" lengthAdjust="spacing" textLength="45" x="341.5" y="190.3379">Produit</text><line style="stroke:#181818;stroke-width:0.5;" x1="313.5" x2="388.5" y1="200.6094" y2="200.6094"/><line style="stroke:#181818;stroke-width:0.5;" x1="313.5" x2="388.5" y1="208.6094" y2="208.6094"/></g><!--class LigneVente--><g id="elem_LigneVente"><rect codeLine="37" fill="#F1F1F1" height="48" id="LigneVente" rx="2.5" ry="2.5" style="stroke:#181818;stroke-width:0.5;" width="104" x="425" y="168.6094"/><ellipse cx="440" cy="184.6094" fill="#ADD1B2" rx="11" ry="11" style="stroke:#181818;stroke-width:1.0;"/><path d="M442.7656,180.4844 Q442.9219,180.2656 443.1094,180.1563 Q443.2969,180.0469 443.5156,180.0469 Q443.8906,180.0469 444.125,180.3125 Q444.3594,180.5625 444.3594,181.1719 L444.3594,182.625 Q444.3594,183.2344 444.125,183.5 Q443.8906,183.7656 443.5156,183.7656 Q443.1719,183.7656 442.9688,183.5625 Q442.7656,183.375 442.6563,182.8594 Q442.6094,182.5 442.4219,182.3125 Q442.0938,181.9375 441.4844,181.7188 Q440.875,181.5 440.25,181.5 Q439.4844,181.5 438.8438,181.8281 Q438.2188,182.1563 437.7188,182.9063 Q437.2344,183.6563 437.2344,184.6875 L437.2344,185.7813 Q437.2344,187.0156 438.125,187.8438 Q439.0156,188.6563 440.6094,188.6563 Q441.5469,188.6563 442.2031,188.4063 Q442.5938,188.25 443.0156,187.8125 Q443.2813,187.5469 443.4219,187.4688 Q443.5781,187.3906 443.7813,187.3906 Q444.1094,187.3906 444.3594,187.6563 Q444.625,187.9063 444.625,188.25 Q444.625,188.5938 444.2813,189 Q443.7813,189.5781 442.9844,189.9063 Q441.9063,190.3594 440.6094,190.3594 Q439.0938,190.3594 437.8906,189.7344 Q436.9063,189.2344 436.2188,188.1719 Q435.5313,187.0938 435.5313,185.8125 L435.5313,184.6563 Q435.5313,183.3281 436.1406,182.1875 Q436.7656,181.0313 437.8594,180.4219 Q438.9531,179.7969 440.1875,179.7969 Q440.9219,179.7969 441.5625,179.9688 Q442.2188,180.125 442.7656,180.4844 Z " fill="#000000"/><text fill="#000000" font-family="sans-serif" font-size="14" lengthAdjust="spacing" textLength="72" x="454" y="190.3379">LigneVente</text><line style="stroke:#181818;stroke-width:0.5;" x1="426" x2="528" y1="200.6094" y2="200.6094"/><line style="stroke:#181818;stroke-width:0.5;" x1="426" x2="528" y1="208.6094" y2="208.6094"/></g><!--class Magasin--><g id="elem_Magasin"><rect codeLine="38" fill="#F1F1F1" height="48" id="Magasin" rx="2.5" ry="2.5" style="stroke:#181818;stroke-width:0.5;" width="85" x="95.5" y="276.6094"/><ellipse cx="110.5" cy="292.6094" fill="#ADD1B2" rx="11" ry="11" style="stroke:#181818;stroke-width:1.0;"/><path d="M113.2656,288.4844 Q113.4219,288.2656 113.6094,288.1563 Q113.7969,288.0469 114.0156,288.0469 Q114.3906,288.0469 114.625,288.3125 Q114.8594,288.5625 114.8594,289.1719 L114.8594,290.625 Q114.8594,291.2344 114.625,291.5 Q114.3906,291.7656 114.0156,291.7656 Q113.6719,291.7656 113.4688,291.5625 Q113.2656,291.375 113.1563,290.8594 Q113.1094,290.5 112.9219,290.3125 Q112.5938,289.9375 111.9844,289.7188 Q111.375,289.5 110.75,289.5 Q109.9844,289.5 109.3438,289.8281 Q108.7188,290.1563 108.2188,290.9063 Q107.7344,291.6563 107.7344,292.6875 L107.7344,293.7813 Q107.7344,295.0156 108.625,295.8438 Q109.5156,296.6563 111.1094,296.6563 Q112.0469,296.6563 112.7031,296.4063 Q113.0938,296.25 113.5156,295.8125 Q113.7813,295.5469 113.9219,295.4688 Q114.0781,295.3906 114.2813,295.3906 Q114.6094,295.3906 114.8594,295.6563 Q115.125,295.9063 115.125,296.25 Q115.125,296.5938 114.7813,297 Q114.2813,297.5781 113.4844,297.9063 Q112.4063,298.3594 111.1094,298.3594 Q109.5938,298.3594 108.3906,297.7344 Q107.4063,297.2344 106.7188,296.1719 Q106.0313,295.0938 106.0313,293.8125 L106.0313,292.6563 Q106.0313,291.3281 106.6406,290.1875 Q107.2656,289.0313 108.3594,288.4219 Q109.4531,287.7969 110.6875,287.7969 Q111.4219,287.7969 112.0625,287.9688 Q112.7188,288.125 113.2656,288.4844 Z " fill="#000000"/><text fill="#000000" font-family="sans-serif" font-size="14" lengthAdjust="spacing" textLength="53" x="124.5" y="298.3379">Magasin</text><line style="stroke:#181818;stroke-width:0.5;" x1="96.5" x2="179.5" y1="308.6094" y2="308.6094"/><line style="stroke:#181818;stroke-width:0.5;" x1="96.5" x2="179.5" y1="316.6094" y2="316.6094"/></g><!--class MagasinStockProduit--><g id="elem_MagasinStockProduit"><rect codeLine="39" fill="#F1F1F1" height="48" id="MagasinStockProduit" rx="2.5" ry="2.5" style="stroke:#181818;stroke-width:0.5;" width="165" x="215.5" y="276.6094"/><ellipse cx="230.5" cy="292.6094" fill="#ADD1B2" rx="11" ry="11" style="stroke:#181818;stroke-width:1.0;"/><path d="M233.2656,288.4844 Q233.4219,288.2656 233.6094,288.1563 Q233.7969,288.0469 234.0156,288.0469 Q234.3906,288.0469 234.625,288.3125 Q234.8594,288.5625 234.8594,289.1719 L234.8594,290.625 Q234.8594,291.2344 234.625,291.5 Q234.3906,291.7656 234.0156,291.7656 Q233.6719,291.7656 233.4688,291.5625 Q233.2656,291.375 233.1563,290.8594 Q233.1094,290.5 232.9219,290.3125 Q232.5938,289.9375 231.9844,289.7188 Q231.375,289.5 230.75,289.5 Q229.9844,289.5 229.3438,289.8281 Q228.7188,290.1563 228.2188,290.9063 Q227.7344,291.6563 227.7344,292.6875 L227.7344,293.7813 Q227.7344,295.0156 228.625,295.8438 Q229.5156,296.6563 231.1094,296.6563 Q232.0469,296.6563 232.7031,296.4063 Q233.0938,296.25 233.5156,295.8125 Q233.7813,295.5469 233.9219,295.4688 Q234.0781,295.3906 234.2813,295.3906 Q234.6094,295.3906 234.8594,295.6563 Q235.125,295.9063 235.125,296.25 Q235.125,296.5938 234.7813,297 Q234.2813,297.5781 233.4844,297.9063 Q232.4063,298.3594 231.1094,298.3594 Q229.5938,298.3594 228.3906,297.7344 Q227.4063,297.2344 226.7188,296.1719 Q226.0313,295.0938 226.0313,293.8125 L226.0313,292.6563 Q226.0313,291.3281 226.6406,290.1875 Q227.2656,289.0313 228.3594,288.4219 Q229.4531,287.7969 230.6875,287.7969 Q231.4219,287.7969 232.0625,287.9688 Q232.7188,288.125 233.2656,288.4844 Z " fill="#000000"/><text fill="#000000" font-family="sans-serif" font-size="14" lengthAdjust="spacing" textLength="133" x="244.5" y="298.3379">MagasinStockProduit</text><line style="stroke:#181818;stroke-width:0.5;" x1="216.5" x2="379.5" y1="308.6094" y2="308.6094"/><line style="stroke:#181818;stroke-width:0.5;" x1="216.5" x2="379.5" y1="316.6094" y2="316.6094"/></g><!--class StockCentral--><g id="elem_StockCentral"><rect codeLine="40" fill="#F1F1F1" height="48" id="StockCentral" rx="2.5" ry="2.5" style="stroke:#181818;stroke-width:0.5;" width="113" x="415.5" y="276.6094"/><ellipse cx="430.5" cy="292.6094" fill="#ADD1B2" rx="11" ry="11" style="stroke:#181818;stroke-width:1.0;"/><path d="M433.2656,288.4844 Q433.4219,288.2656 433.6094,288.1563 Q433.7969,288.0469 434.0156,288.0469 Q434.3906,288.0469 434.625,288.3125 Q434.8594,288.5625 434.8594,289.1719 L434.8594,290.625 Q434.8594,291.2344 434.625,291.5 Q434.3906,291.7656 434.0156,291.7656 Q433.6719,291.7656 433.4688,291.5625 Q433.2656,291.375 433.1563,290.8594 Q433.1094,290.5 432.9219,290.3125 Q432.5938,289.9375 431.9844,289.7188 Q431.375,289.5 430.75,289.5 Q429.9844,289.5 429.3438,289.8281 Q428.7188,290.1563 428.2188,290.9063 Q427.7344,291.6563 427.7344,292.6875 L427.7344,293.7813 Q427.7344,295.0156 428.625,295.8438 Q429.5156,296.6563 431.1094,296.6563 Q432.0469,296.6563 432.7031,296.4063 Q433.0938,296.25 433.5156,295.8125 Q433.7813,295.5469 433.9219,295.4688 Q434.0781,295.3906 434.2813,295.3906 Q434.6094,295.3906 434.8594,295.6563 Q435.125,295.9063 435.125,296.25 Q435.125,296.5938 434.7813,297 Q434.2813,297.5781 433.4844,297.9063 Q432.4063,298.3594 431.1094,298.3594 Q429.5938,298.3594 428.3906,297.7344 Q427.4063,297.2344 426.7188,296.1719 Q426.0313,295.0938 426.0313,293.8125 L426.0313,292.6563 Q426.0313,291.3281 426.6406,290.1875 Q427.2656,289.0313 428.3594,288.4219 Q429.4531,287.7969 430.6875,287.7969 Q431.4219,287.7969 432.0625,287.9688 Q432.7188,288.125 433.2656,288.4844 Z " fill="#000000"/><text fill="#000000" font-family="sans-serif" font-size="14" lengthAdjust="spacing" textLength="81" x="444.5" y="298.3379">StockCentral</text><line style="stroke:#181818;stroke-width:0.5;" x1="416.5" x2="527.5" y1="308.6094" y2="308.6094"/><line style="stroke:#181818;stroke-width:0.5;" x1="416.5" x2="527.5" y1="316.6094" y2="316.6094"/></g><!--class Vente--><g id="elem_Vente"><rect codeLine="41" fill="#F1F1F1" height="48" id="Vente" rx="2.5" ry="2.5" style="stroke:#181818;stroke-width:0.5;" width="69" x="103.5" y="384.6094"/><ellipse cx="118.5" cy="400.6094" fill="#ADD1B2" rx="11" ry="11" style="stroke:#181818;stroke-width:1.0;"/><path d="M121.2656,396.4844 Q121.4219,396.2656 121.6094,396.1563 Q121.7969,396.0469 122.0156,396.0469 Q122.3906,396.0469 122.625,396.3125 Q122.8594,396.5625 122.8594,397.1719 L122.8594,398.625 Q122.8594,399.2344 122.625,399.5 Q122.3906,399.7656 122.0156,399.7656 Q121.6719,399.7656 121.4688,399.5625 Q121.2656,399.375 121.1563,398.8594 Q121.1094,398.5 120.9219,398.3125 Q120.5938,397.9375 119.9844,397.7188 Q119.375,397.5 118.75,397.5 Q117.9844,397.5 117.3438,397.8281 Q116.7188,398.1563 116.2188,398.9063 Q115.7344,399.6563 115.7344,400.6875 L115.7344,401.7813 Q115.7344,403.0156 116.625,403.8438 Q117.5156,404.6563 119.1094,404.6563 Q120.0469,404.6563 120.7031,404.4063 Q121.0938,404.25 121.5156,403.8125 Q121.7813,403.5469 121.9219,403.4688 Q122.0781,403.3906 122.2813,403.3906 Q122.6094,403.3906 122.8594,403.6563 Q123.125,403.9063 123.125,404.25 Q123.125,404.5938 122.7813,405 Q122.2813,405.5781 121.4844,405.9063 Q120.4063,406.3594 119.1094,406.3594 Q117.5938,406.3594 116.3906,405.7344 Q115.4063,405.2344 114.7188,404.1719 Q114.0313,403.0938 114.0313,401.8125 L114.0313,400.6563 Q114.0313,399.3281 114.6406,398.1875 Q115.2656,397.0313 116.3594,396.4219 Q117.4531,395.7969 118.6875,395.7969 Q119.4219,395.7969 120.0625,395.9688 Q120.7188,396.125 121.2656,396.4844 Z " fill="#000000"/><text fill="#000000" font-family="sans-serif" font-size="14" lengthAdjust="spacing" textLength="37" x="132.5" y="406.3379">Vente</text><line style="stroke:#181818;stroke-width:0.5;" x1="104.5" x2="171.5" y1="416.6094" y2="416.6094"/><line style="stroke:#181818;stroke-width:0.5;" x1="104.5" x2="171.5" y1="424.6094" y2="424.6094"/></g><!--SRC=[VLD1ReCm4BppYbNkxIVWKgb8g5JqlC06MJ4ijPUeKfM_rm6JWElaw9sPrSoiB4eqGJKHj0G5Vayay08vTcZL02aDOb0dmYC8GyqYt4Eh33MYU4YI4PiJTWG7h_22ro-gyoezm6y2i79ITXXhJSRESu16exLG66ud9NTuWttWEBA9OmMP8viUXuPiN4nERVYihFCwKE-yHNcV1fMGoSZjQX_igfoOTiWbkJpENv8vA-ThQK0vhJbYG_3cmtfyZ_cmKMmRDYx-7pRAcuEiI1BSuAxOrH-EusOUbXvITXQUb9YXu5BWelDmLb_lG3zo0wx4agXrTtcoBkUMjDqkz1UFM0wBkRtVLJVG722q5RvBuUOKokVX-gjsVJZdVm00]--></g></svg>