<?xml version="1.0" encoding="us-ascii" standalone="no"?><svg xmlns="http://www.w3.org/2000/svg" xmlns:xlink="http://www.w3.org/1999/xlink" contentStyleType="text/css" height="539px" preserveAspectRatio="none" style="width:2042px;height:539px;background:#FFFFFF;" version="1.1" viewBox="0 0 2042 539" width="2042px" zoomAndPan="magnify"><defs/><g><text fill="#000000" font-family="sans-serif" font-size="14" font-weight="bold" lengthAdjust="spacing" textLength="215" x="906.5" y="24.5332">Vue Logique - Magasin Central</text><!--cluster MagasinCentral--><g id="cluster_MagasinCentral"><path d="M8.5,44.6094 L119.5,44.6094 A3.75,3.75 0 0 1 122,47.1094 L129,68.2188 L2032.5,68.2188 A2.5,2.5 0 0 1 2035,70.7188 L2035,530.1094 A2.5,2.5 0 0 1 2032.5,532.6094 L8.5,532.6094 A2.5,2.5 0 0 1 6,530.1094 L6,47.1094 A2.5,2.5 0 0 1 8.5,44.6094 " fill="none" style="stroke:#000000;stroke-width:1.5;"/><line style="stroke:#000000;stroke-width:1.5;" x1="6" x2="129" y1="68.2188" y2="68.2188"/><text fill="#000000" font-family="sans-serif" font-size="14" font-weight="bold" lengthAdjust="spacing" textLength="110" x="10" y="61.1426">MagasinCentral</text></g><!--cluster Models--><g id="cluster_Models"><path d="M1217.5,88.6094 L1270.5,88.6094 A3.75,3.75 0 0 1 1273,91.1094 L1280,112.2188 L2008.5,112.2188 A2.5,2.5 0 0 1 2011,114.7188 L2011,506.1094 A2.5,2.5 0 0 1 2008.5,508.6094 L1217.5,508.6094 A2.5,2.5 0 0 1 1215,506.1094 L1215,91.1094 A2.5,2.5 0 0 1 1217.5,88.6094 " fill="none" style="stroke:#000000;stroke-width:1.5;"/><line style="stroke:#000000;stroke-width:1.5;" x1="1215" x2="1280" y1="112.2188" y2="112.2188"/><text fill="#000000" font-family="sans-serif" font-size="14" font-weight="bold" lengthAdjust="spacing" textLength="52" x="1219" y="105.1426">Models</text></g><!--cluster Controllers--><g id="cluster_Controllers"><path d="M602.5,132.6094 L682.5,132.6094 A3.75,3.75 0 0 1 685,135.1094 L692,156.2188 L1188.5,156.2188 A2.5,2.5 0 0 1 1191,158.7188 L1191,453.1094 A2.5,2.5 0 0 1 1188.5,455.6094 L602.5,455.6094 A2.5,2.5 0 0 1 600,453.1094 L600,135.1094 A2.5,2.5 0 0 1 602.5,132.6094 " fill="none" style="stroke:#000000;stroke-width:1.5;"/><line style="stroke:#000000;stroke-width:1.5;" x1="600" x2="692" y1="156.2188" y2="156.2188"/><text fill="#000000" font-family="sans-serif" font-size="14" font-weight="bold" lengthAdjust="spacing" textLength="79" x="604" y="149.1426">Controllers</text></g><!--cluster Services--><g id="cluster_Services"><path d="M32.5,132.6094 L95.5,132.6094 A3.75,3.75 0 0 1 98,135.1094 L105,156.2188 L573.5,156.2188 A2.5,2.5 0 0 1 576,158.7188 L576,453.1094 A2.5,2.5 0 0 1 573.5,455.6094 L32.5,455.6094 A2.5,2.5 0 0 1 30,453.1094 L30,135.1094 A2.5,2.5 0 0 1 32.5,132.6094 " fill="none" style="stroke:#000000;stroke-width:1.5;"/><line style="stroke:#000000;stroke-width:1.5;" x1="30" x2="105" y1="156.2188" y2="156.2188"/><text fill="#000000" font-family="sans-serif" font-size="14" font-weight="bold" lengthAdjust="spacing" textLength="62" x="34" y="149.1426">Services</text></g><!--class Produit--><g id="elem_Produit"><rect codeLine="10" fill="#FFFFFF" height="136.0469" id="Produit" rx="2.5" ry="2.5" style="stroke:#181818;stroke-width:0.5;" width="136" x="1689" y="124.6094"/><ellipse cx="1730.55" cy="140.6094" fill="#ADD1B2" rx="11" ry="11" style="stroke:#181818;stroke-width:1.0;"/><path d="M1733.3156,136.4844 Q1733.4719,136.2656 1733.6594,136.1563 Q1733.8469,136.0469 1734.0656,136.0469 Q1734.4406,136.0469 1734.675,136.3125 Q1734.9094,136.5625 1734.9094,137.1719 L1734.9094,138.625 Q1734.9094,139.2344 1734.675,139.5 Q1734.4406,139.7656 1734.0656,139.7656 Q1733.7219,139.7656 1733.5188,139.5625 Q1733.3156,139.375 1733.2063,138.8594 Q1733.1594,138.5 1732.9719,138.3125 Q1732.6438,137.9375 1732.0344,137.7188 Q1731.425,137.5 1730.8,137.5 Q1730.0344,137.5 1729.3938,137.8281 Q1728.7688,138.1563 1728.2688,138.9063 Q1727.7844,139.6563 1727.7844,140.6875 L1727.7844,141.7813 Q1727.7844,143.0156 1728.675,143.8438 Q1729.5656,144.6563 1731.1594,144.6563 Q1732.0969,144.6563 1732.7531,144.4063 Q1733.1438,144.25 1733.5656,143.8125 Q1733.8313,143.5469 1733.9719,143.4688 Q1734.1281,143.3906 1734.3313,143.3906 Q1734.6594,143.3906 1734.9094,143.6563 Q1735.175,143.9063 1735.175,144.25 Q1735.175,144.5938 1734.8313,145 Q1734.3313,145.5781 1733.5344,145.9063 Q1732.4563,146.3594 1731.1594,146.3594 Q1729.6438,146.3594 1728.4406,145.7344 Q1727.4563,145.2344 1726.7688,144.1719 Q1726.0813,143.0938 1726.0813,141.8125 L1726.0813,140.6563 Q1726.0813,139.3281 1726.6906,138.1875 Q1727.3156,137.0313 1728.4094,136.4219 Q1729.5031,135.7969 1730.7375,135.7969 Q1731.4719,135.7969 1732.1125,135.9688 Q1732.7688,136.125 1733.3156,136.4844 Z " fill="#000000"/><text fill="#000000" font-family="sans-serif" font-size="14" lengthAdjust="spacing" textLength="45" x="1750.45" y="146.3379">Produit</text><line style="stroke:#181818;stroke-width:0.5;" x1="1690" x2="1824" y1="156.6094" y2="156.6094"/><ellipse cx="1700" cy="170.9141" fill="none" rx="3" ry="3" style="stroke:#038048;stroke-width:1.0;"/><text fill="#000000" font-family="sans-serif" font-size="14" lengthAdjust="spacing" textLength="75" x="1709" y="175.1426">int ProduitId</text><ellipse cx="1700" cy="188.5234" fill="none" rx="3" ry="3" style="stroke:#038048;stroke-width:1.0;"/><text fill="#000000" font-family="sans-serif" font-size="14" lengthAdjust="spacing" textLength="67" x="1709" y="192.752">string Nom</text><ellipse cx="1700" cy="206.1328" fill="none" rx="3" ry="3" style="stroke:#038048;stroke-width:1.0;"/><text fill="#000000" font-family="sans-serif" font-size="14" lengthAdjust="spacing" textLength="101" x="1709" y="210.3613">string Categorie</text><ellipse cx="1700" cy="223.7422" fill="none" rx="3" ry="3" style="stroke:#038048;stroke-width:1.0;"/><text fill="#000000" font-family="sans-serif" font-size="14" lengthAdjust="spacing" textLength="75" x="1709" y="227.9707">decimal Prix</text><ellipse cx="1700" cy="241.3516" fill="none" rx="3" ry="3" style="stroke:#038048;stroke-width:1.0;"/><text fill="#000000" font-family="sans-serif" font-size="14" lengthAdjust="spacing" textLength="110" x="1709" y="245.5801">string Description</text><line style="stroke:#181818;stroke-width:0.5;" x1="1690" x2="1824" y1="252.6563" y2="252.6563"/></g><!--class Magasin--><g id="elem_Magasin"><rect codeLine="17" fill="#FFFFFF" height="100.8281" id="Magasin" rx="2.5" ry="2.5" style="stroke:#181818;stroke-width:0.5;" width="117" x="1521.5" y="142.1094"/><ellipse cx="1550.9" cy="158.1094" fill="#ADD1B2" rx="11" ry="11" style="stroke:#181818;stroke-width:1.0;"/><path d="M1553.6656,153.9844 Q1553.8219,153.7656 1554.0094,153.6563 Q1554.1969,153.5469 1554.4156,153.5469 Q1554.7906,153.5469 1555.025,153.8125 Q1555.2594,154.0625 1555.2594,154.6719 L1555.2594,156.125 Q1555.2594,156.7344 1555.025,157 Q1554.7906,157.2656 1554.4156,157.2656 Q1554.0719,157.2656 1553.8688,157.0625 Q1553.6656,156.875 1553.5563,156.3594 Q1553.5094,156 1553.3219,155.8125 Q1552.9938,155.4375 1552.3844,155.2188 Q1551.775,155 1551.15,155 Q1550.3844,155 1549.7438,155.3281 Q1549.1188,155.6563 1548.6188,156.4063 Q1548.1344,157.1563 1548.1344,158.1875 L1548.1344,159.2813 Q1548.1344,160.5156 1549.025,161.3438 Q1549.9156,162.1563 1551.5094,162.1563 Q1552.4469,162.1563 1553.1031,161.9063 Q1553.4938,161.75 1553.9156,161.3125 Q1554.1813,161.0469 1554.3219,160.9688 Q1554.4781,160.8906 1554.6813,160.8906 Q1555.0094,160.8906 1555.2594,161.1563 Q1555.525,161.4063 1555.525,161.75 Q1555.525,162.0938 1555.1813,162.5 Q1554.6813,163.0781 1553.8844,163.4063 Q1552.8063,163.8594 1551.5094,163.8594 Q1549.9938,163.8594 1548.7906,163.2344 Q1547.8063,162.7344 1547.1188,161.6719 Q1546.4313,160.5938 1546.4313,159.3125 L1546.4313,158.1563 Q1546.4313,156.8281 1547.0406,155.6875 Q1547.6656,154.5313 1548.7594,153.9219 Q1549.8531,153.2969 1551.0875,153.2969 Q1551.8219,153.2969 1552.4625,153.4688 Q1553.1188,153.625 1553.6656,153.9844 Z " fill="#000000"/><text fill="#000000" font-family="sans-serif" font-size="14" lengthAdjust="spacing" textLength="53" x="1568.1" y="163.8379">Magasin</text><line style="stroke:#181818;stroke-width:0.5;" x1="1522.5" x2="1637.5" y1="174.1094" y2="174.1094"/><ellipse cx="1532.5" cy="188.4141" fill="none" rx="3" ry="3" style="stroke:#038048;stroke-width:1.0;"/><text fill="#000000" font-family="sans-serif" font-size="14" lengthAdjust="spacing" textLength="83" x="1541.5" y="192.6426">int MagasinId</text><ellipse cx="1532.5" cy="206.0234" fill="none" rx="3" ry="3" style="stroke:#038048;stroke-width:1.0;"/><text fill="#000000" font-family="sans-serif" font-size="14" lengthAdjust="spacing" textLength="67" x="1541.5" y="210.252">string Nom</text><ellipse cx="1532.5" cy="223.6328" fill="none" rx="3" ry="3" style="stroke:#038048;stroke-width:1.0;"/><text fill="#000000" font-family="sans-serif" font-size="14" lengthAdjust="spacing" textLength="91" x="1541.5" y="227.8613">string Adresse</text><line style="stroke:#181818;stroke-width:0.5;" x1="1522.5" x2="1637.5" y1="234.9375" y2="234.9375"/></g><!--class MagasinStockProduit--><g id="elem_MagasinStockProduit"><rect codeLine="22" fill="#FFFFFF" height="100.8281" id="MagasinStockProduit" rx="2.5" ry="2.5" style="stroke:#181818;stroke-width:0.5;" width="165" x="1497.5" y="365.1094"/><ellipse cx="1512.5" cy="381.1094" fill="#ADD1B2" rx="11" ry="11" style="stroke:#181818;stroke-width:1.0;"/><path d="M1515.2656,376.9844 Q1515.4219,376.7656 1515.6094,376.6563 Q1515.7969,376.5469 1516.0156,376.5469 Q1516.3906,376.5469 1516.625,376.8125 Q1516.8594,377.0625 1516.8594,377.6719 L1516.8594,379.125 Q1516.8594,379.7344 1516.625,380 Q1516.3906,380.2656 1516.0156,380.2656 Q1515.6719,380.2656 1515.4688,380.0625 Q1515.2656,379.875 1515.1563,379.3594 Q1515.1094,379 1514.9219,378.8125 Q1514.5938,378.4375 1513.9844,378.2188 Q1513.375,378 1512.75,378 Q1511.9844,378 1511.3438,378.3281 Q1510.7188,378.6563 1510.2188,379.4063 Q1509.7344,380.1563 1509.7344,381.1875 L1509.7344,382.2813 Q1509.7344,383.5156 1510.625,384.3438 Q1511.5156,385.1563 1513.1094,385.1563 Q1514.0469,385.1563 1514.7031,384.9063 Q1515.0938,384.75 1515.5156,384.3125 Q1515.7813,384.0469 1515.9219,383.9688 Q1516.0781,383.8906 1516.2813,383.8906 Q1516.6094,383.8906 1516.8594,384.1563 Q1517.125,384.4063 1517.125,384.75 Q1517.125,385.0938 1516.7813,385.5 Q1516.2813,386.0781 1515.4844,386.4063 Q1514.4063,386.8594 1513.1094,386.8594 Q1511.5938,386.8594 1510.3906,386.2344 Q1509.4063,385.7344 1508.7188,384.6719 Q1508.0313,383.5938 1508.0313,382.3125 L1508.0313,381.1563 Q1508.0313,379.8281 1508.6406,378.6875 Q1509.2656,377.5313 1510.3594,376.9219 Q1511.4531,376.2969 1512.6875,376.2969 Q1513.4219,376.2969 1514.0625,376.4688 Q1514.7188,376.625 1515.2656,376.9844 Z " fill="#000000"/><text fill="#000000" font-family="sans-serif" font-size="14" lengthAdjust="spacing" textLength="133" x="1526.5" y="386.8379">MagasinStockProduit</text><line style="stroke:#181818;stroke-width:0.5;" x1="1498.5" x2="1661.5" y1="397.1094" y2="397.1094"/><ellipse cx="1508.5" cy="411.4141" fill="none" rx="3" ry="3" style="stroke:#038048;stroke-width:1.0;"/><text fill="#000000" font-family="sans-serif" font-size="14" lengthAdjust="spacing" textLength="83" x="1517.5" y="415.6426">int MagasinId</text><ellipse cx="1508.5" cy="429.0234" fill="none" rx="3" ry="3" style="stroke:#038048;stroke-width:1.0;"/><text fill="#000000" font-family="sans-serif" font-size="14" lengthAdjust="spacing" textLength="75" x="1517.5" y="433.252">int ProduitId</text><ellipse cx="1508.5" cy="446.6328" fill="none" rx="3" ry="3" style="stroke:#038048;stroke-width:1.0;"/><text fill="#000000" font-family="sans-serif" font-size="14" lengthAdjust="spacing" textLength="73" x="1517.5" y="450.8613">int Quantite</text><line style="stroke:#181818;stroke-width:0.5;" x1="1498.5" x2="1661.5" y1="457.9375" y2="457.9375"/></g><!--class StockCentral--><g id="elem_StockCentral"><rect codeLine="27" fill="#FFFFFF" height="83.2188" id="StockCentral" rx="2.5" ry="2.5" style="stroke:#181818;stroke-width:0.5;" width="113" x="1881.5" y="374.1094"/><ellipse cx="1896.5" cy="390.1094" fill="#ADD1B2" rx="11" ry="11" style="stroke:#181818;stroke-width:1.0;"/><path d="M1899.2656,385.9844 Q1899.4219,385.7656 1899.6094,385.6563 Q1899.7969,385.5469 1900.0156,385.5469 Q1900.3906,385.5469 1900.625,385.8125 Q1900.8594,386.0625 1900.8594,386.6719 L1900.8594,388.125 Q1900.8594,388.7344 1900.625,389 Q1900.3906,389.2656 1900.0156,389.2656 Q1899.6719,389.2656 1899.4688,389.0625 Q1899.2656,388.875 1899.1563,388.3594 Q1899.1094,388 1898.9219,387.8125 Q1898.5938,387.4375 1897.9844,387.2188 Q1897.375,387 1896.75,387 Q1895.9844,387 1895.3438,387.3281 Q1894.7188,387.6563 1894.2188,388.4063 Q1893.7344,389.1563 1893.7344,390.1875 L1893.7344,391.2813 Q1893.7344,392.5156 1894.625,393.3438 Q1895.5156,394.1563 1897.1094,394.1563 Q1898.0469,394.1563 1898.7031,393.9063 Q1899.0938,393.75 1899.5156,393.3125 Q1899.7813,393.0469 1899.9219,392.9688 Q1900.0781,392.8906 1900.2813,392.8906 Q1900.6094,392.8906 1900.8594,393.1563 Q1901.125,393.4063 1901.125,393.75 Q1901.125,394.0938 1900.7813,394.5 Q1900.2813,395.0781 1899.4844,395.4063 Q1898.4063,395.8594 1897.1094,395.8594 Q1895.5938,395.8594 1894.3906,395.2344 Q1893.4063,394.7344 1892.7188,393.6719 Q1892.0313,392.5938 1892.0313,391.3125 L1892.0313,390.1563 Q1892.0313,388.8281 1892.6406,387.6875 Q1893.2656,386.5313 1894.3594,385.9219 Q1895.4531,385.2969 1896.6875,385.2969 Q1897.4219,385.2969 1898.0625,385.4688 Q1898.7188,385.625 1899.2656,385.9844 Z " fill="#000000"/><text fill="#000000" font-family="sans-serif" font-size="14" lengthAdjust="spacing" textLength="81" x="1910.5" y="395.8379">StockCentral</text><line style="stroke:#181818;stroke-width:0.5;" x1="1882.5" x2="1993.5" y1="406.1094" y2="406.1094"/><ellipse cx="1892.5" cy="420.4141" fill="none" rx="3" ry="3" style="stroke:#038048;stroke-width:1.0;"/><text fill="#000000" font-family="sans-serif" font-size="14" lengthAdjust="spacing" textLength="75" x="1901.5" y="424.6426">int ProduitId</text><ellipse cx="1892.5" cy="438.0234" fill="none" rx="3" ry="3" style="stroke:#038048;stroke-width:1.0;"/><text fill="#000000" font-family="sans-serif" font-size="14" lengthAdjust="spacing" textLength="73" x="1901.5" y="442.252">int Quantite</text><line style="stroke:#181818;stroke-width:0.5;" x1="1882.5" x2="1993.5" y1="449.3281" y2="449.3281"/></g><!--class Vente--><g id="elem_Vente"><rect codeLine="31" fill="#FFFFFF" height="153.6563" id="Vente" rx="2.5" ry="2.5" style="stroke:#181818;stroke-width:0.5;" width="149" x="1697.5" y="338.6094"/><ellipse cx="1749.25" cy="354.6094" fill="#ADD1B2" rx="11" ry="11" style="stroke:#181818;stroke-width:1.0;"/><path d="M1752.0156,350.4844 Q1752.1719,350.2656 1752.3594,350.1563 Q1752.5469,350.0469 1752.7656,350.0469 Q1753.1406,350.0469 1753.375,350.3125 Q1753.6094,350.5625 1753.6094,351.1719 L1753.6094,352.625 Q1753.6094,353.2344 1753.375,353.5 Q1753.1406,353.7656 1752.7656,353.7656 Q1752.4219,353.7656 1752.2188,353.5625 Q1752.0156,353.375 1751.9063,352.8594 Q1751.8594,352.5 1751.6719,352.3125 Q1751.3438,351.9375 1750.7344,351.7188 Q1750.125,351.5 1749.5,351.5 Q1748.7344,351.5 1748.0938,351.8281 Q1747.4688,352.1563 1746.9688,352.9063 Q1746.4844,353.6563 1746.4844,354.6875 L1746.4844,355.7813 Q1746.4844,357.0156 1747.375,357.8438 Q1748.2656,358.6563 1749.8594,358.6563 Q1750.7969,358.6563 1751.4531,358.4063 Q1751.8438,358.25 1752.2656,357.8125 Q1752.5313,357.5469 1752.6719,357.4688 Q1752.8281,357.3906 1753.0313,357.3906 Q1753.3594,357.3906 1753.6094,357.6563 Q1753.875,357.9063 1753.875,358.25 Q1753.875,358.5938 1753.5313,359 Q1753.0313,359.5781 1752.2344,359.9063 Q1751.1563,360.3594 1749.8594,360.3594 Q1748.3438,360.3594 1747.1406,359.7344 Q1746.1563,359.2344 1745.4688,358.1719 Q1744.7813,357.0938 1744.7813,355.8125 L1744.7813,354.6563 Q1744.7813,353.3281 1745.3906,352.1875 Q1746.0156,351.0313 1747.1094,350.4219 Q1748.2031,349.7969 1749.4375,349.7969 Q1750.1719,349.7969 1750.8125,349.9688 Q1751.4688,350.125 1752.0156,350.4844 Z " fill="#000000"/><text fill="#000000" font-family="sans-serif" font-size="14" lengthAdjust="spacing" textLength="37" x="1769.75" y="360.3379">Vente</text><line style="stroke:#181818;stroke-width:0.5;" x1="1698.5" x2="1845.5" y1="370.6094" y2="370.6094"/><ellipse cx="1708.5" cy="384.9141" fill="none" rx="3" ry="3" style="stroke:#038048;stroke-width:1.0;"/><text fill="#000000" font-family="sans-serif" font-size="14" lengthAdjust="spacing" textLength="67" x="1717.5" y="389.1426">int VenteId</text><ellipse cx="1708.5" cy="402.5234" fill="none" rx="3" ry="3" style="stroke:#038048;stroke-width:1.0;"/><text fill="#000000" font-family="sans-serif" font-size="14" lengthAdjust="spacing" textLength="95" x="1717.5" y="406.752">DateTime Date</text><ellipse cx="1708.5" cy="420.1328" fill="none" rx="3" ry="3" style="stroke:#038048;stroke-width:1.0;"/><text fill="#000000" font-family="sans-serif" font-size="14" lengthAdjust="spacing" textLength="83" x="1717.5" y="424.3613">int MagasinId</text><ellipse cx="1708.5" cy="437.7422" fill="none" rx="3" ry="3" style="stroke:#038048;stroke-width:1.0;"/><text fill="#000000" font-family="sans-serif" font-size="14" lengthAdjust="spacing" textLength="75" x="1717.5" y="441.9707">int ProduitId</text><ellipse cx="1708.5" cy="455.3516" fill="none" rx="3" ry="3" style="stroke:#038048;stroke-width:1.0;"/><text fill="#000000" font-family="sans-serif" font-size="14" lengthAdjust="spacing" textLength="73" x="1717.5" y="459.5801">int Quantite</text><ellipse cx="1708.5" cy="472.9609" fill="none" rx="3" ry="3" style="stroke:#038048;stroke-width:1.0;"/><text fill="#000000" font-family="sans-serif" font-size="14" lengthAdjust="spacing" textLength="123" x="1717.5" y="477.1895">decimal PrixUnitaire</text><line style="stroke:#181818;stroke-width:0.5;" x1="1698.5" x2="1845.5" y1="484.2656" y2="484.2656"/></g><!--class DemandeReapprovisionnement--><g id="elem_DemandeReapprovisionnement"><rect codeLine="39" fill="#FFFFFF" height="153.6563" id="DemandeReapprovisionnement" rx="2.5" ry="2.5" style="stroke:#181818;stroke-width:0.5;" width="231" x="1231.5" y="338.6094"/><ellipse cx="1246.5" cy="354.6094" fill="#ADD1B2" rx="11" ry="11" style="stroke:#181818;stroke-width:1.0;"/><path d="M1249.2656,350.4844 Q1249.4219,350.2656 1249.6094,350.1563 Q1249.7969,350.0469 1250.0156,350.0469 Q1250.3906,350.0469 1250.625,350.3125 Q1250.8594,350.5625 1250.8594,351.1719 L1250.8594,352.625 Q1250.8594,353.2344 1250.625,353.5 Q1250.3906,353.7656 1250.0156,353.7656 Q1249.6719,353.7656 1249.4688,353.5625 Q1249.2656,353.375 1249.1563,352.8594 Q1249.1094,352.5 1248.9219,352.3125 Q1248.5938,351.9375 1247.9844,351.7188 Q1247.375,351.5 1246.75,351.5 Q1245.9844,351.5 1245.3438,351.8281 Q1244.7188,352.1563 1244.2188,352.9063 Q1243.7344,353.6563 1243.7344,354.6875 L1243.7344,355.7813 Q1243.7344,357.0156 1244.625,357.8438 Q1245.5156,358.6563 1247.1094,358.6563 Q1248.0469,358.6563 1248.7031,358.4063 Q1249.0938,358.25 1249.5156,357.8125 Q1249.7813,357.5469 1249.9219,357.4688 Q1250.0781,357.3906 1250.2813,357.3906 Q1250.6094,357.3906 1250.8594,357.6563 Q1251.125,357.9063 1251.125,358.25 Q1251.125,358.5938 1250.7813,359 Q1250.2813,359.5781 1249.4844,359.9063 Q1248.4063,360.3594 1247.1094,360.3594 Q1245.5938,360.3594 1244.3906,359.7344 Q1243.4063,359.2344 1242.7188,358.1719 Q1242.0313,357.0938 1242.0313,355.8125 L1242.0313,354.6563 Q1242.0313,353.3281 1242.6406,352.1875 Q1243.2656,351.0313 1244.3594,350.4219 Q1245.4531,349.7969 1246.6875,349.7969 Q1247.4219,349.7969 1248.0625,349.9688 Q1248.7188,350.125 1249.2656,350.4844 Z " fill="#000000"/><text fill="#000000" font-family="sans-serif" font-size="14" lengthAdjust="spacing" textLength="199" x="1260.5" y="360.3379">DemandeReapprovisionnement</text><line style="stroke:#181818;stroke-width:0.5;" x1="1232.5" x2="1461.5" y1="370.6094" y2="370.6094"/><ellipse cx="1242.5" cy="384.9141" fill="none" rx="3" ry="3" style="stroke:#038048;stroke-width:1.0;"/><text fill="#000000" font-family="sans-serif" font-size="14" lengthAdjust="spacing" textLength="91" x="1251.5" y="389.1426">int DemandeId</text><ellipse cx="1242.5" cy="402.5234" fill="none" rx="3" ry="3" style="stroke:#038048;stroke-width:1.0;"/><text fill="#000000" font-family="sans-serif" font-size="14" lengthAdjust="spacing" textLength="83" x="1251.5" y="406.752">int MagasinId</text><ellipse cx="1242.5" cy="420.1328" fill="none" rx="3" ry="3" style="stroke:#038048;stroke-width:1.0;"/><text fill="#000000" font-family="sans-serif" font-size="14" lengthAdjust="spacing" textLength="75" x="1251.5" y="424.3613">int ProduitId</text><ellipse cx="1242.5" cy="437.7422" fill="none" rx="3" ry="3" style="stroke:#038048;stroke-width:1.0;"/><text fill="#000000" font-family="sans-serif" font-size="14" lengthAdjust="spacing" textLength="142" x="1251.5" y="441.9707">int QuantiteDemandee</text><ellipse cx="1242.5" cy="455.3516" fill="none" rx="3" ry="3" style="stroke:#038048;stroke-width:1.0;"/><text fill="#000000" font-family="sans-serif" font-size="14" lengthAdjust="spacing" textLength="156" x="1251.5" y="459.5801">DateTime DateDemande</text><ellipse cx="1242.5" cy="472.9609" fill="none" rx="3" ry="3" style="stroke:#038048;stroke-width:1.0;"/><text fill="#000000" font-family="sans-serif" font-size="14" lengthAdjust="spacing" textLength="76" x="1251.5" y="477.1895">string Statut</text><line style="stroke:#181818;stroke-width:0.5;" x1="1232.5" x2="1461.5" y1="484.2656" y2="484.2656"/></g><!--class ProduitController--><g id="elem_ProduitController"><rect codeLine="50" fill="#FFFFFF" height="48" id="ProduitController" rx="2.5" ry="2.5" style="stroke:#181818;stroke-width:0.5;" width="139" x="616.5" y="168.6094"/><ellipse cx="631.5" cy="184.6094" fill="#ADD1B2" rx="11" ry="11" style="stroke:#181818;stroke-width:1.0;"/><path d="M634.2656,180.4844 Q634.4219,180.2656 634.6094,180.1563 Q634.7969,180.0469 635.0156,180.0469 Q635.3906,180.0469 635.625,180.3125 Q635.8594,180.5625 635.8594,181.1719 L635.8594,182.625 Q635.8594,183.2344 635.625,183.5 Q635.3906,183.7656 635.0156,183.7656 Q634.6719,183.7656 634.4688,183.5625 Q634.2656,183.375 634.1563,182.8594 Q634.1094,182.5 633.9219,182.3125 Q633.5938,181.9375 632.9844,181.7188 Q632.375,181.5 631.75,181.5 Q630.9844,181.5 630.3438,181.8281 Q629.7188,182.1563 629.2188,182.9063 Q628.7344,183.6563 628.7344,184.6875 L628.7344,185.7813 Q628.7344,187.0156 629.625,187.8438 Q630.5156,188.6563 632.1094,188.6563 Q633.0469,188.6563 633.7031,188.4063 Q634.0938,188.25 634.5156,187.8125 Q634.7813,187.5469 634.9219,187.4688 Q635.0781,187.3906 635.2813,187.3906 Q635.6094,187.3906 635.8594,187.6563 Q636.125,187.9063 636.125,188.25 Q636.125,188.5938 635.7813,189 Q635.2813,189.5781 634.4844,189.9063 Q633.4063,190.3594 632.1094,190.3594 Q630.5938,190.3594 629.3906,189.7344 Q628.4063,189.2344 627.7188,188.1719 Q627.0313,187.0938 627.0313,185.8125 L627.0313,184.6563 Q627.0313,183.3281 627.6406,182.1875 Q628.2656,181.0313 629.3594,180.4219 Q630.4531,179.7969 631.6875,179.7969 Q632.4219,179.7969 633.0625,179.9688 Q633.7188,180.125 634.2656,180.4844 Z " fill="#000000"/><text fill="#000000" font-family="sans-serif" font-size="14" lengthAdjust="spacing" textLength="107" x="645.5" y="190.3379">ProduitController</text><line style="stroke:#181818;stroke-width:0.5;" x1="617.5" x2="754.5" y1="200.6094" y2="200.6094"/><line style="stroke:#181818;stroke-width:0.5;" x1="617.5" x2="754.5" y1="208.6094" y2="208.6094"/></g><!--class RapportController--><g id="elem_RapportController"><rect codeLine="51" fill="#FFFFFF" height="48" id="RapportController" rx="2.5" ry="2.5" style="stroke:#181818;stroke-width:0.5;" width="145" x="790.5" y="168.6094"/><ellipse cx="805.5" cy="184.6094" fill="#ADD1B2" rx="11" ry="11" style="stroke:#181818;stroke-width:1.0;"/><path d="M808.2656,180.4844 Q808.4219,180.2656 808.6094,180.1563 Q808.7969,180.0469 809.0156,180.0469 Q809.3906,180.0469 809.625,180.3125 Q809.8594,180.5625 809.8594,181.1719 L809.8594,182.625 Q809.8594,183.2344 809.625,183.5 Q809.3906,183.7656 809.0156,183.7656 Q808.6719,183.7656 808.4688,183.5625 Q808.2656,183.375 808.1563,182.8594 Q808.1094,182.5 807.9219,182.3125 Q807.5938,181.9375 806.9844,181.7188 Q806.375,181.5 805.75,181.5 Q804.9844,181.5 804.3438,181.8281 Q803.7188,182.1563 803.2188,182.9063 Q802.7344,183.6563 802.7344,184.6875 L802.7344,185.7813 Q802.7344,187.0156 803.625,187.8438 Q804.5156,188.6563 806.1094,188.6563 Q807.0469,188.6563 807.7031,188.4063 Q808.0938,188.25 808.5156,187.8125 Q808.7813,187.5469 808.9219,187.4688 Q809.0781,187.3906 809.2813,187.3906 Q809.6094,187.3906 809.8594,187.6563 Q810.125,187.9063 810.125,188.25 Q810.125,188.5938 809.7813,189 Q809.2813,189.5781 808.4844,189.9063 Q807.4063,190.3594 806.1094,190.3594 Q804.5938,190.3594 803.3906,189.7344 Q802.4063,189.2344 801.7188,188.1719 Q801.0313,187.0938 801.0313,185.8125 L801.0313,184.6563 Q801.0313,183.3281 801.6406,182.1875 Q802.2656,181.0313 803.3594,180.4219 Q804.4531,179.7969 805.6875,179.7969 Q806.4219,179.7969 807.0625,179.9688 Q807.7188,180.125 808.2656,180.4844 Z " fill="#000000"/><text fill="#000000" font-family="sans-serif" font-size="14" lengthAdjust="spacing" textLength="113" x="819.5" y="190.3379">RapportController</text><line style="stroke:#181818;stroke-width:0.5;" x1="791.5" x2="934.5" y1="200.6094" y2="200.6094"/><line style="stroke:#181818;stroke-width:0.5;" x1="791.5" x2="934.5" y1="208.6094" y2="208.6094"/></g><!--class TraiterDemandesController--><g id="elem_TraiterDemandesController"><rect codeLine="52" fill="#FFFFFF" height="48" id="TraiterDemandesController" rx="2.5" ry="2.5" style="stroke:#181818;stroke-width:0.5;" width="204" x="971" y="168.6094"/><ellipse cx="986" cy="184.6094" fill="#ADD1B2" rx="11" ry="11" style="stroke:#181818;stroke-width:1.0;"/><path d="M988.7656,180.4844 Q988.9219,180.2656 989.1094,180.1563 Q989.2969,180.0469 989.5156,180.0469 Q989.8906,180.0469 990.125,180.3125 Q990.3594,180.5625 990.3594,181.1719 L990.3594,182.625 Q990.3594,183.2344 990.125,183.5 Q989.8906,183.7656 989.5156,183.7656 Q989.1719,183.7656 988.9688,183.5625 Q988.7656,183.375 988.6563,182.8594 Q988.6094,182.5 988.4219,182.3125 Q988.0938,181.9375 987.4844,181.7188 Q986.875,181.5 986.25,181.5 Q985.4844,181.5 984.8438,181.8281 Q984.2188,182.1563 983.7188,182.9063 Q983.2344,183.6563 983.2344,184.6875 L983.2344,185.7813 Q983.2344,187.0156 984.125,187.8438 Q985.0156,188.6563 986.6094,188.6563 Q987.5469,188.6563 988.2031,188.4063 Q988.5938,188.25 989.0156,187.8125 Q989.2813,187.5469 989.4219,187.4688 Q989.5781,187.3906 989.7813,187.3906 Q990.1094,187.3906 990.3594,187.6563 Q990.625,187.9063 990.625,188.25 Q990.625,188.5938 990.2813,189 Q989.7813,189.5781 988.9844,189.9063 Q987.9063,190.3594 986.6094,190.3594 Q985.0938,190.3594 983.8906,189.7344 Q982.9063,189.2344 982.2188,188.1719 Q981.5313,187.0938 981.5313,185.8125 L981.5313,184.6563 Q981.5313,183.3281 982.1406,182.1875 Q982.7656,181.0313 983.8594,180.4219 Q984.9531,179.7969 986.1875,179.7969 Q986.9219,179.7969 987.5625,179.9688 Q988.2188,180.125 988.7656,180.4844 Z " fill="#000000"/><text fill="#000000" font-family="sans-serif" font-size="14" lengthAdjust="spacing" textLength="172" x="1000" y="190.3379">TraiterDemandesController</text><line style="stroke:#181818;stroke-width:0.5;" x1="972" x2="1174" y1="200.6094" y2="200.6094"/><line style="stroke:#181818;stroke-width:0.5;" x1="972" x2="1174" y1="208.6094" y2="208.6094"/></g><!--class PerformancesController--><g id="elem_PerformancesController"><rect codeLine="53" fill="#FFFFFF" height="48" id="PerformancesController" rx="2.5" ry="2.5" style="stroke:#181818;stroke-width:0.5;" width="182" x="616" y="391.6094"/><ellipse cx="631" cy="407.6094" fill="#ADD1B2" rx="11" ry="11" style="stroke:#181818;stroke-width:1.0;"/><path d="M633.7656,403.4844 Q633.9219,403.2656 634.1094,403.1563 Q634.2969,403.0469 634.5156,403.0469 Q634.8906,403.0469 635.125,403.3125 Q635.3594,403.5625 635.3594,404.1719 L635.3594,405.625 Q635.3594,406.2344 635.125,406.5 Q634.8906,406.7656 634.5156,406.7656 Q634.1719,406.7656 633.9688,406.5625 Q633.7656,406.375 633.6563,405.8594 Q633.6094,405.5 633.4219,405.3125 Q633.0938,404.9375 632.4844,404.7188 Q631.875,404.5 631.25,404.5 Q630.4844,404.5 629.8438,404.8281 Q629.2188,405.1563 628.7188,405.9063 Q628.2344,406.6563 628.2344,407.6875 L628.2344,408.7813 Q628.2344,410.0156 629.125,410.8438 Q630.0156,411.6563 631.6094,411.6563 Q632.5469,411.6563 633.2031,411.4063 Q633.5938,411.25 634.0156,410.8125 Q634.2813,410.5469 634.4219,410.4688 Q634.5781,410.3906 634.7813,410.3906 Q635.1094,410.3906 635.3594,410.6563 Q635.625,410.9063 635.625,411.25 Q635.625,411.5938 635.2813,412 Q634.7813,412.5781 633.9844,412.9063 Q632.9063,413.3594 631.6094,413.3594 Q630.0938,413.3594 628.8906,412.7344 Q627.9063,412.2344 627.2188,411.1719 Q626.5313,410.0938 626.5313,408.8125 L626.5313,407.6563 Q626.5313,406.3281 627.1406,405.1875 Q627.7656,404.0313 628.8594,403.4219 Q629.9531,402.7969 631.1875,402.7969 Q631.9219,402.7969 632.5625,402.9688 Q633.2188,403.125 633.7656,403.4844 Z " fill="#000000"/><text fill="#000000" font-family="sans-serif" font-size="14" lengthAdjust="spacing" textLength="150" x="645" y="413.3379">PerformancesController</text><line style="stroke:#181818;stroke-width:0.5;" x1="617" x2="797" y1="423.6094" y2="423.6094"/><line style="stroke:#181818;stroke-width:0.5;" x1="617" x2="797" y1="431.6094" y2="431.6094"/></g><!--class ReapprovisionnementController--><g id="elem_ReapprovisionnementController"><rect codeLine="54" fill="#FFFFFF" height="48" id="ReapprovisionnementController" rx="2.5" ry="2.5" style="stroke:#181818;stroke-width:0.5;" width="232" x="833" y="391.6094"/><ellipse cx="848" cy="407.6094" fill="#ADD1B2" rx="11" ry="11" style="stroke:#181818;stroke-width:1.0;"/><path d="M850.7656,403.4844 Q850.9219,403.2656 851.1094,403.1563 Q851.2969,403.0469 851.5156,403.0469 Q851.8906,403.0469 852.125,403.3125 Q852.3594,403.5625 852.3594,404.1719 L852.3594,405.625 Q852.3594,406.2344 852.125,406.5 Q851.8906,406.7656 851.5156,406.7656 Q851.1719,406.7656 850.9688,406.5625 Q850.7656,406.375 850.6563,405.8594 Q850.6094,405.5 850.4219,405.3125 Q850.0938,404.9375 849.4844,404.7188 Q848.875,404.5 848.25,404.5 Q847.4844,404.5 846.8438,404.8281 Q846.2188,405.1563 845.7188,405.9063 Q845.2344,406.6563 845.2344,407.6875 L845.2344,408.7813 Q845.2344,410.0156 846.125,410.8438 Q847.0156,411.6563 848.6094,411.6563 Q849.5469,411.6563 850.2031,411.4063 Q850.5938,411.25 851.0156,410.8125 Q851.2813,410.5469 851.4219,410.4688 Q851.5781,410.3906 851.7813,410.3906 Q852.1094,410.3906 852.3594,410.6563 Q852.625,410.9063 852.625,411.25 Q852.625,411.5938 852.2813,412 Q851.7813,412.5781 850.9844,412.9063 Q849.9063,413.3594 848.6094,413.3594 Q847.0938,413.3594 845.8906,412.7344 Q844.9063,412.2344 844.2188,411.1719 Q843.5313,410.0938 843.5313,408.8125 L843.5313,407.6563 Q843.5313,406.3281 844.1406,405.1875 Q844.7656,404.0313 845.8594,403.4219 Q846.9531,402.7969 848.1875,402.7969 Q848.9219,402.7969 849.5625,402.9688 Q850.2188,403.125 850.7656,403.4844 Z " fill="#000000"/><text fill="#000000" font-family="sans-serif" font-size="14" lengthAdjust="spacing" textLength="200" x="862" y="413.3379">ReapprovisionnementController</text><line style="stroke:#181818;stroke-width:0.5;" x1="834" x2="1064" y1="423.6094" y2="423.6094"/><line style="stroke:#181818;stroke-width:0.5;" x1="834" x2="1064" y1="431.6094" y2="431.6094"/></g><!--class ProduitService--><g id="elem_ProduitService"><rect codeLine="58" fill="#FFFFFF" height="48" id="ProduitService" rx="2.5" ry="2.5" style="stroke:#181818;stroke-width:0.5;" width="124" x="46" y="168.6094"/><ellipse cx="61" cy="184.6094" fill="#ADD1B2" rx="11" ry="11" style="stroke:#181818;stroke-width:1.0;"/><path d="M63.7656,180.4844 Q63.9219,180.2656 64.1094,180.1563 Q64.2969,180.0469 64.5156,180.0469 Q64.8906,180.0469 65.125,180.3125 Q65.3594,180.5625 65.3594,181.1719 L65.3594,182.625 Q65.3594,183.2344 65.125,183.5 Q64.8906,183.7656 64.5156,183.7656 Q64.1719,183.7656 63.9688,183.5625 Q63.7656,183.375 63.6563,182.8594 Q63.6094,182.5 63.4219,182.3125 Q63.0938,181.9375 62.4844,181.7188 Q61.875,181.5 61.25,181.5 Q60.4844,181.5 59.8438,181.8281 Q59.2188,182.1563 58.7188,182.9063 Q58.2344,183.6563 58.2344,184.6875 L58.2344,185.7813 Q58.2344,187.0156 59.125,187.8438 Q60.0156,188.6563 61.6094,188.6563 Q62.5469,188.6563 63.2031,188.4063 Q63.5938,188.25 64.0156,187.8125 Q64.2813,187.5469 64.4219,187.4688 Q64.5781,187.3906 64.7813,187.3906 Q65.1094,187.3906 65.3594,187.6563 Q65.625,187.9063 65.625,188.25 Q65.625,188.5938 65.2813,189 Q64.7813,189.5781 63.9844,189.9063 Q62.9063,190.3594 61.6094,190.3594 Q60.0938,190.3594 58.8906,189.7344 Q57.9063,189.2344 57.2188,188.1719 Q56.5313,187.0938 56.5313,185.8125 L56.5313,184.6563 Q56.5313,183.3281 57.1406,182.1875 Q57.7656,181.0313 58.8594,180.4219 Q59.9531,179.7969 61.1875,179.7969 Q61.9219,179.7969 62.5625,179.9688 Q63.2188,180.125 63.7656,180.4844 Z " fill="#000000"/><text fill="#000000" font-family="sans-serif" font-size="14" lengthAdjust="spacing" textLength="92" x="75" y="190.3379">ProduitService</text><line style="stroke:#181818;stroke-width:0.5;" x1="47" x2="169" y1="200.6094" y2="200.6094"/><line style="stroke:#181818;stroke-width:0.5;" x1="47" x2="169" y1="208.6094" y2="208.6094"/></g><!--class RapportService--><g id="elem_RapportService"><rect codeLine="59" fill="#FFFFFF" height="48" id="RapportService" rx="2.5" ry="2.5" style="stroke:#181818;stroke-width:0.5;" width="130" x="205" y="168.6094"/><ellipse cx="220" cy="184.6094" fill="#ADD1B2" rx="11" ry="11" style="stroke:#181818;stroke-width:1.0;"/><path d="M222.7656,180.4844 Q222.9219,180.2656 223.1094,180.1563 Q223.2969,180.0469 223.5156,180.0469 Q223.8906,180.0469 224.125,180.3125 Q224.3594,180.5625 224.3594,181.1719 L224.3594,182.625 Q224.3594,183.2344 224.125,183.5 Q223.8906,183.7656 223.5156,183.7656 Q223.1719,183.7656 222.9688,183.5625 Q222.7656,183.375 222.6563,182.8594 Q222.6094,182.5 222.4219,182.3125 Q222.0938,181.9375 221.4844,181.7188 Q220.875,181.5 220.25,181.5 Q219.4844,181.5 218.8438,181.8281 Q218.2188,182.1563 217.7188,182.9063 Q217.2344,183.6563 217.2344,184.6875 L217.2344,185.7813 Q217.2344,187.0156 218.125,187.8438 Q219.0156,188.6563 220.6094,188.6563 Q221.5469,188.6563 222.2031,188.4063 Q222.5938,188.25 223.0156,187.8125 Q223.2813,187.5469 223.4219,187.4688 Q223.5781,187.3906 223.7813,187.3906 Q224.1094,187.3906 224.3594,187.6563 Q224.625,187.9063 224.625,188.25 Q224.625,188.5938 224.2813,189 Q223.7813,189.5781 222.9844,189.9063 Q221.9063,190.3594 220.6094,190.3594 Q219.0938,190.3594 217.8906,189.7344 Q216.9063,189.2344 216.2188,188.1719 Q215.5313,187.0938 215.5313,185.8125 L215.5313,184.6563 Q215.5313,183.3281 216.1406,182.1875 Q216.7656,181.0313 217.8594,180.4219 Q218.9531,179.7969 220.1875,179.7969 Q220.9219,179.7969 221.5625,179.9688 Q222.2188,180.125 222.7656,180.4844 Z " fill="#000000"/><text fill="#000000" font-family="sans-serif" font-size="14" lengthAdjust="spacing" textLength="98" x="234" y="190.3379">RapportService</text><line style="stroke:#181818;stroke-width:0.5;" x1="206" x2="334" y1="200.6094" y2="200.6094"/><line style="stroke:#181818;stroke-width:0.5;" x1="206" x2="334" y1="208.6094" y2="208.6094"/></g><!--class TraiterDemandesService--><g id="elem_TraiterDemandesService"><rect codeLine="60" fill="#FFFFFF" height="48" id="TraiterDemandesService" rx="2.5" ry="2.5" style="stroke:#181818;stroke-width:0.5;" width="189" x="370.5" y="168.6094"/><ellipse cx="385.5" cy="184.6094" fill="#ADD1B2" rx="11" ry="11" style="stroke:#181818;stroke-width:1.0;"/><path d="M388.2656,180.4844 Q388.4219,180.2656 388.6094,180.1563 Q388.7969,180.0469 389.0156,180.0469 Q389.3906,180.0469 389.625,180.3125 Q389.8594,180.5625 389.8594,181.1719 L389.8594,182.625 Q389.8594,183.2344 389.625,183.5 Q389.3906,183.7656 389.0156,183.7656 Q388.6719,183.7656 388.4688,183.5625 Q388.2656,183.375 388.1563,182.8594 Q388.1094,182.5 387.9219,182.3125 Q387.5938,181.9375 386.9844,181.7188 Q386.375,181.5 385.75,181.5 Q384.9844,181.5 384.3438,181.8281 Q383.7188,182.1563 383.2188,182.9063 Q382.7344,183.6563 382.7344,184.6875 L382.7344,185.7813 Q382.7344,187.0156 383.625,187.8438 Q384.5156,188.6563 386.1094,188.6563 Q387.0469,188.6563 387.7031,188.4063 Q388.0938,188.25 388.5156,187.8125 Q388.7813,187.5469 388.9219,187.4688 Q389.0781,187.3906 389.2813,187.3906 Q389.6094,187.3906 389.8594,187.6563 Q390.125,187.9063 390.125,188.25 Q390.125,188.5938 389.7813,189 Q389.2813,189.5781 388.4844,189.9063 Q387.4063,190.3594 386.1094,190.3594 Q384.5938,190.3594 383.3906,189.7344 Q382.4063,189.2344 381.7188,188.1719 Q381.0313,187.0938 381.0313,185.8125 L381.0313,184.6563 Q381.0313,183.3281 381.6406,182.1875 Q382.2656,181.0313 383.3594,180.4219 Q384.4531,179.7969 385.6875,179.7969 Q386.4219,179.7969 387.0625,179.9688 Q387.7188,180.125 388.2656,180.4844 Z " fill="#000000"/><text fill="#000000" font-family="sans-serif" font-size="14" lengthAdjust="spacing" textLength="157" x="399.5" y="190.3379">TraiterDemandesService</text><line style="stroke:#181818;stroke-width:0.5;" x1="371.5" x2="558.5" y1="200.6094" y2="200.6094"/><line style="stroke:#181818;stroke-width:0.5;" x1="371.5" x2="558.5" y1="208.6094" y2="208.6094"/></g><!--class PerformancesService--><g id="elem_PerformancesService"><rect codeLine="61" fill="#FFFFFF" height="48" id="PerformancesService" rx="2.5" ry="2.5" style="stroke:#181818;stroke-width:0.5;" width="167" x="46.5" y="391.6094"/><ellipse cx="61.5" cy="407.6094" fill="#ADD1B2" rx="11" ry="11" style="stroke:#181818;stroke-width:1.0;"/><path d="M64.2656,403.4844 Q64.4219,403.2656 64.6094,403.1563 Q64.7969,403.0469 65.0156,403.0469 Q65.3906,403.0469 65.625,403.3125 Q65.8594,403.5625 65.8594,404.1719 L65.8594,405.625 Q65.8594,406.2344 65.625,406.5 Q65.3906,406.7656 65.0156,406.7656 Q64.6719,406.7656 64.4688,406.5625 Q64.2656,406.375 64.1563,405.8594 Q64.1094,405.5 63.9219,405.3125 Q63.5938,404.9375 62.9844,404.7188 Q62.375,404.5 61.75,404.5 Q60.9844,404.5 60.3438,404.8281 Q59.7188,405.1563 59.2188,405.9063 Q58.7344,406.6563 58.7344,407.6875 L58.7344,408.7813 Q58.7344,410.0156 59.625,410.8438 Q60.5156,411.6563 62.1094,411.6563 Q63.0469,411.6563 63.7031,411.4063 Q64.0938,411.25 64.5156,410.8125 Q64.7813,410.5469 64.9219,410.4688 Q65.0781,410.3906 65.2813,410.3906 Q65.6094,410.3906 65.8594,410.6563 Q66.125,410.9063 66.125,411.25 Q66.125,411.5938 65.7813,412 Q65.2813,412.5781 64.4844,412.9063 Q63.4063,413.3594 62.1094,413.3594 Q60.5938,413.3594 59.3906,412.7344 Q58.4063,412.2344 57.7188,411.1719 Q57.0313,410.0938 57.0313,408.8125 L57.0313,407.6563 Q57.0313,406.3281 57.6406,405.1875 Q58.2656,404.0313 59.3594,403.4219 Q60.4531,402.7969 61.6875,402.7969 Q62.4219,402.7969 63.0625,402.9688 Q63.7188,403.125 64.2656,403.4844 Z " fill="#000000"/><text fill="#000000" font-family="sans-serif" font-size="14" lengthAdjust="spacing" textLength="135" x="75.5" y="413.3379">PerformancesService</text><line style="stroke:#181818;stroke-width:0.5;" x1="47.5" x2="212.5" y1="423.6094" y2="423.6094"/><line style="stroke:#181818;stroke-width:0.5;" x1="47.5" x2="212.5" y1="431.6094" y2="431.6094"/></g><!--class ReapprovisionnementService--><g id="elem_ReapprovisionnementService"><rect codeLine="62" fill="#FFFFFF" height="48" id="ReapprovisionnementService" rx="2.5" ry="2.5" style="stroke:#181818;stroke-width:0.5;" width="217" x="248.5" y="391.6094"/><ellipse cx="263.5" cy="407.6094" fill="#ADD1B2" rx="11" ry="11" style="stroke:#181818;stroke-width:1.0;"/><path d="M266.2656,403.4844 Q266.4219,403.2656 266.6094,403.1563 Q266.7969,403.0469 267.0156,403.0469 Q267.3906,403.0469 267.625,403.3125 Q267.8594,403.5625 267.8594,404.1719 L267.8594,405.625 Q267.8594,406.2344 267.625,406.5 Q267.3906,406.7656 267.0156,406.7656 Q266.6719,406.7656 266.4688,406.5625 Q266.2656,406.375 266.1563,405.8594 Q266.1094,405.5 265.9219,405.3125 Q265.5938,404.9375 264.9844,404.7188 Q264.375,404.5 263.75,404.5 Q262.9844,404.5 262.3438,404.8281 Q261.7188,405.1563 261.2188,405.9063 Q260.7344,406.6563 260.7344,407.6875 L260.7344,408.7813 Q260.7344,410.0156 261.625,410.8438 Q262.5156,411.6563 264.1094,411.6563 Q265.0469,411.6563 265.7031,411.4063 Q266.0938,411.25 266.5156,410.8125 Q266.7813,410.5469 266.9219,410.4688 Q267.0781,410.3906 267.2813,410.3906 Q267.6094,410.3906 267.8594,410.6563 Q268.125,410.9063 268.125,411.25 Q268.125,411.5938 267.7813,412 Q267.2813,412.5781 266.4844,412.9063 Q265.4063,413.3594 264.1094,413.3594 Q262.5938,413.3594 261.3906,412.7344 Q260.4063,412.2344 259.7188,411.1719 Q259.0313,410.0938 259.0313,408.8125 L259.0313,407.6563 Q259.0313,406.3281 259.6406,405.1875 Q260.2656,404.0313 261.3594,403.4219 Q262.4531,402.7969 263.6875,402.7969 Q264.4219,402.7969 265.0625,402.9688 Q265.7188,403.125 266.2656,403.4844 Z " fill="#000000"/><text fill="#000000" font-family="sans-serif" font-size="14" lengthAdjust="spacing" textLength="185" x="277.5" y="413.3379">ReapprovisionnementService</text><line style="stroke:#181818;stroke-width:0.5;" x1="249.5" x2="464.5" y1="423.6094" y2="423.6094"/><line style="stroke:#181818;stroke-width:0.5;" x1="249.5" x2="464.5" y1="431.6094" y2="431.6094"/></g><!--link Magasin to MagasinStockProduit--><g id="link_Magasin_MagasinStockProduit"><path codeLine="67" d="M1580,243.2094 C1580,279.4794 1580,328.4794 1580,364.7994 " fill="none" id="Magasin-MagasinStockProduit" style="stroke:#2E8B57;stroke-width:1.0;"/><text fill="#000000" font-family="sans-serif" font-size="13" lengthAdjust="spacing" textLength="39" x="1581" y="305.1045">stocks</text><text fill="#000000" font-family="sans-serif" font-size="13" lengthAdjust="spacing" textLength="7" x="1572.5297" y="264.614">1</text><text fill="#000000" font-family="sans-serif" font-size="13" lengthAdjust="spacing" textLength="20" x="1558.6563" y="354.4271">0..*</text></g><!--link Produit to MagasinStockProduit--><g id="link_Produit_MagasinStockProduit"><path codeLine="68" d="M1722.08,260.7194 C1712.51,276.9694 1701.56,293.8894 1690,308.6094 C1674.44,328.4294 1655.28,348.1294 1637.33,365.0794 " fill="none" id="Produit-MagasinStockProduit" style="stroke:#2E8B57;stroke-width:1.0;"/><text fill="#000000" font-family="sans-serif" font-size="13" lengthAdjust="spacing" textLength="7" x="1711.1179" y="282.079">1</text><text fill="#000000" font-family="sans-serif" font-size="13" lengthAdjust="spacing" textLength="20" x="1623.9858" y="354.3805">0..*</text></g><!--link Produit to StockCentral--><g id="link_Produit_StockCentral"><path codeLine="69" d="M1812.04,260.8194 C1842.31,297.7694 1878.86,342.3994 1904.77,374.0394 " fill="none" id="Produit-StockCentral" style="stroke:#2E8B57;stroke-width:1.0;"/><text fill="#000000" font-family="sans-serif" font-size="13" lengthAdjust="spacing" textLength="7" x="1810.3551" y="282.1894">1</text><text fill="#000000" font-family="sans-serif" font-size="13" lengthAdjust="spacing" textLength="7" x="1891.6866" y="363.3355">1</text></g><!--link Magasin to Vente--><g id="link_Magasin_Vente"><path codeLine="70" d="M1623.09,243.2094 C1647.41,271.1994 1678.33,306.7894 1705.68,338.2694 " fill="none" id="Magasin-Vente" style="stroke:#2E8B57;stroke-width:1.0;"/><text fill="#000000" font-family="sans-serif" font-size="13" lengthAdjust="spacing" textLength="7" x="1621.4099" y="264.614">1</text><text fill="#000000" font-family="sans-serif" font-size="13" lengthAdjust="spacing" textLength="20" x="1678.4058" y="327.6637">0..*</text></g><!--link Produit to Vente--><g id="link_Produit_Vente"><path codeLine="71" d="M1761.56,260.8194 C1763.23,285.3294 1765.12,313.2094 1766.83,338.4394 " fill="none" id="Produit-Vente" style="stroke:#2E8B57;stroke-width:1.0;"/><text fill="#000000" font-family="sans-serif" font-size="13" lengthAdjust="spacing" textLength="7" x="1754.6693" y="282.1894">1</text><text fill="#000000" font-family="sans-serif" font-size="13" lengthAdjust="spacing" textLength="20" x="1745.3841" y="327.8499">0..*</text></g><!--link Magasin to DemandeReapprovisionnement--><g id="link_Magasin_DemandeReapprovisionnement"><path codeLine="72" d="M1527.71,243.2094 C1498.19,271.1994 1460.68,306.7894 1427.49,338.2694 " fill="none" id="Magasin-DemandeReapprovisionnement" style="stroke:#2E8B57;stroke-width:1.0;"/><text fill="#000000" font-family="sans-serif" font-size="13" lengthAdjust="spacing" textLength="7" x="1513.2132" y="264.614">1</text><text fill="#000000" font-family="sans-serif" font-size="13" lengthAdjust="spacing" textLength="20" x="1414.2086" y="327.6637">0..*</text></g><!--link Produit to DemandeReapprovisionnement--><g id="link_Produit_DemandeReapprovisionnement"><path codeLine="73" d="M1695.65,260.7494 C1675.98,278.7494 1653.03,296.5494 1629,308.6094 C1568.63,338.9194 1543.25,314.8794 1480,338.6094 C1474.27,340.7594 1468.5,343.1294 1462.74,345.6794 " fill="none" id="Produit-DemandeReapprovisionnement" style="stroke:#2E8B57;stroke-width:1.0;"/><text fill="#000000" font-family="sans-serif" font-size="13" lengthAdjust="spacing" textLength="7" x="1681.9623" y="282.1121">1</text><text fill="#000000" font-family="sans-serif" font-size="13" lengthAdjust="spacing" textLength="20" x="1470.4023" y="338.4468">0..*</text></g><!--SRC=[jLJ1Rjim3BtxAmWVEwJehhjr2L0Cw8QiQRkpPhCU4LjqARehKEJV9pjocpgIksAOBqhudlZuA55AMYFSTWYNND6zNnVmrLJ6aOKbMXLJPyejACDFLkK6IX8ibDXcRaksDM8QA6hZ73nb09zDiQs4ErikkMQ17xz8qSVFHVZtFhH1So68DjjbMUlffaB8WsQGp8TS0Ejdc4kitHZklxtaMhZiI0_Y_VU1h8xGb_8rv5J8Ll2DcsXyQHGh5iBNQ8a5DQRsIUankc-5hX1gXxwCs6vIxDZNIB41UcUnvwMWS_YMu4QvsCvqAY4-qyGU-juPg_l3ZQiFik50tt50VvNxrgV5MD81cAPS-KEzfWQX__7V_1zTb1jBQloq95sii36sn2iqRIlyGCxV7ekDjn2p5jYnMlxDGKYCCqqBbEWjtAZHJYSc_Mpto_DyBzdV0wvhbFGKlt3WQTggAzyYbbdAjHXlHaAfRewwHhbZyRnYdXSvcMFwrEe6vO5yugJFG4YQJE8JXqdUeRsqsB6t2NVNlz3P-6hb7tDOB20_EpqzoQDFooTm_L-NZO4tjnmn_NBuR2J4Xo5FgEon-Bxql2MIfJVy0G00]--></g></svg>