<?xml version="1.0" encoding="us-ascii" standalone="no"?><svg xmlns="http://www.w3.org/2000/svg" xmlns:xlink="http://www.w3.org/1999/xlink" contentStyleType="text/css" height="403px" preserveAspectRatio="none" style="width:849px;height:403px;background:#FFFFFF;" version="1.1" viewBox="0 0 849 403" width="849px" zoomAndPan="magnify"><defs/><g><text fill="#000000" font-family="sans-serif" font-size="14" font-weight="bold" lengthAdjust="spacing" textLength="243" x="302.25" y="29.5332">Process View - Modifier un Produit</text><line style="stroke:#181818;stroke-width:0.5;stroke-dasharray:5.0,5.0;" x1="49" x2="49" y1="121.2188" y2="320.9766"/><line style="stroke:#181818;stroke-width:0.5;stroke-dasharray:5.0,5.0;" x1="209" x2="209" y1="121.2188" y2="320.9766"/><line style="stroke:#181818;stroke-width:0.5;stroke-dasharray:5.0,5.0;" x1="453" x2="453" y1="121.2188" y2="320.9766"/><line style="stroke:#181818;stroke-width:0.5;stroke-dasharray:5.0,5.0;" x1="647.5" x2="647.5" y1="121.2188" y2="320.9766"/><line style="stroke:#181818;stroke-width:0.5;stroke-dasharray:5.0,5.0;" x1="776.5" x2="776.5" y1="121.2188" y2="320.9766"/><text fill="#000000" font-family="sans-serif" font-size="14" lengthAdjust="spacing" textLength="83" x="5" y="118.1426">Responsable</text><ellipse cx="49.5" cy="52.1094" fill="#E2E2F0" rx="8" ry="8" style="stroke:#181818;stroke-width:0.5;"/><path d="M49.5,60.1094 L49.5,87.1094 M36.5,68.1094 L62.5,68.1094 M49.5,87.1094 L36.5,102.1094 M49.5,87.1094 L62.5,102.1094 " fill="none" style="stroke:#181818;stroke-width:0.5;"/><text fill="#000000" font-family="sans-serif" font-size="14" lengthAdjust="spacing" textLength="83" x="5" y="334.5098">Responsable</text><ellipse cx="49.5" cy="346.0859" fill="#E2E2F0" rx="8" ry="8" style="stroke:#181818;stroke-width:0.5;"/><path d="M49.5,354.0859 L49.5,381.0859 M36.5,362.0859 L62.5,362.0859 M49.5,381.0859 L36.5,396.0859 M49.5,381.0859 L62.5,396.0859 " fill="none" style="stroke:#181818;stroke-width:0.5;"/><rect fill="#E2E2F0" height="31.6094" rx="2.5" ry="2.5" style="stroke:#181818;stroke-width:0.5;" width="65" x="177" y="88.6094"/><text fill="#000000" font-family="sans-serif" font-size="14" lengthAdjust="spacing" textLength="51" x="184" y="110.1426">Browser</text><rect fill="#E2E2F0" height="31.6094" rx="2.5" ry="2.5" style="stroke:#181818;stroke-width:0.5;" width="65" x="177" y="319.9766"/><text fill="#000000" font-family="sans-serif" font-size="14" lengthAdjust="spacing" textLength="51" x="184" y="341.5098">Browser</text><rect fill="#E2E2F0" height="31.6094" rx="2.5" ry="2.5" style="stroke:#181818;stroke-width:0.5;" width="121" x="393" y="88.6094"/><text fill="#000000" font-family="sans-serif" font-size="14" lengthAdjust="spacing" textLength="107" x="400" y="110.1426">ProduitController</text><rect fill="#E2E2F0" height="31.6094" rx="2.5" ry="2.5" style="stroke:#181818;stroke-width:0.5;" width="121" x="393" y="319.9766"/><text fill="#000000" font-family="sans-serif" font-size="14" lengthAdjust="spacing" textLength="107" x="400" y="341.5098">ProduitController</text><rect fill="#E2E2F0" height="31.6094" rx="2.5" ry="2.5" style="stroke:#181818;stroke-width:0.5;" width="106" x="594.5" y="88.6094"/><text fill="#000000" font-family="sans-serif" font-size="14" lengthAdjust="spacing" textLength="92" x="601.5" y="110.1426">ProduitService</text><rect fill="#E2E2F0" height="31.6094" rx="2.5" ry="2.5" style="stroke:#181818;stroke-width:0.5;" width="106" x="594.5" y="319.9766"/><text fill="#000000" font-family="sans-serif" font-size="14" lengthAdjust="spacing" textLength="92" x="601.5" y="341.5098">ProduitService</text><rect fill="#E2E2F0" height="31.6094" rx="2.5" ry="2.5" style="stroke:#181818;stroke-width:0.5;" width="133" x="710.5" y="88.6094"/><text fill="#000000" font-family="sans-serif" font-size="14" lengthAdjust="spacing" textLength="119" x="717.5" y="110.1426">MagasinDbContext</text><rect fill="#E2E2F0" height="31.6094" rx="2.5" ry="2.5" style="stroke:#181818;stroke-width:0.5;" width="133" x="710.5" y="319.9766"/><text fill="#000000" font-family="sans-serif" font-size="14" lengthAdjust="spacing" textLength="119" x="717.5" y="341.5098">MagasinDbContext</text><polygon fill="#181818" points="197.5,149.5703,207.5,153.5703,197.5,157.5703,201.5,153.5703" style="stroke:#181818;stroke-width:1.0;"/><line style="stroke:#181818;stroke-width:1.0;" x1="49.5" x2="203.5" y1="153.5703" y2="153.5703"/><text fill="#000000" font-family="sans-serif" font-size="13" lengthAdjust="spacing" textLength="136" x="56.5" y="148.7139">Click sur "Sauvegarder"</text><polygon fill="#181818" points="441.5,179.9219,451.5,183.9219,441.5,187.9219,445.5,183.9219" style="stroke:#181818;stroke-width:1.0;"/><line style="stroke:#181818;stroke-width:1.0;" x1="209.5" x2="447.5" y1="183.9219" y2="183.9219"/><text fill="#000000" font-family="sans-serif" font-size="13" lengthAdjust="spacing" textLength="133" x="216.5" y="179.0654">Post /Modifier/{Produit}</text><polygon fill="#181818" points="635.5,210.2734,645.5,214.2734,635.5,218.2734,639.5,214.2734" style="stroke:#181818;stroke-width:1.0;"/><line style="stroke:#181818;stroke-width:1.0;" x1="453.5" x2="641.5" y1="214.2734" y2="214.2734"/><text fill="#000000" font-family="sans-serif" font-size="13" lengthAdjust="spacing" textLength="170" x="460.5" y="209.417">ModifierProduitAsync(produit)</text><polygon fill="#181818" points="765,240.625,775,244.625,765,248.625,769,244.625" style="stroke:#181818;stroke-width:1.0;"/><line style="stroke:#181818;stroke-width:1.0;" x1="647.5" x2="771" y1="244.625" y2="244.625"/><text fill="#000000" font-family="sans-serif" font-size="13" lengthAdjust="spacing" textLength="88" x="654.5" y="239.7686">Update(produit)</text><polygon fill="#181818" points="658.5,254.625,648.5,258.625,658.5,262.625,654.5,258.625" style="stroke:#181818;stroke-width:1.0;"/><line style="stroke:#181818;stroke-width:1.0;stroke-dasharray:2.0,2.0;" x1="652.5" x2="776" y1="258.625" y2="258.625"/><polygon fill="#181818" points="464.5,268.625,454.5,272.625,464.5,276.625,460.5,272.625" style="stroke:#181818;stroke-width:1.0;"/><line style="stroke:#181818;stroke-width:1.0;stroke-dasharray:2.0,2.0;" x1="458.5" x2="646.5" y1="272.625" y2="272.625"/><polygon fill="#181818" points="220.5,298.9766,210.5,302.9766,220.5,306.9766,216.5,302.9766" style="stroke:#181818;stroke-width:1.0;"/><line style="stroke:#181818;stroke-width:1.0;stroke-dasharray:2.0,2.0;" x1="214.5" x2="452.5" y1="302.9766" y2="302.9766"/><text fill="#000000" font-family="sans-serif" font-size="13" lengthAdjust="spacing" textLength="220" x="226.5" y="298.1201">200 OK "Produit modifi&#233; avec succ&#232;s"</text><!--SRC=[ROz1JiCm44NtFiKeArX4hLYoG89aXogYHB2VE4DbrTYHPvA24FU1S_HYEAwBMecTn-_f_nanOWcQu3KnmukXFPImyODvDHHWSWiQ9YCAjVW0HKiyUiVOMoe06LgbHWnYj1dH2HGFmU-PGcALDUJaakUuoZi9tjfiDjM_LaTXDlfOr7INoWQtoCRL_H95xvAakbUgXV8kLyFjyj0xu2cktk4qqnR344jL5gBQL55hF0kiJdUlFlC2NohInUcYSwAPtVE7qrVZSRXMAZhHhFjeFey32fsn-5kcc6IbqfHylkdDUWrFZt-tmrkgE_m0pgJZ1LeVlhdu1G00]--></g></svg>