<?xml version="1.0" encoding="us-ascii" standalone="no"?><svg xmlns="http://www.w3.org/2000/svg" xmlns:xlink="http://www.w3.org/1999/xlink" contentStyleType="text/css" height="526px" preserveAspectRatio="none" style="width:510px;height:526px;background:#FFFFFF;" version="1.1" viewBox="0 0 510 526" width="510px" zoomAndPan="magnify"><defs/><g><text fill="#000000" font-family="sans-serif" font-size="14" font-weight="bold" lengthAdjust="spacing" textLength="321" x="87.605" y="24.5332">Diagramme Cas d'Utilisation - Magasin Central</text><!--cluster Magasin Central--><g id="cluster_Magasin Central"><rect fill="none" height="475" rx="2.5" ry="2.5" style="stroke:#181818;stroke-width:1.0;" width="328" x="176.21" y="45.6094"/><text fill="#000000" font-family="sans-serif" font-size="14" font-weight="bold" lengthAdjust="spacing" textLength="114" x="283.21" y="62.1426">Magasin Central</text></g><g id="elem_UC1"><ellipse cx="340.2283" cy="203.713" fill="#F1F1F1" rx="121.0183" ry="26.6037" style="stroke:#181818;stroke-width:0.5;"/><text fill="#000000" font-family="sans-serif" font-size="14" lengthAdjust="spacing" textLength="207" x="236.7283" y="207.4415">UC1 - G&#233;n&#233;rer rapport consolid&#233;</text></g><g id="elem_UC2"><ellipse cx="339.9987" cy="472.3671" fill="#F1F1F1" rx="144.2887" ry="31.2577" style="stroke:#181818;stroke-width:0.5;"/><text fill="#000000" font-family="sans-serif" font-size="14" lengthAdjust="spacing" textLength="185" x="247.4987" y="467.2909">UC2 - Consulter stock central</text><text fill="#000000" font-family="sans-serif" font-size="14" lengthAdjust="spacing" textLength="209" x="235.4987" y="484.9003">D&#233;clencher r&#233;approvisionnement</text></g><g id="elem_UC3"><ellipse cx="340.3494" cy="111.6373" fill="#F1F1F1" rx="138.1394" ry="30.0279" style="stroke:#181818;stroke-width:0.5;"/><text fill="#000000" font-family="sans-serif" font-size="14" lengthAdjust="spacing" textLength="192" x="241.3494" y="107.3492">UC3 - Visualiser performances</text><text fill="#000000" font-family="sans-serif" font-size="14" lengthAdjust="spacing" textLength="87" x="293.8494" y="124.9585">des magasins</text></g><g id="elem_UC4"><ellipse cx="340.1759" cy="385.5025" fill="#F1F1F1" rx="89.9659" ry="20.3932" style="stroke:#181818;stroke-width:0.5;"/><text fill="#000000" font-family="sans-serif" font-size="14" lengthAdjust="spacing" textLength="138" x="271.1759" y="389.2311">UC4 - Modifier produit</text></g><g id="elem_UC6"><ellipse cx="340.1433" cy="297.596" fill="#F1F1F1" rx="147.9333" ry="31.9867" style="stroke:#181818;stroke-width:0.5;"/><text fill="#000000" font-family="sans-serif" font-size="14" lengthAdjust="spacing" textLength="218" x="228.1433" y="293.308">UC6 - Approuver/refuser demande</text><text fill="#000000" font-family="sans-serif" font-size="14" lengthAdjust="spacing" textLength="153" x="260.6433" y="310.9173">de r&#233;approvisionnement</text></g><!--entity E--><g id="elem_E"><ellipse cx="90.71" cy="420.1094" fill="#F1F1F1" rx="8" ry="8" style="stroke:#181818;stroke-width:0.5;"/><path d="M90.71,428.1094 L90.71,455.1094 M77.71,436.1094 L103.71,436.1094 M90.71,455.1094 L77.71,470.1094 M90.71,455.1094 L103.71,470.1094 " fill="none" style="stroke:#181818;stroke-width:0.5;"/><text fill="#000000" font-family="sans-serif" font-size="14" lengthAdjust="spacing" textLength="54" x="63.71" y="486.1426">Employe</text></g><!--entity G--><g id="elem_G"><ellipse cx="90.71" cy="173.1094" fill="#F1F1F1" rx="8" ry="8" style="stroke:#181818;stroke-width:0.5;"/><path d="M90.71,181.1094 L90.71,208.1094 M77.71,189.1094 L103.71,189.1094 M90.71,208.1094 L77.71,223.1094 M90.71,208.1094 L103.71,223.1094 " fill="none" style="stroke:#181818;stroke-width:0.5;"/><text fill="#000000" font-family="sans-serif" font-size="14" lengthAdjust="spacing" textLength="81" x="50.21" y="239.1426">Gestionnaire</text></g><!--entity R--><g id="elem_R"><ellipse cx="90.71" cy="307.1094" fill="#F1F1F1" rx="8" ry="8" style="stroke:#181818;stroke-width:0.5;"/><path d="M90.71,315.1094 L90.71,342.1094 M77.71,323.1094 L103.71,323.1094 M90.71,342.1094 L77.71,357.1094 M90.71,342.1094 L103.71,357.1094 " fill="none" style="stroke:#181818;stroke-width:0.5;"/><text fill="#000000" font-family="sans-serif" font-size="14" lengthAdjust="spacing" textLength="83" x="49.21" y="373.1426">Responsable</text></g><!--link G to E--><g id="link_G_E"><path d="M51.85,242.9994 C38.85,258.7994 25.96,278.0194 19.21,298.1094 C8.04,331.3994 6,344.5794 19.21,377.1094 C28.19,399.2094 33.3913,406.9571 49.6213,420.1471 " fill="none" id="G-to-E" style="stroke:#181818;stroke-width:1.0;"/><polygon fill="none" points="63.59,431.4994,53.4054,415.4908,45.8372,424.8033,63.59,431.4994" style="stroke:#181818;stroke-width:1.0;"/></g><!--link R to E--><g id="link_R_E"><path d="M90.71,376.7694 C90.71,388.2894 90.71,381.8094 90.71,393.3194 " fill="none" id="R-to-E" style="stroke:#181818;stroke-width:1.0;"/><polygon fill="none" points="90.71,411.3194,96.71,393.3194,84.71,393.3194,90.71,411.3194" style="stroke:#181818;stroke-width:1.0;"/></g><!--link G to UC1--><g id="link_G_UC1"><path d="M131.48,203.6094 C155.46,203.6094 181.41,203.6094 213.04,203.6094 " fill="none" id="G-to-UC1" style="stroke:#181818;stroke-width:1.0;"/><polygon fill="#181818" points="219.04,203.6094,210.04,199.6094,214.04,203.6094,210.04,207.6094,219.04,203.6094" style="stroke:#181818;stroke-width:1.0;"/></g><!--link E to UC2--><g id="link_E_UC2"><path d="M117.73,452.9194 C139.51,454.8594 166.4037,457.2472 200.2037,460.2572 " fill="none" id="E-to-UC2" style="stroke:#181818;stroke-width:1.0;"/><polygon fill="#181818" points="206.18,460.7894,197.5703,456.0068,201.1997,460.3459,196.8607,463.9753,206.18,460.7894" style="stroke:#181818;stroke-width:1.0;"/></g><!--link G to UC3--><g id="link_G_UC3"><path d="M131.25,178.3794 C142.86,171.6594 155.78,164.8294 168.21,159.6094 C192.52,149.3994 213.883,142.27 239.263,135.15 " fill="none" id="G-to-UC3" style="stroke:#181818;stroke-width:1.0;"/><polygon fill="#181818" points="245.04,133.5294,235.2941,132.109,240.2259,134.8799,237.455,139.8117,245.04,133.5294" style="stroke:#181818;stroke-width:1.0;"/></g><!--link R to UC4--><g id="link_R_UC4"><path d="M132.3,345.4794 C169.88,352.7694 220.6097,362.6073 265.1197,371.2373 " fill="none" id="R-to-UC4" style="stroke:#181818;stroke-width:1.0;"/><polygon fill="#181818" points="271.01,372.3794,262.9359,366.7394,266.1014,371.4277,261.4132,374.5931,271.01,372.3794" style="stroke:#181818;stroke-width:1.0;"/></g><!--link R to UC6--><g id="link_R_UC6"><path d="M132.3,331.0494 C156.72,327.0994 183.2368,322.8163 215.1768,317.6563 " fill="none" id="R-to-UC6" style="stroke:#181818;stroke-width:1.0;"/><polygon fill="#181818" points="221.1,316.6994,211.5773,314.1859,216.164,317.4968,212.8531,322.0835,221.1,316.6994" style="stroke:#181818;stroke-width:1.0;"/></g><!--SRC=[TP6nQiCm48PtFyNXfPCfJKB6G763fow1TCgYIcT7L9RCIGwKjW_av_2BzIuH6LogHSVn_zz_EYMR7CABLHsflaUeLGJpS4pMsQYI3HugU5MTYjP3ZJwHSeN3Da4AGBOx9p2MK8koA9HEWM3V3ovy8Z1fdriDHb5unLhfDxb_m3W47zMxkxOFHT50zRrZto7VXS2LxrXGBkOeuQi0FcD4hIB2iNuII2bt1Sqy-NaY920r384IQ4uApffvAXU-LVQjs5UpQdI9VJ45_G7w5dRoB_Ea7Nfz5kGyCPJ2nKPv5lOiMaBN6Rfcw9kDe-ADidL0QWFrockC9symGdzxLbm2DXcmaIy8nhPMx1JCQF-4RRDsozfdcMoy83qIjgDa6kGyWnBtp-W_ryrNErbYiS_LwjvRotzSgyszslu2]--></g></svg>