<?xml version="1.0" encoding="us-ascii" standalone="no"?><svg xmlns="http://www.w3.org/2000/svg" xmlns:xlink="http://www.w3.org/1999/xlink" contentStyleType="text/css" height="841px" preserveAspectRatio="none" style="width:2529px;height:841px;background:#FFFFFF;" version="1.1" viewBox="0 0 2529 841" width="2529px" zoomAndPan="magnify"><defs/><g><text fill="#000000" font-family="sans-serif" font-size="14" font-weight="bold" lengthAdjust="spacing" textLength="433" x="1041.1353" y="24.5332">Vue de d&#233;ploiement physique de l'application MagasinCentral</text><!--cluster Docker Host (H?te Linux/macOS/Windows)--><g id="cluster_Docker Host (H&#244;te Linux/macOS/Windows)"><polygon fill="none" points="202.2706,54.6094,212.2706,44.6094,2512.2706,44.6094,2512.2706,814.6094,2502.2706,824.6094,202.2706,824.6094,202.2706,54.6094" style="stroke:#181818;stroke-width:1.0;"/><line style="stroke:#181818;stroke-width:1.0;" x1="2502.2706" x2="2512.2706" y1="54.6094" y2="44.6094"/><line style="stroke:#181818;stroke-width:1.0;" x1="202.2706" x2="2502.2706" y1="54.6094" y2="54.6094"/><line style="stroke:#181818;stroke-width:1.0;" x1="2502.2706" x2="2502.2706" y1="54.6094" y2="824.6094"/><text fill="#000000" font-family="sans-serif" font-size="14" font-weight="bold" lengthAdjust="spacing" textLength="294" x="1206.2706" y="72.1426">Docker Host (H&#244;te Linux/macOS/Windows)</text></g><!--cluster API Gateway - Kong--><g id="cluster_API Gateway - Kong"><polygon fill="none" points="226.2706,390.6094,236.2706,380.6094,595.2706,380.6094,595.2706,680.6094,585.2706,690.6094,226.2706,690.6094,226.2706,390.6094" style="stroke:#181818;stroke-width:1.0;"/><line style="stroke:#181818;stroke-width:1.0;" x1="585.2706" x2="595.2706" y1="390.6094" y2="380.6094"/><line style="stroke:#181818;stroke-width:1.0;" x1="226.2706" x2="585.2706" y1="390.6094" y2="390.6094"/><line style="stroke:#181818;stroke-width:1.0;" x1="585.2706" x2="585.2706" y1="390.6094" y2="690.6094"/><text fill="#000000" font-family="sans-serif" font-size="14" font-weight="bold" lengthAdjust="spacing" textLength="135" x="339.2706" y="408.1426">API Gateway - Kong</text></g><!--cluster MagasinCentral (Client MVC)--><g id="cluster_MagasinCentral (Client MVC)"><path d="M1150.7706,390.6094 L1352.7706,390.6094 A3.75,3.75 0 0 1 1355.2706,393.1094 L1362.2706,414.2188 L1362.7706,414.2188 A2.5,2.5 0 0 1 1365.2706,416.7188 L1365.2706,508.1094 A2.5,2.5 0 0 1 1362.7706,510.6094 L1150.7706,510.6094 A2.5,2.5 0 0 1 1148.2706,508.1094 L1148.2706,393.1094 A2.5,2.5 0 0 1 1150.7706,390.6094 " fill="none" style="stroke:#000000;stroke-width:1.5;"/><line style="stroke:#000000;stroke-width:1.5;" x1="1148.2706" x2="1362.2706" y1="414.2188" y2="414.2188"/><text fill="#000000" font-family="sans-serif" font-size="14" font-weight="bold" lengthAdjust="spacing" textLength="201" x="1152.2706" y="407.1426">MagasinCentral (Client MVC)</text></g><!--cluster Microservices--><g id="cluster_Microservices"><polygon fill="none" points="619.2706,570.6094,629.2706,560.6094,2335.2706,560.6094,2335.2706,790.6094,2325.2706,800.6094,619.2706,800.6094,619.2706,570.6094" style="stroke:#181818;stroke-width:1.0;"/><line style="stroke:#181818;stroke-width:1.0;" x1="2325.2706" x2="2335.2706" y1="570.6094" y2="560.6094"/><line style="stroke:#181818;stroke-width:1.0;" x1="619.2706" x2="2325.2706" y1="570.6094" y2="570.6094"/><line style="stroke:#181818;stroke-width:1.0;" x1="2325.2706" x2="2325.2706" y1="570.6094" y2="800.6094"/><text fill="#000000" font-family="sans-serif" font-size="14" font-weight="bold" lengthAdjust="spacing" textLength="101" x="1422.7706" y="588.1426">Microservices</text></g><!--cluster Observabilit?--><g id="cluster_Observabilit&#233;"><polygon fill="none" points="619.2706,103.6094,629.2706,93.6094,827.2706,93.6094,827.2706,500.6094,817.2706,510.6094,619.2706,510.6094,619.2706,103.6094" style="stroke:#181818;stroke-width:1.0;"/><line style="stroke:#181818;stroke-width:1.0;" x1="817.2706" x2="827.2706" y1="103.6094" y2="93.6094"/><line style="stroke:#181818;stroke-width:1.0;" x1="619.2706" x2="817.2706" y1="103.6094" y2="103.6094"/><line style="stroke:#181818;stroke-width:1.0;" x1="817.2706" x2="817.2706" y1="103.6094" y2="510.6094"/><text fill="#000000" font-family="sans-serif" font-size="14" font-weight="bold" lengthAdjust="spacing" textLength="95" x="671.7706" y="121.1426">Observabilit&#233;</text></g><!--entity DbApp--><g id="elem_DbApp"><path d="M2354.2706,637.1094 C2354.2706,627.1094 2425.2706,627.1094 2425.2706,627.1094 C2425.2706,627.1094 2496.2706,627.1094 2496.2706,637.1094 L2496.2706,663.7188 C2496.2706,673.7188 2425.2706,673.7188 2425.2706,673.7188 C2425.2706,673.7188 2354.2706,673.7188 2354.2706,663.7188 L2354.2706,637.1094 " fill="#F1F1F1" style="stroke:#181818;stroke-width:0.5;"/><path d="M2354.2706,637.1094 C2354.2706,647.1094 2425.2706,647.1094 2425.2706,647.1094 C2425.2706,647.1094 2496.2706,647.1094 2496.2706,637.1094 " fill="none" style="stroke:#181818;stroke-width:0.5;"/><text fill="#000000" font-family="sans-serif" font-size="14" lengthAdjust="spacing" textLength="122" x="2364.2706" y="665.6426">DB MagasinCentral</text></g><!--entity KongProxy--><g id="elem_KongProxy"><rect fill="#F1F1F1" height="47.6094" rx="2.5" ry="2.5" style="stroke:#181818;stroke-width:0.5;" width="158" x="421.2706" y="446.6094"/><rect fill="#F1F1F1" height="10" style="stroke:#181818;stroke-width:0.5;" width="15" x="559.2706" y="451.6094"/><rect fill="#F1F1F1" height="2" style="stroke:#181818;stroke-width:0.5;" width="4" x="557.2706" y="453.6094"/><rect fill="#F1F1F1" height="2" style="stroke:#181818;stroke-width:0.5;" width="4" x="557.2706" y="457.6094"/><text fill="#000000" font-family="sans-serif" font-size="14" lengthAdjust="spacing" textLength="118" x="436.2706" y="481.1426">Kong Proxy (8000)</text></g><!--entity KongAdmin--><g id="elem_KongAdmin"><rect fill="#F1F1F1" height="47.6094" rx="2.5" ry="2.5" style="stroke:#181818;stroke-width:0.5;" width="187" x="242.7706" y="626.6094"/><rect fill="#F1F1F1" height="10" style="stroke:#181818;stroke-width:0.5;" width="15" x="409.7706" y="631.6094"/><rect fill="#F1F1F1" height="2" style="stroke:#181818;stroke-width:0.5;" width="4" x="407.7706" y="633.6094"/><rect fill="#F1F1F1" height="2" style="stroke:#181818;stroke-width:0.5;" width="4" x="407.7706" y="637.6094"/><text fill="#000000" font-family="sans-serif" font-size="14" lengthAdjust="spacing" textLength="147" x="257.7706" y="661.1426">Kong Admin API (8001)</text></g><!--entity Konga--><g id="elem_Konga"><rect fill="#F1F1F1" height="47.6094" rx="2.5" ry="2.5" style="stroke:#181818;stroke-width:0.5;" width="143" x="242.7706" y="446.6094"/><rect fill="#F1F1F1" height="10" style="stroke:#181818;stroke-width:0.5;" width="15" x="365.7706" y="451.6094"/><rect fill="#F1F1F1" height="2" style="stroke:#181818;stroke-width:0.5;" width="4" x="363.7706" y="453.6094"/><rect fill="#F1F1F1" height="2" style="stroke:#181818;stroke-width:0.5;" width="4" x="363.7706" y="457.6094"/><text fill="#000000" font-family="sans-serif" font-size="14" lengthAdjust="spacing" textLength="103" x="257.7706" y="481.1426">Konga UI (1337)</text></g><!--entity MagasinCentral--><g id="elem_MagasinCentral"><rect fill="#F1F1F1" height="47.6094" rx="2.5" ry="2.5" style="stroke:#181818;stroke-width:0.5;" width="183" x="1164.7706" y="446.6094"/><rect fill="#F1F1F1" height="10" style="stroke:#181818;stroke-width:0.5;" width="15" x="1327.7706" y="451.6094"/><rect fill="#F1F1F1" height="2" style="stroke:#181818;stroke-width:0.5;" width="4" x="1325.7706" y="453.6094"/><rect fill="#F1F1F1" height="2" style="stroke:#181818;stroke-width:0.5;" width="4" x="1325.7706" y="457.6094"/><text fill="#000000" font-family="sans-serif" font-size="14" lengthAdjust="spacing" textLength="143" x="1179.7706" y="481.1426">ASP.NET Razor Pages</text></g><!--entity Produit--><g id="elem_Produit"><rect fill="#F1F1F1" height="47.6094" rx="2.5" ry="2.5" style="stroke:#181818;stroke-width:0.5;" width="150" x="1359.2706" y="626.6094"/><rect fill="#F1F1F1" height="10" style="stroke:#181818;stroke-width:0.5;" width="15" x="1489.2706" y="631.6094"/><rect fill="#F1F1F1" height="2" style="stroke:#181818;stroke-width:0.5;" width="4" x="1487.2706" y="633.6094"/><rect fill="#F1F1F1" height="2" style="stroke:#181818;stroke-width:0.5;" width="4" x="1487.2706" y="637.6094"/><text fill="#000000" font-family="sans-serif" font-size="14" lengthAdjust="spacing" textLength="110" x="1374.2706" y="661.1426">ProduitMcService</text></g><!--entity DbProduit--><g id="elem_DbProduit"><path d="M1390.2706,747.6094 C1390.2706,737.6094 1434.2706,737.6094 1434.2706,737.6094 C1434.2706,737.6094 1478.2706,737.6094 1478.2706,747.6094 L1478.2706,774.2188 C1478.2706,784.2188 1434.2706,784.2188 1434.2706,784.2188 C1434.2706,784.2188 1390.2706,784.2188 1390.2706,774.2188 L1390.2706,747.6094 " fill="#F1F1F1" style="stroke:#181818;stroke-width:0.5;"/><path d="M1390.2706,747.6094 C1390.2706,757.6094 1434.2706,757.6094 1434.2706,757.6094 C1434.2706,757.6094 1478.2706,757.6094 1478.2706,747.6094 " fill="none" style="stroke:#181818;stroke-width:0.5;"/><text fill="#000000" font-family="sans-serif" font-size="14" lengthAdjust="spacing" textLength="68" x="1400.2706" y="776.1426">DB Produit</text></g><!--entity ClientMc--><g id="elem_ClientMc"><rect fill="#F1F1F1" height="47.6094" rx="2.5" ry="2.5" style="stroke:#181818;stroke-width:0.5;" width="141" x="1544.7706" y="626.6094"/><rect fill="#F1F1F1" height="10" style="stroke:#181818;stroke-width:0.5;" width="15" x="1665.7706" y="631.6094"/><rect fill="#F1F1F1" height="2" style="stroke:#181818;stroke-width:0.5;" width="4" x="1663.7706" y="633.6094"/><rect fill="#F1F1F1" height="2" style="stroke:#181818;stroke-width:0.5;" width="4" x="1663.7706" y="637.6094"/><text fill="#000000" font-family="sans-serif" font-size="14" lengthAdjust="spacing" textLength="101" x="1559.7706" y="661.1426">ClientMcService</text></g><!--entity DbClient--><g id="elem_DbClient"><path d="M1575.7706,747.6094 C1575.7706,737.6094 1615.2706,737.6094 1615.2706,737.6094 C1615.2706,737.6094 1654.7706,737.6094 1654.7706,747.6094 L1654.7706,774.2188 C1654.7706,784.2188 1615.2706,784.2188 1615.2706,784.2188 C1615.2706,784.2188 1575.7706,784.2188 1575.7706,774.2188 L1575.7706,747.6094 " fill="#F1F1F1" style="stroke:#181818;stroke-width:0.5;"/><path d="M1575.7706,747.6094 C1575.7706,757.6094 1615.2706,757.6094 1615.2706,757.6094 C1615.2706,757.6094 1654.7706,757.6094 1654.7706,747.6094 " fill="none" style="stroke:#181818;stroke-width:0.5;"/><text fill="#000000" font-family="sans-serif" font-size="14" lengthAdjust="spacing" textLength="59" x="1585.7706" y="776.1426">DB Client</text></g><!--entity Commande--><g id="elem_Commande"><rect fill="#F1F1F1" height="47.6094" rx="2.5" ry="2.5" style="stroke:#181818;stroke-width:0.5;" width="177" x="1948.7706" y="626.6094"/><rect fill="#F1F1F1" height="10" style="stroke:#181818;stroke-width:0.5;" width="15" x="2105.7706" y="631.6094"/><rect fill="#F1F1F1" height="2" style="stroke:#181818;stroke-width:0.5;" width="4" x="2103.7706" y="633.6094"/><rect fill="#F1F1F1" height="2" style="stroke:#181818;stroke-width:0.5;" width="4" x="2103.7706" y="637.6094"/><text fill="#000000" font-family="sans-serif" font-size="14" lengthAdjust="spacing" textLength="137" x="1963.7706" y="661.1426">CommandeMcService</text></g><!--entity Panier--><g id="elem_Panier"><rect fill="#F1F1F1" height="47.6094" rx="2.5" ry="2.5" style="stroke:#181818;stroke-width:0.5;" width="146" x="1178.2706" y="626.6094"/><rect fill="#F1F1F1" height="10" style="stroke:#181818;stroke-width:0.5;" width="15" x="1304.2706" y="631.6094"/><rect fill="#F1F1F1" height="2" style="stroke:#181818;stroke-width:0.5;" width="4" x="1302.2706" y="633.6094"/><rect fill="#F1F1F1" height="2" style="stroke:#181818;stroke-width:0.5;" width="4" x="1302.2706" y="637.6094"/><text fill="#000000" font-family="sans-serif" font-size="14" lengthAdjust="spacing" textLength="106" x="1193.2706" y="661.1426">PanierMcService</text></g><!--entity DbPanier--><g id="elem_DbPanier"><path d="M1209.2706,747.6094 C1209.2706,737.6094 1251.2706,737.6094 1251.2706,737.6094 C1251.2706,737.6094 1293.2706,737.6094 1293.2706,747.6094 L1293.2706,774.2188 C1293.2706,784.2188 1251.2706,784.2188 1251.2706,784.2188 C1251.2706,784.2188 1209.2706,784.2188 1209.2706,774.2188 L1209.2706,747.6094 " fill="#F1F1F1" style="stroke:#181818;stroke-width:0.5;"/><path d="M1209.2706,747.6094 C1209.2706,757.6094 1251.2706,757.6094 1251.2706,757.6094 C1251.2706,757.6094 1293.2706,757.6094 1293.2706,747.6094 " fill="none" style="stroke:#181818;stroke-width:0.5;"/><text fill="#000000" font-family="sans-serif" font-size="14" lengthAdjust="spacing" textLength="64" x="1219.2706" y="776.1426">DB Panier</text></g><!--entity Vente--><g id="elem_Vente"><rect fill="#F1F1F1" height="47.6094" rx="2.5" ry="2.5" style="stroke:#181818;stroke-width:0.5;" width="142" x="1001.2706" y="626.6094"/><rect fill="#F1F1F1" height="10" style="stroke:#181818;stroke-width:0.5;" width="15" x="1123.2706" y="631.6094"/><rect fill="#F1F1F1" height="2" style="stroke:#181818;stroke-width:0.5;" width="4" x="1121.2706" y="633.6094"/><rect fill="#F1F1F1" height="2" style="stroke:#181818;stroke-width:0.5;" width="4" x="1121.2706" y="637.6094"/><text fill="#000000" font-family="sans-serif" font-size="14" lengthAdjust="spacing" textLength="102" x="1016.2706" y="661.1426">VenteMcService</text></g><!--entity DbVente--><g id="elem_DbVente"><path d="M1032.2706,747.6094 C1032.2706,737.6094 1072.2706,737.6094 1072.2706,737.6094 C1072.2706,737.6094 1112.2706,737.6094 1112.2706,747.6094 L1112.2706,774.2188 C1112.2706,784.2188 1072.2706,784.2188 1072.2706,784.2188 C1072.2706,784.2188 1032.2706,784.2188 1032.2706,774.2188 L1032.2706,747.6094 " fill="#F1F1F1" style="stroke:#181818;stroke-width:0.5;"/><path d="M1032.2706,747.6094 C1032.2706,757.6094 1072.2706,757.6094 1072.2706,757.6094 C1072.2706,757.6094 1112.2706,757.6094 1112.2706,747.6094 " fill="none" style="stroke:#181818;stroke-width:0.5;"/><text fill="#000000" font-family="sans-serif" font-size="14" lengthAdjust="spacing" textLength="60" x="1042.2706" y="776.1426">DB Vente</text></g><!--entity Stock--><g id="elem_Stock"><rect fill="#F1F1F1" height="47.6094" rx="2.5" ry="2.5" style="stroke:#181818;stroke-width:0.5;" width="140" x="635.2706" y="626.6094"/><rect fill="#F1F1F1" height="10" style="stroke:#181818;stroke-width:0.5;" width="15" x="755.2706" y="631.6094"/><rect fill="#F1F1F1" height="2" style="stroke:#181818;stroke-width:0.5;" width="4" x="753.2706" y="633.6094"/><rect fill="#F1F1F1" height="2" style="stroke:#181818;stroke-width:0.5;" width="4" x="753.2706" y="637.6094"/><text fill="#000000" font-family="sans-serif" font-size="14" lengthAdjust="spacing" textLength="100" x="650.2706" y="661.1426">StockMcService</text></g><!--entity DbStock--><g id="elem_DbStock"><path d="M666.2706,747.6094 C666.2706,737.6094 705.2706,737.6094 705.2706,737.6094 C705.2706,737.6094 744.2706,737.6094 744.2706,747.6094 L744.2706,774.2188 C744.2706,784.2188 705.2706,784.2188 705.2706,784.2188 C705.2706,784.2188 666.2706,784.2188 666.2706,774.2188 L666.2706,747.6094 " fill="#F1F1F1" style="stroke:#181818;stroke-width:0.5;"/><path d="M666.2706,747.6094 C666.2706,757.6094 705.2706,757.6094 705.2706,757.6094 C705.2706,757.6094 744.2706,757.6094 744.2706,747.6094 " fill="none" style="stroke:#181818;stroke-width:0.5;"/><text fill="#000000" font-family="sans-serif" font-size="14" lengthAdjust="spacing" textLength="58" x="676.2706" y="776.1426">DB Stock</text></g><!--entity Magasin--><g id="elem_Magasin"><rect fill="#F1F1F1" height="47.6094" rx="2.5" ry="2.5" style="stroke:#181818;stroke-width:0.5;" width="158" x="2161.2706" y="626.6094"/><rect fill="#F1F1F1" height="10" style="stroke:#181818;stroke-width:0.5;" width="15" x="2299.2706" y="631.6094"/><rect fill="#F1F1F1" height="2" style="stroke:#181818;stroke-width:0.5;" width="4" x="2297.2706" y="633.6094"/><rect fill="#F1F1F1" height="2" style="stroke:#181818;stroke-width:0.5;" width="4" x="2297.2706" y="637.6094"/><text fill="#000000" font-family="sans-serif" font-size="14" lengthAdjust="spacing" textLength="118" x="2176.2706" y="661.1426">MagasinMcService</text></g><!--entity DbMagasin--><g id="elem_DbMagasin"><path d="M2192.2706,747.6094 C2192.2706,737.6094 2240.2706,737.6094 2240.2706,737.6094 C2240.2706,737.6094 2288.2706,737.6094 2288.2706,747.6094 L2288.2706,774.2188 C2288.2706,784.2188 2240.2706,784.2188 2240.2706,784.2188 C2240.2706,784.2188 2192.2706,784.2188 2192.2706,774.2188 L2192.2706,747.6094 " fill="#F1F1F1" style="stroke:#181818;stroke-width:0.5;"/><path d="M2192.2706,747.6094 C2192.2706,757.6094 2240.2706,757.6094 2240.2706,757.6094 C2240.2706,757.6094 2288.2706,757.6094 2288.2706,747.6094 " fill="none" style="stroke:#181818;stroke-width:0.5;"/><text fill="#000000" font-family="sans-serif" font-size="14" lengthAdjust="spacing" textLength="76" x="2202.2706" y="776.1426">DB Magasin</text></g><!--entity Rapport--><g id="elem_Rapport"><rect fill="#F1F1F1" height="47.6094" rx="2.5" ry="2.5" style="stroke:#181818;stroke-width:0.5;" width="156" x="810.2706" y="626.6094"/><rect fill="#F1F1F1" height="10" style="stroke:#181818;stroke-width:0.5;" width="15" x="946.2706" y="631.6094"/><rect fill="#F1F1F1" height="2" style="stroke:#181818;stroke-width:0.5;" width="4" x="944.2706" y="633.6094"/><rect fill="#F1F1F1" height="2" style="stroke:#181818;stroke-width:0.5;" width="4" x="944.2706" y="637.6094"/><text fill="#000000" font-family="sans-serif" font-size="14" lengthAdjust="spacing" textLength="116" x="825.2706" y="661.1426">RapportMcService</text></g><!--entity Perf--><g id="elem_Perf"><rect fill="#F1F1F1" height="47.6094" rx="2.5" ry="2.5" style="stroke:#181818;stroke-width:0.5;" width="193" x="1720.7706" y="626.6094"/><rect fill="#F1F1F1" height="10" style="stroke:#181818;stroke-width:0.5;" width="15" x="1893.7706" y="631.6094"/><rect fill="#F1F1F1" height="2" style="stroke:#181818;stroke-width:0.5;" width="4" x="1891.7706" y="633.6094"/><rect fill="#F1F1F1" height="2" style="stroke:#181818;stroke-width:0.5;" width="4" x="1891.7706" y="637.6094"/><text fill="#000000" font-family="sans-serif" font-size="14" lengthAdjust="spacing" textLength="153" x="1735.7706" y="661.1426">PerformancesMcService</text></g><!--entity DbPerf--><g id="elem_DbPerf"><path d="M1782.7706,747.6094 C1782.7706,737.6094 1817.2706,737.6094 1817.2706,737.6094 C1817.2706,737.6094 1851.7706,737.6094 1851.7706,747.6094 L1851.7706,774.2188 C1851.7706,784.2188 1817.2706,784.2188 1817.2706,784.2188 C1817.2706,784.2188 1782.7706,784.2188 1782.7706,774.2188 L1782.7706,747.6094 " fill="#F1F1F1" style="stroke:#181818;stroke-width:0.5;"/><path d="M1782.7706,747.6094 C1782.7706,757.6094 1817.2706,757.6094 1817.2706,757.6094 C1817.2706,757.6094 1851.7706,757.6094 1851.7706,747.6094 " fill="none" style="stroke:#181818;stroke-width:0.5;"/><text fill="#000000" font-family="sans-serif" font-size="14" lengthAdjust="spacing" textLength="49" x="1792.7706" y="776.1426">DB Perf</text></g><!--entity Prometheus--><g id="elem_Prometheus"><rect fill="#F1F1F1" height="47.6094" rx="2.5" ry="2.5" style="stroke:#181818;stroke-width:0.5;" width="162" x="649.2706" y="268.6094"/><rect fill="#F1F1F1" height="10" style="stroke:#181818;stroke-width:0.5;" width="15" x="791.2706" y="273.6094"/><rect fill="#F1F1F1" height="2" style="stroke:#181818;stroke-width:0.5;" width="4" x="789.2706" y="275.6094"/><rect fill="#F1F1F1" height="2" style="stroke:#181818;stroke-width:0.5;" width="4" x="789.2706" y="279.6094"/><text fill="#000000" font-family="sans-serif" font-size="14" lengthAdjust="spacing" textLength="122" x="664.2706" y="303.1426">Prometheus (9090)</text></g><!--entity Grafana--><g id="elem_Grafana"><rect fill="#F1F1F1" height="47.6094" rx="2.5" ry="2.5" style="stroke:#181818;stroke-width:0.5;" width="138" x="661.2706" y="159.6094"/><rect fill="#F1F1F1" height="10" style="stroke:#181818;stroke-width:0.5;" width="15" x="779.2706" y="164.6094"/><rect fill="#F1F1F1" height="2" style="stroke:#181818;stroke-width:0.5;" width="4" x="777.2706" y="166.6094"/><rect fill="#F1F1F1" height="2" style="stroke:#181818;stroke-width:0.5;" width="4" x="777.2706" y="170.6094"/><text fill="#000000" font-family="sans-serif" font-size="14" lengthAdjust="spacing" textLength="98" x="676.2706" y="194.1426">Grafana (3000)</text></g><!--entity NodeExporter--><g id="elem_NodeExporter"><rect fill="#F1F1F1" height="47.6094" rx="2.5" ry="2.5" style="stroke:#181818;stroke-width:0.5;" width="176" x="635.2706" y="446.6094"/><rect fill="#F1F1F1" height="10" style="stroke:#181818;stroke-width:0.5;" width="15" x="791.2706" y="451.6094"/><rect fill="#F1F1F1" height="2" style="stroke:#181818;stroke-width:0.5;" width="4" x="789.2706" y="453.6094"/><rect fill="#F1F1F1" height="2" style="stroke:#181818;stroke-width:0.5;" width="4" x="789.2706" y="457.6094"/><text fill="#000000" font-family="sans-serif" font-size="14" lengthAdjust="spacing" textLength="136" x="650.2706" y="481.1426">Node Exporter (9100)</text></g><!--entity Client--><g id="elem_Client"><path d="M14.6987,278.3905 C18.2782,272.4883 23.9657,272.2652 28.2131,277.5864 C30.874,272.0002 34.9003,271.5467 38.8126,276.304 C41.3935,270.684 46.1736,270.1341 50.2499,274.6098 C54.3017,267.7383 58.2383,267.6189 62.701,274.2303 C66.4514,269.5374 69.6665,268.8971 73.1442,274.5068 C76.0421,268.4499 79.7797,267.5576 84.7717,272.2395 C87.9686,266.5628 94.0816,265.0144 97.8052,271.6835 C101.9829,266.6088 106.3981,266.8432 109.8388,272.5092 C114.2031,267.8045 118.2194,269.165 120.4959,274.6851 C124.1216,267.266 128.6186,268.2827 133.423,273.4771 C137.636,269.1425 141.8177,270.4758 143.4872,276.0584 C146.3521,270.7022 151.3416,270.0431 154.949,275.253 C159.5108,268.9863 164.4658,269.5238 167.5453,276.6475 C171.8992,270.679 175.8065,271.4053 179.5472,277.2695 C190.4177,279.7963 191.5037,285.4014 185.5768,293.9867 C190.6375,301.8789 188.4809,307.3676 179.4912,309.8799 C175.8023,315.0365 171.416,315.3432 167.4543,310.1986 C164.2622,315.1397 159.0028,316.67 155.5762,310.448 C151.7655,314.7738 147.3939,314.7519 144.296,309.5997 C141.134,315.7229 136.4686,317.2712 131.8036,311.1307 C127.3426,317.2209 123.005,315.9922 119.889,309.8234 C117.2294,314.7648 112.6905,314.9309 109.1837,310.826 C105.9468,316.105 101.841,317.5181 97.568,311.9339 C93.0035,317.4764 88.5721,317.3316 85.234,310.6922 C82.1429,315.685 76.9603,314.452 74.5224,309.955 C71.1497,315.5591 67.041,315.4458 63.0234,310.6694 C59.1625,317.2646 54.3941,316.4203 50.5806,310.6218 C47.3584,317.0595 41.537,316.4542 38.5049,310.4375 C35.1461,316.084 30.1053,315.2702 26.8114,310.3658 C22.5485,315.726 18.1116,314.6813 15.0008,309.12 C6.9447,305.4543 6,298.5976 12.7256,292.8631 C7.3322,287.0471 6.5624,282.362 14.6987,278.3905 " fill="#F1F1F1" style="stroke:#181818;stroke-width:0.5;"/><text fill="#000000" font-family="sans-serif" font-size="14" lengthAdjust="spacing" textLength="150" x="21.2706" y="298.1426">Client Web (navigateur)</text></g><!--link Client to KongProxy--><g id="link_Client_KongProxy"><path d="M186.3506,303.9394 C250.2006,314.2294 336.1106,334.2794 403.2706,372.6094 C436.1606,391.3794 461.8851,419.546 479.4851,441.766 " fill="none" id="Client-to-KongProxy" style="stroke:#000000;stroke-width:1.0;"/><polygon fill="#000000" points="483.2106,446.4694,480.758,436.9308,480.106,442.5499,474.4869,441.898,483.2106,446.4694" style="stroke:#000000;stroke-width:1.0;"/><text fill="#000000" font-family="sans-serif" font-size="13" lengthAdjust="spacing" textLength="167" x="389.2706" y="361.1045">Requ&#234;tes HTTP (UI publique)</text></g><!--link KongProxy to MagasinCentral--><g id="link_KongProxy_MagasinCentral"><path d="M520.5706,446.3994 C542.2006,422.6594 578.8406,387.9994 619.2706,373.6094 C827.9406,299.3394 1089.3887,395.5629 1199.6387,444.0729 " fill="none" id="KongProxy-to-MagasinCentral" style="stroke:#000000;stroke-width:1.0;"/><polygon fill="#000000" points="1205.1306,446.4894,1198.5037,439.2035,1200.554,444.4757,1195.2818,446.526,1205.1306,446.4894" style="stroke:#000000;stroke-width:1.0;"/><text fill="#000000" font-family="sans-serif" font-size="13" lengthAdjust="spacing" textLength="122" x="844.2706" y="361.1045">Redirection /magasin</text></g><!--link MagasinCentral to KongProxy--><g id="link_MagasinCentral_KongProxy"><path d="M1205.1306,446.4894 C1094.8806,397.9794 827.9406,299.3394 619.2706,373.6094 C578.8406,387.9994 546.2415,418.2242 524.6115,441.9642 " fill="none" id="MagasinCentral-to-KongProxy" style="stroke:#000000;stroke-width:1.0;"/><polygon fill="#000000" points="520.5706,446.3994,529.5888,442.4406,523.938,442.7034,523.6752,437.0527,520.5706,446.3994" style="stroke:#000000;stroke-width:1.0;"/><text fill="#000000" font-family="sans-serif" font-size="13" lengthAdjust="spacing" textLength="156" x="973.2706" y="361.1045">Appels HTTP via HttpClient</text></g><!--link KongProxy to Produit--><g id="link_KongProxy_Produit"><path d="M547.1306,494.6694 C568.5706,504.0194 594.6506,513.7394 619.2706,518.6094 C681.3006,530.8694 1125.3006,520.8894 1188.2706,526.6094 C1257.4006,532.8894 1281.0106,519.9694 1342.2706,552.6094 C1375.0406,570.0694 1399.3041,598.7162 1415.5041,621.4062 " fill="none" id="KongProxy-to-Produit" style="stroke:#000000;stroke-width:1.0;"/><polygon fill="#000000" points="1418.9906,626.2894,1417.0164,616.6404,1416.0852,622.2201,1410.5055,621.289,1418.9906,626.2894" style="stroke:#000000;stroke-width:1.0;"/><text fill="#000000" font-family="sans-serif" font-size="13" lengthAdjust="spacing" textLength="50" x="1325.2706" y="541.1045">/produits</text></g><!--link KongProxy to ClientMc--><g id="link_KongProxy_ClientMc"><path d="M547.1206,494.7094 C568.5606,504.0694 594.6406,513.7894 619.2706,518.6094 C702.6906,534.9394 1299.6506,518.5294 1384.2706,526.6094 C1448.5806,532.7494 1470.8006,521.2494 1527.2706,552.6094 C1559.0806,570.2694 1582.1329,598.7836 1597.4729,621.4036 " fill="none" id="KongProxy-to-ClientMc" style="stroke:#000000;stroke-width:1.0;"/><polygon fill="#000000" points="1600.8406,626.3694,1599.0997,616.6756,1598.0342,622.2312,1592.4786,621.1657,1600.8406,626.3694" style="stroke:#000000;stroke-width:1.0;"/><text fill="#000000" font-family="sans-serif" font-size="13" lengthAdjust="spacing" textLength="42" x="1512.2706" y="541.1045">/clients</text></g><!--link KongProxy to Commande--><g id="link_KongProxy_Commande"><path d="M546.8306,494.6194 C568.3206,504.0294 594.5206,513.8094 619.2706,518.6094 C682.3206,530.8394 1711.2806,521.0894 1775.2706,526.6094 C1845.3006,532.6494 1868.0706,521.8394 1931.2706,552.6094 C1967.1506,570.0794 1995.7054,599.0271 2014.9854,621.7171 " fill="none" id="KongProxy-to-Commande" style="stroke:#000000;stroke-width:1.0;"/><polygon fill="#000000" points="2018.8706,626.2894,2016.0911,616.8409,2015.6329,622.4791,2009.9947,622.021,2018.8706,626.2894" style="stroke:#000000;stroke-width:1.0;"/><text fill="#000000" font-family="sans-serif" font-size="13" lengthAdjust="spacing" textLength="75" x="1914.2706" y="541.1045">/commandes</text></g><!--link KongProxy to Panier--><g id="link_KongProxy_Panier"><path d="M547.4306,494.7194 C568.8206,504.0194 594.7706,513.6894 619.2706,518.6094 C737.5906,542.3594 1055.4406,494.6094 1161.2706,552.6094 C1193.5006,570.2694 1217.1662,598.8295 1232.9562,621.4495 " fill="none" id="KongProxy-to-Panier" style="stroke:#000000;stroke-width:1.0;"/><polygon fill="#000000" points="1236.3906,626.3694,1234.519,616.7,1233.5286,622.2695,1227.9591,621.2791,1236.3906,626.3694" style="stroke:#000000;stroke-width:1.0;"/><text fill="#000000" font-family="sans-serif" font-size="13" lengthAdjust="spacing" textLength="39" x="1140.2706" y="541.1045">/panier</text></g><!--link KongProxy to Vente--><g id="link_KongProxy_Vente"><path d="M547.7606,494.6494 C569.1006,503.8694 594.9206,513.4994 619.2706,518.6094 C666.0606,528.4194 786.7206,521.6294 834.2706,526.6094 C901.5606,533.6594 924.9806,519.9994 984.2706,552.6094 C1016.1506,570.1394 1039.19,598.6788 1054.51,621.3388 " fill="none" id="KongProxy-to-Vente" style="stroke:#000000;stroke-width:1.0;"/><polygon fill="#000000" points="1057.8706,626.3094,1056.1435,616.6131,1055.0701,622.1672,1049.516,621.0938,1057.8706,626.3094" style="stroke:#000000;stroke-width:1.0;"/><text fill="#000000" font-family="sans-serif" font-size="13" lengthAdjust="spacing" textLength="41" x="968.2706" y="541.1045">/ventes</text></g><!--link KongProxy to Stock--><g id="link_KongProxy_Stock"><path d="M527.8106,494.8794 C546.8306,511.0094 572.6706,533.0094 595.2706,552.6094 C624.1306,577.6294 652.444,602.6456 674.664,622.3756 " fill="none" id="KongProxy-to-Stock" style="stroke:#000000;stroke-width:1.0;"/><polygon fill="#000000" points="679.1506,626.3594,675.0766,617.3926,675.4117,623.0395,669.7648,623.3747,679.1506,626.3594" style="stroke:#000000;stroke-width:1.0;"/><text fill="#000000" font-family="sans-serif" font-size="13" lengthAdjust="spacing" textLength="36" x="585.2706" y="541.1045">/stock</text></g><!--link KongProxy to Magasin--><g id="link_KongProxy_Magasin"><path d="M546.8306,494.6394 C568.3206,504.0394 594.5206,513.8194 619.2706,518.6094 C694.4906,533.1494 1921.9806,519.5994 1998.2706,526.6094 C2063.4706,532.5994 2085.2406,522.2894 2143.2706,552.6094 C2177.0406,570.2494 2202.8412,598.9668 2220.1812,621.5968 " fill="none" id="KongProxy-to-Magasin" style="stroke:#000000;stroke-width:1.0;"/><polygon fill="#000000" points="2223.8306,626.3594,2221.5317,616.7826,2220.7895,622.3905,2215.1815,621.6483,2223.8306,626.3594" style="stroke:#000000;stroke-width:1.0;"/><text fill="#000000" font-family="sans-serif" font-size="13" lengthAdjust="spacing" textLength="60" x="2124.2706" y="541.1045">/magasins</text></g><!--link KongProxy to Rapport--><g id="link_KongProxy_Rapport"><path d="M552.5606,494.6594 C573.0706,503.0694 596.9906,512.0894 619.2706,518.6094 C694.9006,540.7294 723.9106,515.2194 793.2706,552.6094 C826.4706,570.5094 851.6768,599.1222 868.6168,621.6722 " fill="none" id="KongProxy-to-Rapport" style="stroke:#000000;stroke-width:1.0;"/><polygon fill="#000000" points="872.2206,626.4694,870.0131,616.8711,869.2174,622.4717,863.6168,621.6761,872.2206,626.4694" style="stroke:#000000;stroke-width:1.0;"/><text fill="#000000" font-family="sans-serif" font-size="13" lengthAdjust="spacing" textLength="51" x="774.2706" y="541.1045">/rapports</text></g><!--link KongProxy to Perf--><g id="link_KongProxy_Perf"><path d="M547.1206,494.7294 C568.5606,504.0894 594.6306,513.8094 619.2706,518.6094 C670.7506,528.6294 1511.0706,521.5794 1563.2706,526.6094 C1626.2606,532.6794 1646.1306,525.4094 1703.2706,552.6094 C1740.8106,570.4794 1771.8642,599.5154 1792.9442,622.0754 " fill="none" id="KongProxy-to-Perf" style="stroke:#000000;stroke-width:1.0;"/><polygon fill="#000000" points="1797.0406,626.4594,1793.8186,617.1524,1793.6269,622.806,1787.9733,622.6143,1797.0406,626.4594" style="stroke:#000000;stroke-width:1.0;"/><text fill="#000000" font-family="sans-serif" font-size="13" lengthAdjust="spacing" textLength="82" x="1684.2706" y="541.1045">/performances</text></g><!--link MagasinCentral to DbApp--><g id="link_MagasinCentral_DbApp"><path d="M1303.1206,494.7294 C1324.5606,504.0894 1350.6306,513.8094 1375.2706,518.6094 C1401.0406,523.6294 2296.4806,515.5194 2320.2706,526.6094 C2364.9306,547.4294 2394.8079,592.2527 2411.0079,621.6927 " fill="none" id="MagasinCentral-to-DbApp" style="stroke:#000000;stroke-width:1.0;"/><polygon fill="#000000" points="2413.9006,626.9494,2413.0661,617.1359,2411.4901,622.5688,2406.0572,620.9927,2413.9006,626.9494" style="stroke:#000000;stroke-width:1.0;"/></g><!--link Produit to DbProduit--><g id="link_Produit_DbProduit"><path d="M1434.2706,674.6194 C1434.2706,693.1594 1434.2706,713.0794 1434.2706,731.5094 " fill="none" id="Produit-to-DbProduit" style="stroke:#000000;stroke-width:1.0;"/><polygon fill="#000000" points="1434.2706,737.5094,1438.2706,728.5094,1434.2706,732.5094,1430.2706,728.5094,1434.2706,737.5094" style="stroke:#000000;stroke-width:1.0;"/></g><!--link ClientMc to DbClient--><g id="link_ClientMc_DbClient"><path d="M1615.2706,674.6194 C1615.2706,693.1594 1615.2706,713.0794 1615.2706,731.5094 " fill="none" id="ClientMc-to-DbClient" style="stroke:#000000;stroke-width:1.0;"/><polygon fill="#000000" points="1615.2706,737.5094,1619.2706,728.5094,1615.2706,732.5094,1611.2706,728.5094,1615.2706,737.5094" style="stroke:#000000;stroke-width:1.0;"/></g><!--link Panier to DbPanier--><g id="link_Panier_DbPanier"><path d="M1251.2706,674.6194 C1251.2706,693.1594 1251.2706,713.0794 1251.2706,731.5094 " fill="none" id="Panier-to-DbPanier" style="stroke:#000000;stroke-width:1.0;"/><polygon fill="#000000" points="1251.2706,737.5094,1255.2706,728.5094,1251.2706,732.5094,1247.2706,728.5094,1251.2706,737.5094" style="stroke:#000000;stroke-width:1.0;"/></g><!--link Vente to DbVente--><g id="link_Vente_DbVente"><path d="M1072.2706,674.6194 C1072.2706,693.1594 1072.2706,713.0794 1072.2706,731.5094 " fill="none" id="Vente-to-DbVente" style="stroke:#000000;stroke-width:1.0;"/><polygon fill="#000000" points="1072.2706,737.5094,1076.2706,728.5094,1072.2706,732.5094,1068.2706,728.5094,1072.2706,737.5094" style="stroke:#000000;stroke-width:1.0;"/></g><!--link Stock to DbStock--><g id="link_Stock_DbStock"><path d="M705.2706,674.6194 C705.2706,693.1594 705.2706,713.0794 705.2706,731.5094 " fill="none" id="Stock-to-DbStock" style="stroke:#000000;stroke-width:1.0;"/><polygon fill="#000000" points="705.2706,737.5094,709.2706,728.5094,705.2706,732.5094,701.2706,728.5094,705.2706,737.5094" style="stroke:#000000;stroke-width:1.0;"/></g><!--link Magasin to DbMagasin--><g id="link_Magasin_DbMagasin"><path d="M2240.2706,674.6194 C2240.2706,693.1594 2240.2706,713.0794 2240.2706,731.5094 " fill="none" id="Magasin-to-DbMagasin" style="stroke:#000000;stroke-width:1.0;"/><polygon fill="#000000" points="2240.2706,737.5094,2244.2706,728.5094,2240.2706,732.5094,2236.2706,728.5094,2240.2706,737.5094" style="stroke:#000000;stroke-width:1.0;"/></g><!--link Perf to DbPerf--><g id="link_Perf_DbPerf"><path d="M1817.2706,674.6194 C1817.2706,693.1594 1817.2706,713.0794 1817.2706,731.5094 " fill="none" id="Perf-to-DbPerf" style="stroke:#000000;stroke-width:1.0;"/><polygon fill="#000000" points="1817.2706,737.5094,1821.2706,728.5094,1817.2706,732.5094,1813.2706,728.5094,1817.2706,737.5094" style="stroke:#000000;stroke-width:1.0;"/></g><!--link Prometheus to KongProxy--><g id="link_Prometheus_KongProxy"><path d="M690.5506,316.7194 C676.0006,325.6094 659.6006,336.1494 645.2706,346.6094 C601.1406,378.8194 557.9084,416.7514 529.7184,442.4014 " fill="none" id="Prometheus-to-KongProxy" style="stroke:#000000;stroke-width:1.0;"/><polygon fill="#000000" points="525.2806,446.4394,534.6293,443.341,528.9788,443.0744,529.2453,437.4238,525.2806,446.4394" style="stroke:#000000;stroke-width:1.0;"/><text fill="#000000" font-family="sans-serif" font-size="13" lengthAdjust="spacing" textLength="41" x="646.2706" y="361.1045">Scrape</text></g><!--link Prometheus to MagasinCentral--><g id="link_Prometheus_MagasinCentral"><path d="M811.5206,297.7894 C913.7606,304.1394 1082.7206,318.5594 1138.2706,346.6094 C1183.9706,369.6894 1218.3951,412.8026 1238.1151,441.5326 " fill="none" id="Prometheus-to-MagasinCentral" style="stroke:#000000;stroke-width:1.0;"/><polygon fill="#000000" points="1241.5106,446.4794,1239.7153,436.7955,1238.681,442.357,1233.1195,441.3228,1241.5106,446.4794" style="stroke:#000000;stroke-width:1.0;"/><text fill="#000000" font-family="sans-serif" font-size="13" lengthAdjust="spacing" textLength="41" x="1166.2706" y="361.1045">Scrape</text></g><!--link Prometheus to Produit--><g id="link_Prometheus_Produit"><path d="M811.4506,293.6494 C1033.7306,294.6594 1639.2706,303.7694 1693.2706,372.6094 C1733.3206,423.6694 1734.2906,468.3294 1693.2706,518.6094 C1645.6606,576.9594 1593.2106,516.2294 1527.2706,552.6094 C1494.5906,570.6394 1469.9815,599.193 1453.4615,621.693 " fill="none" id="Prometheus-to-Produit" style="stroke:#000000;stroke-width:1.0;"/><polygon fill="#000000" points="1449.9106,626.5294,1458.4613,621.6421,1452.8697,622.4991,1452.0128,616.9075,1449.9106,626.5294" style="stroke:#000000;stroke-width:1.0;"/><text fill="#000000" font-family="sans-serif" font-size="13" lengthAdjust="spacing" textLength="41" x="1724.2706" y="476.1045">Scrape</text></g><!--link Prometheus to ClientMc--><g id="link_Prometheus_ClientMc"><path d="M811.5006,293.0494 C1046.7406,292.3394 1715.5406,297.0294 1774.2706,372.6094 C1814.0906,423.8494 1808.8506,463.6994 1774.2706,518.6094 C1755.6206,548.2094 1731.3306,531.7094 1703.2706,552.6094 C1674.8306,573.7994 1652.0233,600.4294 1635.6933,621.7094 " fill="none" id="Prometheus-to-ClientMc" style="stroke:#000000;stroke-width:1.0;"/><polygon fill="#000000" points="1632.0406,626.4694,1640.693,621.7646,1635.0845,622.5027,1634.3464,616.8942,1632.0406,626.4694" style="stroke:#000000;stroke-width:1.0;"/><text fill="#000000" font-family="sans-serif" font-size="13" lengthAdjust="spacing" textLength="41" x="1802.2706" y="476.1045">Scrape</text></g><!--link Prometheus to Commande--><g id="link_Prometheus_Commande"><path d="M811.2806,293.6294 C1066.6006,294.3994 1842.7306,302.5394 1929.2706,372.6094 C2010.3006,438.2194 2030.1456,566.7851 2035.1456,620.6151 " fill="none" id="Prometheus-to-Commande" style="stroke:#000000;stroke-width:1.0;"/><polygon fill="#000000" points="2035.7006,626.5894,2038.851,617.258,2035.2381,621.6108,2030.8853,617.9979,2035.7006,626.5894" style="stroke:#000000;stroke-width:1.0;"/><text fill="#000000" font-family="sans-serif" font-size="13" lengthAdjust="spacing" textLength="41" x="2016.2706" y="476.1045">Scrape</text></g><!--link Prometheus to Panier--><g id="link_Prometheus_Panier"><path d="M811.6106,294.3494 C1020.4006,297.1394 1562.3306,310.3594 1611.2706,372.6094 C1651.3706,423.6194 1654.1806,469.9294 1611.2706,518.6094 C1571.4306,563.8094 1395.9506,525.2394 1342.2706,552.6094 C1309.1506,569.4994 1285.1089,598.5714 1269.2889,621.4914 " fill="none" id="Prometheus-to-Panier" style="stroke:#000000;stroke-width:1.0;"/><polygon fill="#000000" points="1265.8806,626.4294,1274.285,621.2946,1268.7208,622.3144,1267.7011,616.7502,1265.8806,626.4294" style="stroke:#000000;stroke-width:1.0;"/><text fill="#000000" font-family="sans-serif" font-size="13" lengthAdjust="spacing" textLength="41" x="1643.2706" y="476.1045">Scrape</text></g><!--link Prometheus to Vente--><g id="link_Prometheus_Vente"><path d="M811.4106,295.1694 C1005.8206,299.7994 1485.4206,316.8194 1529.2706,372.6094 C1569.3706,423.6194 1572.9906,470.6594 1529.2706,518.6094 C1473.9306,579.2894 1234.8506,516.1294 1161.2706,552.6094 C1128.3006,568.9494 1104.9117,598.1058 1089.6317,621.1958 " fill="none" id="Prometheus-to-Vente" style="stroke:#000000;stroke-width:1.0;"/><polygon fill="#000000" points="1086.3206,626.1994,1094.6231,620.9014,1089.0799,622.0297,1087.9516,616.4865,1086.3206,626.1994" style="stroke:#000000;stroke-width:1.0;"/><text fill="#000000" font-family="sans-serif" font-size="13" lengthAdjust="spacing" textLength="41" x="1561.2706" y="476.1045">Scrape</text></g><!--link Prometheus to Stock--><g id="link_Prometheus_Stock"><path d="M811.4206,297.6694 C974.4406,306.6694 1329.2306,330.8794 1364.2706,372.6094 C1406.0006,422.2994 1408.7706,471.3794 1364.2706,518.6094 C1320.6806,564.8694 850.5906,525.1494 793.2706,552.6094 C760.0506,568.5194 736.8681,598.0878 721.9481,621.3678 " fill="none" id="Prometheus-to-Stock" style="stroke:#000000;stroke-width:1.0;"/><polygon fill="#000000" points="718.7106,626.4194,726.9346,621.0004,721.4085,622.2097,720.1991,616.6837,718.7106,626.4194" style="stroke:#000000;stroke-width:1.0;"/><text fill="#000000" font-family="sans-serif" font-size="13" lengthAdjust="spacing" textLength="41" x="1397.2706" y="476.1045">Scrape</text></g><!--link Prometheus to Magasin--><g id="link_Prometheus_Magasin"><path d="M811.3606,294.2694 C1084.1006,297.0494 1957.3606,310.7594 2066.2706,372.6094 C2166.5206,429.5394 2215.4741,564.6101 2232.1541,620.4801 " fill="none" id="Prometheus-to-Magasin" style="stroke:#000000;stroke-width:1.0;"/><polygon fill="#000000" points="2233.8706,626.2294,2235.1287,616.4612,2232.4402,621.4383,2227.4631,618.7498,2233.8706,626.2294" style="stroke:#000000;stroke-width:1.0;"/><text fill="#000000" font-family="sans-serif" font-size="13" lengthAdjust="spacing" textLength="41" x="2191.2706" y="476.1045">Scrape</text></g><!--link Prometheus to Rapport--><g id="link_Prometheus_Rapport"><path d="M811.5906,296.2194 C991.0506,302.8694 1408.2506,323.4894 1447.2706,372.6094 C1487.6306,423.4194 1491.4406,471.0794 1447.2706,518.6094 C1377.0406,594.1794 1077.9606,509.4194 984.2706,552.6094 C949.4106,568.6794 923.737,598.3806 907.007,621.6106 " fill="none" id="Prometheus-to-Rapport" style="stroke:#000000;stroke-width:1.0;"/><polygon fill="#000000" points="903.5006,626.4794,912.0061,621.5138,906.4226,622.4221,905.5144,616.8386,903.5006,626.4794" style="stroke:#000000;stroke-width:1.0;"/><text fill="#000000" font-family="sans-serif" font-size="13" lengthAdjust="spacing" textLength="41" x="1479.2706" y="476.1045">Scrape</text></g><!--link Prometheus to Perf--><g id="link_Prometheus_Perf"><path d="M811.4706,295.6394 C1020.4506,301.1994 1573.1306,318.2094 1754.2706,346.6094 C1798.7906,353.5894 1824.7906,336.8894 1852.2706,372.6094 C1911.2306,449.2594 1859.8044,569.3439 1833.0144,620.9639 " fill="none" id="Prometheus-to-Perf" style="stroke:#000000;stroke-width:1.0;"/><polygon fill="#000000" points="1830.2506,626.2894,1837.9467,620.1437,1832.5538,621.8514,1830.846,616.4585,1830.2506,626.2894" style="stroke:#000000;stroke-width:1.0;"/><text fill="#000000" font-family="sans-serif" font-size="13" lengthAdjust="spacing" textLength="41" x="1879.2706" y="476.1045">Scrape</text></g><!--link Prometheus to NodeExporter--><g id="link_Prometheus_NodeExporter"><path d="M713.2006,316.6794 C707.6106,325.5694 702.1106,336.1194 699.2706,346.6094 C689.9906,380.8394 699.9984,415.7922 710.1384,440.7022 " fill="none" id="Prometheus-to-NodeExporter" style="stroke:#000000;stroke-width:1.0;"/><polygon fill="#000000" points="712.4006,446.2594,712.7121,436.4154,710.5154,441.6284,705.3025,439.4316,712.4006,446.2594" style="stroke:#000000;stroke-width:1.0;"/><text fill="#000000" font-family="sans-serif" font-size="13" lengthAdjust="spacing" textLength="41" x="700.2706" y="361.1045">Scrape</text></g><!--link NodeExporter to Prometheus--><g id="link_NodeExporter_Prometheus"><path d="M732.2206,446.5794 C740.7006,421.9294 751.4406,381.6394 746.2706,346.6094 C744.8006,336.6294 743.6968,331.625 740.7168,322.465 " fill="none" id="NodeExporter-to-Prometheus" style="stroke:#000000;stroke-width:1.0;"/><polygon fill="#000000" points="738.8606,316.7594,737.8411,326.5553,740.4074,321.5141,745.4486,324.0804,738.8606,316.7594" style="stroke:#000000;stroke-width:1.0;"/></g><!--link Grafana to Prometheus--><g id="link_Grafana_Prometheus"><path d="M730.2706,207.8294 C730.2706,225.7694 730.2706,244.4994 730.2706,262.4394 " fill="none" id="Grafana-to-Prometheus" style="stroke:#000000;stroke-width:1.0;"/><polygon fill="#000000" points="730.2706,268.4394,734.2706,259.4394,730.2706,263.4394,726.2706,259.4394,730.2706,268.4394" style="stroke:#000000;stroke-width:1.0;"/></g><!--link Konga to KongAdmin--><g id="link_Konga_KongAdmin"><path d="M317.1506,494.8794 C321.3606,528.9894 328.4456,586.2646 332.6556,620.3746 " fill="none" id="Konga-to-KongAdmin" style="stroke:#000000;stroke-width:1.0;"/><polygon fill="#000000" points="333.3906,626.3294,336.258,616.9072,332.7781,621.367,328.3182,617.8871,333.3906,626.3294" style="stroke:#000000;stroke-width:1.0;"/></g><!--SRC=[VLRBKjim5DtxAswpmImeOLYqTD6P43AaKw2P98MrOYj1WoqPIGxG3Xz4r_s3_5ZrZ6qXDyC4vvvpZwxkAv545XXkQmov-jkzLGKZkCHKGdN_8iYZ1Oe3L5K5oP0aZC8rsY11w5YnE2gI3pbU4ufXFXalHpUNLnF82YH48Xu8hH17fVqClnE0SvGzR3YhQJvc1UDmTqyaLlOHv-p9ciuBnT5KndFCsxRN9CaALkSm61T4XtY7Lv1Ij2KR977D3mU015WiIIXJWGykMFQ0EKoPa91ETtybXYj2w-VZ4cK_5iTtXERiIIXF7Hs0UREUezatk5IwJ-W5Zk0xenjFqg-CbHMZEeY1Xc36sVCBf9-7mw4DGrkDiTTbb9U4WZv6kvqqRWReSqFmKpcSd9v-QXoG8Qlqw7zhLgYymQ1R9KXTpgvlnuSz5najPXzl9akOerygvpEqmS8S4TIxTLQE95eXeVDy7j2CvyLgL5L9AwdN9EDCOBubcHQFXg6objT4NcSBopDAphZdTqvse3lIKsFQDWbTQM-BQrlKIVlUYYcpiaGqnu6siqPTPeWIp8Dx6blFDGtcRsc9CTrRzHx4OKnnLGCvKKkBQIwa6gIkfZ75DGtaD2qjfkaQfglgZ75T1pfbJurfpzN2OZoej3F6Yu7vcd5LBDMOGKaKqbCGXVXoUD9hkzr_h7IlenKfYDozzVTxYUKzhWMaPyCpjpyQQypdagCreWZIq_t2SQOO-qO7CtdMTrUR8JqxyJuQy7ONlOh_0EQuCAjUgDLjjiRHLsZjmyJjaYDbtkyv-ABS7klT7ua5J9VB6QHgKrNrgj3V8eT9GzHkmNRIlZdXE3DVC6evsyfsVTnWA_9nPHz5mF2Zh2asydSCDv26uPv3ZXqjSumTiYviXaIZM_qGEfjsrwWmVH-zjORT5KDtrwAQmUtZk-XKfvdOMWtRhHbHON6Aao37ORNKQiQ5AzMM89XAMRa55_5qgzpNm9hygjtdtPgTYikZezfKskHPazqsDc7MOdU5pvAr-IatztPQUjYIrjo4LrjaAdauPBphkJYjQRCutcgo7aBJOpqd-0QBmxx1ugXliF_UiHTl-gidDDjTSR2zBXgItqKkTtvhTSW1bjXVChvizWVFFm00]--></g></svg>