<?xml version="1.0" encoding="us-ascii" standalone="no"?><svg xmlns="http://www.w3.org/2000/svg" xmlns:xlink="http://www.w3.org/1999/xlink" contentStyleType="text/css" height="1032px" preserveAspectRatio="none" style="width:934px;height:1032px;background:#FFFFFF;" version="1.1" viewBox="0 0 934 1032" width="934px" zoomAndPan="magnify"><defs/><g><!--cluster Host--><g id="cluster_Host"><polygon fill="none" points="16,16,16.0495,16.0495,17.9023,13.9023,20.0456,12.0456,22.0942,10.0942,23.8319,7.8319,26,6,26,5.9223,36.0112,5.5735,46.0225,5.6165,56.0337,5.9318,66.0449,5.3086,76.0562,6.5536,86.0674,5.3697,96.0787,5.8022,106.0899,6.4319,116.1011,5.9142,126.1124,6.0682,136.1236,5.9681,146.1348,6.1785,156.1461,6.2391,166.1573,6.5857,176.1685,6.6711,186.1798,6.6793,196.191,6.2546,206.2022,6.4636,216.2135,6.7022,226.2247,5.2788,236.236,6.6785,246.2472,5.7035,256.2584,6.5338,266.2697,5.505,276.2809,5.9315,286.2921,6.7416,296.3034,5.9513,306.3146,6.1053,316.3258,6.3386,326.3371,6.4162,336.3483,5.9961,346.3596,6.2872,356.3708,5.4276,366.382,6.2844,376.3933,6.5482,386.4045,6.4445,396.4157,6.613,406.427,5.5169,416.4382,5.3478,426.4494,5.3786,436.4607,5.9411,446.4719,5.8035,456.4831,6.6814,466.4944,5.8253,476.5056,5.6569,486.5169,6.2283,496.5281,5.3332,506.5393,5.4809,516.5506,6.649,526.5618,6.4357,536.573,6.7345,546.5843,5.6782,556.5955,6.3192,566.6067,6.5904,576.618,5.5276,586.6292,5.9041,596.6404,6.126,606.6517,6.6518,616.6629,5.9958,626.6742,6.4626,636.6854,5.4462,646.6966,5.3227,656.7079,6.5036,666.7191,5.2831,676.7303,6.509,686.7416,6.2066,696.7528,5.7321,706.764,5.6462,716.7753,6.4588,726.7865,5.7007,736.7978,6.5919,746.809,5.4473,756.8202,6.6174,766.8315,6.4843,776.8427,6.245,786.8539,6.0472,796.8652,6.7266,806.8764,6.6136,816.8876,6.1693,826.8989,6.2682,836.9101,5.8697,846.9213,6.7165,856.9326,6.1549,866.9438,6.1726,876.9551,5.3916,886.9663,5.5948,896.9775,6.5307,906.9888,6.4298,917,6,916.9571,6,916.6778,15.99,916.7811,25.98,916.3138,35.97,917.4147,45.96,917.7396,55.95,917.5264,65.94,917.6949,75.93,916.8633,85.92,917.0872,95.91,916.6124,105.9,917.284,115.89,917.2468,125.88,917.5524,135.87,916.7703,145.86,916.8656,155.85,917.4435,165.84,917.5673,175.83,916.4875,185.82,916.8061,195.81,917.1493,205.8,916.3892,215.79,917.3534,225.78,917.258,235.77,916.8992,245.76,917.1422,255.75,917.7287,265.74,916.6871,275.73,917.315,285.72,917.2856,295.71,917.1158,305.7,917.1409,315.69,917.1135,325.68,916.3758,335.67,916.5992,345.66,916.5385,355.65,917.0638,365.64,917.0881,375.63,917.1617,385.62,916.709,395.61,916.9325,405.6,916.8798,415.59,917.5769,425.58,917.4266,435.57,916.5145,445.56,916.9271,455.55,916.4228,465.54,917.2884,475.53,917.6085,485.52,917.5446,495.51,916.5644,505.5,917.464,515.49,916.2572,525.48,917.2002,535.47,916.7007,545.46,917.0967,555.45,917.2403,565.44,917.4721,575.43,916.2801,585.42,917.4755,595.41,917.1782,605.4,917.3553,615.39,917.7478,625.38,917.0055,635.37,917.1753,645.36,917.2134,655.35,917.1972,665.34,916.9992,675.33,917.7107,685.32,916.3903,695.31,917.5653,705.3,916.376,715.29,916.4597,725.28,917.04,735.27,917.0283,745.26,916.5072,755.25,917.4137,765.24,917.1089,775.23,917.7267,785.22,917.6671,795.21,916.5517,805.2,916.6021,815.19,916.8708,825.18,917.3555,835.17,917.403,845.16,917.3012,855.15,916.658,865.14,917.6364,875.13,917.6338,885.12,916.9527,895.11,916.7609,905.1,916.5986,915.09,916.7854,925.08,917.1374,935.07,916.9316,945.06,916.5822,955.05,917.4874,965.04,916.5411,975.03,917.5024,985.02,917.4272,995.01,917,1005,917.0876,1005.0876,915.1632,1007.1632,912.942,1008.942,910.9291,1010.9291,909.1223,1013.1223,907,1015,907,1014.4031,896.9888,1014.766,886.9775,1015.1155,876.9663,1015.0687,866.9551,1014.6415,856.9438,1014.957,846.9326,1015.7446,836.9213,1015.6485,826.9101,1014.4037,816.8989,1015.0785,806.8876,1014.4861,796.8764,1014.9737,786.8652,1015.293,776.8539,1015.4199,766.8427,1014.3353,756.8315,1015.4005,746.8202,1015.0084,736.809,1014.4447,726.7978,1014.5289,716.7865,1015.3266,706.7753,1015.2499,696.764,1014.9836,686.7528,1014.3279,676.7416,1015.6581,666.7303,1014.6882,656.7191,1014.4719,646.7079,1014.9327,636.6966,1015.5897,626.6854,1015.6154,616.6742,1015.0351,606.6629,1014.8488,596.6517,1015.1698,586.6404,1015.1862,576.6292,1014.4922,566.618,1015.414,556.6067,1015.5588,546.5955,1014.7842,536.5843,1014.5708,526.573,1015.6746,516.5618,1015.021,506.5506,1014.9998,496.5393,1015.299,486.5281,1014.3543,476.5169,1015.53,466.5056,1014.9846,456.4944,1015.6688,446.4831,1014.7841,436.4719,1015.409,426.4607,1014.556,416.4494,1015.245,406.4382,1015.3793,396.427,1014.6727,386.4157,1015.363,376.4045,1014.4286,366.3933,1014.5295,356.382,1015.6828,346.3708,1015.6844,336.3596,1015.5685,326.3483,1014.6396,316.3371,1015.3842,306.3258,1014.5279,296.3146,1015.0582,286.3034,1014.9987,276.2921,1014.7376,266.2809,1015.6159,256.2697,1015.4433,246.2584,1014.6792,236.2472,1015.5266,226.236,1015.0919,216.2247,1014.4164,206.2135,1014.7667,196.2022,1014.4747,186.191,1014.8609,176.1798,1014.371,166.1685,1014.3998,156.1573,1015.0703,146.1461,1014.8796,136.1348,1014.9414,126.1236,1014.8568,116.1124,1015.1673,106.1011,1014.4449,96.0899,1015.1601,86.0787,1014.2569,76.0674,1015.296,66.0562,1015.5928,56.0449,1015.5221,46.0337,1015.3613,36.0225,1015.1922,26.0112,1015.1057,16,1015,15.36,1015,16.4465,1005.01,16.3296,995.02,15.8466,985.03,15.9942,975.04,15.7914,965.05,16.2177,955.06,16.6805,945.07,15.6461,935.08,16.4689,925.09,15.9108,915.1,15.6207,905.11,15.5681,895.12,15.3553,885.13,15.5591,875.14,16.0363,865.15,16.273,855.16,16.5762,845.17,16.4201,835.18,15.2886,825.19,16.619,815.2,16.4861,805.21,16.5407,795.22,16.5219,785.23,15.3409,775.24,15.7423,765.25,16.316,755.26,15.5185,745.27,15.8971,735.28,16.067,725.29,16.3261,715.3,16.0458,705.31,16.7447,695.32,16.4114,685.33,16.2561,675.34,15.4601,665.35,16.3388,655.36,15.4255,645.37,16.3057,635.38,16.0078,625.39,16.2995,615.4,15.9126,605.41,15.8039,595.42,15.2591,585.43,15.7856,575.44,15.2951,565.45,15.7539,555.46,16.4379,545.47,16.1607,535.48,15.5485,525.49,16.2458,515.5,16.0656,505.51,16.5433,495.52,16.5649,485.53,16.0937,475.54,15.821,465.55,15.7855,455.56,15.9936,445.57,16.6691,435.58,15.3263,425.59,15.8361,415.6,16.2668,405.61,16.7317,395.62,16.2119,385.63,15.8018,375.64,15.2621,365.65,15.5762,355.66,15.7781,345.67,16.3398,335.68,16.3695,325.69,16.0518,315.7,15.867,305.71,15.2804,295.72,16.129,285.73,16.4354,275.74,16.6829,265.75,16.0983,255.76,16.0799,245.77,15.7798,235.78,16.2487,225.79,15.53,215.8,16.5161,205.81,15.6943,195.82,15.4698,185.83,16.2569,175.84,16.4718,165.85,16.0573,155.86,15.8789,145.87,16.1579,135.88,15.9753,125.89,15.9049,115.9,16.0769,105.91,15.668,95.92,16.3895,85.93,16.6875,75.94,15.6464,65.95,15.7656,55.96,15.5314,45.97,16.2369,35.98,15.9062,25.99,16,16" style="stroke:#181818;stroke-width:1.0;"/><path d="M907,16 L907.0661,16.0661 L908.8698,13.8698 L911.0607,12.0607 L913.1256,10.1256 L914.7758,7.7758 L917,6 " fill="none" style="stroke:#181818;stroke-width:1.0;"/><path d="M16,16 L16,16.2802 L26.0112,15.4476 L36.0225,16.2577 L46.0337,16.5329 L56.0449,15.0488 L66.0562,15.8964 L76.0674,15.4313 L86.0787,15.4887 L96.0899,15.9091 L106.1011,15.0782 L116.1124,16.7382 L126.1236,15.1596 L136.1348,15.7363 L146.1461,16.5759 L156.1573,15.8856 L166.1685,16.091 L176.1798,15.9574 L186.191,16.238 L196.2022,16.3188 L206.2135,16.7809 L216.2247,16.8947 L226.236,16.9057 L236.2472,16.3395 L246.2584,16.6181 L256.2697,16.9363 L266.2809,15.0384 L276.2921,16.9047 L286.3034,15.6047 L296.3146,16.7117 L306.3258,15.34 L316.3371,15.9087 L326.3483,16.9888 L336.3596,15.935 L346.3708,16.1404 L356.382,16.4515 L366.3933,16.555 L376.4045,15.9948 L386.4157,16.383 L396.427,15.2368 L406.4382,16.3792 L416.4494,16.7309 L426.4607,16.5927 L436.4719,16.8174 L446.4831,15.3559 L456.4944,15.1304 L466.5056,15.1715 L476.5169,15.9215 L486.5281,15.738 L496.5393,16.9085 L506.5506,15.7671 L516.5618,15.5426 L526.573,16.3044 L536.5843,15.1109 L546.5955,15.3078 L556.6067,16.8653 L566.618,16.5809 L576.6292,16.9793 L586.6404,15.5709 L596.6517,16.4256 L606.6629,16.7872 L616.6742,15.3701 L626.6854,15.8722 L636.6966,16.168 L646.7079,16.869 L656.7191,15.9944 L666.7303,16.6168 L676.7416,15.2616 L686.7528,15.097 L696.764,16.6715 L706.7753,15.0441 L716.7865,16.6786 L726.7978,16.2755 L736.809,15.6428 L746.8202,15.5283 L756.8315,16.6117 L766.8427,15.6009 L776.8539,16.7891 L786.8652,15.263 L796.8764,16.8232 L806.8876,16.6457 L816.8989,16.3266 L826.9101,16.063 L836.9213,16.9688 L846.9326,16.8181 L856.9438,16.2257 L866.9551,16.3576 L876.9663,15.8263 L886.9775,16.9553 L896.9888,16.2065 L907,16 " fill="none" style="stroke:#181818;stroke-width:1.0;"/><path d="M907,16 L907.2802,16 L906.4476,25.99 L907.2577,35.98 L907.5329,45.97 L906.0488,55.96 L906.8964,65.95 L906.4313,75.94 L906.4887,85.93 L906.9091,95.92 L906.0782,105.91 L907.7382,115.9 L906.1596,125.89 L906.7363,135.88 L907.5759,145.87 L906.8856,155.86 L907.091,165.85 L906.9574,175.84 L907.238,185.83 L907.3188,195.82 L907.7809,205.81 L907.8947,215.8 L907.9057,225.79 L907.3395,235.78 L907.6181,245.77 L907.9363,255.76 L906.0384,265.75 L907.9047,275.74 L906.6047,285.73 L907.7117,295.72 L906.34,305.71 L906.9087,315.7 L907.9888,325.69 L906.935,335.68 L907.1404,345.67 L907.4515,355.66 L907.555,365.65 L906.9948,375.64 L907.383,385.63 L906.2368,395.62 L907.3792,405.61 L907.7309,415.6 L907.5927,425.59 L907.8174,435.58 L906.3559,445.57 L906.1304,455.56 L906.1715,465.55 L906.9215,475.54 L906.738,485.53 L907.9085,495.52 L906.7671,505.51 L906.5426,515.5 L907.3044,525.49 L906.1109,535.48 L906.3078,545.47 L907.8653,555.46 L907.5809,565.45 L907.9793,575.44 L906.5709,585.43 L907.4256,595.42 L907.7872,605.41 L906.3701,615.4 L906.8722,625.39 L907.168,635.38 L907.869,645.37 L906.9944,655.36 L907.6168,665.35 L906.2616,675.34 L906.097,685.33 L907.6715,695.32 L906.0441,705.31 L907.6786,715.3 L907.2755,725.29 L906.6428,735.28 L906.5283,745.27 L907.6117,755.26 L906.6009,765.25 L907.7891,775.24 L906.263,785.23 L907.8232,795.22 L907.6457,805.21 L907.3266,815.2 L907.063,825.19 L907.9688,835.18 L907.8181,845.17 L907.2257,855.16 L907.3576,865.15 L906.8263,875.14 L907.9553,885.13 L907.2065,895.12 L907.2301,905.11 L906.1889,915.1 L906.4597,925.09 L907.7077,935.08 L907.573,945.07 L906.9428,955.06 L906.5704,965.05 L906.7081,975.04 L906.0851,985.03 L907.553,995.02 L907.9861,1005.01 L907,1015 " fill="none" style="stroke:#181818;stroke-width:1.0;"/><text fill="#000000" font-family="sans-serif" font-size="14" font-weight="bold" lengthAdjust="spacing" textLength="33" x="446" y="33.5332">H&#244;te</text><text fill="#000000" font-family="sans-serif" font-size="14" font-weight="bold" lengthAdjust="spacing" textLength="167" x="379" y="51.1426">(Windows/macOS/Linux)</text></g><!--cluster Couche Pr?sentation--><g id="cluster_Couche Pr&#233;sentation"><polygon fill="none" points="113.5,73,113.5,73.2102,123.6538,72.5857,133.8077,73.1933,143.9615,73.3997,154.1154,72.2866,164.2692,72.9223,174.4231,72.5735,184.5769,72.6165,194.7308,72.9318,204.8846,72.3086,215.0385,73.5536,225.1923,72.3697,235.3462,72.8022,245.5,73.4319,255.6538,72.9142,265.8077,73.0682,275.9615,72.9681,286.1154,73.1785,296.2692,73.2391,306.4231,73.5857,316.5769,73.6711,326.7308,73.6793,336.8846,73.2546,347.0385,73.4636,357.1923,73.7022,367.3462,72.2788,377.5,73,377.5866,73.209,377.8157,73.0551,378.2752,73.4573,378.4975,73.2869,378.9055,73.5647,379.2678,73.7322,379.4962,73.8268,379.3992,74.0796,379.5931,74.4528,379.8114,74.8361,379.9817,75.1995,380,75.5,379.9961,75.5,380.2872,85.3636,379.4276,95.2273,380.2844,105.0909,380.5482,114.9545,380.4445,124.8182,380.613,134.6818,379.5169,144.5455,379.3478,154.4091,379.3786,164.2727,379.9411,174.1364,379.8035,184,380.6814,193.8636,379.8253,203.7273,379.6569,213.5909,380.2283,223.4545,379.3332,233.3182,379.4809,243.1818,380.649,253.0455,380.4357,262.9091,380.7345,272.7727,379.6782,282.6364,380,292.5,380.0983,292.5407,380.0354,292.9289,379.5616,293.1468,379.5311,293.5484,379.453,293.9303,379.2678,294.2678,379.3509,294.4685,378.9137,294.4129,378.6197,294.7031,378.1365,294.5366,377.7672,294.645,377.5,295,377.5,295.5036,367.3462,294.2831,357.1923,295.509,347.0385,295.2066,336.8846,294.7321,326.7308,294.6462,316.5769,295.4588,306.4231,294.7007,296.2692,295.5919,286.1154,294.4473,275.9615,295.6174,265.8077,295.4843,255.6538,295.245,245.5,295.0472,235.3462,295.7266,225.1923,295.6136,215.0385,295.1693,204.8846,295.2682,194.7308,294.8697,184.5769,295.7165,174.4231,295.1549,164.2692,295.1726,154.1154,294.3916,143.9615,294.5948,133.8077,295.5307,123.6538,295.4298,113.5,295,113.4945,294.9868,113.1054,294.7543,112.765,294.6397,112.3518,294.3493,112.1387,294.5419,111.7322,294.2678,111.96,294.3621,111.7479,293.9814,111.6534,293.6493,111.2508,293.1897,111.1733,292.8647,111,292.5,110.6124,292.5,111.284,282.6364,111.2468,272.7727,111.5524,262.9091,110.7703,253.0455,110.8656,243.1818,111.4435,233.3182,111.5673,223.4545,110.4875,213.5909,110.8061,203.7273,111.1493,193.8636,110.3892,184,111.3534,174.1364,111.258,164.2727,110.8992,154.4091,111.1422,144.5455,111.7287,134.6818,110.6871,124.8182,111.315,114.9545,111.2856,105.0909,111.1158,95.2273,111.1409,85.3636,111,75.5,111.0349,75.5145,110.9542,75.0668,111.1695,74.7418,111.2972,74.3805,111.6054,74.0939,111.7322,73.7322,111.7435,73.7594,112.1064,73.6356,112.4022,73.3497,112.7843,73.2721,113.1311,73.1094,113.5,73" style="stroke:#181818;stroke-width:1.0;"/><text fill="#000000" font-family="sans-serif" font-size="14" font-weight="bold" lengthAdjust="spacing" textLength="148" x="171.5" y="89.5332">Couche Pr&#233;sentation</text></g><!--cluster Browser--><g id="cluster_Browser"><polygon fill="none" points="143,135,143.0495,135.0495,144.9023,132.9023,147.0456,131.0456,149.0942,129.0942,150.8319,126.8319,153,125,153,124.9223,162.75,124.5735,172.5,124.6165,182.25,124.9318,192,124.3086,201.75,125.5536,211.5,124.3697,221.25,124.8022,231,125.4319,240.75,124.9142,250.5,125.0682,260.25,124.9681,270,125.1785,279.75,125.2391,289.5,125.5857,299.25,125.6711,309,125.6793,318.75,125.2546,328.5,125.4636,338.25,125.7022,348,125,347.2788,125,348.6785,134.8462,347.7035,144.6923,348.5338,154.5385,347.505,164.3846,347.9315,174.2308,348.7416,184.0769,347.9513,193.9231,348.1053,203.7692,348.3386,213.6154,348.4162,223.4615,347.9961,233.3077,348.2872,243.1538,348,253,347.8651,252.8651,346.067,255.067,344.1292,257.1292,342.1048,259.1048,340.1445,261.1445,338,263,338,262.5169,328.25,262.3478,318.5,262.3786,308.75,262.9411,299,262.8035,289.25,263.6814,279.5,262.8253,269.75,262.6569,260,263.2283,250.25,262.3332,240.5,262.4809,230.75,263.649,221,263.4357,211.25,263.7345,201.5,262.6782,191.75,263.3192,182,263.5904,172.25,262.5276,162.5,262.9041,152.75,263.126,143,263,143.6518,263,142.9958,253.1538,143.4626,243.3077,142.4462,233.4615,142.3227,223.6154,143.5036,213.7692,142.2831,203.9231,143.509,194.0769,143.2066,184.2308,142.7321,174.3846,142.6462,164.5385,143.4588,154.6923,142.7007,144.8462,143,135" style="stroke:#181818;stroke-width:1.0;"/><path d="M338,135 L338.0661,135.0661 L339.8698,132.8698 L342.0607,131.0607 L344.1256,129.1256 L345.7758,126.7758 L348,125 " fill="none" style="stroke:#181818;stroke-width:1.0;"/><path d="M143,135 L143,135.2802 L152.75,134.4476 L162.5,135.2577 L172.25,135.5329 L182,134.0488 L191.75,134.8964 L201.5,134.4313 L211.25,134.4887 L221,134.9091 L230.75,134.0782 L240.5,135.7382 L250.25,134.1596 L260,134.7363 L269.75,135.5759 L279.5,134.8856 L289.25,135.091 L299,134.9574 L308.75,135.238 L318.5,135.3188 L328.25,135.7809 L338,135 " fill="none" style="stroke:#181818;stroke-width:1.0;"/><path d="M338,135 L338.2802,135 L337.4476,144.8462 L338.2577,154.6923 L338.5329,164.5385 L337.0488,174.3846 L337.8964,184.2308 L337.4313,194.0769 L337.4887,203.9231 L337.9091,213.7692 L337.0782,223.6154 L338.7382,233.4615 L337.1596,243.3077 L337.7363,253.1538 L338,263 " fill="none" style="stroke:#181818;stroke-width:1.0;"/><text fill="#000000" font-family="sans-serif" font-size="14" font-weight="bold" lengthAdjust="spacing" textLength="104" x="189.5" y="152.5332">Client Browser</text></g><!--cluster Couche M?tier--><g id="cluster_Couche M&#233;tier"><polygon fill="none" points="42.5,345,42.5,345.2102,52.5638,344.5857,62.6277,345.1933,72.6915,345.3997,82.7553,344.2866,92.8191,344.9223,102.883,344.5735,112.9468,344.6165,123.0106,344.9318,133.0745,344.3086,143.1383,345.5536,153.2021,344.3697,163.266,344.8022,173.3298,345.4319,183.3936,344.9142,193.4574,345.0682,203.5213,344.9681,213.5851,345.1785,223.6489,345.2391,233.7128,345.5857,243.7766,345.6711,253.8404,345.6793,263.9043,345.2546,273.9681,345.4636,284.0319,345.7022,294.0957,344.2788,304.1596,345.6785,314.2234,344.7035,324.2872,345.5338,334.3511,344.505,344.4149,344.9315,354.4787,345.7416,364.5426,344.9513,374.6064,345.1053,384.6702,345.3386,394.734,345.4162,404.7979,344.9961,414.8617,345.2872,424.9255,344.4276,434.9894,345.2844,445.0532,345.5482,455.117,345.4445,465.1809,345.613,475.2447,344.5169,485.3085,344.3478,495.3723,344.3786,505.4362,344.9411,515.5,345,515.4749,344.9395,515.9405,345.3563,516.1848,345.2391,516.5169,345.3337,516.9433,345.6561,517.2678,345.7322,517.0624,345.6472,517.2543,346.0196,517.7605,346.5221,517.8413,346.8485,518.0797,347.2401,518,347.5,517.6782,347.5,518.3192,357.5156,518.5904,367.5313,517.5276,377.5469,517.9041,387.5625,518.126,397.5781,518.6518,407.5938,517.9958,417.6094,518.4626,427.625,517.4462,437.6406,517.3227,447.6563,518.5036,457.6719,517.2831,467.6875,518.509,477.7031,518.2066,487.7188,517.7321,497.7344,517.6462,507.75,518.4588,517.7656,517.7007,527.7813,518.5919,537.7969,517.4473,547.8125,518.6174,557.8281,518.4843,567.8438,518.245,577.8594,518.0472,587.875,518.7266,597.8906,518.6136,607.9063,518.1693,617.9219,518.2682,627.9375,517.8697,637.9531,518.7165,647.9688,518.1549,657.9844,518.1726,668,517.3916,678.0156,517.5948,688.0313,518.5307,698.0469,518.4298,708.0625,517.9571,718.0781,517.6778,728.0938,517.7811,738.1094,517.3138,748.125,518.4147,758.1406,518.7396,768.1563,518.5264,778.1719,518.6949,788.1875,517.8633,798.2031,518.0872,808.2188,517.6124,818.2344,518.284,828.25,518.2468,838.2656,518.5524,848.2813,517.7703,858.2969,517.8656,868.3125,518.4435,878.3281,518.5673,888.3438,517.4875,898.3594,517.8061,908.375,518.1493,918.3906,517.3892,928.4063,518.3534,938.4219,518.258,948.4375,517.8992,958.4531,518.1422,968.4688,518.7287,978.4844,518,988.5,517.9036,988.4601,517.9506,988.8937,517.7951,989.2435,517.5963,989.5754,517.4576,989.9322,517.2678,990.2678,517.2822,990.3027,516.8346,990.222,516.5095,990.4372,516.1482,990.565,515.8617,990.8732,515.5,991,515.5,991.0881,505.4362,991.1617,495.3723,990.709,485.3085,990.9325,475.2447,990.8798,465.1809,991.5769,455.117,991.4266,445.0532,990.5145,434.9894,990.9271,424.9255,990.4228,414.8617,991.2884,404.7979,991.6085,394.734,991.5446,384.6702,990.5644,374.6064,991.464,364.5426,990.2572,354.4787,991.2002,344.4149,990.7007,334.3511,991.0967,324.2872,991.2403,314.2234,991.4721,304.1596,990.2801,294.0957,991.4755,284.0319,991.1782,273.9681,991.3553,263.9043,991.7478,253.8404,991.0055,243.7766,991.1753,233.7128,991.2134,223.6489,991.1972,213.5851,990.9992,203.5213,991.7107,193.4574,990.3903,183.3936,991.5653,173.3298,990.376,163.266,990.4597,153.2021,991.04,143.1383,991.0283,133.0745,990.5072,123.0106,991.4137,112.9468,991.1089,102.883,991.7267,92.8191,991.6671,82.7553,990.5517,72.6915,990.6021,62.6277,990.8708,52.5638,991.3555,42.5,991,42.5514,991.1241,42.1849,990.9463,41.7493,990.6018,41.5205,990.7566,41.1666,990.6094,40.7322,990.2678,40.7177,990.2617,40.5122,989.8837,40.3157,989.5095,40.2268,989.1797,40.1888,988.8711,40,988.5,39.9316,988.5,39.5822,978.4844,40.4874,968.4688,39.5411,958.4531,40.5024,948.4375,40.4272,938.4219,40.3719,928.4063,40.6925,918.3906,39.7541,908.375,39.6994,898.3594,40.5189,888.3438,39.4031,878.3281,39.766,868.3125,40.1155,858.2969,40.0687,848.2813,39.6415,838.2656,39.957,828.25,40.7446,818.2344,40.6485,808.2188,39.4037,798.2031,40.0785,788.1875,39.4861,778.1719,39.9737,768.1563,40.293,758.1406,40.4199,748.125,39.3353,738.1094,40.4005,728.0938,40.0084,718.0781,39.4447,708.0625,39.5289,698.0469,40.3266,688.0313,40.2499,678.0156,39.9836,668,39.3279,657.9844,40.6581,647.9688,39.6882,637.9531,39.4719,627.9375,39.9327,617.9219,40.5897,607.9063,40.6154,597.8906,40.0351,587.875,39.8488,577.8594,40.1698,567.8438,40.1862,557.8281,39.4922,547.8125,40.414,537.7969,40.5588,527.7813,39.7842,517.7656,39.5708,507.75,40.6746,497.7344,40.021,487.7188,39.9998,477.7031,40.299,467.6875,39.3543,457.6719,40.53,447.6563,39.9846,437.6406,40.6688,427.625,39.7841,417.6094,40.409,407.5938,39.556,397.5781,40.245,387.5625,40.3793,377.5469,39.6727,367.5313,40.363,357.5156,40,347.5,39.824,347.4271,40.0016,347.0864,40.5032,346.88,40.6501,346.5266,40.7609,346.1583,40.7322,345.7322,40.6863,345.6213,41.1348,345.7041,41.3791,345.294,41.8003,345.3108,42.1463,345.1461,42.5,345" style="stroke:#181818;stroke-width:1.0;"/><text fill="#000000" font-family="sans-serif" font-size="14" font-weight="bold" lengthAdjust="spacing" textLength="104" x="227" y="361.5332">Couche M&#233;tier</text></g><!--cluster metier--><g id="cluster_metier"><polygon fill="none" points="72,407,72.0495,407.0495,73.9023,404.9023,76.0456,403.0456,78.0942,401.0942,79.8319,398.8319,82,397,82,396.9223,92.1,396.5735,102.2,396.6165,112.3,396.9318,122.4,396.3086,132.5,397.5536,142.6,396.3697,152.7,396.8022,162.8,397.4319,172.9,396.9142,183,397.0682,193.1,396.9681,203.2,397.1785,213.3,397.2391,223.4,397.5857,233.5,397.6711,243.6,397.6793,253.7,397.2546,263.8,397.4636,273.9,397.7022,284,396.2788,294.1,397.6785,304.2,396.7035,314.3,397.5338,324.4,396.505,334.5,396.9315,344.6,397.7416,354.7,396.9513,364.8,397.1053,374.9,397.3386,385,397.4162,395.1,396.9961,405.2,397.2872,415.3,396.4276,425.4,397.2844,435.5,397.5482,445.6,397.4445,455.7,397.613,465.8,396.5169,475.9,396.3478,486,397,485.3786,397,485.9411,407.0364,485.8035,417.0727,486.6814,427.1091,485.8253,437.1455,485.6569,447.1818,486.2283,457.2182,485.3332,467.2545,485.4809,477.2909,486.649,487.3273,486.4357,497.3636,486.7345,507.4,485.6782,517.4364,486.3192,527.4727,486.5904,537.5091,485.5276,547.5455,485.9041,557.5818,486.126,567.6182,486.6518,577.6545,485.9958,587.6909,486.4626,597.7273,485.4462,607.7636,485.3227,617.8,486.5036,627.8364,485.2831,637.8727,486.509,647.9091,486.2066,657.9455,485.7321,667.9818,485.6462,678.0182,486.4588,688.0545,485.7007,698.0909,486.5919,708.1273,485.4473,718.1636,486.6174,728.2,486.4843,738.2364,486.245,748.2727,486.0472,758.3091,486.7266,768.3455,486.6136,778.3818,486.1693,788.4182,486.2682,798.4545,485.8697,808.4909,486.7165,818.5273,486.1549,828.5636,486.1726,838.6,485.3916,848.6364,485.5948,858.6727,486.5307,868.7091,486.4298,878.7455,485.9571,888.7818,485.6778,898.8182,485.7811,908.8545,485.3138,918.8909,486.4147,928.9273,486.7396,938.9636,486,949,486.1241,949.1241,484.1638,951.1638,481.9678,952.9678,480.0206,955.0206,477.9086,956.9086,476,959,476,959.284,465.9,959.2468,455.8,959.5524,445.7,958.7703,435.6,958.8656,425.5,959.4435,415.4,959.5673,405.3,958.4875,395.2,958.8061,385.1,959.1493,375,958.3892,364.9,959.3534,354.8,959.258,344.7,958.8992,334.6,959.1422,324.5,959.7287,314.4,958.6871,304.3,959.315,294.2,959.2856,284.1,959.1158,274,959.1409,263.9,959.1135,253.8,958.3758,243.7,958.5992,233.6,958.5385,223.5,959.0638,213.4,959.0881,203.3,959.1617,193.2,958.709,183.1,958.9325,173,958.8798,162.9,959.5769,152.8,959.4266,142.7,958.5145,132.6,958.9271,122.5,958.4228,112.4,959.2884,102.3,959.6085,92.2,959.5446,82.1,958.5644,72,959,72.464,959,71.2572,948.9636,72.2002,938.9273,71.7007,928.8909,72.0967,918.8545,72.2403,908.8182,72.4721,898.7818,71.2801,888.7455,72.4755,878.7091,72.1782,868.6727,72.3553,858.6364,72.7478,848.6,72.0055,838.5636,72.1753,828.5273,72.2134,818.4909,72.1972,808.4545,71.9992,798.4182,72.7107,788.3818,71.3903,778.3455,72.5653,768.3091,71.376,758.2727,71.4597,748.2364,72.04,738.2,72.0283,728.1636,71.5072,718.1273,72.4137,708.0909,72.1089,698.0545,72.7267,688.0182,72.6671,677.9818,71.5517,667.9455,71.6021,657.9091,71.8708,647.8727,72.3555,637.8364,72.403,627.8,72.3012,617.7636,71.658,607.7273,72.6364,597.6909,72.6338,587.6545,71.9527,577.6182,71.7609,567.5818,71.5986,557.5455,71.7854,547.5091,72.1374,537.4727,71.9316,527.4364,71.5822,517.4,72.4874,507.3636,71.5411,497.3273,72.5024,487.2909,72.4272,477.2545,72.3719,467.2182,72.6925,457.1818,71.7541,447.1455,71.6994,437.1091,72.5189,427.0727,71.4031,417.0364,72,407" style="stroke:#181818;stroke-width:1.0;"/><path d="M476,407 L476.0661,407.0661 L477.8698,404.8698 L480.0607,403.0607 L482.1256,401.1256 L483.7758,398.7758 L486,397 " fill="none" style="stroke:#181818;stroke-width:1.0;"/><path d="M72,407 L72,407.2802 L82.1,406.4476 L92.2,407.2577 L102.3,407.5329 L112.4,406.0488 L122.5,406.8964 L132.6,406.4313 L142.7,406.4887 L152.8,406.9091 L162.9,406.0782 L173,407.7382 L183.1,406.1596 L193.2,406.7363 L203.3,407.5759 L213.4,406.8856 L223.5,407.091 L233.6,406.9574 L243.7,407.238 L253.8,407.3188 L263.9,407.7809 L274,407.8947 L284.1,407.9057 L294.2,407.3395 L304.3,407.6181 L314.4,407.9363 L324.5,406.0384 L334.6,407.9047 L344.7,406.6047 L354.8,407.7117 L364.9,406.34 L375,406.9087 L385.1,407.9888 L395.2,406.935 L405.3,407.1404 L415.4,407.4515 L425.5,407.555 L435.6,406.9948 L445.7,407.383 L455.8,406.2368 L465.9,407.3792 L476,407 " fill="none" style="stroke:#181818;stroke-width:1.0;"/><path d="M476,407 L476.2802,407 L475.4476,417.0364 L476.2577,427.0727 L476.5329,437.1091 L475.0488,447.1455 L475.8964,457.1818 L475.4313,467.2182 L475.4887,477.2545 L475.9091,487.2909 L475.0782,497.3273 L476.7382,507.3636 L475.1596,517.4 L475.7363,527.4364 L476.5759,537.4727 L475.8856,547.5091 L476.091,557.5455 L475.9574,567.5818 L476.238,577.6182 L476.3188,587.6545 L476.7809,597.6909 L476.8947,607.7273 L476.9057,617.7636 L476.3395,627.8 L476.6181,637.8364 L476.9363,647.8727 L475.0384,657.9091 L476.9047,667.9455 L475.6047,677.9818 L476.7117,688.0182 L475.34,698.0545 L475.9087,708.0909 L476.9888,718.1273 L475.935,728.1636 L476.1404,738.2 L476.4515,748.2364 L476.555,758.2727 L475.9948,768.3091 L476.383,778.3455 L475.2368,788.3818 L476.3792,798.4182 L476.7309,808.4545 L476.5927,818.4909 L476.8174,828.5273 L475.3559,838.5636 L475.1304,848.6 L475.1715,858.6364 L475.9215,868.6727 L475.738,878.7091 L476.9085,888.7455 L475.7671,898.7818 L475.5426,908.8182 L476.3044,918.8545 L475.1109,928.8909 L475.3078,938.9273 L476.8653,948.9636 L476,959 " fill="none" style="stroke:#181818;stroke-width:1.0;"/><text fill="#000000" font-family="sans-serif" font-size="14" font-weight="bold" lengthAdjust="spacing" textLength="245" x="152.5" y="424.5332">Docker Container : MagasinCentral</text></g><!--cluster Couche Donn?es--><g id="cluster_Couche Donn&#233;es"><polygon fill="none" points="544.5,602,544.5,602.2102,554.3857,601.5857,564.2714,602.1933,574.1571,602.3997,584.0429,601.2866,593.9286,601.9223,603.8143,601.5735,613.7,601.6165,623.5857,601.9318,633.4714,601.3086,643.3571,602.5536,653.2429,601.3697,663.1286,601.8022,673.0143,602.4319,682.9,601.9142,692.7857,602.0682,702.6714,601.9681,712.5571,602.1785,722.4429,602.2391,732.3286,602.5857,742.2143,602.6711,752.1,602.6793,761.9857,602.2546,771.8714,602.4636,781.7571,602.7022,791.6429,601.2788,801.5286,602.6785,811.4143,601.7035,821.3,602.5338,831.1857,601.505,841.0714,601.9315,850.9571,602.7416,860.8429,601.9513,870.7286,602.1053,880.6143,602.3386,890.5,602,890.5531,602.1282,890.8531,602.1452,891.2437,602.3813,891.4876,602.2631,891.9505,602.6734,892.2678,602.7322,892.4366,602.8022,892.5511,603.1425,892.7494,603.5175,892.5583,603.7313,892.6527,604.0633,893,604.5,892.3786,604.5,892.9411,614.45,892.8035,624.4,893.6814,634.35,892.8253,644.3,892.6569,654.25,893.2283,664.2,892.3332,674.15,892.4809,684.1,893.649,694.05,893.4357,704,893.7345,713.95,892.6782,723.9,893.3192,733.85,893.5904,743.8,892.5276,753.75,892.9041,763.7,893.126,773.65,893.6518,783.6,892.9958,793.55,893,803.5,893.1425,803.559,892.683,803.7829,892.4985,804.1207,892.7158,804.6249,892.1934,804.8228,892.2678,805.2678,892.3327,805.4245,891.9406,805.4778,891.5265,805.4782,891.162,805.5982,890.9121,805.9948,890.5,806,890.5,805.7007,880.6143,806.5919,870.7286,805.4473,860.8429,806.6174,850.9571,806.4843,841.0714,806.245,831.1857,806.0472,821.3,806.7266,811.4143,806.6136,801.5286,806.1693,791.6429,806.2682,781.7571,805.8697,771.8714,806.7165,761.9857,806.1549,752.1,806.1726,742.2143,805.3916,732.3286,805.5948,722.4429,806.5307,712.5571,806.4298,702.6714,805.9571,692.7857,805.6778,682.9,805.7811,673.0143,805.3138,663.1286,806.4147,653.2429,806.7396,643.3571,806.5264,633.4714,806.6949,623.5857,805.8633,613.7,806.0872,603.8143,805.6124,593.9286,806.284,584.0429,806.2468,574.1571,806.5524,564.2714,805.7703,554.3857,805.8656,544.5,806,544.5566,806.1366,544.2188,806.0283,543.7275,805.5493,543.4146,805.501,543.1048,805.4602,542.7322,805.2678,542.5441,805.1898,542.6946,804.9593,542.5188,804.5936,542.2619,804.1943,542.1903,803.8717,542,803.5,542.7287,803.5,541.6871,793.55,542.315,783.6,542.2856,773.65,542.1158,763.7,542.1409,753.75,542.1135,743.8,541.3758,733.85,541.5992,723.9,541.5385,713.95,542.0638,704,542.0881,694.05,542.1617,684.1,541.709,674.15,541.9325,664.2,541.8798,654.25,542.5769,644.3,542.4266,634.35,541.5145,624.4,541.9271,614.45,542,604.5,541.8222,604.4264,542.2353,604.1832,542.4803,603.8705,542.607,603.5088,542.4517,603.0302,542.7322,602.7322,542.7914,602.8751,542.991,602.357,543.4649,602.501,543.7547,602.2007,544.1588,602.1762,544.5,602" style="stroke:#181818;stroke-width:1.0;"/><text fill="#000000" font-family="sans-serif" font-size="14" font-weight="bold" lengthAdjust="spacing" textLength="121" x="657" y="618.5332">Couche Donn&#233;es</text></g><!--cluster database--><g id="cluster_database"><polygon fill="none" points="574,664,574.0495,664.0495,575.9023,661.9023,578.0456,660.0456,580.0942,658.0942,581.8319,655.8319,584,654,584,653.9223,593.8929,653.5735,603.7857,653.6165,613.6786,653.9318,623.5714,653.3086,633.4643,654.5536,643.3571,653.3697,653.25,653.8022,663.1429,654.4319,673.0357,653.9142,682.9286,654.0682,692.8214,653.9681,702.7143,654.1785,712.6071,654.2391,722.5,654.5857,732.3929,654.6711,742.2857,654.6793,752.1786,654.2546,762.0714,654.4636,771.9643,654.7022,781.8571,653.2788,791.75,654.6785,801.6429,653.7035,811.5357,654.5338,821.4286,653.505,831.3214,653.9315,841.2143,654.7416,851.1071,653.9513,861,654,861.1053,654,861.3386,664,861.4162,674,860.9961,684,861.2872,694,860.4276,704,861.2844,714,861.5482,724,861.4445,734,861.613,744,860.5169,754,861,764,860.8463,763.8463,858.8535,765.8535,856.9861,767.9861,854.9537,769.9537,853.1606,772.1606,851,774,851,773.8253,841.1071,773.6569,831.2143,774.2283,821.3214,773.3332,811.4286,773.4809,801.5357,774.649,791.6429,774.4357,781.75,774.7345,771.8571,773.6782,761.9643,774.3192,752.0714,774.5904,742.1786,773.5276,732.2857,773.9041,722.3929,774.126,712.5,774.6518,702.6071,773.9958,692.7143,774.4626,682.8214,773.4462,672.9286,773.3227,663.0357,774.5036,653.1429,773.2831,643.25,774.509,633.3571,774.2066,623.4643,773.7321,613.5714,773.6462,603.6786,774.4588,593.7857,773.7007,583.8929,774.5919,574,774,573.4473,774,574.6174,764,574.4843,754,574.245,744,574.0472,734,574.7266,724,574.6136,714,574.1693,704,574.2682,694,573.8697,684,574.7165,674,574,664" style="stroke:#181818;stroke-width:1.0;"/><path d="M851,664 L851.0661,664.0661 L852.8698,661.8698 L855.0607,660.0607 L857.1256,658.1256 L858.7758,655.7758 L861,654 " fill="none" style="stroke:#181818;stroke-width:1.0;"/><path d="M574,664 L574,664.2802 L583.8929,663.4476 L593.7857,664.2577 L603.6786,664.5329 L613.5714,663.0488 L623.4643,663.8964 L633.3571,663.4313 L643.25,663.4887 L653.1429,663.9091 L663.0357,663.0782 L672.9286,664.7382 L682.8214,663.1596 L692.7143,663.7363 L702.6071,664.5759 L712.5,663.8856 L722.3929,664.091 L732.2857,663.9574 L742.1786,664.238 L752.0714,664.3188 L761.9643,664.7809 L771.8571,664.8947 L781.75,664.9057 L791.6429,664.3395 L801.5357,664.6181 L811.4286,664.9363 L821.3214,663.0384 L831.2143,664.9047 L841.1071,663.6047 L851,664 " fill="none" style="stroke:#181818;stroke-width:1.0;"/><path d="M851,664 L851.2802,664 L850.4476,674 L851.2577,684 L851.5329,694 L850.0488,704 L850.8964,714 L850.4313,724 L850.4887,734 L850.9091,744 L850.0782,754 L851.7382,764 L851,774 " fill="none" style="stroke:#181818;stroke-width:1.0;"/><text fill="#000000" font-family="sans-serif" font-size="14" font-weight="bold" lengthAdjust="spacing" textLength="211" x="608" y="681.5332">Docker Container : postgresql</text></g><!--entity RazorPages--><g id="elem_RazorPages"><polygon fill="#F1F1F1" points="188.5,174,188.5,174.2102,198.7308,173.5857,208.9615,174.1933,219.1923,174.3997,229.4231,173.2866,239.6538,173.9223,249.8846,173.5735,260.1154,173.6165,270.3462,173.9318,280.5769,173.3086,290.8077,174.5536,301.0385,173.3697,311.2692,173.8022,321.5,174,321.5551,174.133,321.8426,174.12,322.2158,174.3139,322.5566,174.4295,322.937,174.6408,323.2678,174.7322,323.3414,174.7627,323.5946,175.1605,323.7673,175.5249,323.9163,175.8795,323.932,176.1789,324,176.5,324.4636,176.5,324.7022,186.5365,323.2788,196.5729,324.6785,206.6094,323.7035,216.6458,324.5338,226.6823,324,236.7188,323.8476,236.6556,323.8325,237.0636,323.9355,237.5205,323.5457,237.7732,323.4466,238.1464,323.2678,238.4865,323.311,238.5908,322.9673,238.7611,322.5602,238.7782,322.2437,239.0143,321.7805,238.896,321.5,239.2188,321.5,239.5031,311.2692,239.7669,301.0385,239.6633,290.8077,239.8318,280.5769,238.7357,270.3462,238.5666,260.1154,238.5973,249.8846,239.1599,239.6538,239.0222,229.4231,239.9002,219.1923,239.0441,208.9615,238.8757,198.7308,239.447,188.5,239.2188,188.4149,239.0134,188.0802,238.9124,187.8757,239.1257,187.4949,238.9136,187.1795,238.8592,186.7322,238.4865,186.6331,238.4455,186.6841,238.1737,186.6212,237.8547,186.1474,237.3656,186.1169,237.0601,186,236.7188,186.126,236.7188,186.6518,226.6823,185.9958,216.6458,186.4626,206.6094,185.4462,196.5729,185.3227,186.5365,186,176.5,186.1551,176.5642,185.9257,176.055,186.4496,175.8578,186.503,175.4657,186.5033,175.0516,186.7322,174.7322,186.6871,174.6233,187.1443,174.7271,187.4012,174.3472,187.8684,174.4752,188.0759,173.9762,188.5,174" style="stroke:#181818;stroke-width:0.5;"/><polygon fill="#F1F1F1" points="304,179,304,179.0701,307,178.8619,310,179.0644,313,179.1332,316,178.7622,319,179,318.9741,179,318.8578,181,318.8722,183,318.9773,185,318.7695,187,319,189,319,189.1845,316,188.7899,313,188.9341,310,189.144,307,188.9714,304,189,304.0227,189,303.9894,187,304.0595,185,304.0797,183,304.1952,181,304,179" style="stroke:#181818;stroke-width:0.5;"/><polygon fill="#F1F1F1" points="302,181,302,181.0701,302.8,180.8619,303.6,181.0644,304.4,181.1332,305.2,180.7622,306,181,305.9741,181,305.8578,181.4,305.8722,181.8,305.9773,182.2,305.7695,182.6,306,183,306,183.1845,305.2,182.7899,304.4,182.9341,303.6,183.144,302.8,182.9714,302,183,302.0227,183,301.9894,182.6,302.0595,182.2,302.0797,181.8,302.1952,181.4,302,181" style="stroke:#181818;stroke-width:0.5;"/><polygon fill="#F1F1F1" points="302,185,302,185.0701,302.8,184.8619,303.6,185.0644,304.4,185.1332,305.2,184.7622,306,185,305.9741,185,305.8578,185.4,305.8722,185.8,305.9773,186.2,305.7695,186.6,306,187,306,187.1845,305.2,186.7899,304.4,186.9341,303.6,187.144,302.8,186.9714,302,187,302.0227,187,301.9894,186.6,302.0595,186.2,302.0797,185.8,302.1952,185.4,302,185" style="stroke:#181818;stroke-width:0.5;"/><text fill="#000000" font-family="sans-serif" font-size="14" lengthAdjust="spacing" textLength="81" x="201" y="208.5332">Razor Pages</text><text fill="#000000" font-family="sans-serif" font-size="14" lengthAdjust="spacing" textLength="98" x="201" y="226.1426">(HTML/CSS/JS)</text></g><!--entity Controllers--><g id="elem_Controllers"><polygon fill="#F1F1F1" points="99,468,99,468.2102,109.4,467.5857,119.8,468.1933,130.2,468.3997,140.6,467.2866,151,467.9223,161.4,467.5735,171.8,467.6165,182.2,467.9318,192.6,467.3086,203,468,203.0706,468.1705,203.2732,467.9523,203.6819,468.232,204.1158,468.5724,204.4033,468.5594,204.7678,468.7322,204.7888,468.7409,204.9044,469.0817,205.1156,469.4621,205.2808,469.8234,205.5339,470.2212,205.5,470.5,205.7237,470.5,205.7264,479.0219,205.5849,487.5438,205.6545,496.0656,205.7341,504.5875,205.5,513.1094,205.2779,513.0174,205.5625,513.5495,205.1158,513.7787,205.2251,514.2381,204.7618,514.4604,204.7678,514.8771,204.759,514.856,204.5088,515.252,204.0544,515.155,203.7205,515.3489,203.3967,515.5672,203,515.6094,203,516.0256,192.6,515.6055,182.2,515.8966,171.8,515.037,161.4,515.8938,151,516.1576,140.6,516.0539,130.2,516.2224,119.8,515.1263,109.4,514.9572,99,515.6094,98.9207,515.418,98.6389,515.4448,98.2678,515.256,98.0263,515.3799,97.5635,514.9698,97.2322,514.8771,97.1266,514.8334,97.1561,514.5527,96.734,514.085,96.633,513.7503,96.8463,513.5457,96.5,513.1094,96.6452,513.1094,96.7448,504.5875,96.3927,496.0656,96.6064,487.5438,96.6968,479.0219,96.5,470.5,96.3545,470.4397,96.6169,470.1342,96.8317,469.809,97.1401,469.5225,97.0845,469.0853,97.2322,468.7322,97.2912,468.8747,97.5151,468.4152,97.8529,468.2308,98.3571,468.448,98.555,467.9257,99,468" style="stroke:#181818;stroke-width:0.5;"/><polygon fill="#F1F1F1" points="185.5,473,185.5,473.0701,188.5,472.8619,191.5,473.0644,194.5,473.1332,197.5,472.7622,200.5,473,200.4741,473,200.3578,475,200.3722,477,200.4773,479,200.2695,481,200.5,483,200.5,483.1845,197.5,482.7899,194.5,482.9341,191.5,483.144,188.5,482.9714,185.5,483,185.5227,483,185.4894,481,185.5595,479,185.5797,477,185.6952,475,185.5,473" style="stroke:#181818;stroke-width:0.5;"/><polygon fill="#F1F1F1" points="183.5,475,183.5,475.0701,184.3,474.8619,185.1,475.0644,185.9,475.1332,186.7,474.7622,187.5,475,187.4741,475,187.3578,475.4,187.3722,475.8,187.4773,476.2,187.2695,476.6,187.5,477,187.5,477.1845,186.7,476.7899,185.9,476.9341,185.1,477.144,184.3,476.9714,183.5,477,183.5227,477,183.4894,476.6,183.5595,476.2,183.5797,475.8,183.6952,475.4,183.5,475" style="stroke:#181818;stroke-width:0.5;"/><polygon fill="#F1F1F1" points="183.5,479,183.5,479.0701,184.3,478.8619,185.1,479.0644,185.9,479.1332,186.7,478.7622,187.5,479,187.4741,479,187.3578,479.4,187.3722,479.8,187.4773,480.2,187.2695,480.6,187.5,481,187.5,481.1845,186.7,480.7899,185.9,480.9341,185.1,481.144,184.3,480.9714,183.5,481,183.5227,481,183.4894,480.6,183.5595,480.2,183.5797,479.8,183.6952,479.4,183.5,479" style="stroke:#181818;stroke-width:0.5;"/><text fill="#000000" font-family="sans-serif" font-size="14" lengthAdjust="spacing" textLength="69" x="111.5" y="502.5332">Controllers</text></g><!--entity Services--><g id="elem_Services"><polygon fill="#F1F1F1" points="118.5,702.5,118.5,702.7102,128.3889,702.0857,138.2778,702.6933,148.1667,702.8997,158.0556,701.7866,167.9444,702.4223,177.8333,702.0735,187.7222,702.1165,197.6111,702.4318,207.5,702.5,207.4118,702.2871,207.9242,702.8169,208.1267,702.5988,208.5354,702.8784,208.9693,703.2188,209.2678,703.2322,209.2414,703.2213,209.4352,703.5945,209.5508,703.9353,209.7621,704.3157,209.9272,704.677,210,705,210.1952,705,210.2237,713.5219,210.2264,722.0438,210.0849,730.5656,210.1545,739.0875,210,747.6094,210.2163,747.699,209.6315,747.8709,209.9161,748.403,209.4693,748.6322,209.5786,749.0917,209.2678,749.3771,209.2046,749.2247,208.9055,749.5025,208.6553,749.8984,208.2009,749.8015,207.867,749.9954,207.5,750.1094,207.5,750.448,197.6111,750.5256,187.7222,750.1055,177.8333,750.3966,167.9444,749.537,158.0556,750.3938,148.1667,750.6576,138.2778,750.5539,128.3889,750.7224,118.5,750.1094,118.4384,749.9606,118.0633,749.7621,117.7136,749.6251,117.4318,749.6519,117.0607,749.4631,116.7322,749.3771,116.9421,749.4641,116.532,749.0013,116.3337,748.6263,116.3632,748.3456,115.9411,747.8779,116,747.6094,115.827,747.6094,116.2163,739.0875,116.1452,730.5656,116.2448,722.0438,115.8927,713.5219,116,705,116.0983,705.0407,116.3283,704.7218,116.1474,704.2326,116.4098,703.9271,116.6246,703.6019,116.7322,703.2322,116.8154,703.4329,117.0853,703.0845,117.4983,703.0818,117.7223,702.6223,118.0601,702.4379,118.5,702.5" style="stroke:#181818;stroke-width:0.5;"/><polygon fill="#F1F1F1" points="190,707.5,190,707.5701,193,707.3619,196,707.5644,199,707.6332,202,707.2622,205,707.5,204.9741,707.5,204.8578,709.5,204.8722,711.5,204.9773,713.5,204.7695,715.5,205,717.5,205,717.6845,202,717.2899,199,717.4341,196,717.644,193,717.4714,190,717.5,190.0227,717.5,189.9894,715.5,190.0595,713.5,190.0797,711.5,190.1952,709.5,190,707.5" style="stroke:#181818;stroke-width:0.5;"/><polygon fill="#F1F1F1" points="188,709.5,188,709.5701,188.8,709.3619,189.6,709.5644,190.4,709.6332,191.2,709.2622,192,709.5,191.9741,709.5,191.8578,709.9,191.8722,710.3,191.9773,710.7,191.7695,711.1,192,711.5,192,711.6845,191.2,711.2899,190.4,711.4341,189.6,711.644,188.8,711.4714,188,711.5,188.0227,711.5,187.9894,711.1,188.0595,710.7,188.0797,710.3,188.1952,709.9,188,709.5" style="stroke:#181818;stroke-width:0.5;"/><polygon fill="#F1F1F1" points="188,713.5,188,713.5701,188.8,713.3619,189.6,713.5644,190.4,713.6332,191.2,713.2622,192,713.5,191.9741,713.5,191.8578,713.9,191.8722,714.3,191.9773,714.7,191.7695,715.1,192,715.5,192,715.6845,191.2,715.2899,190.4,715.4341,189.6,715.644,188.8,715.4714,188,715.5,188.0227,715.5,187.9894,715.1,188.0595,714.7,188.0797,714.3,188.1952,713.9,188,713.5" style="stroke:#181818;stroke-width:0.5;"/><text fill="#000000" font-family="sans-serif" font-size="14" lengthAdjust="spacing" textLength="54" x="131" y="737.0332">Services</text></g><!--entity DataLayer--><g id="elem_DataLayer"><polygon fill="#F1F1F1" points="99,870,99,870.2102,108.7895,869.5857,118.5789,870.1933,128.3684,870.3997,138.1579,869.2866,147.9474,869.9223,157.7368,869.5735,167.5263,869.6165,177.3158,869.9318,187.1053,869.3086,196.8947,870.5536,206.6842,869.3697,216.4737,869.8022,226.2632,870.4319,236.0526,869.9142,245.8421,870.0682,255.6316,869.9681,265.4211,870.1785,275.2105,870.2391,285,870,285.0747,870.1804,285.4392,870.3531,285.7938,870.5021,286.0931,870.5178,286.4733,870.7286,286.7678,870.7322,286.984,870.8218,286.6921,870.9938,287.2696,871.5259,287.1158,871.7551,287.5179,872.2145,287.5,872.5,287.005,872.5,287.4315,882.5365,288.2416,892.5729,287.4513,902.6094,287.6053,912.6458,287.8386,922.6823,287.5,932.7188,287.6282,932.7718,287.3524,933.0718,287.2956,933.4625,286.8844,933.7064,287.0018,934.1692,286.7678,934.4865,286.8377,934.6553,286.4709,934.7699,286.1389,934.9682,285.6455,934.7771,285.2704,934.8715,285,935.2188,285,934.5973,275.2105,935.1599,265.4211,935.0222,255.6316,935.9002,245.8421,935.0441,236.0526,934.8757,226.2632,935.447,216.4737,934.5519,206.6842,934.6996,196.8947,935.8677,187.1053,935.6544,177.3158,935.9532,167.5263,934.897,157.7368,935.5379,147.9474,935.8092,138.1579,934.7463,128.3684,935.1229,118.5789,935.3447,108.7895,935.8705,99,935.2188,98.9995,935.2175,98.7055,935.2148,98.2223,934.7553,97.8529,934.5708,97.65,934.7881,97.2322,934.4865,97.0114,934.3951,97.2425,934.1979,97.003,933.8058,96.7104,933.3917,96.5375,933.0272,96.5,932.7188,96.9588,932.7188,96.2007,922.6823,97.0919,912.6458,95.9473,902.6094,97.1174,892.5729,96.9843,882.5365,96.5,872.5,96.5754,872.5312,96.661,872.1525,97.0167,871.8856,97.1283,871.5176,97.1379,871.1074,97.2322,870.7322,97.2664,870.8148,97.5692,870.5457,98.0307,870.66,98.3126,870.3406,98.6685,870.1996,99,870" style="stroke:#181818;stroke-width:0.5;"/><polygon fill="#F1F1F1" points="267.5,875,267.5,875.0701,270.5,874.8619,273.5,875.0644,276.5,875.1332,279.5,874.7622,282.5,875,282.4741,875,282.3578,877,282.3722,879,282.4773,881,282.2695,883,282.5,885,282.5,885.1845,279.5,884.7899,276.5,884.9341,273.5,885.144,270.5,884.9714,267.5,885,267.5227,885,267.4894,883,267.5595,881,267.5797,879,267.6952,877,267.5,875" style="stroke:#181818;stroke-width:0.5;"/><polygon fill="#F1F1F1" points="265.5,877,265.5,877.0701,266.3,876.8619,267.1,877.0644,267.9,877.1332,268.7,876.7622,269.5,877,269.4741,877,269.3578,877.4,269.3722,877.8,269.4773,878.2,269.2695,878.6,269.5,879,269.5,879.1845,268.7,878.7899,267.9,878.9341,267.1,879.144,266.3,878.9714,265.5,879,265.5227,879,265.4894,878.6,265.5595,878.2,265.5797,877.8,265.6952,877.4,265.5,877" style="stroke:#181818;stroke-width:0.5;"/><polygon fill="#F1F1F1" points="265.5,881,265.5,881.0701,266.3,880.8619,267.1,881.0644,267.9,881.1332,268.7,880.7622,269.5,881,269.4741,881,269.3578,881.4,269.3722,881.8,269.4773,882.2,269.2695,882.6,269.5,883,269.5,883.1845,268.7,882.7899,267.9,882.9341,267.1,883.144,266.3,882.9714,265.5,883,265.5227,883,265.4894,882.6,265.5595,882.2,265.5797,881.8,265.6952,881.4,265.5,881" style="stroke:#181818;stroke-width:0.5;"/><text fill="#000000" font-family="sans-serif" font-size="14" lengthAdjust="spacing" textLength="151" x="111.5" y="904.5332">MagasinCentral.Data.dll</text><text fill="#000000" font-family="sans-serif" font-size="14" lengthAdjust="spacing" textLength="125" x="111.5" y="922.1426">(EF Core &amp; Models)</text></g><g id="elem_GMN11"><path d="M241,446 L241.1868,446 L240.6317,454.4 L241.1718,462.8 L241.3553,471.2 L240.3659,479.6 L241,488 L240.9922,487.9314 L233.9251,488.4233 L226.8975,489.2613 L219.8972,490.3398 L212.8025,490.5894 L205.84,492 L205.8956,492.489 L212.8087,492.2433 L219.8841,493.4253 L226.9794,494.7815 L233.9594,495.1242 L241,496 L241.0607,496 L240.9716,504.3516 L241.1587,512.7031 L241.2126,521.0547 L241.5206,529.4063 L241,537.7578 L241,537.7578 L241,539.5473 L251.1,539.5692 L261.2,538.4368 L271.3,538.994 L281.4,539.6304 L291.5,535.8347 L301.6,539.5672 L311.7,536.9671 L321.8,539.1813 L331.9,536.4378 L342,537.5751 L352.1,539.7354 L362.2,537.6279 L372.3,538.0386 L382.4,538.6608 L392.5,538.8678 L402.6,537.7474 L412.7,538.5237 L422.8,536.2314 L432.9,538.5162 L443,537.7578 L443,537.7578 L444.4619,537.7578 L444.1854,527.5381 L444.6347,517.3184 L441.7118,507.0986 L441.2608,496.8789 L441.3429,486.6592 L442.843,476.4395 L442.4759,466.2197 L443,456 L443.4283,456.4283 L440.8902,453.8902 L438.7844,451.7844 L437.1435,450.1435 L434.5809,447.5809 L433,446 L433,444.6157 L422.8947,447.7305 L412.7895,447.1618 L402.6842,447.9586 L392.5789,445.1419 L382.4737,446.8512 L372.3684,447.5745 L362.2632,444.7403 L352.1579,445.7444 L342.0526,446.336 L331.9474,447.738 L321.8421,445.9888 L311.7368,447.2335 L301.6316,444.5232 L291.5263,444.194 L281.4211,447.343 L271.3158,444.0882 L261.2105,447.3572 L251.1053,446.551 L241,446 L241,446 " fill="#FEFFDD" style="stroke:#181818;stroke-width:0.5;"/><path d="M433,446 L433.1868,446 L432.6317,448 L433.1718,450 L433.3553,452 L432.3659,454 L433,456 L433,455.9309 L435,455.6209 L437,455.6591 L439,455.9394 L441,455.3854 L443,456 L443.348,456.348 L440.6038,453.6038 L438.8757,451.8757 L437.2715,450.2715 L434.9461,447.9461 L433,446 " fill="#FEFFDD" style="stroke:#181818;stroke-width:0.5;"/><text fill="#000000" font-family="sans-serif" font-size="13" lengthAdjust="spacing" textLength="181" x="247" y="464.4951">g&#232;re les requ&#234;tes HTTP/HTTPS</text><text fill="#000000" font-family="sans-serif" font-size="13" lengthAdjust="spacing" textLength="172" x="247" y="480.8467">et appelle les services m&#233;tier:</text><text fill="#000000" font-family="sans-serif" font-size="13" lengthAdjust="spacing" textLength="121" x="247" y="497.1982">PerformaceController</text><text fill="#000000" font-family="sans-serif" font-size="13" lengthAdjust="spacing" textLength="96" x="247" y="513.5498">ProduitController</text><text fill="#000000" font-family="sans-serif" font-size="13" lengthAdjust="spacing" textLength="12" x="247" y="529.9014">...</text></g><g id="elem_GMN14"><path d="M245,680.5 L245.1868,680.5 L244.6317,688.9 L245.1718,697.3 L245.3553,705.7 L244.3659,714.1 L245,722.5 L244.9921,722.4314 L237.9967,722.9234 L231.0411,723.7613 L224.1131,724.8398 L217.0898,725.0895 L210.2,726.5 L210.2562,726.9889 L217.096,726.7434 L224.0999,727.9254 L231.1238,729.2814 L238.0313,729.6243 L245,730.5 L245.0607,730.5 L244.9716,738.8516 L245.1587,747.2031 L245.2126,755.5547 L245.5206,763.9063 L245,772.2578 L245,772.2578 L245,774.0473 L255.2105,774.0692 L265.4211,772.9368 L275.6316,773.494 L285.8421,774.1304 L296.0526,770.3347 L306.2632,774.0672 L316.4737,771.4671 L326.6842,773.6813 L336.8947,770.9378 L347.1053,772.0751 L357.3158,774.2354 L367.5263,772.1279 L377.7368,772.5386 L387.9474,773.1608 L398.1579,773.3678 L408.3684,772.2474 L418.5789,773.0237 L428.7895,770.7314 L439,772.2578 L439,772.2578 L439.7584,772.2578 L440.4619,762.0381 L440.1854,751.8184 L440.6347,741.5986 L437.7118,731.3789 L437.2608,721.1592 L437.3429,710.9395 L438.843,700.7197 L439,690.5 L438.8765,690.3765 L437.4283,688.9283 L434.8902,686.3902 L432.7844,684.2844 L431.1435,682.6435 L429,680.5 L429,678.7218 L418.7778,679.1157 L408.5556,682.2305 L398.3333,681.6618 L388.1111,682.4586 L377.8889,679.6419 L367.6667,681.3512 L357.4444,682.0745 L347.2222,679.2403 L337,680.2444 L326.7778,680.836 L316.5556,682.238 L306.3333,680.4888 L296.1111,681.7335 L285.8889,679.0232 L275.6667,678.694 L265.4444,681.843 L255.2222,678.5882 L245,680.5 L245,680.5 " fill="#FEFFDD" style="stroke:#181818;stroke-width:0.5;"/><path d="M429,680.5 L429.1868,680.5 L428.6317,682.5 L429.1718,684.5 L429.3553,686.5 L428.3659,688.5 L429,690.5 L429,690.4309 L431,690.1209 L433,690.1591 L435,690.4394 L437,689.8854 L439,690.5 L439.348,690.848 L436.6038,688.1038 L434.8757,686.3757 L433.2715,684.7715 L430.9461,682.4461 L429,680.5 " fill="#FEFFDD" style="stroke:#181818;stroke-width:0.5;"/><text fill="#000000" font-family="sans-serif" font-size="13" lengthAdjust="spacing" textLength="149" x="251" y="698.9951">contient la logique m&#233;tier:</text><text fill="#000000" font-family="sans-serif" font-size="13" lengthAdjust="spacing" textLength="91" x="251" y="715.3467">- ProduitService</text><text fill="#000000" font-family="sans-serif" font-size="13" lengthAdjust="spacing" textLength="95" x="251" y="731.6982">- RapportService</text><text fill="#000000" font-family="sans-serif" font-size="13" lengthAdjust="spacing" textLength="173" x="251" y="748.0498">- ReapprovisionnementService</text><text fill="#000000" font-family="sans-serif" font-size="13" lengthAdjust="spacing" textLength="20" x="251" y="764.4014">- ...</text></g><!--entity DB--><g id="elem_DB"><path d="M661.5,713 L661.5,713 L661.5459,713.0813 L663.4563,711.6834 L665.636,710.7623 L667.728,709.6859 L669.5316,708.0989 L671.7344,707.2188 L671.7286,707.1847 L673.8008,706.6764 L675.902,706.3398 L678.0235,706.1225 L680.0752,705.4939 L682.2246,705.4414 L682.2489,705.6863 L684.6021,704.9244 L687.0261,704.8774 L689.4588,704.9176 L691.8412,704.4503 L694.25,704.25 L694.2518,704.2803 L696.6542,704.0913 L699.0649,704.0401 L701.4716,703.9225 L703.8859,703.9317 L706.2754,703.5273 L706.2859,703.8254 L708.3841,703.7548 L710.4755,703.492 L712.5768,703.5106 L714.6786,703.5424 L716.7656,703.1563 L716.7607,702.8358 L718.8171,703.4265 L720.8574,702.962 L722.9099,703.2997 L724.9498,702.8113 L727,703 L727,703 L726.9995,702.9696 L729.0519,703.3608 L731.0934,703.0408 L733.1413,703.1405 L735.1898,703.2755 L737.2344,703.1563 L737.2409,703.3411 L739.3324,703.2287 L741.435,703.4323 L743.5195,703.1247 L745.631,703.5794 L747.7246,703.5273 L747.7392,703.7705 L750.1415,703.8691 L752.5511,704.0884 L754.927,703.7466 L757.3275,703.8161 L759.75,704.25 L759.7228,703.9752 L762.1525,704.4622 L764.5515,704.6396 L766.9951,705.2662 L769.3627,705.1259 L771.7754,705.4414 L771.7499,705.2911 L773.8904,705.8969 L775.922,705.8601 L778.031,706.2803 L780.2158,707.1477 L782.2656,707.2188 L782.3609,707.3873 L784.4731,708.6592 L786.289,709.4067 L788.476,710.811 L790.5822,712.0722 L792.5,713 L792.0801,713 L792.4148,718.3219 L792.612,723.6438 L793.0793,728.9656 L792.4963,734.2875 L792.5,739.6094 L792.5,739.6094 L792.6011,739.7884 L790.3321,740.5513 L788.2582,741.6598 L786.4695,743.273 L784.1558,743.9569 L782.2656,745.3906 L782.3034,745.6137 L780.1829,745.8366 L778.0496,745.9842 L775.9452,746.302 L773.9075,747.0135 L771.7754,747.168 L771.7623,747.0356 L769.3962,747.668 L766.941,747.4001 L764.5872,748.1559 L762.1763,748.3353 L759.75,748.3594 L759.7565,748.4681 L757.3462,748.5249 L754.9592,748.9708 L752.5511,749.0652 L750.1342,749.0126 L747.7246,749.082 L747.7288,749.2012 L745.6245,749.0984 L743.5398,749.5487 L741.4329,749.3735 L739.3351,749.4556 L737.2344,749.4531 L737.2302,749.1828 L735.1848,749.3043 L733.1442,749.7515 L731.0967,749.7379 L729.0466,749.559 L727,749.6094 L727,749.6094 L726.9978,749.4662 L724.9516,749.4808 L722.9016,749.2419 L720.8622,749.6999 L718.8175,749.813 L716.7656,749.4531 L716.7739,749.6869 L714.6785,749.6876 L712.5674,749.244 L710.4729,749.2692 L708.3673,748.9841 L706.2754,749.082 L706.283,749.208 L703.8769,749.047 L701.48,749.038 L699.054,748.5466 L696.6515,748.4443 L694.25,748.3594 L694.2694,748.5555 L691.8698,748.372 L689.4174,747.6561 L687.0263,747.5588 L684.6362,747.4723 L682.2246,747.168 L682.1793,746.9003 L680.1528,746.9674 L678.0477,746.5701 L675.923,746.0574 L673.843,745.8084 L671.7344,745.3906 L671.8937,745.6726 L669.6191,744.1133 L667.7095,743.2 L665.6562,742.0324 L663.5722,740.8104 L661.5,739.6094 L661.6253,739.6094 L661.6009,734.2875 L660.9452,728.9656 L661.1437,723.6438 L661.0897,718.3219 L661.5,713 " fill="#F1F1F1" style="stroke:#181818;stroke-width:0.5;"/><path d="M661.5,713 L661.5,713 L661.5459,713.0813 L663.4563,713.9959 L665.636,715.3873 L667.728,716.6234 L669.5316,717.3489 L671.7344,718.7813 L671.7286,718.7472 L673.8008,718.9498 L675.902,719.3241 L678.0235,719.8178 L680.0752,719.9002 L682.2246,720.5586 L682.2489,720.8035 L684.6021,720.5181 L687.0261,720.9477 L689.4588,721.4645 L691.8412,721.4738 L694.25,721.75 L694.2518,721.7803 L696.6542,721.8804 L699.0649,722.1183 L701.4716,722.2897 L703.8859,722.588 L706.2754,722.4727 L706.2859,722.7707 L708.3841,722.8486 L710.4755,722.7342 L712.5768,722.9012 L714.6786,723.0814 L716.7656,722.8438 L716.7607,722.5233 L718.8171,723.1765 L720.8574,722.7745 L722.9099,723.1747 L724.9498,722.7488 L727,723 L727,723 L726.9995,722.9696 L729.0519,723.2983 L731.0934,722.9158 L733.1413,722.953 L735.1898,723.0255 L737.2344,722.8438 L737.2409,723.0286 L739.3324,722.7678 L741.435,722.8229 L743.5195,722.3668 L745.631,722.6732 L747.7246,722.4727 L747.7392,722.7159 L750.1415,722.5253 L752.5511,722.4556 L754.927,721.8247 L757.3275,721.6052 L759.75,721.75 L759.7228,721.4752 L762.1525,721.4857 L764.5515,721.1865 L766.9951,721.3365 L769.3627,720.7196 L771.7754,720.5586 L771.7499,720.4083 L773.8904,720.3032 L775.922,719.5554 L778.031,719.2647 L780.2158,719.4211 L782.2656,718.7813 L782.3609,718.9498 L784.4731,717.9092 L786.289,716.3442 L788.476,715.436 L790.5822,714.3847 L792.5,713 " fill="none" style="stroke:#181818;stroke-width:0.5;"/><text fill="#000000" font-family="sans-serif" font-size="14" lengthAdjust="spacing" textLength="111" x="671.5" y="741.5332">Base de donn&#233;es</text></g><!--link Browser to Controllers--><g id="link_Browser_Controllers"><path d="M151,263.4813 L151.0934,263.4813 L150.8159,263.703 L151.0859,263.9247 L151.1776,264.1464 L150.6829,264.3681 L151,264.5898 L150.9655,264.5898 L150.8104,266.4142 L150.8296,268.2387 L150.9697,270.0631 L150.6927,271.8875 L151,273.712 L151.2461,273.712 L150.7199,281.7206 L150.9121,289.7292 L151.192,297.7378 L150.9619,305.7464 L151,313.755 L151.091,313.755 L150.9574,323.6153 L151.238,333.4757 L151.3188,343.336 L151.7809,353.1963 L151.8947,363.0567 L151.9057,372.917 L151.3395,382.7773 L151.6181,392.6377 L151.9363,402.498 L150.0384,412.3583 L151.9047,422.2187 L150.6047,432.079 L151.7117,441.9393 L150.34,451.7997 L151,461.66 " fill="none" style="stroke:#181818;stroke-width:1.0;"/><polygon fill="#181818" points="151,467.66,151.064,467.6885,151.6738,465.8039,152.6589,464.0862,153.5217,462.3141,153.9827,460.3634,155,458.66,154.9817,458.6417,154.0995,459.3595,153.3096,460.1696,152.5839,461.0439,151.637,461.697,151,462.66,151.1305,462.7905,150.0514,461.7114,149.3534,461.0134,148.7018,460.3618,147.7798,459.4398,147,458.66,147.0208,458.6692,147.7903,460.4557,148.6544,462.2842,149.4728,464.0924,150.3784,465.9393,151,467.66" style="stroke:#181818;stroke-width:1.0;"/><text fill="#000000" font-family="sans-serif" font-size="13" lengthAdjust="spacing" textLength="77" x="152" y="325.4951">HTTP/HTTPS</text></g><!--link Controllers to Services--><g id="link_Controllers_Services"><path d="M152.19,516.14 L152.4699,516.1545 L152.1555,526.1292 L153.4818,536.1886 L154.2739,546.2205 L153.309,556.1616 L154.6727,566.223 L154.7255,576.2167 L155.3,586.2373 L156.2371,596.2766 L155.9245,606.2515 L158.0996,616.3547 L157.0403,626.291 L158.1335,636.3384 L159.4892,646.3994 L159.3171,656.3814 L160.0394,666.4097 L160.4232,676.4205 L161.2207,686.4526 L161.5002,696.458 " fill="none" style="stroke:#181818;stroke-width:1.0;"/><polygon fill="#181818" points="161.81,702.45,161.8754,702.4751,162.3871,700.5616,163.2822,698.7953,164.0524,696.981,164.412,695.0092,165.34,693.2555,165.3208,693.2381,164.4768,694.0005,163.7298,694.8504,163.0502,695.761,162.1383,696.4621,161.5519,697.4567,161.6754,697.5937,160.5709,696.543,159.8272,695.8924,159.1276,695.2907,158.1718,694.4049,157.3507,693.6685,157.371,693.6788,158.2331,695.42,159.1875,697.2081,160.0973,698.9735,161.0922,700.7821,161.81,702.45" style="stroke:#181818;stroke-width:1.0;"/><text fill="#000000" font-family="sans-serif" font-size="13" lengthAdjust="spacing" textLength="36" x="156" y="582.4951">Utilise</text></g><!--link metier to database--><g id="link_metier_database"><path d="M486.0708,511.0351 L486.1561,511.0733 L485.9702,511.1108 L486.2842,511.372 L486.4355,511.5603 L486.0514,511.5092 L486.4083,511.7895 L486.3768,511.7754 L486.3737,512.0217 L486.5296,512.339 L486.796,512.7058 L486.6816,512.9023 L487.1006,513.3373 L487.3252,513.4377 L487.1353,513.8722 L487.6012,514.6 L488.1471,515.3636 L488.2275,515.919 L488.5527,516.5839 L488.5804,516.5963 L489.866,519.5433 L491.2777,522.5466 L492.6286,525.5228 L494.0954,528.5508 L495.1841,531.4097 L496.0008,531.775 L499.8815,540.4331 L503.2353,548.8556 L507.3603,557.623 L511.5214,566.4066 L513.6596,574.2853 L519.2339,583.7009 L521.9178,591.8238 L526.7991,600.9295 L530.02,609.2925 L529.4175,609.023 L533.8065,617.9068 L538.6623,626.9994 L541.5702,635.2207 L545.6275,643.9561 L549.7813,652.7347 L553.7456,661.4285 L557.104,669.8513 L561.3282,678.6614 L564.8484,687.1566 L564.6162,687.0527 L566.2892,690.1712 L567.7217,693.1821 L569.005,696.1264 L570.3988,699.12 L571.4755,701.9718 L571.2796,701.8841 L571.5011,702.5021 L571.8038,703.1565 L572.3222,703.9073 L572.5566,704.531 L572.9265,705.2154 L573.203,705.3391 L572.994,705.493 L573.064,705.7717 L573.4341,706.1846 L573.2093,706.3314 L573.6182,706.7616 L573.4076,706.6674 L573.4589,705.9347 L572.9498,704.9513 L572.6484,704.0609 L571.7973,702.9245 L571.5053,702.0383 " fill="none" style="stroke:#181818;stroke-width:1.0;"/><polygon fill="#181818" points="573.9553,707.5152,574.0254,707.5154,573.8124,705.5451,574.0102,703.5759,574.0743,701.6063,573.6985,699.6356,573.9316,697.6664,573.9074,697.6572,573.3952,698.6726,573.0049,699.7347,572.6996,700.8291,572.1019,701.8119,571.9136,702.9511,571.9794,703.1235,570.7817,702.3512,569.7762,702.0823,568.7942,701.8748,567.6757,701.31,566.6289,700.9331,566.6441,700.9501,568.0871,702.2416,569.5992,703.6102,571.078,704.9417,572.6205,706.344,573.9553,707.5152" style="stroke:#181818;stroke-width:1.0;"/><text fill="#000000" font-family="sans-serif" font-size="13" lengthAdjust="spacing" textLength="25" x="518" y="582.4951">TCP</text></g><!--link Services to DataLayer--><g id="link_Services_DataLayer"><path d="M166.85,750.61 L167.1264,750.6561 L168.0208,760.8102 L170.5357,771.2345 L172.5228,781.5708 L172.7747,791.6178 L175.3265,802.0483 L176.5835,812.2629 L178.3558,822.5634 L180.4862,832.9236 L181.3823,843.078 L184.7355,853.6421 L185.723,863.8117 " fill="none" style="stroke:#181818;stroke-width:1.0;"/><polygon fill="#181818" points="186.71,869.73,186.7778,869.7475,187.0693,867.7884,187.7584,865.932,188.318,864.0421,188.4518,862.0422,189.1751,860.1946,189.154,860.1796,188.4019,861.0327,187.756,861.9617,187.1841,862.9435,186.3575,863.7435,185.8875,864.7981,185.9948,864.9483,184.8447,863.9696,184.0078,863.4294,183.2091,862.9428,182.1881,862.1448,181.2841,861.5106,181.303,861.5231,182.3604,863.1486,183.5041,864.8311,184.6061,866.4861,185.7877,868.1937,186.71,869.73" style="stroke:#181818;stroke-width:1.0;"/><text fill="#000000" font-family="sans-serif" font-size="13" lengthAdjust="spacing" textLength="122" x="181" y="836.4951">Acc&#232;de aux donn&#233;es</text></g><!--SRC=[XLD1Rjim4Bph5GiVYkOG- -v3WLfkOHGsQaGkUcXxOAIDJ8JYoaigILlaFt7F_O4-bgKaotOje0S9b6PsThWSkdjjIyMgWAsosIDhxz62vmeZJoLuWblodWh8D6FgDTaeifGXZ1RrNu_VxTklscRqw2Q5IZydawMsrTFL29I31JaFloE0KAXiRgGefYhT8govtZkqNWN1KKC2Q6LZemM06OicSYFKhJiQmBSRzOiOrYf79mOMczLo4YV9v5DozIFm6xX1cuBdg7q6dQpglTUXpwc7EQNtqYycSQYjhAQmKhbosiRYZPLfR1KOAdjNAHKbsU1z50gPZ45s3VFa-vAS83_e55lcuUEITcvWF5TUZJDZPFyVFae3HdW3At5lN3lzG5YgdyXHfsN98x3EjnxeRi0IG5w_Y8n19tFQLVKVBwl5PhEUX5VIqz23AakKseRhEijGjAESziGryXsnv0AFtOuWKrPfFu2Cn-DkZJPhR0zluPzPXMbPtuJ7A32Kwrs5bwQk3vsxyXFWHhP5F0IW84mFsabSBHRIuv8qOFkOli7ipKMiteUJ_q_uIhb9EQFRjS7Bv6XlbSC-UlsFqIoyHINhfKCKPkTE3lVf-lhTQGwaqTbfdqA1UfYtyBvuRRGB6-mkGS1x5rFOn6l1-eA0zdaK-7sQrY_YKbLFlTFeENe5]--></g></svg>