<?xml version="1.0" encoding="us-ascii" standalone="no"?><svg xmlns="http://www.w3.org/2000/svg" xmlns:xlink="http://www.w3.org/1999/xlink" contentStyleType="text/css" height="403px" preserveAspectRatio="none" style="width:666px;height:403px;background:#FFFFFF;" version="1.1" viewBox="0 0 666 403" width="666px" zoomAndPan="magnify"><defs/><g><text fill="#000000" font-family="sans-serif" font-size="14" font-weight="bold" lengthAdjust="spacing" textLength="260" x="202.25" y="29.5332">Process View - Get Performances API</text><line style="stroke:#181818;stroke-width:0.5;stroke-dasharray:5.0,5.0;" x1="49" x2="49" y1="121.2188" y2="320.9766"/><line style="stroke:#181818;stroke-width:0.5;stroke-dasharray:5.0,5.0;" x1="188" x2="188" y1="121.2188" y2="320.9766"/><line style="stroke:#181818;stroke-width:0.5;stroke-dasharray:5.0,5.0;" x1="327" x2="327" y1="121.2188" y2="320.9766"/><line style="stroke:#181818;stroke-width:0.5;stroke-dasharray:5.0,5.0;" x1="461" x2="461" y1="121.2188" y2="320.9766"/><line style="stroke:#181818;stroke-width:0.5;stroke-dasharray:5.0,5.0;" x1="593.5" x2="593.5" y1="121.2188" y2="320.9766"/><text fill="#000000" font-family="sans-serif" font-size="14" lengthAdjust="spacing" textLength="83" x="5" y="118.1426">Responsable</text><ellipse cx="49.5" cy="52.1094" fill="#E2E2F0" rx="8" ry="8" style="stroke:#181818;stroke-width:0.5;"/><path d="M49.5,60.1094 L49.5,87.1094 M36.5,68.1094 L62.5,68.1094 M49.5,87.1094 L36.5,102.1094 M49.5,87.1094 L62.5,102.1094 " fill="none" style="stroke:#181818;stroke-width:0.5;"/><text fill="#000000" font-family="sans-serif" font-size="14" lengthAdjust="spacing" textLength="83" x="5" y="334.5098">Responsable</text><ellipse cx="49.5" cy="346.0859" fill="#E2E2F0" rx="8" ry="8" style="stroke:#181818;stroke-width:0.5;"/><path d="M49.5,354.0859 L49.5,381.0859 M36.5,362.0859 L62.5,362.0859 M49.5,381.0859 L36.5,396.0859 M49.5,381.0859 L62.5,396.0859 " fill="none" style="stroke:#181818;stroke-width:0.5;"/><rect fill="#E2E2F0" height="31.6094" rx="2.5" ry="2.5" style="stroke:#181818;stroke-width:0.5;" width="65" x="156" y="88.6094"/><text fill="#000000" font-family="sans-serif" font-size="14" lengthAdjust="spacing" textLength="51" x="163" y="110.1426">Browser</text><rect fill="#E2E2F0" height="31.6094" rx="2.5" ry="2.5" style="stroke:#181818;stroke-width:0.5;" width="65" x="156" y="319.9766"/><text fill="#000000" font-family="sans-serif" font-size="14" lengthAdjust="spacing" textLength="51" x="163" y="341.5098">Browser</text><rect fill="#E2E2F0" height="31.6094" rx="2.5" ry="2.5" style="stroke:#181818;stroke-width:0.5;" width="141" x="257" y="88.6094"/><text fill="#000000" font-family="sans-serif" font-size="14" lengthAdjust="spacing" textLength="127" x="264" y="110.1426">ProduitApiController</text><rect fill="#E2E2F0" height="31.6094" rx="2.5" ry="2.5" style="stroke:#181818;stroke-width:0.5;" width="141" x="257" y="319.9766"/><text fill="#000000" font-family="sans-serif" font-size="14" lengthAdjust="spacing" textLength="127" x="264" y="341.5098">ProduitApiController</text><rect fill="#E2E2F0" height="31.6094" rx="2.5" ry="2.5" style="stroke:#181818;stroke-width:0.5;" width="106" x="408" y="88.6094"/><text fill="#000000" font-family="sans-serif" font-size="14" lengthAdjust="spacing" textLength="92" x="415" y="110.1426">ProduitService</text><rect fill="#E2E2F0" height="31.6094" rx="2.5" ry="2.5" style="stroke:#181818;stroke-width:0.5;" width="106" x="408" y="319.9766"/><text fill="#000000" font-family="sans-serif" font-size="14" lengthAdjust="spacing" textLength="92" x="415" y="341.5098">ProduitService</text><rect fill="#E2E2F0" height="31.6094" rx="2.5" ry="2.5" style="stroke:#181818;stroke-width:0.5;" width="133" x="527.5" y="88.6094"/><text fill="#000000" font-family="sans-serif" font-size="14" lengthAdjust="spacing" textLength="119" x="534.5" y="110.1426">MagasinDbContext</text><rect fill="#E2E2F0" height="31.6094" rx="2.5" ry="2.5" style="stroke:#181818;stroke-width:0.5;" width="133" x="527.5" y="319.9766"/><text fill="#000000" font-family="sans-serif" font-size="14" lengthAdjust="spacing" textLength="119" x="534.5" y="341.5098">MagasinDbContext</text><polygon fill="#181818" points="176.5,149.5703,186.5,153.5703,176.5,157.5703,180.5,153.5703" style="stroke:#181818;stroke-width:1.0;"/><line style="stroke:#181818;stroke-width:1.0;" x1="49.5" x2="182.5" y1="153.5703" y2="153.5703"/><text fill="#000000" font-family="sans-serif" font-size="13" lengthAdjust="spacing" textLength="115" x="56.5" y="148.7139">api/v1/performances</text><polygon fill="#181818" points="315.5,179.9219,325.5,183.9219,315.5,187.9219,319.5,183.9219" style="stroke:#181818;stroke-width:1.0;"/><line style="stroke:#181818;stroke-width:1.0;" x1="188.5" x2="321.5" y1="183.9219" y2="183.9219"/><text fill="#000000" font-family="sans-serif" font-size="13" lengthAdjust="spacing" textLength="115" x="195.5" y="179.0654">api/v1/performances</text><polygon fill="#181818" points="449,210.2734,459,214.2734,449,218.2734,453,214.2734" style="stroke:#181818;stroke-width:1.0;"/><line style="stroke:#181818;stroke-width:1.0;" x1="327.5" x2="455" y1="214.2734" y2="214.2734"/><text fill="#000000" font-family="sans-serif" font-size="13" lengthAdjust="spacing" textLength="109" x="334.5" y="209.417">GetPerformances()</text><polygon fill="#181818" points="582,240.625,592,244.625,582,248.625,586,244.625" style="stroke:#181818;stroke-width:1.0;"/><line style="stroke:#181818;stroke-width:1.0;" x1="461" x2="588" y1="244.625" y2="244.625"/><text fill="#000000" font-family="sans-serif" font-size="13" lengthAdjust="spacing" textLength="109" x="468" y="239.7686">GetPerformances()</text><polygon fill="#181818" points="472,254.625,462,258.625,472,262.625,468,258.625" style="stroke:#181818;stroke-width:1.0;"/><line style="stroke:#181818;stroke-width:1.0;stroke-dasharray:2.0,2.0;" x1="466" x2="593" y1="258.625" y2="258.625"/><polygon fill="#181818" points="338.5,268.625,328.5,272.625,338.5,276.625,334.5,272.625" style="stroke:#181818;stroke-width:1.0;"/><line style="stroke:#181818;stroke-width:1.0;stroke-dasharray:2.0,2.0;" x1="332.5" x2="460" y1="272.625" y2="272.625"/><polygon fill="#181818" points="199.5,298.9766,189.5,302.9766,199.5,306.9766,195.5,302.9766" style="stroke:#181818;stroke-width:1.0;"/><line style="stroke:#181818;stroke-width:1.0;stroke-dasharray:2.0,2.0;" x1="193.5" x2="326.5" y1="302.9766" y2="302.9766"/><text fill="#000000" font-family="sans-serif" font-size="13" lengthAdjust="spacing" textLength="44" x="205.5" y="298.1201">200 OK</text><!--SRC=[TP31IiH038RlynIX9psKtVNeGLXR45d4eGNlQOqI66U6JDprySsEFNHXlURxaZ-9iWO2BsccKk2DwGGjF9629_b8yeNH0EpziyDPaq0pKCaf5fm2DO051kSoYlBC6QD2yoZfL4Wgwm9Jr4jkKU_VhFlCNOegAOH5zjrLSIGvyloNvSTBvGK_iN3if_Ce-j4gzPDp0xGFIphS0sRU77URlBh8BT0qt_sZ63ZZqR0zPFsFcrldh6wqdwvJgxUrkNerfSvRhtMttSBhuHS0]--></g></svg>