<?xml version="1.0" encoding="us-ascii" standalone="no"?><svg xmlns="http://www.w3.org/2000/svg" xmlns:xlink="http://www.w3.org/1999/xlink" contentStyleType="text/css" height="587px" preserveAspectRatio="none" style="width:1211px;height:587px;background:#FFFFFF;" version="1.1" viewBox="0 0 1211 587" width="1211px" zoomAndPan="magnify"><defs/><g><text fill="#000000" font-family="sans-serif" font-size="14" font-weight="bold" lengthAdjust="spacing" textLength="478" x="365.5" y="29.5332">Vue de Processus - R&#233;cup&#233;ration de rapport consolid&#233;e des ventes</text><line style="stroke:#181818;stroke-width:0.5;stroke-dasharray:5.0,5.0;" x1="48" x2="48" y1="121.2188" y2="505.4375"/><line style="stroke:#181818;stroke-width:0.5;stroke-dasharray:5.0,5.0;" x1="232" x2="232" y1="121.2188" y2="505.4375"/><line style="stroke:#181818;stroke-width:0.5;stroke-dasharray:5.0,5.0;" x1="411" x2="411" y1="121.2188" y2="505.4375"/><line style="stroke:#181818;stroke-width:0.5;stroke-dasharray:5.0,5.0;" x1="676.5" x2="676.5" y1="121.2188" y2="505.4375"/><line style="stroke:#181818;stroke-width:0.5;stroke-dasharray:5.0,5.0;" x1="875" x2="875" y1="121.2188" y2="505.4375"/><line style="stroke:#181818;stroke-width:0.5;stroke-dasharray:5.0,5.0;" x1="1012" x2="1012" y1="121.2188" y2="505.4375"/><line style="stroke:#181818;stroke-width:0.5;stroke-dasharray:5.0,5.0;" x1="1144" x2="1144" y1="121.2188" y2="505.4375"/><text fill="#000000" font-family="sans-serif" font-size="14" lengthAdjust="spacing" textLength="81" x="5" y="118.1426">Gestionnaire</text><ellipse cx="48.5" cy="52.1094" fill="#E2E2F0" rx="8" ry="8" style="stroke:#181818;stroke-width:0.5;"/><path d="M48.5,60.1094 L48.5,87.1094 M35.5,68.1094 L61.5,68.1094 M48.5,87.1094 L35.5,102.1094 M48.5,87.1094 L61.5,102.1094 " fill="none" style="stroke:#181818;stroke-width:0.5;"/><text fill="#000000" font-family="sans-serif" font-size="14" lengthAdjust="spacing" textLength="81" x="5" y="518.9707">Gestionnaire</text><ellipse cx="48.5" cy="530.5469" fill="#E2E2F0" rx="8" ry="8" style="stroke:#181818;stroke-width:0.5;"/><path d="M48.5,538.5469 L48.5,565.5469 M35.5,546.5469 L61.5,546.5469 M48.5,565.5469 L35.5,580.5469 M48.5,565.5469 L61.5,580.5469 " fill="none" style="stroke:#181818;stroke-width:0.5;"/><rect fill="#E2E2F0" height="49.2188" rx="2.5" ry="2.5" style="stroke:#181818;stroke-width:0.5;" width="137" x="164" y="71"/><text fill="#000000" font-family="sans-serif" font-size="14" lengthAdjust="spacing" textLength="103" x="181" y="92.5332">Application MVC</text><text fill="#000000" font-family="sans-serif" font-size="14" lengthAdjust="spacing" textLength="123" x="171" y="110.1426">(RapportController)</text><rect fill="#E2E2F0" height="49.2188" rx="2.5" ry="2.5" style="stroke:#181818;stroke-width:0.5;" width="137" x="164" y="504.4375"/><text fill="#000000" font-family="sans-serif" font-size="14" lengthAdjust="spacing" textLength="103" x="181" y="525.9707">Application MVC</text><text fill="#000000" font-family="sans-serif" font-size="14" lengthAdjust="spacing" textLength="123" x="171" y="543.5801">(RapportController)</text><rect fill="#E2E2F0" height="49.2188" rx="2.5" ry="2.5" style="stroke:#181818;stroke-width:0.5;" width="137" x="343" y="71"/><text fill="#000000" font-family="sans-serif" font-size="14" lengthAdjust="spacing" textLength="116" x="353.5" y="92.5332">RapportMcService</text><text fill="#000000" font-family="sans-serif" font-size="14" lengthAdjust="spacing" textLength="123" x="350" y="110.1426">(RapportController)</text><rect fill="#E2E2F0" height="49.2188" rx="2.5" ry="2.5" style="stroke:#181818;stroke-width:0.5;" width="137" x="343" y="504.4375"/><text fill="#000000" font-family="sans-serif" font-size="14" lengthAdjust="spacing" textLength="116" x="353.5" y="525.9707">RapportMcService</text><text fill="#000000" font-family="sans-serif" font-size="14" lengthAdjust="spacing" textLength="123" x="350" y="543.5801">(RapportController)</text><rect fill="#E2E2F0" height="49.2188" rx="2.5" ry="2.5" style="stroke:#181818;stroke-width:0.5;" width="130" x="611.5" y="71"/><text fill="#000000" font-family="sans-serif" font-size="14" lengthAdjust="spacing" textLength="116" x="618.5" y="92.5332">RapportMcService</text><text fill="#000000" font-family="sans-serif" font-size="14" lengthAdjust="spacing" textLength="108" x="622.5" y="110.1426">(RapportService)</text><rect fill="#E2E2F0" height="49.2188" rx="2.5" ry="2.5" style="stroke:#181818;stroke-width:0.5;" width="130" x="611.5" y="504.4375"/><text fill="#000000" font-family="sans-serif" font-size="14" lengthAdjust="spacing" textLength="116" x="618.5" y="525.9707">RapportMcService</text><text fill="#000000" font-family="sans-serif" font-size="14" lengthAdjust="spacing" textLength="108" x="622.5" y="543.5801">(RapportService)</text><rect fill="#E2E2F0" height="49.2188" rx="2.5" ry="2.5" style="stroke:#181818;stroke-width:0.5;" width="131" x="810" y="71"/><text fill="#000000" font-family="sans-serif" font-size="14" lengthAdjust="spacing" textLength="114" x="818.5" y="92.5332">ProduittMcService</text><text fill="#000000" font-family="sans-serif" font-size="14" lengthAdjust="spacing" textLength="117" x="817" y="110.1426">(ProduitController)</text><rect fill="#E2E2F0" height="49.2188" rx="2.5" ry="2.5" style="stroke:#181818;stroke-width:0.5;" width="131" x="810" y="504.4375"/><text fill="#000000" font-family="sans-serif" font-size="14" lengthAdjust="spacing" textLength="114" x="818.5" y="525.9707">ProduittMcService</text><text fill="#000000" font-family="sans-serif" font-size="14" lengthAdjust="spacing" textLength="117" x="817" y="543.5801">(ProduitController)</text><rect fill="#E2E2F0" height="49.2188" rx="2.5" ry="2.5" style="stroke:#181818;stroke-width:0.5;" width="123" x="951" y="71"/><text fill="#000000" font-family="sans-serif" font-size="14" lengthAdjust="spacing" textLength="102" x="961.5" y="92.5332">VenteMcService</text><text fill="#000000" font-family="sans-serif" font-size="14" lengthAdjust="spacing" textLength="109" x="958" y="110.1426">(VenteController)</text><rect fill="#E2E2F0" height="49.2188" rx="2.5" ry="2.5" style="stroke:#181818;stroke-width:0.5;" width="123" x="951" y="504.4375"/><text fill="#000000" font-family="sans-serif" font-size="14" lengthAdjust="spacing" textLength="102" x="961.5" y="525.9707">VenteMcService</text><text fill="#000000" font-family="sans-serif" font-size="14" lengthAdjust="spacing" textLength="109" x="958" y="543.5801">(VenteController)</text><rect fill="#E2E2F0" height="49.2188" rx="2.5" ry="2.5" style="stroke:#181818;stroke-width:0.5;" width="121" x="1084" y="71"/><text fill="#000000" font-family="sans-serif" font-size="14" lengthAdjust="spacing" textLength="100" x="1094.5" y="92.5332">StockMcService</text><text fill="#000000" font-family="sans-serif" font-size="14" lengthAdjust="spacing" textLength="107" x="1091" y="110.1426">(StockController)</text><rect fill="#E2E2F0" height="49.2188" rx="2.5" ry="2.5" style="stroke:#181818;stroke-width:0.5;" width="121" x="1084" y="504.4375"/><text fill="#000000" font-family="sans-serif" font-size="14" lengthAdjust="spacing" textLength="100" x="1094.5" y="525.9707">StockMcService</text><text fill="#000000" font-family="sans-serif" font-size="14" lengthAdjust="spacing" textLength="107" x="1091" y="543.5801">(StockController)</text><polygon fill="#181818" points="220.5,149.5703,230.5,153.5703,220.5,157.5703,224.5,153.5703" style="stroke:#181818;stroke-width:1.0;"/><line style="stroke:#181818;stroke-width:1.0;" x1="48.5" x2="226.5" y1="153.5703" y2="153.5703"/><text fill="#000000" font-family="sans-serif" font-size="13" lengthAdjust="spacing" textLength="142" x="55.5" y="148.7139">obtenir rapport consolid&#233;</text><polygon fill="#181818" points="399.5,179.9219,409.5,183.9219,399.5,187.9219,403.5,183.9219" style="stroke:#181818;stroke-width:1.0;"/><line style="stroke:#181818;stroke-width:1.0;" x1="232.5" x2="405.5" y1="183.9219" y2="183.9219"/><text fill="#000000" font-family="sans-serif" font-size="13" lengthAdjust="spacing" textLength="114" x="239.5" y="179.0654">GET api/v1/rapports</text><polygon fill="#181818" points="664.5,210.2734,674.5,214.2734,664.5,218.2734,668.5,214.2734" style="stroke:#181818;stroke-width:1.0;"/><line style="stroke:#181818;stroke-width:1.0;" x1="411.5" x2="670.5" y1="214.2734" y2="214.2734"/><text fill="#000000" font-family="sans-serif" font-size="13" lengthAdjust="spacing" textLength="241" x="418.5" y="209.417">rappot = ObtenirRapportConsolideAsync()</text><polygon fill="#181818" points="863.5,240.625,873.5,244.625,863.5,248.625,867.5,244.625" style="stroke:#181818;stroke-width:1.0;"/><line style="stroke:#181818;stroke-width:1.0;" x1="676.5" x2="869.5" y1="244.625" y2="244.625"/><text fill="#000000" font-family="sans-serif" font-size="13" lengthAdjust="spacing" textLength="175" x="683.5" y="239.7686">produits = GET api/v1/produits</text><polygon fill="#181818" points="687.5,270.9766,677.5,274.9766,687.5,278.9766,683.5,274.9766" style="stroke:#181818;stroke-width:1.0;"/><line style="stroke:#181818;stroke-width:1.0;stroke-dasharray:2.0,2.0;" x1="681.5" x2="874.5" y1="274.9766" y2="274.9766"/><text fill="#000000" font-family="sans-serif" font-size="13" lengthAdjust="spacing" textLength="44" x="693.5" y="270.1201">200 OK</text><polygon fill="#181818" points="1000.5,301.3281,1010.5,305.3281,1000.5,309.3281,1004.5,305.3281" style="stroke:#181818;stroke-width:1.0;"/><line style="stroke:#181818;stroke-width:1.0;" x1="676.5" x2="1006.5" y1="305.3281" y2="305.3281"/><text fill="#000000" font-family="sans-serif" font-size="13" lengthAdjust="spacing" textLength="157" x="683.5" y="300.4717">ventes = GET api/v1/ventes</text><polygon fill="#181818" points="687.5,331.6797,677.5,335.6797,687.5,339.6797,683.5,335.6797" style="stroke:#181818;stroke-width:1.0;"/><line style="stroke:#181818;stroke-width:1.0;stroke-dasharray:2.0,2.0;" x1="681.5" x2="1011.5" y1="335.6797" y2="335.6797"/><text fill="#000000" font-family="sans-serif" font-size="13" lengthAdjust="spacing" textLength="44" x="693.5" y="330.8232">200 OK</text><polygon fill="#181818" points="1132.5,362.0313,1142.5,366.0313,1132.5,370.0313,1136.5,366.0313" style="stroke:#181818;stroke-width:1.0;"/><line style="stroke:#181818;stroke-width:1.0;" x1="676.5" x2="1138.5" y1="366.0313" y2="366.0313"/><text fill="#000000" font-family="sans-serif" font-size="13" lengthAdjust="spacing" textLength="161" x="683.5" y="361.1748">stocks = GET api/v1/stocks</text><polygon fill="#181818" points="687.5,392.3828,677.5,396.3828,687.5,400.3828,683.5,396.3828" style="stroke:#181818;stroke-width:1.0;"/><line style="stroke:#181818;stroke-width:1.0;stroke-dasharray:2.0,2.0;" x1="681.5" x2="1143.5" y1="396.3828" y2="396.3828"/><text fill="#000000" font-family="sans-serif" font-size="13" lengthAdjust="spacing" textLength="44" x="693.5" y="391.5264">200 OK</text><polygon fill="#181818" points="422.5,422.7344,412.5,426.7344,422.5,430.7344,418.5,426.7344" style="stroke:#181818;stroke-width:1.0;"/><line style="stroke:#181818;stroke-width:1.0;" x1="416.5" x2="675.5" y1="426.7344" y2="426.7344"/><text fill="#000000" font-family="sans-serif" font-size="13" lengthAdjust="spacing" textLength="155" x="428.5" y="421.8779">200 OK (rapport consolid&#233;)</text><polygon fill="#181818" points="243.5,453.0859,233.5,457.0859,243.5,461.0859,239.5,457.0859" style="stroke:#181818;stroke-width:1.0;"/><line style="stroke:#181818;stroke-width:1.0;stroke-dasharray:2.0,2.0;" x1="237.5" x2="410.5" y1="457.0859" y2="457.0859"/><text fill="#000000" font-family="sans-serif" font-size="13" lengthAdjust="spacing" textLength="155" x="249.5" y="452.2295">200 OK (rapport consolid&#233;)</text><polygon fill="#181818" points="59.5,483.4375,49.5,487.4375,59.5,491.4375,55.5,487.4375" style="stroke:#181818;stroke-width:1.0;"/><line style="stroke:#181818;stroke-width:1.0;stroke-dasharray:2.0,2.0;" x1="53.5" x2="231.5" y1="487.4375" y2="487.4375"/><text fill="#000000" font-family="sans-serif" font-size="13" lengthAdjust="spacing" textLength="160" x="65.5" y="482.5811">Afficher le rapport consolid&#233;</text><!--SRC=[bPJ1QW8n48RlUOgX9ps8jaUX1P4YfOX5Mq-zf37Iq2K9oQpGH_8vVB7ERY9kacsfrp___yqmCxkei9AmhINi9Bmu8wJtjOSHh4z7KTlJqN5KHZUlZbjh788msfjAxKx79kJX83LApnWNQ1mif6y2cYidcUKEbL2MQuIRcRML4W6ttCxVzM0TY7EZqPcgacvu0zp3srCQZBQbs4XtK4B-dYpa_uAYa52YbY9eHBjQOSA8MjvC8QUaRJEsBgOLSaWcfeWD6l7LHRH2ZiX4nhehWj43pHkcO3vGQkLwjipedLp5R2cqU7m5RjNuS3kEESzAtoKSEwLaQqUuXrMeUqcrLUNCVsin6B8iIAXYh4IpGVF4wxHqLbaP6VNrT3UPmEgPzTJCja3USFHflVWXvEOhQsNh8gzlbAnMq5Xklh9Mtqw36mRb8GpxTdk-dpzYmDeJ8cToULEOxVTAV1Abwlkx0Fi1]--></g></svg>