<?xml version="1.0" encoding="us-ascii" standalone="no"?><svg xmlns="http://www.w3.org/2000/svg" xmlns:xlink="http://www.w3.org/1999/xlink" contentStyleType="text/css" height="824px" preserveAspectRatio="none" style="width:506px;height:824px;background:#FFFFFF;" version="1.1" viewBox="0 0 506 824" width="506px" zoomAndPan="magnify"><defs/><g><text fill="#000000" font-family="sans-serif" font-size="14" font-weight="bold" lengthAdjust="spacing" textLength="321" x="85.525" y="24.5332">Diagramme Cas d'Utilisation - Magasin Central</text><!--cluster Magasin Central--><g id="cluster_Magasin Central"><rect fill="none" height="773" rx="2.5" ry="2.5" style="stroke:#181818;stroke-width:1.0;" width="328" x="172.05" y="45.6094"/><text fill="#000000" font-family="sans-serif" font-size="14" font-weight="bold" lengthAdjust="spacing" textLength="114" x="279.05" y="62.1426">Magasin Central</text></g><g id="elem_UC1"><ellipse cx="336.0683" cy="203.713" fill="#F1F1F1" rx="121.0183" ry="26.6037" style="stroke:#181818;stroke-width:0.5;"/><text fill="#000000" font-family="sans-serif" font-size="14" lengthAdjust="spacing" textLength="207" x="232.5683" y="207.4415">UC1 - G&#233;n&#233;rer rapport consolid&#233;</text></g><g id="elem_UC2"><ellipse cx="335.8387" cy="546.3671" fill="#F1F1F1" rx="144.2887" ry="31.2577" style="stroke:#181818;stroke-width:0.5;"/><text fill="#000000" font-family="sans-serif" font-size="14" lengthAdjust="spacing" textLength="185" x="243.3387" y="541.2909">UC2 - Consulter stock central</text><text fill="#000000" font-family="sans-serif" font-size="14" lengthAdjust="spacing" textLength="209" x="231.3387" y="558.9003">D&#233;clencher r&#233;approvisionnement</text></g><g id="elem_UC3"><ellipse cx="336.1894" cy="111.6373" fill="#F1F1F1" rx="138.1394" ry="30.0279" style="stroke:#181818;stroke-width:0.5;"/><text fill="#000000" font-family="sans-serif" font-size="14" lengthAdjust="spacing" textLength="192" x="237.1894" y="107.3492">UC3 - Visualiser performances</text><text fill="#000000" font-family="sans-serif" font-size="14" lengthAdjust="spacing" textLength="87" x="289.6894" y="124.9585">des magasins</text></g><g id="elem_UC4"><ellipse cx="336.0159" cy="385.5025" fill="#F1F1F1" rx="89.9659" ry="20.3932" style="stroke:#181818;stroke-width:0.5;"/><text fill="#000000" font-family="sans-serif" font-size="14" lengthAdjust="spacing" textLength="138" x="267.0159" y="389.2311">UC4 - Modifier produit</text></g><g id="elem_UC6"><ellipse cx="335.9833" cy="297.596" fill="#F1F1F1" rx="147.9333" ry="31.9867" style="stroke:#181818;stroke-width:0.5;"/><text fill="#000000" font-family="sans-serif" font-size="14" lengthAdjust="spacing" textLength="218" x="223.9833" y="293.308">UC6 - Approuver/refuser demande</text><text fill="#000000" font-family="sans-serif" font-size="14" lengthAdjust="spacing" textLength="153" x="256.4833" y="310.9173">de r&#233;approvisionnement</text></g><g id="elem_UC7"><ellipse cx="336.219" cy="460.6432" fill="#F1F1F1" rx="83.169" ry="19.0338" style="stroke:#181818;stroke-width:0.5;"/><text fill="#000000" font-family="sans-serif" font-size="14" lengthAdjust="spacing" textLength="122" x="275.219" y="464.3717">Rechercher produit</text></g><g id="elem_UC8"><ellipse cx="336.085" cy="633.4164" fill="#F1F1F1" rx="89.535" ry="20.307" style="stroke:#181818;stroke-width:0.5;"/><text fill="#000000" font-family="sans-serif" font-size="14" lengthAdjust="spacing" textLength="137" x="267.585" y="637.1449">Enregistrer une vente</text></g><g id="elem_UC9"><ellipse cx="336.0569" cy="707.5108" fill="#F1F1F1" rx="77.5069" ry="17.9014" style="stroke:#181818;stroke-width:0.5;"/><text fill="#000000" font-family="sans-serif" font-size="14" lengthAdjust="spacing" textLength="108" x="279.9067" y="711.8254">G&#233;rer les retours</text></g><g id="elem_UC10"><ellipse cx="335.9882" cy="781.697" fill="#F1F1F1" rx="93.4382" ry="21.0876" style="stroke:#181818;stroke-width:0.5;"/><text fill="#000000" font-family="sans-serif" font-size="14" lengthAdjust="spacing" textLength="146" x="262.9882" y="785.4255">Consulter &#233;tat du stock</text></g><!--entity E--><g id="elem_E"><ellipse cx="86.55" cy="516.1094" fill="#F1F1F1" rx="8" ry="8" style="stroke:#181818;stroke-width:0.5;"/><path d="M86.55,524.1094 L86.55,551.1094 M73.55,532.1094 L99.55,532.1094 M86.55,551.1094 L73.55,566.1094 M86.55,551.1094 L99.55,566.1094 " fill="none" style="stroke:#181818;stroke-width:0.5;"/><text fill="#000000" font-family="sans-serif" font-size="14" lengthAdjust="spacing" textLength="54" x="59.55" y="582.1426">Employe</text></g><!--entity G--><g id="elem_G"><ellipse cx="86.55" cy="173.1094" fill="#F1F1F1" rx="8" ry="8" style="stroke:#181818;stroke-width:0.5;"/><path d="M86.55,181.1094 L86.55,208.1094 M73.55,189.1094 L99.55,189.1094 M86.55,208.1094 L73.55,223.1094 M86.55,208.1094 L99.55,223.1094 " fill="none" style="stroke:#181818;stroke-width:0.5;"/><text fill="#000000" font-family="sans-serif" font-size="14" lengthAdjust="spacing" textLength="81" x="46.05" y="239.1426">Gestionnaire</text></g><!--entity R--><g id="elem_R"><ellipse cx="86.55" cy="355.1094" fill="#F1F1F1" rx="8" ry="8" style="stroke:#181818;stroke-width:0.5;"/><path d="M86.55,363.1094 L86.55,390.1094 M73.55,371.1094 L99.55,371.1094 M86.55,390.1094 L73.55,405.1094 M86.55,390.1094 L99.55,405.1094 " fill="none" style="stroke:#181818;stroke-width:0.5;"/><text fill="#000000" font-family="sans-serif" font-size="14" lengthAdjust="spacing" textLength="83" x="45.05" y="421.1426">Responsable</text></g><!--link G to E--><g id="link_G_E"><path d="M60.59,242.8394 C43.94,270.4394 23.85,308.9394 15.05,346.1094 C7.06,379.8394 6,390.6494 15.05,424.1094 C23.73,456.1994 32.7991,473.7762 49.2091,497.1562 " fill="none" id="G-to-E" style="stroke:#181818;stroke-width:1.0;"/><polygon fill="none" points="59.55,511.8894,54.1201,493.7093,44.298,500.6032,59.55,511.8894" style="stroke:#181818;stroke-width:1.0;"/></g><!--link R to E--><g id="link_R_E"><path d="M86.55,425.0694 C86.55,452.4794 86.55,461.8894 86.55,489.2994 " fill="none" id="R-to-E" style="stroke:#181818;stroke-width:1.0;"/><polygon fill="none" points="86.55,507.2994,92.55,489.2994,80.55,489.2994,86.55,507.2994" style="stroke:#181818;stroke-width:1.0;"/></g><!--link G to UC1--><g id="link_G_UC1"><path d="M127.32,203.6094 C151.3,203.6094 177.25,203.6094 208.88,203.6094 " fill="none" id="G-to-UC1" style="stroke:#181818;stroke-width:1.0;"/><polygon fill="#181818" points="214.88,203.6094,205.88,199.6094,209.88,203.6094,205.88,207.6094,214.88,203.6094" style="stroke:#181818;stroke-width:1.0;"/></g><!--link E to UC2--><g id="link_E_UC2"><path d="M113.57,546.6094 C133.06,546.6094 155.42,546.6094 185.38,546.6094 " fill="none" id="E-to-UC2" style="stroke:#181818;stroke-width:1.0;"/><polygon fill="#181818" points="191.38,546.6094,182.38,542.6094,186.38,546.6094,182.38,550.6094,191.38,546.6094" style="stroke:#181818;stroke-width:1.0;"/></g><!--link G to UC3--><g id="link_G_UC3"><path d="M127.09,178.3794 C138.7,171.6594 151.62,164.8294 164.05,159.6094 C188.36,149.3994 209.723,142.27 235.103,135.15 " fill="none" id="G-to-UC3" style="stroke:#181818;stroke-width:1.0;"/><polygon fill="#181818" points="240.88,133.5294,231.1341,132.109,236.0659,134.8799,233.295,139.8117,240.88,133.5294" style="stroke:#181818;stroke-width:1.0;"/></g><!--link R to UC4--><g id="link_R_UC4"><path d="M128.15,385.6094 C160.03,385.6094 199.62,385.6094 239.9,385.6094 " fill="none" id="R-to-UC4" style="stroke:#181818;stroke-width:1.0;"/><polygon fill="#181818" points="245.9,385.6094,236.9,381.6094,240.9,385.6094,236.9,389.6094,245.9,385.6094" style="stroke:#181818;stroke-width:1.0;"/></g><!--link R to UC6--><g id="link_R_UC6"><path d="M128.24,363.7394 C139.64,358.0694 152.18,352.2494 164.05,347.6094 C188.39,338.0894 209.5421,331.0964 234.6621,323.7364 " fill="none" id="R-to-UC6" style="stroke:#181818;stroke-width:1.0;"/><polygon fill="#181818" points="240.42,322.0494,230.6584,320.7413,235.6217,323.4552,232.9078,328.4186,240.42,322.0494" style="stroke:#181818;stroke-width:1.0;"/></g><!--link E to UC7--><g id="link_E_UC7"><path d="M113.87,526.4194 C128.06,516.4194 146.27,504.9494 164.05,497.6094 C195.64,484.5694 226.5859,476.9181 257.9659,471.2381 " fill="none" id="E-to-UC7" style="stroke:#181818;stroke-width:1.0;"/><polygon fill="#181818" points="263.87,470.1694,254.3015,467.8363,258.9499,471.0599,255.7264,475.7084,263.87,470.1694" style="stroke:#181818;stroke-width:1.0;"/></g><!--link E to UC8--><g id="link_E_UC8"><path d="M113.89,566.7594 C128.08,576.7494 146.29,588.2194 164.05,595.6094 C194.24,608.1694 223.339,615.741 253.769,621.621 " fill="none" id="E-to-UC8" style="stroke:#181818;stroke-width:1.0;"/><polygon fill="#181818" points="259.66,622.7594,251.5823,617.1245,254.7508,621.8108,250.0646,624.9792,259.66,622.7594" style="stroke:#181818;stroke-width:1.0;"/></g><!--link E to UC9--><g id="link_E_UC9"><path d="M101.61,585.6194 C113.8,613.8294 134.22,650.5594 164.05,671.6094 C191.57,691.0294 221.4259,699.5526 253.1559,703.9126 " fill="none" id="E-to-UC9" style="stroke:#181818;stroke-width:1.0;"/><polygon fill="#181818" points="259.1,704.7294,250.7283,699.5414,254.1465,704.0487,249.6393,707.467,259.1,704.7294" style="stroke:#181818;stroke-width:1.0;"/></g><!--link E to UC10--><g id="link_E_UC10"><path d="M91.82,585.8094 C98.85,630.7294 117.15,703.3294 164.05,743.6094 C186.09,762.5294 209.5803,771.5269 237.7703,776.7469 " fill="none" id="E-to-UC10" style="stroke:#181818;stroke-width:1.0;"/><polygon fill="#181818" points="243.67,777.8394,235.5487,772.2675,238.7536,776.929,234.0921,780.1338,243.67,777.8394" style="stroke:#181818;stroke-width:1.0;"/></g><!--SRC=[ZPBDQkim48NtUeh1cxiARNv8sqtWaWQlxYRGhhfHvOahhYoPaHGeRH_8p-4NwunZN70fr1iFmtVEqMYKR788zrRNf9i6OQyZL7yUadKswcI3XmNyqxMEriCUVIBjbCDJWXI0RFsIeBA4HaYbj4c1uD2qBhmYiDDXR9KOXV2QMUcNO_-8iGq-wcStj8zAbR1utx7kEFwLc6jVCr3Cpb70cmB-SaIZ8yB3VYacXVmNKFQTxpj20j9j6oY1uQJWRDLtnKot6dKhrksPoYwnBgPW_eEvX3tv-xup3hrv4Sk-OrCAPnjbB6mOcfkkHzCrcpxQc3NVA4jRf5EWHdk3ySbN6A6vZ1Nd1flHO2Ch29KzMP5JgBBz5hOTsIspV-La-OnqHNZAabaXvrKeSRyw-itWTaIPTPZtXzJRWJjumjh697UTFSAP7N6EtWreUTc8uwa9KyZqRUZbzG1-RQ7lakP7bY_hADJ7y4OMEs7LOQnMKsyjBsUeDbErdRYRgRgTghkfMbv_0W00]--></g></svg>