<?xml version="1.0" encoding="us-ascii" standalone="no"?><svg xmlns="http://www.w3.org/2000/svg" xmlns:xlink="http://www.w3.org/1999/xlink" contentStyleType="text/css" height="1523px" preserveAspectRatio="none" style="width:574px;height:1523px;background:#FFFFFF;" version="1.1" viewBox="0 0 574 1523" width="574px" zoomAndPan="magnify"><defs/><g><text fill="#000000" font-family="sans-serif" font-size="14" font-weight="bold" lengthAdjust="spacing" textLength="464" x="48" y="24.5332">Diagramme Cas d'Utilisation - Syst&#232;me Microservices E-Commerce</text><!--cluster ProduitMcService--><g id="cluster_ProduitMcService"><rect fill="none" height="174" rx="2.5" ry="2.5" style="stroke:#181818;stroke-width:1.0;" width="233" x="234" y="794.6094"/><text fill="#000000" font-family="sans-serif" font-size="14" font-weight="bold" lengthAdjust="spacing" textLength="126" x="287.5" y="811.1426">ProduitMcService</text></g><!--cluster StockMcService--><g id="cluster_StockMcService"><rect fill="none" height="322" rx="2.5" ry="2.5" style="stroke:#181818;stroke-width:1.0;" width="435" x="133" y="992.6094"/><text fill="#000000" font-family="sans-serif" font-size="14" font-weight="bold" lengthAdjust="spacing" textLength="114" x="293.5" y="1009.1426">StockMcService</text></g><!--cluster RapportMcService--><g id="cluster_RapportMcService"><rect fill="none" height="106" rx="2.5" ry="2.5" style="stroke:#181818;stroke-width:1.0;" width="274" x="213.5" y="664.6094"/><text fill="#000000" font-family="sans-serif" font-size="14" font-weight="bold" lengthAdjust="spacing" textLength="131" x="285" y="681.1426">RapportMcService</text></g><!--cluster PerformancesMcService--><g id="cluster_PerformancesMcService"><rect fill="none" height="112" rx="2.5" ry="2.5" style="stroke:#181818;stroke-width:1.0;" width="308" x="196.5" y="528.6094"/><text fill="#000000" font-family="sans-serif" font-size="14" font-weight="bold" lengthAdjust="spacing" textLength="173" x="264" y="545.1426">PerformancesMcService</text></g><!--cluster VenteMcService--><g id="cluster_VenteMcService"><rect fill="none" height="179" rx="2.5" ry="2.5" style="stroke:#181818;stroke-width:1.0;" width="247" x="227" y="1338.6094"/><text fill="#000000" font-family="sans-serif" font-size="14" font-weight="bold" lengthAdjust="spacing" textLength="116" x="292.5" y="1355.1426">VenteMcService</text></g><!--cluster PanierMcService--><g id="cluster_PanierMcService"><rect fill="none" height="197" rx="2.5" ry="2.5" style="stroke:#181818;stroke-width:1.0;" width="316" x="192.5" y="45.6094"/><text fill="#000000" font-family="sans-serif" font-size="14" font-weight="bold" lengthAdjust="spacing" textLength="120" x="290.5" y="62.1426">PanierMcService</text></g><!--cluster CommandeMcService--><g id="cluster_CommandeMcService"><rect fill="none" height="112" rx="2.5" ry="2.5" style="stroke:#181818;stroke-width:1.0;" width="301" x="200" y="266.6094"/><text fill="#000000" font-family="sans-serif" font-size="14" font-weight="bold" lengthAdjust="spacing" textLength="153" x="274" y="283.1426">CommandeMcService</text></g><!--cluster ClientMcService--><g id="cluster_ClientMcService"><rect fill="none" height="102" rx="2.5" ry="2.5" style="stroke:#181818;stroke-width:1.0;" width="259" x="221" y="402.6094"/><text fill="#000000" font-family="sans-serif" font-size="14" font-weight="bold" lengthAdjust="spacing" textLength="116" x="292.5" y="419.1426">ClientMcService</text></g><g id="elem_UC4"><ellipse cx="350.4659" cy="851.5025" fill="#F1F1F1" rx="89.9659" ry="20.3932" style="stroke:#181818;stroke-width:0.5;"/><text fill="#000000" font-family="sans-serif" font-size="14" lengthAdjust="spacing" textLength="138" x="281.4659" y="855.2311">UC4 - Modifier produit</text></g><g id="elem_UC7"><ellipse cx="350.5042" cy="929.6102" fill="#F1F1F1" rx="100.5042" ry="22.5008" style="stroke:#181818;stroke-width:0.5;"/><text fill="#000000" font-family="sans-serif" font-size="14" lengthAdjust="spacing" textLength="162" x="269.5042" y="933.3387">UC7 - Rechercher produit</text></g><g id="elem_UC2"><ellipse cx="350.2887" cy="1180.3671" fill="#F1F1F1" rx="144.2887" ry="31.2577" style="stroke:#181818;stroke-width:0.5;"/><text fill="#000000" font-family="sans-serif" font-size="14" lengthAdjust="spacing" textLength="185" x="257.7887" y="1175.2909">UC2 - Consulter stock central</text><text fill="#000000" font-family="sans-serif" font-size="14" lengthAdjust="spacing" textLength="209" x="245.7887" y="1192.9003">D&#233;clencher r&#233;approvisionnement</text></g><g id="elem_UC10"><ellipse cx="350.5137" cy="1272.5121" fill="#F1F1F1" rx="115.0137" ry="25.4027" style="stroke:#181818;stroke-width:0.5;"/><text fill="#000000" font-family="sans-serif" font-size="14" lengthAdjust="spacing" textLength="194" x="253.5137" y="1276.2406">UC10 - Consulter &#233;tat du stock</text></g><g id="elem_UC6"><ellipse cx="350.4447" cy="1071.7983" fill="#F1F1F1" rx="201.4447" ry="42.6889" style="stroke:#181818;stroke-width:0.5;"/><text fill="#000000" font-family="sans-serif" font-size="14" lengthAdjust="spacing" textLength="375" x="162.9447" y="1075.5268">UC6 - Approuver/refuser demande de r&#233;approvisionnement</text></g><g id="elem_UC1"><ellipse cx="350.5183" cy="727.713" fill="#F1F1F1" rx="121.0183" ry="26.6037" style="stroke:#181818;stroke-width:0.5;"/><text fill="#000000" font-family="sans-serif" font-size="14" lengthAdjust="spacing" textLength="207" x="247.0183" y="731.4415">UC1 - G&#233;n&#233;rer rapport consolid&#233;</text></g><g id="elem_UC3"><ellipse cx="350.6394" cy="594.6373" fill="#F1F1F1" rx="138.1394" ry="30.0279" style="stroke:#181818;stroke-width:0.5;"/><text fill="#000000" font-family="sans-serif" font-size="14" lengthAdjust="spacing" textLength="192" x="251.6394" y="590.3492">UC3 - Visualiser performances</text><text fill="#000000" font-family="sans-serif" font-size="14" lengthAdjust="spacing" textLength="60" x="317.6394" y="607.9585">magasins</text></g><g id="elem_UC8"><ellipse cx="350.2512" cy="1398.4596" fill="#F1F1F1" rx="107.2512" ry="23.8502" style="stroke:#181818;stroke-width:0.5;"/><text fill="#000000" font-family="sans-serif" font-size="14" lengthAdjust="spacing" textLength="177" x="261.7512" y="1402.1881">UC8 - Enregistrer une vente</text></g><g id="elem_UC9"><ellipse cx="350.313" cy="1479.372" fill="#F1F1F1" rx="94.313" ry="21.2626" style="stroke:#181818;stroke-width:0.5;"/><text fill="#000000" font-family="sans-serif" font-size="14" lengthAdjust="spacing" textLength="148" x="276.313" y="1483.1005">UC9 - G&#233;rer les retours</text></g><g id="elem_UC11"><ellipse cx="350.6476" cy="112.4389" fill="#F1F1F1" rx="142.1476" ry="30.8295" style="stroke:#181818;stroke-width:0.5;"/><text fill="#000000" font-family="sans-serif" font-size="14" lengthAdjust="spacing" textLength="252" x="224.6476" y="116.1674">UC11 - Ajouter/Retirer produit au panier</text></g><g id="elem_UC12"><ellipse cx="350.6128" cy="202.7319" fill="#F1F1F1" rx="108.6128" ry="24.1226" style="stroke:#181818;stroke-width:0.5;"/><text fill="#000000" font-family="sans-serif" font-size="14" lengthAdjust="spacing" textLength="180" x="260.6128" y="206.4605">UC12 - Consulter son panier</text></g><g id="elem_UC13"><ellipse cx="350.5829" cy="332.426" fill="#F1F1F1" rx="134.5829" ry="29.3166" style="stroke:#181818;stroke-width:0.5;"/><text fill="#000000" font-family="sans-serif" font-size="14" lengthAdjust="spacing" textLength="236" x="232.5829" y="336.1545">UC13 - Valider commande (checkout)</text></g><g id="elem_UC14"><ellipse cx="350.6359" cy="463.7366" fill="#F1F1F1" rx="113.6359" ry="25.1272" style="stroke:#181818;stroke-width:0.5;"/><text fill="#000000" font-family="sans-serif" font-size="14" lengthAdjust="spacing" textLength="191" x="255.1359" y="467.4651">UC14 - Cr&#233;er un compte client</text></g><!--entity E--><g id="elem_E"><ellipse cx="47.5" cy="1174.1094" fill="#F1F1F1" rx="8" ry="8" style="stroke:#181818;stroke-width:0.5;"/><path d="M47.5,1182.1094 L47.5,1209.1094 M34.5,1190.1094 L60.5,1190.1094 M47.5,1209.1094 L34.5,1224.1094 M47.5,1209.1094 L60.5,1224.1094 " fill="none" style="stroke:#181818;stroke-width:0.5;"/><text fill="#000000" font-family="sans-serif" font-size="14" lengthAdjust="spacing" textLength="54" x="20.5" y="1240.1426">Employe</text></g><!--entity R--><g id="elem_R"><ellipse cx="47.5" cy="1017.1094" fill="#F1F1F1" rx="8" ry="8" style="stroke:#181818;stroke-width:0.5;"/><path d="M47.5,1025.1094 L47.5,1052.1094 M34.5,1033.1094 L60.5,1033.1094 M47.5,1052.1094 L34.5,1067.1094 M47.5,1052.1094 L60.5,1067.1094 " fill="none" style="stroke:#181818;stroke-width:0.5;"/><text fill="#000000" font-family="sans-serif" font-size="14" lengthAdjust="spacing" textLength="83" x="6" y="1083.1426">Responsable</text></g><!--entity G--><g id="elem_G"><ellipse cx="47.5" cy="697.1094" fill="#F1F1F1" rx="8" ry="8" style="stroke:#181818;stroke-width:0.5;"/><path d="M47.5,705.1094 L47.5,732.1094 M34.5,713.1094 L60.5,713.1094 M47.5,732.1094 L34.5,747.1094 M47.5,732.1094 L60.5,747.1094 " fill="none" style="stroke:#181818;stroke-width:0.5;"/><text fill="#000000" font-family="sans-serif" font-size="14" lengthAdjust="spacing" textLength="81" x="7" y="763.1426">Gestionnaire</text></g><!--entity C--><g id="elem_C"><ellipse cx="47.5" cy="237.1094" fill="#F1F1F1" rx="8" ry="8" style="stroke:#181818;stroke-width:0.5;"/><path d="M47.5,245.1094 L47.5,272.1094 M34.5,253.1094 L60.5,253.1094 M47.5,272.1094 L34.5,287.1094 M47.5,272.1094 L60.5,287.1094 " fill="none" style="stroke:#181818;stroke-width:0.5;"/><text fill="#000000" font-family="sans-serif" font-size="14" lengthAdjust="spacing" textLength="36" x="29.5" y="303.1426">Client</text></g><!--link G to R--><g id="link_G_R"><path d="M47.5,766.8394 C47.5,847.4094 47.5,909.9794 47.5,990.5494 " fill="none" id="G-to-R" style="stroke:#181818;stroke-width:1.0;"/><polygon fill="none" points="47.5,1008.5494,53.5,990.5494,41.5,990.5494,47.5,1008.5494" style="stroke:#181818;stroke-width:1.0;"/></g><!--link R to E--><g id="link_R_E"><path d="M47.5,1086.7094 C47.5,1112.9194 47.5,1121.1394 47.5,1147.3594 " fill="none" id="R-to-E" style="stroke:#181818;stroke-width:1.0;"/><polygon fill="none" points="47.5,1165.3594,53.5,1147.3594,41.5,1147.3594,47.5,1165.3594" style="stroke:#181818;stroke-width:1.0;"/></g><!--link E to UC2--><g id="link_E_UC2"><path d="M74.69,1202.5194 C106.22,1200.0094 155.5889,1196.0652 208.3789,1191.8652 " fill="none" id="E-to-UC2" style="stroke:#181818;stroke-width:1.0;"/><polygon fill="#181818" points="214.36,1191.3894,205.0711,1188.1158,209.3757,1191.7859,205.7056,1196.0906,214.36,1191.3894" style="stroke:#181818;stroke-width:1.0;"/></g><!--link E to UC7--><g id="link_E_UC7"><path d="M64.31,1165.2994 C71.82,1146.6194 80.89,1123.9694 89,1103.6094 C105.09,1063.1994 93.9,1043.0194 125,1012.6094 C163.7,974.7694 215.3063,955.352 262.3863,944.032 " fill="none" id="E-to-UC7" style="stroke:#181818;stroke-width:1.0;"/><polygon fill="#181818" points="268.22,942.6294,258.5343,940.8442,263.3586,943.7983,260.4045,948.6225,268.22,942.6294" style="stroke:#181818;stroke-width:1.0;"/></g><!--link E to UC8--><g id="link_E_UC8"><path d="M67.89,1243.7694 C81.17,1267.1094 100.75,1295.7694 125,1314.6094 C168.13,1348.1194 220.2656,1367.7555 266.4656,1380.4855 " fill="none" id="E-to-UC8" style="stroke:#181818;stroke-width:1.0;"/><polygon fill="#181818" points="272.25,1382.0794,264.6359,1375.8323,267.4296,1380.7512,262.5108,1383.5449,272.25,1382.0794" style="stroke:#181818;stroke-width:1.0;"/></g><!--link E to UC9--><g id="link_E_UC9"><path d="M49.41,1243.8894 C52.89,1296.9594 67.42,1390.6494 125,1440.6094 C161.23,1472.0494 207.5075,1482.1497 252.4975,1484.3997 " fill="none" id="E-to-UC9" style="stroke:#181818;stroke-width:1.0;"/><polygon fill="#181818" points="258.49,1484.6994,249.701,1480.2548,253.4962,1484.4496,249.3014,1488.2448,258.49,1484.6994" style="stroke:#181818;stroke-width:1.0;"/></g><!--link E to UC10--><g id="link_E_UC10"><path d="M74.81,1214.1194 C89.45,1219.1794 108.09,1225.2494 125,1229.6094 C168.04,1240.7194 210.4842,1249.2705 251.2542,1256.5805 " fill="none" id="E-to-UC10" style="stroke:#181818;stroke-width:1.0;"/><polygon fill="#181818" points="257.16,1257.6394,249.0072,1252.1138,252.2385,1256.757,247.5953,1259.9882,257.16,1257.6394" style="stroke:#181818;stroke-width:1.0;"/></g><!--link R to UC4--><g id="link_R_UC4"><path d="M56.62,1008.5794 C66.37,971.9194 86.49,918.5094 125,889.6094 C163.73,860.5394 210.8091,850.9195 255.6291,848.4495 " fill="none" id="R-to-UC4" style="stroke:#181818;stroke-width:1.0;"/><polygon fill="#181818" points="261.62,848.1194,252.4135,844.6207,256.6276,848.3945,252.8537,852.6085,261.62,848.1194" style="stroke:#181818;stroke-width:1.0;"/></g><!--link R to UC6--><g id="link_R_UC6"><path d="M89.09,1050.8494 C108.99,1052.4294 128.5489,1053.9934 155.8189,1056.1634 " fill="none" id="R-to-UC6" style="stroke:#181818;stroke-width:1.0;"/><polygon fill="#181818" points="161.8,1056.6394,153.1457,1051.9381,156.8158,1056.2428,152.5111,1059.9129,161.8,1056.6394" style="stroke:#181818;stroke-width:1.0;"/></g><!--link G to UC1--><g id="link_G_UC1"><path d="M88.16,727.6094 C124.16,727.6094 173.14,727.6094 223.4,727.6094 " fill="none" id="G-to-UC1" style="stroke:#181818;stroke-width:1.0;"/><polygon fill="#181818" points="229.4,727.6094,220.4,723.6094,224.4,727.6094,220.4,731.6094,229.4,727.6094" style="stroke:#181818;stroke-width:1.0;"/></g><!--link G to UC3--><g id="link_G_UC3"><path d="M88.08,704.0694 C99.8,697.4494 112.77,690.4694 125,684.6094 C175.37,660.4894 228.3863,639.2575 273.0963,622.3875 " fill="none" id="G-to-UC3" style="stroke:#181818;stroke-width:1.0;"/><polygon fill="#181818" points="278.71,620.2694,268.8774,619.7042,274.0319,622.0345,271.7016,627.1891,278.71,620.2694" style="stroke:#181818;stroke-width:1.0;"/></g><!--link C to UC11--><g id="link_C_UC11"><path d="M65.62,231.1194 C78.62,207.4194 98.74,177.8294 125,160.6094 C152.58,142.5294 179.9321,132.4175 212.2421,125.2575 " fill="none" id="C-to-UC11" style="stroke:#181818;stroke-width:1.0;"/><polygon fill="#181818" points="218.1,123.9594,208.4477,122.0013,213.2184,125.0411,210.1786,129.8118,218.1,123.9594" style="stroke:#181818;stroke-width:1.0;"/></g><!--link C to UC12--><g id="link_C_UC12"><path d="M65.55,263.9294 C104.53,255.5094 196.3751,235.6757 266.2651,220.5857 " fill="none" id="C-to-UC12" style="stroke:#181818;stroke-width:1.0;"/><polygon fill="#181818" points="272.13,219.3194,262.4885,217.3089,267.2426,220.3746,264.1769,225.1287,272.13,219.3194" style="stroke:#181818;stroke-width:1.0;"/></g><!--link C to UC13--><g id="link_C_UC13"><path d="M65.55,271.2894 C101.24,278.9994 180.2753,296.0624 247.9953,310.6924 " fill="none" id="C-to-UC13" style="stroke:#181818;stroke-width:1.0;"/><polygon fill="#181818" points="253.86,311.9594,245.9076,306.1491,248.9727,310.9035,244.2183,313.9687,253.86,311.9594" style="stroke:#181818;stroke-width:1.0;"/></g><!--link C to UC14--><g id="link_C_UC14"><path d="M65.5,302.8794 C78.75,327.0994 99.21,358.3994 125,378.6094 C167.24,411.7094 217.9983,431.37 263.7683,444.37 " fill="none" id="C-to-UC14" style="stroke:#181818;stroke-width:1.0;"/><polygon fill="#181818" points="269.54,446.0094,261.9753,439.7026,264.7302,444.6433,259.7896,447.3982,269.54,446.0094" style="stroke:#181818;stroke-width:1.0;"/></g><!--SRC=[VLJDRk8m4BxxAKPSkdj0RG1Hk5H2AUA4X8BQKo-kCu2NO4UsWuHsztqspv4Nst7-IBFQv9BHUBxlcndFs4cN8BnAVZJySa48kONuuSt9H5hkf5OmXltDkk8F7MwbCDgYkKg15jRZK1F426GimOC3fy78uyb1B0qA3sRsB5NAYHfIBixyY7jt8pr_pDKn8IGNJXjONz94tn18VLsx8hIfLfP_9gKxgjqRj9vPSTBm_atj3nE9odbFoDW6nhzU21AL_pLZjJgCTaR7cNHRiQ_A6C5F1lHb5WMt26_Xp7EC_7yCMntBWqG3QGKRzMAVwzXdYerGdAWPfsxqxuxotcbn7j2Tr5mJuWgfy2nnH6Kz2WILPdZoeLwBN2IeIXLJv3mbgQkqlY5ueQ1-Wi5JpKf6bxR87QTxoYh-FcfUW-Q4MNc9x8hcqU21GWp4UE4gHlh_9uLkrH6TQpFKxw39aCGsHQwAtFZYAXm8IbadCYxohxmxD0TjA16Qn07oQKq-9V9tQJDEO-qlg8F-K1T-v5Og-rNXdMh10Uf5JRqWwhKoU9JM-SmpXN3rs7vNbpLWMHNgOnDQ8uDEPwOdlkEAncweQstRVDzMFtH6r_eOePFcFe30Czexp_JFN3JJ5lJ6ZHQ-GNJpyPlkBtqeewRNGTbiwdHCXA86mZUQMN6cDB_tcCkz7U9j5ZBm6ndIo9LDziofGn0blkHyW9MrMiZotRAChM4yVl6RrLhFhRLehMLh1K_ClnYbFMkjUVcSL06jDMKiR9p1tPpSpUdTdB6_]--></g></svg>